<svg width="31" height="31" viewBox="0 0 31 31" fill="none" xmlns="http://www.w3.org/2000/svg">
<g clip-path="url(#clip0_2029_13094)">
<path d="M15.5005 19.6334C17.7833 19.6334 19.6339 17.7828 19.6339 15.5C19.6339 13.2173 17.7833 11.3667 15.5005 11.3667C13.2177 11.3667 11.3672 13.2173 11.3672 15.5C11.3672 17.7828 13.2177 19.6334 15.5005 19.6334Z" fill="#7453C6"/>
<path d="M11.6257 2.58337L9.2619 5.16671H5.16732C3.74648 5.16671 2.58398 6.32921 2.58398 7.75004V23.25C2.58398 24.6709 3.74648 25.8334 5.16732 25.8334H25.834C27.2548 25.8334 28.4173 24.6709 28.4173 23.25V7.75004C28.4173 6.32921 27.2548 5.16671 25.834 5.16671H21.7394L19.3757 2.58337H11.6257ZM15.5007 21.9584C11.9357 21.9584 9.04232 19.065 9.04232 15.5C9.04232 11.935 11.9357 9.04171 15.5007 9.04171C19.0657 9.04171 21.959 11.935 21.959 15.5C21.959 19.065 19.0657 21.9584 15.5007 21.9584Z" fill="#7453C6"/>
</g>
<defs>
<clipPath id="clip0_2029_13094">
<rect width="31" height="31" fill="white"/>
</clipPath>
</defs>
</svg>
