<svg width="38" height="39" viewBox="0 0 38 39" fill="none" xmlns="http://www.w3.org/2000/svg">
<g clip-path="url(#clip0_1440_16221)">
<path d="M29.066 9.40459C27.2546 7.33984 23.366 6.07324 18.654 6.07324C13.942 6.07324 10.0535 7.33984 8.24197 9.40459C5.25268 12.8753 5.25268 22.0711 8.24197 25.5421C8.84612 26.1889 9.55227 26.7322 10.332 27.1508L10.7499 29.6842C10.8905 30.5343 11.4535 31.2549 12.2447 31.5966C12.5611 31.7315 12.9014 31.8004 13.2454 31.7994C13.7431 31.814 14.2333 31.677 14.6513 31.4066L18.4513 28.8732C22.1247 28.8732 26.9253 28.0498 29.0913 25.5546C32.0554 22.0714 32.0554 12.8751 29.066 9.40459H29.066ZM27.1405 23.8826C25.8739 25.3773 22.4032 26.416 18.4385 26.3273L18.4387 26.3271C17.9374 26.3134 17.4448 26.4599 17.0326 26.7451L13.2326 29.2785L12.8147 26.7451C12.7029 25.9654 12.2347 25.2817 11.5481 24.8958C11.0447 24.6445 10.59 24.3057 10.2054 23.8951C8.02671 21.3617 8.02671 13.5971 10.2054 11.0766C11.434 9.59477 14.854 8.60661 18.6538 8.60661C22.4537 8.60661 25.8738 9.59455 27.1403 11.0639C29.319 13.5848 29.319 21.3619 27.1403 23.8829L27.1405 23.8826Z" fill="#9A9A9A"/>
</g>
<defs>
<clipPath id="clip0_1440_16221">
<rect width="38" height="38" fill="white" transform="translate(0 0.0732422)"/>
</clipPath>
</defs>
</svg>
