<svg width="27" height="26" viewBox="0 0 27 26" fill="none" xmlns="http://www.w3.org/2000/svg">
<path d="M22.0019 7.00049H10.0035C8.34687 7.00049 7.00391 8.3436 7.00391 10.0004V22.0001C7.00391 23.6569 8.34687 25 10.0035 25H22.0019C23.6585 25 25.0015 23.6569 25.0015 22.0001V10.0004C25.0015 8.3436 23.6585 7.00049 22.0019 7.00049Z" stroke="#7453C6" stroke-width="2" stroke-linecap="round" stroke-linejoin="round"/>
<path d="M18.9976 6.99983V3.99992C18.9976 3.20429 18.6815 2.44125 18.119 1.87866C17.5565 1.31606 16.7935 1 15.998 1H3.9996C3.20405 1 2.44109 1.31606 1.87856 1.87866C1.31603 2.44125 1 3.20429 1 3.99992V15.9996C1 16.7952 1.31603 17.5583 1.87856 18.1208C2.44109 18.6834 3.20405 18.9995 3.9996 18.9995H6.99919" stroke="#7453C6" stroke-width="2" stroke-linecap="round" stroke-linejoin="round"/>
</svg>
