<svg width="20" height="19" viewBox="0 0 20 19" fill="none" xmlns="http://www.w3.org/2000/svg">
<path d="M10.0254 18.4818C10.6573 18.4818 11.2498 18.263 11.8027 17.8255C12.3617 17.388 12.8509 16.7743 13.2702 15.9844C13.6955 15.1945 14.0267 14.2678 14.2636 13.2045C14.5067 12.135 14.6282 10.9714 14.6282 9.71355C14.6282 8.45573 14.5097 7.2921 14.2728 6.22266C14.0358 5.14714 13.7046 4.21441 13.2793 3.42448C12.86 2.62848 12.3709 2.01172 11.8118 1.57422C11.2589 1.13672 10.6634 0.917969 10.0254 0.917969C9.38737 0.917969 8.78884 1.13672 8.22981 1.57422C7.67686 2.01172 7.19075 2.62848 6.77148 3.42448C6.35221 4.21441 6.02105 5.14714 5.77799 6.22266C5.54101 7.2921 5.42252 8.45573 5.42252 9.71355C5.42252 10.9714 5.54101 12.135 5.77799 13.2045C6.02105 14.2678 6.35221 15.1945 6.77148 15.9844C7.19683 16.7743 7.68598 17.388 8.23893 17.8255C8.79796 18.263 9.39344 18.4818 10.0254 18.4818ZM10.0254 2.02084C10.4689 2.02084 10.8943 2.22743 11.3014 2.64063C11.7085 3.04775 12.0701 3.60677 12.386 4.31771C12.702 5.02865 12.9511 5.84896 13.1334 6.77865C13.3157 7.70226 13.4069 8.68056 13.4069 9.71355C13.4069 10.7344 13.3157 11.7036 13.1334 12.6211C12.9511 13.5387 12.702 14.3559 12.386 15.0729C12.0701 15.7839 11.7085 16.3429 11.3014 16.75C10.8943 17.1632 10.4689 17.3698 10.0254 17.3698C9.58181 17.3698 9.15646 17.1632 8.74935 16.75C8.34223 16.3429 7.98068 15.7839 7.66471 15.0729C7.34874 14.3559 7.09961 13.5387 6.91731 12.6211C6.73502 11.7036 6.64388 10.7344 6.64388 9.71355C6.64388 8.68056 6.73502 7.70226 6.91731 6.77865C7.09961 5.84896 7.34874 5.02865 7.66471 4.31771C7.98068 3.60677 8.34223 3.04775 8.74935 2.64063C9.15646 2.22743 9.58181 2.02084 10.0254 2.02084ZM9.43294 1.04558V18.3086H10.6269V1.04558H9.43294ZM10.0254 13.1224C9.08962 13.1224 8.20247 13.2014 7.36393 13.3594C6.52539 13.5113 5.76888 13.7331 5.0944 14.0248C4.426 14.3104 3.87912 14.6476 3.45377 15.0365L4.37435 15.793C4.77539 15.477 5.25542 15.2097 5.81445 14.9909C6.37955 14.7661 7.01454 14.599 7.7194 14.4896C8.43034 14.3742 9.199 14.3164 10.0254 14.3164C10.8518 14.3164 11.6174 14.3742 12.3222 14.4896C13.0332 14.599 13.6682 14.7661 14.2272 14.9909C14.7923 15.2097 15.2754 15.477 15.6764 15.793L16.597 15.0365C16.1716 14.6476 15.6217 14.3104 14.9472 14.0248C14.2788 13.7331 13.5254 13.5113 12.6868 13.3594C11.8483 13.2014 10.9611 13.1224 10.0254 13.1224ZM18.4381 9.09375H1.61263V10.2878H18.4381V9.09375ZM10.0254 6.31381C10.9611 6.31381 11.8483 6.23785 12.6868 6.08594C13.5254 5.92796 14.2788 5.70617 14.9472 5.42058C15.6217 5.12891 16.1716 4.78863 16.597 4.39974L15.6764 3.64323C15.2754 3.95921 14.7923 4.2296 14.2272 4.45443C13.6682 4.67318 13.0332 4.84028 12.3222 4.95573C11.6174 5.06511 10.8518 5.1198 10.0254 5.1198C9.199 5.1198 8.43034 5.06511 7.7194 4.95573C7.01454 4.84028 6.37955 4.67318 5.81445 4.45443C5.25542 4.2296 4.77539 3.95921 4.37435 3.64323L3.45377 4.39974C3.87912 4.78863 4.426 5.12891 5.0944 5.42058C5.76888 5.70617 6.52539 5.92796 7.36393 6.08594C8.20247 6.23785 9.08962 6.31381 10.0254 6.31381ZM10.0254 18.9922C11.2953 18.9922 12.4893 18.7492 13.6074 18.263C14.7315 17.7769 15.722 17.1055 16.5788 16.2487C17.4355 15.392 18.107 14.4045 18.5931 13.2865C19.0792 12.1624 19.3222 10.9653 19.3222 9.69532C19.3222 8.42535 19.0792 7.23134 18.5931 6.11329C18.107 4.98915 17.4355 3.9987 16.5788 3.14193C15.722 2.28516 14.7315 1.61372 13.6074 1.12761C12.4833 0.641493 11.2862 0.398438 10.0163 0.398438C8.74631 0.398438 7.54926 0.641493 6.42513 1.12761C5.30707 1.61372 4.31966 2.28516 3.46289 3.14193C2.61219 3.9987 1.94379 4.98915 1.45768 6.11329C0.971572 7.23134 0.728516 8.42535 0.728516 9.69532C0.728516 10.9653 0.971572 12.1624 1.45768 13.2865C1.94379 14.4045 2.61523 15.392 3.472 16.2487C4.32877 17.1055 5.31619 17.7769 6.43424 18.263C7.55837 18.7492 8.75542 18.9922 10.0254 18.9922ZM10.0254 17.7526C8.92556 17.7526 7.88954 17.54 6.91731 17.1146C5.94509 16.6953 5.08832 16.115 4.347 15.3737C3.60568 14.6324 3.02235 13.7756 2.597 12.8034C2.17773 11.8312 1.9681 10.7952 1.9681 9.69532C1.9681 8.59549 2.17773 7.55947 2.597 6.58724C3.02235 5.61502 3.60264 4.75825 4.33789 4.01693C5.07921 3.27561 5.93598 2.69532 6.9082 2.27605C7.88042 1.8507 8.91645 1.63802 10.0163 1.63802C11.1161 1.63802 12.1521 1.8507 13.1243 2.27605C14.0965 2.69532 14.9533 3.27561 15.6946 4.01693C16.442 4.75825 17.0254 5.61502 17.4446 6.58724C17.87 7.55947 18.0827 8.59549 18.0827 9.69532C18.0827 10.7952 17.87 11.8312 17.4446 12.8034C17.0254 13.7756 16.4451 14.6324 15.7038 15.3737C14.9624 16.115 14.1057 16.6953 13.1334 17.1146C12.1612 17.54 11.1252 17.7526 10.0254 17.7526Z" fill="#5032AD"/>
</svg>
