<svg width="26" height="26" viewBox="0 0 26 26" fill="none" xmlns="http://www.w3.org/2000/svg">
<g clip-path="url(#clip0_1595_15397)">
<mask id="mask0_1595_15397" style="mask-type:luminance" maskUnits="userSpaceOnUse" x="-6" y="-6" width="39" height="39">
<rect opacity="0.2" x="-6" y="-6" width="39" height="39" rx="5" fill="white"/>
<path d="M25.4523 0.291016H0.291016V25.4523H25.4523V0.291016Z" fill="white"/>
</mask>
<g mask="url(#mask0_1595_15397)">
<path d="M8.53639 23.3564C8.00615 23.3549 7.49604 23.1532 7.10821 22.7916C6.72038 22.43 6.48345 21.9353 6.44486 21.4064L5.53276 8.67899H7.62954L8.38437 19.1629H17.3586L18.1134 8.67899H20.2102L19.3191 21.4064C19.2805 21.9353 19.0435 22.43 18.6557 22.7916C18.2679 23.1532 17.7578 23.3549 17.2275 23.3564H8.53639ZM20.7344 6.58222H5.00857C4.86954 6.58222 4.73621 6.52699 4.63791 6.42869C4.5396 6.33038 4.48438 6.19705 4.48438 6.05803V5.00964C4.48438 4.87061 4.5396 4.73728 4.63791 4.63898C4.73621 4.54067 4.86954 4.48545 5.00857 4.48545H9.72631V3.43706C9.72631 3.15901 9.83677 2.89235 10.0334 2.69574C10.23 2.49913 10.4966 2.38867 10.7747 2.38867H14.9682C15.2463 2.38867 15.513 2.49913 15.7096 2.69574C15.9062 2.89235 16.0166 3.15901 16.0166 3.43706V4.48545H20.7344C20.8734 4.48545 21.0067 4.54067 21.105 4.63898C21.2033 4.73728 21.2586 4.87061 21.2586 5.00964V6.05803C21.2586 6.19705 21.2033 6.33038 21.105 6.42869C21.0067 6.52699 20.8734 6.58222 20.7344 6.58222Z" fill="#F23859"/>
</g>
</g>
<defs>
<clipPath id="clip0_1595_15397">
<rect width="25.1613" height="25.1613" fill="white" transform="translate(0.291016 0.291016)"/>
</clipPath>
</defs>
</svg>
