<svg width="24" height="25" viewBox="0 0 24 25" fill="none" xmlns="http://www.w3.org/2000/svg">
<g clip-path="url(#clip0_1556_8760)">
<mask id="mask0_1556_8760" style="mask-type:luminance" maskUnits="userSpaceOnUse" x="0" y="0" width="24" height="25">
<path d="M24 0.0732422H0V24.0732H24V0.0732422Z" fill="white"/>
</mask>
<g mask="url(#mask0_1556_8760)">
<path d="M7.86402 22.0732C7.35825 22.0718 6.87169 21.8794 6.50176 21.5345C6.13183 21.1896 5.90583 20.7177 5.86902 20.2132L4.99902 8.07324H6.99902L7.71902 18.0732H16.279L16.999 8.07324H18.999L18.149 20.2132C18.1122 20.7177 17.8862 21.1896 17.5163 21.5345C17.1464 21.8794 16.6598 22.0718 16.154 22.0732H7.86402ZM19.499 6.07324H4.49902C4.36642 6.07324 4.23924 6.02056 4.14547 5.9268C4.0517 5.83303 3.99902 5.70585 3.99902 5.57324V4.57324C3.99902 4.44063 4.0517 4.31346 4.14547 4.21969C4.23924 4.12592 4.36642 4.07324 4.49902 4.07324H8.99902V3.07324C8.99902 2.80803 9.10438 2.55367 9.29192 2.36614C9.47945 2.1786 9.73381 2.07324 9.99902 2.07324H13.999C14.2642 2.07324 14.5186 2.1786 14.7061 2.36614C14.8937 2.55367 14.999 2.80803 14.999 3.07324V4.07324H19.499C19.6316 4.07324 19.7588 4.12592 19.8526 4.21969C19.9463 4.31346 19.999 4.44063 19.999 4.57324V5.57324C19.999 5.70585 19.9463 5.83303 19.8526 5.9268C19.7588 6.02056 19.6316 6.07324 19.499 6.07324Z" fill="#D50E31"/>
</g>
</g>
<defs>
<clipPath id="clip0_1556_8760">
<rect width="24" height="24" fill="white" transform="translate(0 0.0732422)"/>
</clipPath>
</defs>
</svg>
