<svg width="54" height="54" viewBox="0 0 54 54" fill="none" xmlns="http://www.w3.org/2000/svg">
<path d="M50.478 16.9113H47.3087V2.17752C47.3087 1.59986 47.1228 1.04598 46.7928 0.637914C46.4624 0.229353 46.0145 0 45.5477 0H1.76096C1.29421 0 0.846293 0.22934 0.51588 0.637914C0.185886 1.04597 0 1.59985 0 2.17752V39.9918C0 40.5694 0.185875 41.1233 0.51588 41.5319C0.846282 41.94 1.2942 42.1693 1.76096 42.1693H17.1978V49.5002H13.1478V53.8552L34.1607 53.8547V49.5002H30.1106V42.2422H35.5106V49.645C35.5106 50.8003 35.8815 51.9075 36.5423 52.7247C37.2027 53.5413 38.0986 54 39.0325 54H50.4781C51.412 54 52.3078 53.5413 52.9682 52.7247C53.6286 51.9076 54 50.8003 54 49.645V21.2661C54 20.1108 53.6286 19.003 52.9682 18.1864C52.3078 17.3698 51.412 16.9111 50.4781 16.9111L50.478 16.9113ZM35.5107 21.2664V31.8628H3.5217V4.28235H43.7867V16.9114H39.0325C38.0986 16.9114 37.2028 17.3701 36.5424 18.1867C35.8815 19.0034 35.5106 20.1111 35.5106 21.2665L35.5107 21.2664ZM50.478 42.9678H39.0324V27.0002H50.478V42.9678Z" fill="#7453C6"/>
</svg>
