<svg width="24" height="25" viewBox="0 0 24 25" fill="none" xmlns="http://www.w3.org/2000/svg">
<path d="M16 2.07324H8C4 2.07324 2 4.07324 2 8.07324V21.0732C2 21.6232 2.45 22.0732 3 22.0732H16C20 22.0732 22 20.0732 22 16.0732V8.07324C22 4.07324 20 2.07324 16 2.07324Z" stroke="#292D32" stroke-width="1.5" stroke-linecap="round" stroke-linejoin="round"/>
<path d="M12.91 7.91339L7.72004 13.1034C7.52004 13.3034 7.33004 13.6934 7.29004 13.9734L7.01004 15.9534C6.91004 16.6734 7.41004 17.1734 8.13004 17.0734L10.11 16.7934C10.39 16.7534 10.78 16.5634 10.98 16.3634L16.17 11.1734C17.06 10.2834 17.49 9.24339 16.17 7.92339C14.85 6.59339 13.81 7.01339 12.91 7.91339Z" stroke="#292D32" stroke-width="1.5" stroke-miterlimit="10" stroke-linecap="round" stroke-linejoin="round"/>
<path d="M12.1699 8.65332C12.6099 10.2233 13.8399 11.4633 15.4199 11.9033" stroke="#292D32" stroke-width="1.5" stroke-miterlimit="10" stroke-linecap="round" stroke-linejoin="round"/>
</svg>
