<svg width="50" height="58" viewBox="0 0 50 58" fill="none" xmlns="http://www.w3.org/2000/svg">
<path d="M5.89302 41.6035C5.89302 41.9472 5.87804 42.2421 5.84737 42.4878C5.81671 42.7333 5.74929 42.9383 5.64505 43.1003C5.54083 43.2623 5.38619 43.3809 5.18182 43.4556C4.97746 43.5298 4.69681 43.5718 4.33984 43.5806V45.2794C4.99245 45.2702 5.52992 45.2003 5.95228 45.071C6.37463 44.9408 6.70503 44.7295 6.94414 44.4373C7.18325 44.1452 7.35082 43.7666 7.44687 43.3023C7.54224 42.8381 7.59061 42.272 7.59061 41.6035V37.4536H5.89371V41.6035H5.89302Z" fill="#5032AD"/>
<path d="M12.2892 33.6943L9.15625 34.1682V34.836L12.2892 34.3766V33.6943Z" fill="#5032AD"/>
<path d="M40.396 34.9056C40.6834 34.9056 40.9313 34.7988 41.1398 34.5851C41.349 34.3717 41.4531 34.1071 41.4531 33.7917C41.4531 33.4764 41.349 33.2205 41.1398 32.9983C40.9306 32.7759 40.6827 32.6641 40.396 32.6641C40.1092 32.6641 39.8632 32.7752 39.6581 32.9983C39.4539 33.2213 39.3516 33.4859 39.3516 33.7917C39.3516 34.0976 39.4539 34.3724 39.6581 34.5851C39.8625 34.7988 40.1085 34.9056 40.396 34.9056ZM40.024 33.3738C40.1329 33.2627 40.2611 33.2067 40.4089 33.2067C40.5567 33.2067 40.6848 33.2627 40.7937 33.3738C40.9028 33.4851 40.9572 33.6202 40.9572 33.7779C40.9572 33.9356 40.9028 34.0729 40.7937 34.1885C40.6848 34.3047 40.5567 34.3629 40.4089 34.3629C40.2611 34.3629 40.1329 34.3047 40.024 34.1885C39.915 34.0721 39.8605 33.9356 39.8605 33.7779C39.8605 33.6202 39.915 33.4859 40.024 33.3738Z" fill="#5032AD"/>
<path d="M43.2031 37.9138C42.9157 37.4959 42.5396 37.1617 42.0736 36.9109C41.6077 36.6603 41.0354 36.5354 40.357 36.5354C39.9912 36.5354 39.6369 36.5767 39.2928 36.6603C38.9488 36.7438 38.6771 36.8231 38.4767 36.8973V38.5125C38.7812 38.4196 39.0838 38.3526 39.3842 38.3104C39.6846 38.2684 39.9039 38.2481 40.0437 38.2481C40.4612 38.2481 40.8093 38.3104 41.0879 38.4363C41.3665 38.5612 41.5947 38.7356 41.7732 38.9586C41.9517 39.1817 42.0846 39.4485 42.1717 39.7594C42.259 40.0704 42.3154 40.4119 42.3413 40.7833H14.4823C14.3862 40.7833 14.295 40.7578 14.2084 40.7069C14.1212 40.6562 14.028 40.5703 13.9277 40.449C13.8277 40.3283 13.7165 40.1655 13.5946 39.9615C13.4727 39.7573 13.329 39.5065 13.1641 39.2093L11.5973 36.3828L10.0435 37.4406L11.2315 39.3204C11.4577 39.6641 11.6123 39.9098 11.6947 40.0588C11.7772 40.2077 11.8187 40.3326 11.8187 40.4345C11.8187 40.5274 11.7684 40.6089 11.6689 40.6778C11.5687 40.7476 11.4141 40.7825 11.2056 40.7825H8.62109V42.3839H10.8929C11.2322 42.3839 11.5476 42.3448 11.8391 42.2655C12.1307 42.1872 12.4026 41.9939 12.6552 41.6878C12.7771 41.8085 12.8944 41.9131 13.0075 42.0011C13.1205 42.0897 13.2424 42.161 13.3733 42.2168C13.5041 42.2728 13.658 42.3143 13.8365 42.3419C14.015 42.3694 14.2302 42.3832 14.483 42.3832H44.0131V41.0884C44.0131 40.4947 43.9497 39.9215 43.8237 39.3685C43.6977 38.8162 43.4906 38.3308 43.2038 37.9131L43.2031 37.9138Z" fill="#5032AD"/>
<path d="M40.6452 43.7065C40.3925 43.7065 40.1751 43.804 39.9925 43.9988C39.81 44.1934 39.7188 44.4252 39.7188 44.6947C39.7188 44.9644 39.81 45.1963 39.9925 45.3909C40.1751 45.5856 40.3925 45.6831 40.6452 45.6831C40.898 45.6831 41.1152 45.5856 41.2978 45.3909C41.4804 45.1963 41.5716 44.9637 41.5716 44.6947C41.5716 44.4259 41.4804 44.1934 41.2978 43.9988C41.1152 43.804 40.8973 43.7065 40.6452 43.7065Z" fill="#5032AD"/>
<path d="M44.668 27.3443V28.0128L47.801 27.5534V26.8711L44.668 27.3443Z" fill="#5032AD"/>
<path d="M47.1461 32.4409H45.4492V42.3833H47.1461V32.4409Z" fill="#5032AD"/>
<path d="M46.4226 30.4987C46.3498 30.4108 46.313 30.3017 46.313 30.1717C46.313 30.0511 46.3498 29.9486 46.424 29.8651C46.4976 29.7815 46.6175 29.7402 46.783 29.7402C46.8785 29.7402 47.0399 29.7676 47.266 29.8236V28.9044C47.1789 28.8675 47.0786 28.8347 46.9656 28.8071C46.8526 28.7794 46.7259 28.7656 46.5868 28.7656C46.439 28.7656 46.2932 28.7933 46.1495 28.8493C46.0058 28.9051 45.8777 28.9866 45.7647 29.0926C45.6515 29.1995 45.5623 29.3339 45.4969 29.4967C45.4316 29.6594 45.3988 29.8469 45.3988 30.0606C45.3988 30.1346 45.4077 30.2328 45.4248 30.3526C45.4418 30.4732 45.4723 30.5663 45.516 30.6309H44.9805V31.6054H47.5263V30.6309H46.8417C46.6345 30.6309 46.4949 30.5867 46.4219 30.4987H46.4226Z" fill="#5032AD"/>
<path d="M1.21149 13.3827C1.22716 13.4125 1.24282 13.4379 1.25986 13.4663C1.35047 13.6036 1.47717 13.722 1.64202 13.8056C2.4847 14.2263 3.62914 14.817 5.06514 15.4862C5.06309 15.4268 5.05968 15.3657 5.05832 15.3046C5.04606 14.9899 5.03721 14.647 5.0338 14.2779C5.03176 14.089 5.0338 13.9349 5.0338 13.8296V13.8274C4.94865 13.7867 4.86351 13.7438 4.78039 13.7017H4.77835C4.71568 13.6704 4.65164 13.6385 4.58761 13.6072C4.03174 13.3297 3.47587 13.0514 2.92748 12.7476C2.8144 12.6844 2.702 12.6219 2.59028 12.5565C2.74491 12.603 2.89956 12.6532 3.05214 12.7026C3.60938 12.8857 4.15708 13.0935 4.7041 13.3049C4.97182 13.4052 5.23068 13.5128 5.4875 13.6239H5.48953V13.6218C5.91326 13.7925 6.34583 13.9684 6.77977 14.1631C6.79544 14.1704 6.81247 14.1776 6.82814 14.1856H6.83017C7.1844 14.3469 7.54068 14.5003 7.89628 14.6674V14.6696C8.20555 14.8156 8.51482 14.9603 8.81865 15.1122C9.0741 15.2378 9.32751 15.3642 9.58093 15.4935V15.4957C9.99579 15.7072 10.4079 15.9274 10.8139 16.1627C10.3902 16.0312 9.97534 15.8852 9.56185 15.7326C9.27369 15.6273 8.98895 15.5175 8.70215 15.4086C8.29887 15.2567 7.90172 15.0954 7.50185 14.9268C7.50185 14.9268 7.3731 15.9216 7.35606 16.3364C7.35404 16.3938 7.35267 16.4499 7.35063 16.5028C8.01071 16.7805 8.71238 17.0645 9.45763 17.3493C12.69 18.5817 16.7092 19.817 21.4661 20.6323C21.8707 20.6715 22.2754 20.7494 22.642 20.7899C22.9369 20.7899 23.2673 20.8292 23.5623 20.8292H23.7462C23.7755 20.8314 23.8067 20.8314 23.8367 20.8314C23.8436 20.7979 23.849 20.7667 23.8524 20.7334C23.8974 20.4237 23.9322 20.0923 23.9477 19.7421C23.9723 19.1973 23.9498 18.6879 23.8995 18.2191C23.8422 17.7061 23.7517 17.2425 23.6494 16.837H23.535C23.3749 16.837 23.2066 16.8277 23.0383 16.8168C22.8939 16.8074 22.7502 16.7986 22.6161 16.7986L22.552 16.795C22.3748 16.7768 22.1888 16.7485 21.9996 16.7208C21.7965 16.691 21.588 16.6599 21.3811 16.6395L21.3374 16.6337C18.5321 16.1542 15.9789 15.5277 13.6901 14.8403C10.4733 13.8768 7.78115 12.7948 5.64145 11.8313H5.63941C5.45208 11.7478 5.26746 11.6649 5.08897 11.5814C4.90642 11.4978 4.72794 11.415 4.55423 11.3329C4.40844 11.2646 4.26403 11.1955 4.12506 11.1294C4.09032 11.1149 4.05762 11.0982 4.02424 11.0815C3.18703 10.6811 2.46835 10.32 1.87023 10.0177L1.34229 9.751C1.25713 9.70811 1.17743 9.65871 1.1025 9.60059L1.10045 12.3407V12.8334C1.08683 13.0223 1.12294 13.2134 1.21012 13.3834L1.21149 13.3827Z" fill="#3FDBB1"/>
<path d="M24.5768 22.0774H24.5748C24.3437 22.081 24.1095 22.0796 23.8676 22.0716V22.0694L23.7791 22.0672L23.5651 22.065H23.4785C23.1836 22.065 22.8532 22.0259 22.5596 22.0259C22.1912 21.9867 21.7865 21.9088 21.3819 21.8705C16.6419 21.0587 12.6329 19.8286 9.40943 18.6006C9.39035 19.3416 9.38491 20.1083 9.39717 20.8981C9.42169 22.4509 9.47551 22.0041 9.60358 23.3513C9.60358 24.5277 10.0709 25.5915 10.9272 26.3282C11.6602 26.9583 12.541 27.3217 13.3898 27.7292C14.3367 28.1813 15.2986 28.5983 16.2748 28.9776C18.2061 29.7259 20.1863 30.3248 22.1992 30.7599C23.0296 30.9343 23.8703 31.0862 24.7123 31.0733C24.7123 31.0733 25.508 25.7245 24.5754 22.0767L24.5768 22.0774Z" fill="#463884"/>
<path d="M24.5781 22.0775C25.5107 25.7252 24.715 31.074 24.715 31.074C25.7852 31.0573 26.8355 30.7811 27.8711 30.4941C30.7976 29.6789 33.6894 28.7436 36.4387 27.3797C36.6069 27.2962 36.7739 27.2111 36.9408 27.1204C37.6111 26.7534 38.2453 26.3124 38.7092 25.6903C39.6159 24.4768 39.6561 22.9276 39.7563 21.457C39.7618 21.3771 39.7664 21.303 39.7719 21.2324C39.7753 21.1846 39.7787 21.1358 39.7841 21.0915C39.7862 21.0544 39.7896 21.0174 39.793 20.9825C39.8053 20.8438 39.8155 20.7194 39.8278 20.6061C39.8332 20.5559 39.838 20.5095 39.8435 20.4637C39.8537 20.3619 39.8646 20.2711 39.8748 20.184C39.8769 20.1542 39.8803 20.1266 39.8837 20.0989C39.8926 20.0174 39.9014 19.9398 39.9082 19.862C39.9103 19.8345 39.9116 19.8083 39.9151 19.7807C39.9205 19.7196 39.9239 19.6565 39.9272 19.5917C39.9272 19.5677 39.9292 19.5452 39.9306 19.5212C39.934 19.4079 39.936 19.2859 39.9326 19.1449C39.9326 19.1042 39.9326 19.0613 39.9306 19.0154C39.9285 18.9712 39.9272 18.9247 39.9251 18.8745C39.9251 18.8265 39.9231 18.7765 39.9198 18.7227C35.265 20.2588 30.5509 21.2477 27.5448 21.7759C26.5249 21.9671 25.5876 22.0687 24.5781 22.0782V22.0775Z" fill="#5032AD"/>
<path d="M2.10862 14.7563L1.58068 14.4911C1.34771 14.3727 1.16036 14.1983 1.02822 13.9854C0.965549 14.3894 1.13585 14.8304 1.55956 15.0448C2.43289 15.4822 3.6332 16.1028 5.14822 16.8048C5.13596 16.6362 5.12028 16.44 5.10666 16.219C3.90159 15.6595 2.89884 15.1537 2.10862 14.7556V14.7563Z" fill="#5032AD"/>
<path d="M7.35547 17.2163C7.35888 17.3216 7.36433 17.4218 7.37114 17.5142C7.37796 17.6107 7.38477 17.7031 7.39362 17.7961C8.02783 18.0614 8.69815 18.3316 9.40867 18.602C9.41411 18.4145 9.42092 18.2314 9.42774 18.0483C8.69678 17.7684 8.00536 17.4909 7.35547 17.2163Z" fill="#5032AD"/>
<path d="M22.561 22.0274C22.8547 22.0274 23.1845 22.0667 23.4801 22.0667H23.5665C23.6136 21.9076 23.6586 21.7354 23.7 21.5515H23.6633C23.5085 21.5515 23.3452 21.5421 23.1824 21.5312C23.0331 21.5217 22.8832 21.513 22.7443 21.513L22.7062 21.5108C22.5325 21.4926 22.3499 21.4642 22.1626 21.4366C21.9561 21.4055 21.7444 21.3735 21.5318 21.3531L21.5058 21.3495C16.7278 20.5328 12.6806 19.2873 9.42923 18.0483C9.42241 18.2315 9.41559 18.4153 9.41016 18.6021C12.6337 19.8301 16.6426 21.0604 21.3826 21.872C21.7871 21.9112 22.1919 21.9889 22.5603 22.0274H22.561Z" fill="#5032AD"/>
<path d="M1.21212 13.3825C1.1256 13.2118 1.08881 13.0214 1.10245 12.8325V12.3398C0.930769 12.5694 0.827914 12.8528 0.817685 13.1646C0.805427 13.4647 0.88172 13.7481 1.02818 13.9849C1.05408 13.8091 1.12355 13.6383 1.23664 13.4974C1.22643 13.4581 1.21756 13.4211 1.21212 13.3825Z" fill="white"/>
<path d="M1.23477 13.4981C1.24159 13.4872 1.25044 13.4778 1.2593 13.4669C1.24227 13.4392 1.22661 13.4131 1.21094 13.3833C1.21639 13.4225 1.22456 13.4596 1.23545 13.4981H1.23477Z" fill="white"/>
<path d="M1.5798 14.4909L2.10775 14.7561C2.89797 15.1543 3.90004 15.66 5.1058 16.2195C5.09557 16.0772 5.08672 15.9253 5.07786 15.7604C5.07446 15.6716 5.06901 15.5809 5.0656 15.4863C3.62891 14.8178 2.48447 14.2264 1.64247 13.8056C1.47763 13.7221 1.35093 13.6036 1.26031 13.4663C1.25147 13.4772 1.24328 13.4867 1.2358 13.4976C1.12271 13.6385 1.05322 13.8086 1.02734 13.9851C1.1595 14.198 1.34683 14.3724 1.5798 14.4909Z" fill="white"/>
<path d="M23.8372 20.8304C23.8079 20.8304 23.7765 20.8304 23.7465 20.8282H23.5626C23.2676 20.8282 22.9372 20.7891 22.6423 20.7891C22.2759 20.7484 21.8712 20.6705 21.4666 20.6314C16.7089 19.816 12.6905 18.5809 9.45805 17.3485C8.71281 17.0628 8.01115 16.7795 7.35105 16.502C7.34902 16.5942 7.34766 16.6836 7.34766 16.7707C7.34766 16.9284 7.35105 17.0781 7.3565 17.2155C8.00638 17.4894 8.69714 17.7676 9.42876 18.0475C12.6803 19.287 16.7273 20.5318 21.5053 21.3485L21.5312 21.3521C21.7431 21.3725 21.9551 21.4038 22.162 21.4358C22.3494 21.4634 22.532 21.4916 22.7057 21.5098L22.7439 21.512C22.8828 21.512 23.032 21.5214 23.1819 21.5302C23.3454 21.5411 23.5082 21.5505 23.6628 21.5505H23.6996C23.7308 21.419 23.7602 21.2839 23.7881 21.1415C23.8052 21.0412 23.8229 20.938 23.8386 20.8304H23.8372Z" fill="white"/>
<path d="M48.4027 7.96206C48.321 7.84144 48.2358 7.73755 48.1473 7.65253C48.0272 7.51736 47.8692 7.41709 47.6745 7.35606C47.1827 7.21727 46.6219 7.04288 46.0089 6.85179C42.1341 5.65138 36.1537 3.66551 31.0963 2.11051C30.2421 1.85328 29.4185 1.6026 28.6317 1.37297C25.7331 0.511193 22.6935 0.527905 19.8051 1.43402C18.5736 1.82495 17.1423 2.27908 15.6279 2.75866C12.0482 3.9002 7.97516 5.20814 4.84565 6.25304C3.6038 6.66793 2.51316 7.04215 1.65347 7.34952C1.51449 7.39965 1.39665 7.47523 1.30469 7.57187C1.4021 7.45124 1.5322 7.35315 1.69024 7.28849C5.62632 5.87519 14.5257 3.0515 19.8597 1.40421C22.7269 0.461057 25.7809 0.461056 28.6863 1.32429C31.4064 2.10978 34.6073 3.12851 37.6953 4.11093C41.6313 5.40434 45.3828 6.62143 47.6996 7.327C47.7725 7.327 47.8094 7.36623 47.8476 7.40474C48.1152 7.51955 48.3005 7.72373 48.4033 7.96061L48.4027 7.96206Z" fill="white"/>
<path d="M1.87252 10.0173C2.46995 10.3195 3.18932 10.6807 4.02653 11.081C4.05923 11.0978 4.09261 11.1145 4.12735 11.129C4.26632 11.1959 4.41073 11.2642 4.55652 11.3325C4.73023 11.4139 4.90939 11.4974 5.09126 11.581C5.27043 11.6645 5.45437 11.7474 5.6417 11.8309H5.64374C7.78344 12.7945 10.4756 13.8764 13.6924 14.8399C15.9812 15.5273 18.5344 16.1538 21.3397 16.6333L21.3832 16.6391C21.5896 16.6595 21.7981 16.6906 22.0019 16.7204C22.1911 16.748 22.3771 16.7757 22.5542 16.7946L22.6183 16.7982C22.7518 16.7982 22.8962 16.8077 23.0406 16.8164C23.2089 16.8273 23.3779 16.8368 23.5373 16.8368H23.6517C23.5925 16.6035 23.5304 16.392 23.4677 16.1994C22.7784 16.179 22.0958 16.1087 21.4166 15.9959C19.4976 15.6697 17.7 15.2752 16.0268 14.8399C12.197 13.8466 9.01304 12.639 6.51024 11.5461C6.31747 11.4611 6.13012 11.3775 5.94552 11.2961C5.75955 11.2126 5.58107 11.1312 5.40395 11.0476H5.40191C5.25271 10.9808 5.10693 10.9125 4.96251 10.8478C4.92981 10.8311 4.89645 10.8144 4.86375 10.7998C3.48632 10.1553 2.38343 9.58637 1.56053 9.17509C1.34185 9.06611 1.19063 8.89171 1.10547 8.69189V9.60163C1.1804 9.65904 1.2601 9.70917 1.34526 9.75204L1.8732 10.0187L1.87252 10.0173Z" fill="white"/>
<path d="M24.2441 20.3605C24.2285 20.4922 24.2116 20.6179 24.1925 20.7384C24.187 20.7719 24.1822 20.8053 24.1747 20.8366C24.1727 20.8495 24.1713 20.8604 24.1679 20.8735C24.1522 20.9681 24.1331 21.061 24.1141 21.1476C24.0847 21.2922 24.0515 21.4273 24.0188 21.5551C23.9683 21.7462 23.9165 21.9185 23.8662 22.0703L23.7775 22.0681L23.5637 22.0659C23.6106 21.9068 23.6556 21.7346 23.6972 21.5508C23.7286 21.4193 23.7577 21.2842 23.7857 21.1418C23.8027 21.0414 23.8205 20.9383 23.8362 20.8308C23.843 20.7973 23.8484 20.7661 23.8518 20.7326C23.8969 20.4231 23.9315 20.0918 23.9471 19.7415C23.9717 19.1965 23.9492 18.6871 23.8989 18.2185C23.8416 17.7055 23.7509 17.242 23.6488 16.8364C23.5895 16.6031 23.5276 16.3918 23.4648 16.1992C23.5515 16.2029 23.6386 16.205 23.7252 16.2065C23.7966 16.3976 23.8696 16.6104 23.9369 16.8422C24.0624 17.2643 24.1747 17.7521 24.2407 18.2983C24.2721 18.56 24.2926 18.8339 24.3014 19.121C24.3116 19.5671 24.2891 19.9828 24.2441 20.3605Z" fill="#5032AD"/>
<path d="M18.2995 7.78019C17.1932 10.0458 18.3397 12.0484 19.8608 13.5344C20.3677 14.0307 20.9168 14.4681 21.438 14.8388C21.7193 15.0384 21.9917 15.2201 22.2471 15.3792C22.7349 15.6853 23.1505 15.9126 23.4161 16.0521C23.4264 16.0834 23.4386 16.1168 23.4509 16.1525C23.1785 16.1467 22.8815 16.1154 22.6157 16.1154C22.2471 16.0761 21.8425 15.9984 21.438 15.9577C19.585 15.6409 17.8424 15.2594 16.215 14.8388C12.3437 13.8403 9.12354 12.621 6.59417 11.5165C6.39936 11.4315 6.21065 11.3479 6.02605 11.2666C5.84008 11.183 5.65751 11.1002 5.48039 11.0202C5.33256 10.9519 5.1868 10.8829 5.0444 10.8168C5.01171 10.8022 4.97834 10.787 4.94564 10.7703C3.55255 10.1199 2.43944 9.54372 1.61448 9.13246C1.33519 8.99004 1.16624 8.75097 1.1022 8.48938C1.0225 8.17476 1.09335 7.82597 1.30181 7.57237C1.39377 7.47574 1.51231 7.40016 1.65059 7.35002C2.51028 7.04266 3.60092 6.66844 4.84277 6.25355C7.97228 5.20864 12.0452 3.90071 15.6251 2.75917C17.1393 2.27959 18.5707 1.82545 19.8023 1.43453C22.6907 0.528413 25.7303 0.511701 28.6289 1.37348C29.4157 1.6031 30.2392 1.85306 31.0935 2.11102C30.4613 2.11465 29.8325 2.13862 29.2106 2.18512C26.0253 2.42418 23.0225 3.25763 20.7192 5.03643C20.2505 5.39975 19.8473 5.75726 19.5053 6.11258C19.4685 6.15182 19.4324 6.18886 19.3956 6.22738C19.2477 6.38506 19.1143 6.54202 18.991 6.69823C18.8432 6.88135 18.7131 7.06519 18.5985 7.24466C18.4841 7.42415 18.3834 7.60434 18.2981 7.78019H18.2995Z" fill="#7453C6"/>
<path d="M49.1858 11.3931C49.1858 12.0616 49.1183 12.6952 48.9998 13.2511C48.9024 13.7103 48.7701 14.1179 48.6121 14.4515C48.555 14.5735 48.4943 14.6847 48.4317 14.7865C48.3431 14.9311 48.2423 15.0495 48.138 15.138V15.1439C48.1122 15.1773 48.0808 15.205 48.0167 15.2326C47.9751 15.2602 47.9337 15.2879 47.8867 15.3103C47.7409 15.4179 47.5358 15.5399 47.4419 15.5734C45.1686 16.8073 42.554 17.8522 39.9192 18.7211C39.9192 18.7152 39.9192 18.7082 39.9171 18.7009C35.2589 20.2312 30.5327 21.2128 27.5245 21.752C26.5674 21.9315 25.5673 22.0426 24.5734 22.0666C24.3389 22.0739 24.1061 22.0739 23.873 22.0688H23.8676C23.918 21.9169 23.9698 21.7447 24.0201 21.5536C24.0529 21.4258 24.0863 21.2905 24.1156 21.1459C24.1347 21.0588 24.1538 20.9664 24.1695 20.872C24.1729 20.8589 24.1748 20.848 24.1761 20.8349C24.183 20.8036 24.1884 20.7702 24.1939 20.7369C24.213 20.6161 24.2307 20.4905 24.2457 20.359C24.2907 19.9811 24.3132 19.5661 24.303 19.1193C24.2941 18.8324 24.2737 18.5576 24.2423 18.2968C24.1761 17.7503 24.0631 17.2628 23.9385 16.8405C23.871 16.6089 23.7975 16.3959 23.7266 16.2048C23.7266 16.2048 23.7436 16.2011 23.7784 16.1953C23.822 16.1881 23.8894 16.175 23.9835 16.1582C24.0317 16.1511 24.0856 16.1402 24.147 16.1286C25.0816 15.96 27.4938 15.5094 30.5232 14.8373C34.1233 14.0409 38.5962 12.9292 42.4921 11.6081C42.7734 11.5137 43.0513 11.417 43.326 11.319C43.5377 11.2448 43.7462 11.1685 43.9513 11.093C44.0882 11.0428 44.2238 10.9927 44.3593 10.9411C44.4289 10.9149 44.4983 10.8895 44.5678 10.8634C45.858 10.3685 47.0426 9.8497 48.057 9.31054C48.3246 9.16811 48.5795 9.02498 48.8226 8.88037C48.8629 9.00245 48.9011 9.13034 48.9336 9.2655C49.0917 9.88021 49.1837 10.6105 49.1837 11.3902L49.1858 11.3931Z" fill="#7453C6"/>
<path d="M1.30275 7.57324C1.01459 7.86244 0.943058 8.32023 1.10314 8.69009V8.49027C1.02344 8.17563 1.0943 7.82685 1.30275 7.57324Z" fill="#7453C6"/>
<path d="M1.56053 9.174C2.38411 9.58527 3.48701 10.1542 4.86375 10.7988C4.89168 10.7893 4.92097 10.7806 4.94889 10.7711C3.55582 10.1208 2.44269 9.54458 1.61775 9.13332C1.33844 8.99089 1.1695 8.75183 1.10547 8.49023V8.69007C1.19063 8.88989 1.34185 9.06429 1.56053 9.17327V9.174Z" fill="#7453C6"/>
<path d="M4.94844 10.7707C4.92051 10.7802 4.89121 10.7889 4.86328 10.7984C4.89598 10.8129 4.92936 10.8296 4.96206 10.8463C4.98999 10.8369 5.01928 10.8281 5.04722 10.8165C5.01452 10.802 4.98114 10.7867 4.94844 10.77V10.7707Z" fill="#7453C6"/>
<path d="M6.02842 11.2676C6.0005 11.277 5.97257 11.2857 5.94531 11.2952C6.12925 11.3766 6.31726 11.4601 6.51005 11.5452C6.53934 11.5357 6.56726 11.5263 6.59657 11.5175C6.40174 11.4325 6.21304 11.349 6.02842 11.2676Z" fill="#7453C6"/>
<path d="M6.59822 11.5173C6.56893 11.5268 6.54101 11.5355 6.51172 11.5449C9.01451 12.6378 12.1985 13.8462 16.0283 14.8388H16.2191C12.3477 13.8404 9.12759 12.6211 6.59822 11.5166V11.5173Z" fill="#7453C6"/>
<path d="M23.4645 16.1994C22.775 16.179 22.0924 16.1086 21.4132 15.9959C19.4944 15.6696 17.6966 15.275 16.0234 14.8398H16.2142C17.8417 15.2605 19.5835 15.642 21.4371 15.9588C21.8418 15.9995 22.2464 16.0773 22.6149 16.1164C22.8806 16.1164 23.1775 16.1477 23.4502 16.1535C23.4536 16.1681 23.459 16.1834 23.4638 16.2001L23.4645 16.1994Z" fill="#7453C6"/>
<path d="M5.04608 10.8169C5.01815 10.8278 4.98886 10.8372 4.96094 10.8467C5.10536 10.9113 5.25114 10.9804 5.40031 11.0465H5.40236C5.42826 11.0392 5.45414 11.0298 5.48206 11.0204C5.33423 10.952 5.18847 10.883 5.04608 10.8169Z" fill="#7453C6"/>
<path d="M5.48205 11.021C5.45412 11.0305 5.42822 11.0392 5.40234 11.0472C5.57946 11.1307 5.75861 11.2121 5.94391 11.2957C5.97184 11.2862 5.99976 11.2775 6.02702 11.2681C5.84104 11.1845 5.65848 11.1016 5.48136 11.0217L5.48205 11.021Z" fill="#7453C6"/>
<path d="M24.5742 22.0776C24.3434 22.0812 24.1089 22.0797 23.8672 22.0717V22.0696H23.8726C24.1055 22.0754 24.3379 22.0754 24.5728 22.0674C24.5749 22.071 24.5749 22.0747 24.5749 22.0768L24.5742 22.0776Z" fill="#7453C6"/>
<path d="M39.9198 18.7228C35.2652 20.2589 30.5511 21.2478 27.5449 21.7761C26.5251 21.9672 25.5878 22.069 24.5783 22.0783H24.5763C24.5763 22.0783 24.5763 22.0725 24.5742 22.069C25.5673 22.045 26.5681 21.9337 27.5252 21.7542C30.5334 21.2152 35.2598 20.2334 39.918 18.7031C39.92 18.7104 39.9198 18.7177 39.9198 18.7235V18.7228Z" fill="#7453C6"/>
<path d="M2.58984 12.5566C2.7009 12.6213 2.81396 12.6845 2.92705 12.7477C2.96861 12.7332 3.01016 12.7179 3.05241 12.7034C2.8998 12.6533 2.74517 12.6031 2.59053 12.5574L2.58984 12.5566Z" fill="white"/>
<path d="M7.89613 14.6687H7.89818V14.6665C7.54189 14.5001 7.18629 14.3461 6.83207 14.1848H6.83003L6.81641 14.1812C7.17608 14.3425 7.53577 14.5016 7.89681 14.6687H7.89613Z" fill="#D0021B"/>
<path d="M6.81375 14.1813H6.81715L6.83078 14.185C6.81511 14.1777 6.79808 14.1704 6.78241 14.1624C6.34847 13.9677 5.9159 13.7919 5.49219 13.6211V13.6233C5.92817 13.7977 6.35188 13.9808 6.78241 14.1661C6.79262 14.1719 6.80353 14.1755 6.81375 14.1806V14.1813Z" fill="#D0021B"/>
<path d="M7.35834 17.2164C7.35289 17.0791 7.34948 16.9294 7.34948 16.7717C7.34948 16.6845 7.35152 16.5959 7.35289 16.5028C7.35493 16.4491 7.3563 16.3939 7.35834 16.3364C7.37536 15.9216 7.49526 14.9341 7.49526 14.9341L7.50411 14.9269L5.03607 13.8281V13.8303C5.03607 13.9357 5.03402 14.0897 5.03607 14.2786C5.03948 14.647 5.04832 14.99 5.06058 15.3053C5.06263 15.3664 5.06604 15.4275 5.0674 15.487C5.07081 15.5815 5.07627 15.6723 5.07966 15.761C5.08852 15.926 5.09669 16.0778 5.1076 16.2202C5.12122 16.4404 5.13689 16.6374 5.14915 16.8059C5.16823 17.0209 5.18185 17.1931 5.19274 17.3153C5.25337 18.0971 5.26769 19.2437 5.03811 20.7739C5.16345 20.5423 5.36781 20.2275 5.6914 19.9311C5.89644 19.7436 6.09809 19.6106 6.2643 19.5163C6.42916 19.6681 6.61717 19.876 6.79224 20.1498C7.15533 20.7203 7.26978 21.2891 7.31132 21.6263C7.36719 21.4004 7.44007 21.0574 7.49185 20.6352C7.63083 19.4813 7.47482 18.7248 7.39648 17.797C7.38763 17.7046 7.38081 17.6117 7.37401 17.515C7.36719 17.4228 7.36174 17.3226 7.35834 17.2171V17.2164Z" fill="#EF4438"/>
<path d="M7.75185 14.8026C7.79205 14.7844 7.84381 14.7452 7.89627 14.6689C7.53523 14.5025 7.17554 14.3427 6.81587 14.1813H6.81246C6.80225 14.1755 6.79133 14.1719 6.78112 14.1668C6.35059 13.9815 5.92687 13.7984 5.4909 13.624H5.48885C5.44865 13.6611 5.39485 13.7003 5.3274 13.7374C5.27904 13.7635 5.22999 13.7839 5.18639 13.797H5.18435C5.13053 13.8159 5.08352 13.8231 5.04539 13.8282H5.03516L7.50322 14.9268C7.50322 14.9268 7.53794 14.9008 7.56384 14.8841C7.649 14.8361 7.69735 14.8302 7.75117 14.8026H7.75185Z" fill="#D0021B"/>
<path d="M7.49239 14.934C7.49239 14.934 7.3725 15.9215 7.35547 16.3365C7.3725 15.9215 7.50125 14.9268 7.50125 14.9268L7.49239 14.934Z" fill="#EF4438"/>
<path d="M48.8214 8.88258C48.5783 9.02717 48.3228 9.1696 48.0558 9.31273C47.0414 9.85191 45.8569 10.3707 44.5666 10.8655C44.4971 10.8917 44.4277 10.9171 44.3581 10.9433C44.2226 10.9949 44.087 11.045 43.9501 11.0952C43.745 11.1715 43.5365 11.247 43.3248 11.3211C43.0501 11.4193 42.7723 11.5159 42.491 11.6103C38.595 12.9314 34.1228 14.0431 30.522 14.8395C27.4926 15.5124 25.0804 15.9621 24.1458 16.1307C24.0851 16.1416 24.0312 16.1532 23.9823 16.1605C23.8882 16.1772 23.8208 16.1903 23.7772 16.1976C23.7424 16.2034 23.7254 16.207 23.7254 16.207C23.6389 16.2048 23.5516 16.2034 23.4652 16.1998C23.4598 16.183 23.455 16.1685 23.4516 16.1532C23.4393 16.1183 23.427 16.085 23.4168 16.053C23.1512 15.9142 22.7364 15.686 22.2479 15.3801C21.9924 15.221 21.7199 15.0394 21.4386 14.8395C20.9175 14.4689 20.3683 14.0315 19.8616 13.5352C18.3397 12.0492 17.1939 10.0466 18.3002 7.78099C18.3854 7.60516 18.4862 7.42495 18.6006 7.24548C18.7151 7.06599 18.8452 6.88216 18.993 6.69905C19.1163 6.54355 19.2498 6.38586 19.3976 6.22818C19.4344 6.18895 19.4706 6.15189 19.5074 6.11338C19.8494 5.75733 20.2526 5.39983 20.7212 5.03723C23.0245 3.25845 26.0273 2.425 29.2126 2.18594C29.8346 2.13942 30.4633 2.11545 31.0955 2.11182C36.1536 3.66609 42.1333 5.65196 46.0081 6.8531C46.6212 7.04419 47.1824 7.21785 47.6736 7.35737C47.8684 7.41842 48.0265 7.51869 48.1463 7.65384C48.235 7.73886 48.32 7.84277 48.4019 7.96337C48.4019 7.96556 48.4039 7.96701 48.4039 7.96919C48.5654 8.21408 48.7077 8.5229 48.8221 8.88474L48.8214 8.88258Z" fill="#5032AD"/>
<path d="M14.0199 53.8751H13.189C13.0173 53.8751 12.8756 53.8468 12.7638 53.7907C12.6514 53.7347 12.5643 53.6571 12.5016 53.5589C12.4388 53.4609 12.396 53.3396 12.3728 53.195C12.3497 53.051 12.3381 52.8904 12.3381 52.7145V51.2163H11.5267V53.1048C11.5267 53.2807 11.5083 53.4194 11.4729 53.522C11.4368 53.6236 11.3809 53.7015 11.3053 53.7536C11.2297 53.8067 11.135 53.8402 11.0199 53.854C10.9048 53.8686 10.7692 53.8751 10.6118 53.8751C10.3952 53.8751 10.2249 53.8468 10.1002 53.7907C9.97558 53.7347 9.87885 53.6571 9.81004 53.5589C9.74125 53.4609 9.69697 53.3396 9.67722 53.195C9.65746 53.051 9.64793 52.8904 9.64793 52.7145V51.2163H8.83658V54.6104C8.83658 54.9606 8.80049 55.2477 8.72827 55.4721C8.65607 55.696 8.54231 55.8748 8.38768 56.0077C8.23303 56.1406 8.03753 56.2316 7.80045 56.2808C7.56339 56.3296 7.28069 56.3543 6.95235 56.3543C6.624 56.3543 6.35696 56.323 6.11377 56.2599C5.87057 56.1966 5.66825 56.0935 5.5068 55.9502C5.34535 55.8071 5.2241 55.6182 5.14167 55.3843C5.05924 55.1503 5.01837 54.8648 5.01837 54.5283V53.083H4.20703V54.7078C4.20703 55.5238 4.43456 56.1479 4.89099 56.5804C5.34671 57.0126 6.02724 57.2292 6.93259 57.2292C7.36176 57.2292 7.74528 57.1797 8.08249 57.0817C8.41969 56.9828 8.70376 56.828 8.93468 56.6173C9.16562 56.4067 9.34274 56.137 9.46467 55.81C9.5866 55.4831 9.64793 55.087 9.64793 54.6227V54.2325C9.72013 54.3736 9.84003 54.4949 10.0083 54.5965C10.1759 54.6984 10.415 54.7498 10.7242 54.7498C11.1187 54.7498 11.445 54.7078 11.7018 54.6234C11.9586 54.5392 12.1459 54.3525 12.2644 54.0639C12.3169 54.2608 12.4204 54.4243 12.5757 54.5545C12.7304 54.6845 12.9361 54.7498 13.193 54.7498H14.8319V50.688H14.0206V53.8744L14.0199 53.8751Z" fill="#939393"/>
<path d="M16.9385 54.044C16.9385 54.4096 16.9304 54.7213 16.914 54.9779C16.8976 55.2343 16.8444 55.4458 16.756 55.6107C16.6666 55.7756 16.5318 55.8955 16.3505 55.9697C16.1695 56.0439 15.9167 56.0801 15.5938 56.0801V56.9557C16.0351 56.9557 16.3969 56.9062 16.6775 56.8082C16.9583 56.7095 17.1789 56.5518 17.339 56.3337C17.4991 56.1157 17.6075 55.8287 17.6646 55.4741C17.7212 55.1188 17.7499 54.6814 17.7499 54.1604V51.2168H16.9385V54.044Z" fill="#939393"/>
<path d="M19.9363 47.2178H19.125V54.7515H19.9363V47.2178Z" fill="#939393"/>
<path d="M46.3366 47.2178V53.8752H44.7935C44.4965 53.8752 44.2805 53.7712 44.1457 53.5642C44.0101 53.3571 43.9426 53.0736 43.9426 52.7148V47.2178H43.1314V53.1049C43.1314 53.2807 43.113 53.4195 43.0769 53.522C43.0407 53.6237 42.991 53.7015 42.9284 53.7537C42.8656 53.8068 42.7881 53.8403 42.696 53.8541C42.6034 53.8686 42.4986 53.8752 42.3792 53.8752H41.6109C41.6 53.8752 41.5897 53.873 41.5781 53.873C41.3077 53.873 41.1081 53.8148 40.9801 53.6986C40.8514 53.5822 40.7538 53.4115 40.6885 53.1856C40.6885 53.1434 40.6899 53.099 40.6933 53.0534C40.6967 53.0076 40.6981 52.9596 40.6981 52.9101C40.6981 52.5933 40.6538 52.3056 40.5646 52.0483C40.4753 51.7912 40.3534 51.5688 40.1987 51.382C40.0434 51.1954 39.8608 51.0507 39.6496 50.9483C39.4385 50.8459 39.2075 50.795 38.9576 50.795C38.7798 50.795 38.5999 50.8197 38.4187 50.869C38.2375 50.9185 38.059 51.0188 37.8846 51.1707C37.7096 51.3225 37.5386 51.5375 37.3704 51.8159C37.2021 52.0941 37.042 52.4597 36.8908 52.9108C36.8178 53.1223 36.7409 53.2902 36.6584 53.4137C36.5761 53.5373 36.4915 53.6339 36.4064 53.7044C36.3205 53.7748 36.2348 53.8206 36.1488 53.8417C36.0631 53.8628 35.9806 53.8737 35.9016 53.8737H35.4962C35.4826 53.8737 35.4718 53.8752 35.4589 53.8759H25.259C25.1663 53.8759 25.0792 53.8497 24.9967 53.7966C24.9143 53.7437 24.8284 53.6644 24.7392 53.5591C24.6499 53.4537 24.5559 53.3164 24.4572 53.1478C24.3583 52.9792 24.2426 52.7786 24.1111 52.5462L22.9244 50.4462L22.1628 50.9526L23.2111 52.6093C23.31 52.7641 23.3924 52.9086 23.4585 53.0418C23.5245 53.1754 23.5572 53.3091 23.5572 53.4427C23.5572 53.5837 23.4831 53.6906 23.3346 53.7646C23.1859 53.8388 22.9735 53.8752 22.6963 53.8752H20.9258V54.7508H22.4291C22.5872 54.7508 22.7459 54.7435 22.9039 54.7297C23.062 54.7159 23.2118 54.6824 23.3542 54.6293C23.496 54.5764 23.6247 54.4942 23.7398 54.3816C23.8549 54.2689 23.949 54.1178 24.0218 53.9281C24.2064 54.2378 24.3911 54.452 24.5757 54.572C24.7604 54.6919 24.9878 54.7515 25.2583 54.7515H35.9214C36.0399 54.7515 36.1522 54.7464 36.2579 54.7355C36.3635 54.7253 36.4656 54.7006 36.5645 54.6613C36.6632 54.6228 36.7571 54.5626 36.8465 54.4819C36.9356 54.4013 37.0229 54.29 37.1087 54.1498C37.4452 54.4173 37.7715 54.6068 38.0876 54.7195C38.4044 54.8321 38.717 54.8881 39.027 54.8881C39.3894 54.8881 39.6912 54.8125 39.9324 54.6613C40.1728 54.5102 40.3561 54.3009 40.4814 54.0336V54.0547C40.5937 54.3082 40.7417 54.4869 40.9262 54.5931C41.1108 54.6984 41.3282 54.7515 41.5788 54.7515C41.5809 54.7515 41.5822 54.7515 41.5843 54.7515C41.5856 54.7515 41.587 54.7515 41.589 54.7515H42.2914C42.7001 54.7515 43.0346 54.7093 43.2956 54.625C43.5558 54.5408 43.7459 54.354 43.8644 54.0656C43.9169 54.2624 44.021 54.426 44.1757 54.556C44.3303 54.6861 44.5368 54.7515 44.7935 54.7515H47.1477V47.2178H46.3366ZM39.6346 53.7386C39.4665 53.9072 39.2437 53.9921 38.9671 53.9921C38.7164 53.9921 38.4705 53.9412 38.23 53.8388C37.9896 53.7372 37.747 53.6011 37.5032 53.4326C37.7076 52.7786 37.9248 52.3216 38.1558 52.0607C38.3866 51.8006 38.6408 51.6706 38.9174 51.6706C39.0754 51.6706 39.2143 51.7041 39.3328 51.7708C39.4515 51.8377 39.5522 51.9277 39.6346 52.0398C39.7171 52.1523 39.7798 52.2824 39.8226 52.4298C39.8656 52.5773 39.8867 52.7292 39.8867 52.8834C39.8867 53.2844 39.8029 53.5693 39.6346 53.7379V53.7386Z" fill="#939393"/>
</svg>
