<svg width="44" height="35" viewBox="0 0 44 35" fill="none" xmlns="http://www.w3.org/2000/svg">
<path d="M9.4375 13.4345V10.3232H12.6011V13.4345H9.4375Z" fill="#7453C6"/>
<path d="M9.4375 22.4185V25.5293H12.6011V22.4185H9.4375Z" fill="#7453C6"/>
<path fill-rule="evenodd" clip-rule="evenodd" d="M0 7.22731C0 3.74762 2.82086 0.926758 6.30055 0.926758H37.2097C40.6894 0.926758 43.5103 3.74762 43.5103 7.22731V28.6262C43.5103 32.1059 40.6894 34.9268 37.2097 34.9268H6.30055C2.82086 34.9268 0 32.1059 0 28.6262V7.22731ZM9.31775 7.23253C7.67649 7.23253 6.34606 8.56296 6.34606 10.2046V13.5536C6.34606 15.1948 7.67649 16.5257 9.31775 16.5257H12.7194C14.3607 16.5257 15.6915 15.1948 15.6915 13.5536V10.2046C15.6915 8.56296 14.3607 7.23253 12.7194 7.23253H9.31775ZM18.6125 11.879C18.6125 11.0255 19.3047 10.3337 20.1582 10.3337H35.4362C36.2896 10.3337 36.9814 11.0255 36.9814 11.879C36.9814 12.7328 36.2896 13.4246 35.4362 13.4246H20.1582C19.3047 13.4246 18.6125 12.7328 18.6125 11.879ZM18.6125 23.9745C18.6125 23.1211 19.3047 22.4289 20.1582 22.4289H35.4362C36.2896 22.4289 36.9814 23.1211 36.9814 23.9745C36.9814 24.828 36.2896 25.5197 35.4362 25.5197H20.1582C19.3047 25.5197 18.6125 24.828 18.6125 23.9745ZM6.34606 22.2998C6.34606 20.6585 7.67649 19.3277 9.31775 19.3277H12.7194C14.3607 19.3277 15.6915 20.6585 15.6915 22.2998V25.6487C15.6915 27.29 14.3607 28.6208 12.7194 28.6208H9.31775C7.67649 28.6208 6.34606 27.29 6.34606 25.6487V22.2998Z" fill="#7453C6"/>
</svg>
