<svg width="15" height="15" viewBox="0 0 15 15" fill="none" xmlns="http://www.w3.org/2000/svg">
<path d="M14.5781 7.09229C14.5781 3.22588 11.4445 0.0922852 7.57812 0.0922852C3.71172 0.0922852 0.578125 3.22588 0.578125 7.09229C0.578125 10.9587 3.71172 14.0923 7.57812 14.0923C7.61914 14.0923 7.66016 14.0923 7.70117 14.0896V8.64268H6.19727V6.88994H7.70117V5.59932C7.70117 4.10361 8.61445 3.28877 9.94883 3.28877C10.5887 3.28877 11.1383 3.33525 11.2969 3.35713V4.92119H10.3781C9.65352 4.92119 9.51133 5.26572 9.51133 5.77158V6.88721H11.2477L11.0207 8.63994H9.51133V13.8216C12.4371 12.9821 14.5781 10.2888 14.5781 7.09229Z" fill="white"/>
</svg>
