<svg width="24" height="24" viewBox="0 0 24 24" fill="none" xmlns="http://www.w3.org/2000/svg">
<mask id="mask0_616_1840" style="mask-type:luminance" maskUnits="userSpaceOnUse" x="0" y="0" width="24" height="24">
<path d="M24 0H0V24H24V0Z" fill="white"/>
</mask>
<g mask="url(#mask0_616_1840)">
<path d="M10.5 21C10.4222 21 10.3455 20.9818 10.276 20.947C10.1931 20.9054 10.1233 20.8416 10.0746 20.7627C10.0258 20.6837 10 20.5928 10 20.5V13.83C9.99899 13.2972 9.78683 12.7866 9.41 12.41L3.59 6.59C3.21354 6.21314 3.00145 5.70267 3 5.17V4C3 3.73478 3.10536 3.48043 3.29289 3.29289C3.48043 3.10536 3.73478 3 4 3H20C20.2652 3 20.5196 3.10536 20.7071 3.29289C20.8946 3.48043 21 3.73478 21 4V5.17C20.9986 5.70267 20.7865 6.21314 20.41 6.59L14.59 12.41C14.2132 12.7866 14.001 13.2972 14 13.83V17.5C13.9992 17.8104 13.9266 18.1163 13.7878 18.3939C13.649 18.6715 13.4478 18.9132 13.2 19.1L10.8 20.9C10.7135 20.9649 10.6082 21 10.5 21ZM5 5V5.17L7.83 8H16.17L19 5.17V5H5Z" fill="white"/>
</g>
</svg>
