<svg width="42" height="42" viewBox="0 0 42 42" fill="none" xmlns="http://www.w3.org/2000/svg">
<circle cx="20.8721" cy="20.8721" r="20.8721" fill="#FCF2F2"/>
<g clip-path="url(#clip0_1581_6251)">
<mask id="mask0_1581_6251" style="mask-type:luminance" maskUnits="userSpaceOnUse" x="6" y="6" width="32" height="32">
<path d="M37.1057 6.18555H6.18408V37.1071H37.1057V6.18555Z" fill="white"/>
</mask>
<g mask="url(#mask0_1581_6251)">
<path d="M34.5302 17.137C34.5302 16.2064 34.3469 15.2849 33.9908 14.4252C33.6347 13.5655 33.1127 12.7843 32.4547 12.1263C31.7967 11.4683 31.0155 10.9463 30.1558 10.5902C29.296 10.2341 28.3746 10.0508 27.444 10.0508C26.3483 10.0849 25.2707 10.3386 24.2748 10.7967C23.2789 11.2548 22.3851 11.908 21.6462 12.7178C20.9073 11.908 20.0135 11.2548 19.0176 10.7967C18.0217 10.3386 16.9441 10.0849 15.8484 10.0508C13.969 10.0508 12.1666 10.7974 10.8377 12.1263C9.50879 13.4552 8.76221 15.2576 8.76221 17.137C8.76221 22.1875 14.8821 27.7663 17.781 30.6652L20.7186 33.6027C20.8996 33.784 21.1452 33.8859 21.4014 33.8862H21.891C22.1472 33.8859 22.3928 33.784 22.5738 33.6027L25.5114 30.6652C28.4103 27.7663 34.5302 22.1875 34.5302 17.137Z" fill="#CF0707"/>
</g>
</g>
<defs>
<clipPath id="clip0_1581_6251">
<rect width="30.9216" height="30.9216" fill="white" transform="translate(6.18408 6.18555)"/>
</clipPath>
</defs>
</svg>
