<svg width="42" height="43" viewBox="0 0 42 43" fill="none" xmlns="http://www.w3.org/2000/svg">
<circle cx="20.8721" cy="21.1748" r="20.8721" fill="#FCF2F2"/>
<mask id="mask0_1581_6152" style="mask-type:luminance" maskUnits="userSpaceOnUse" x="6" y="6" width="32" height="32">
<path d="M37.1059 6.48828H6.18433V37.4099H37.1059V6.48828Z" fill="white"/>
</mask>
<g mask="url(#mask0_1581_6152)">
<path d="M20.9075 13.6945L21.6462 14.5041L22.3849 13.6945C23.0336 12.9836 23.8184 12.4101 24.6927 12.0079C25.5623 11.6079 26.5029 11.3854 27.4595 11.3535C28.2535 11.3556 29.0394 11.5129 29.7731 11.8168C30.5115 12.1227 31.1824 12.571 31.7476 13.1361C32.3127 13.7013 32.761 14.3722 33.0669 15.1106C33.3728 15.849 33.5302 16.6405 33.5302 17.4397C33.5302 19.6035 32.1947 22.0287 30.3241 24.3897C28.7864 26.3304 27.0065 28.0856 25.6001 29.4725C25.3182 29.7506 25.0513 30.0138 24.8043 30.2608L21.8762 33.1889H21.4162L18.4881 30.2608C18.2411 30.0138 17.9742 29.7506 17.6922 29.4725C16.2859 28.0856 14.506 26.3304 12.9683 24.3897C11.0977 22.0287 9.76221 19.6035 9.76221 17.4397C9.76221 15.8256 10.4034 14.2775 11.5448 13.1361C12.6825 11.9984 14.2243 11.3576 15.8329 11.3535C16.7895 11.3854 17.7301 11.6079 18.5997 12.0079C19.474 12.4101 20.2588 12.9836 20.9075 13.6945ZM21.8663 33.1988C21.8664 33.1986 21.8666 33.1985 21.8667 33.1983L21.8663 33.1988ZM21.4261 33.1988L21.4257 33.1983C21.4258 33.1985 21.426 33.1986 21.4261 33.1988Z" stroke="#8F8F8F" stroke-width="2"/>
</g>
</svg>
