<svg width="34" height="33" viewBox="0 0 34 33" fill="none" xmlns="http://www.w3.org/2000/svg">
<g clip-path="url(#clip0_2279_11746)">
<path d="M22.25 5.5H11.25C8.21243 5.5 5.75 7.96243 5.75 11V22C5.75 25.0376 8.21243 27.5 11.25 27.5H22.25C25.2876 27.5 27.75 25.0376 27.75 22V11C27.75 7.96243 25.2876 5.5 22.25 5.5Z" stroke="#7A5CC8" stroke-width="1.75" stroke-linecap="round" stroke-linejoin="round"/>
<path d="M16.75 20.625C19.0282 20.625 20.875 18.7782 20.875 16.5C20.875 14.2218 19.0282 12.375 16.75 12.375C14.4718 12.375 12.625 14.2218 12.625 16.5C12.625 18.7782 14.4718 20.625 16.75 20.625Z" stroke="#7A5CC8" stroke-width="1.75" stroke-linecap="round" stroke-linejoin="round"/>
<path d="M22.9375 10.3125V10.3135" stroke="#7A5CC8" stroke-width="1.75" stroke-linecap="round" stroke-linejoin="round"/>
</g>
<defs>
<clipPath id="clip0_2279_11746">
<rect width="33" height="33" fill="white" transform="translate(0.25)"/>
</clipPath>
</defs>
</svg>
