<svg width="15" height="15" viewBox="0 0 15 15" fill="none" xmlns="http://www.w3.org/2000/svg">
<path d="M7.28907 8.56229C8.10093 8.56229 8.75907 7.90415 8.75907 7.09229C8.75907 6.28043 8.10093 5.62229 7.28907 5.62229C6.47721 5.62229 5.81907 6.28043 5.81907 7.09229C5.81907 7.90415 6.47721 8.56229 7.28907 8.56229Z" fill="white"/>
<path d="M7.28906 0.0922852C3.42307 0.0922852 0.289062 3.2263 0.289062 7.09229C0.289062 10.9583 3.42307 14.0923 7.28906 14.0923C11.1551 14.0923 14.2891 10.9583 14.2891 7.09229C14.2891 3.2263 11.1551 0.0922852 7.28906 0.0922852ZM11.6139 8.87141C11.5803 9.53691 11.3933 10.1932 10.9083 10.673C10.4186 11.1574 9.75922 11.3379 9.08731 11.3712H5.49085C4.81885 11.3379 4.15956 11.1575 3.66987 10.673C3.18485 10.1932 2.99787 9.53691 2.96427 8.87141V5.31317C2.99787 4.64766 3.18488 3.9914 3.66987 3.51153C4.15956 3.02713 4.81893 2.84664 5.49085 2.81341H9.08728C9.75928 2.84664 10.4186 3.02705 10.9083 3.51153C11.3933 3.9914 11.5803 4.64766 11.6139 5.31317L11.6139 8.87141Z" fill="white"/>
<path d="M9.04186 3.62416C8.16585 3.60013 6.41249 3.60013 5.53648 3.62416C5.08061 3.63667 4.56382 3.75015 4.23902 4.09707C3.90151 4.45769 3.77397 4.89337 3.76103 5.38076C3.73829 6.23622 3.76103 8.80382 3.76103 8.80382C3.77584 9.29116 3.90151 9.72689 4.23902 10.0875C4.56382 10.4345 5.08061 10.5479 5.53648 10.5604C6.41249 10.5845 8.16585 10.5845 9.04186 10.5604C9.49773 10.5479 10.0145 10.4344 10.3393 10.0875C10.6768 9.72689 10.8044 9.29121 10.8173 8.80382V5.38076C10.8044 4.89337 10.6768 4.45769 10.3393 4.09707C10.0144 3.75004 9.49761 3.63667 9.04186 3.62416ZM7.28906 9.37079C6.83841 9.37079 6.39789 9.23716 6.02319 8.98679C5.64849 8.73643 5.35645 8.38058 5.184 7.96424C5.01154 7.54789 4.96642 7.08976 5.05434 6.64778C5.14226 6.20579 5.35926 5.7998 5.67792 5.48115C5.99657 5.16249 6.40256 4.94549 6.84455 4.85757C7.28653 4.76966 7.74466 4.81478 8.161 4.98723C8.57734 5.15969 8.9332 5.45173 9.18356 5.82642C9.43393 6.20112 9.56756 6.64165 9.56756 7.09229C9.56756 7.69659 9.3275 8.27613 8.9002 8.70343C8.4729 9.13073 7.89335 9.37079 7.28906 9.37079ZM9.57725 5.28411C9.48712 5.28408 9.39903 5.25734 9.3241 5.20725C9.24918 5.15717 9.19079 5.08599 9.15631 5.00272C9.12184 4.91945 9.11283 4.82783 9.13043 4.73944C9.14802 4.65105 9.19143 4.56986 9.25517 4.50614C9.3189 4.44242 9.4001 4.39903 9.4885 4.38145C9.57689 4.36388 9.66851 4.37291 9.75177 4.40741C9.83503 4.4419 9.9062 4.50031 9.95627 4.57525C10.0063 4.65018 10.0331 4.73828 10.0331 4.82841C10.0331 4.88826 10.0213 4.94753 9.99836 5.00282C9.97545 5.05812 9.94187 5.10836 9.89955 5.15067C9.85722 5.19299 9.80697 5.22656 9.75167 5.24945C9.69637 5.27235 9.6371 5.28412 9.57725 5.28411Z" fill="white"/>
</svg>
