<svg width="55" height="55" viewBox="0 0 55 55" fill="none" xmlns="http://www.w3.org/2000/svg">
<path d="M48.1623 0.597656H7.22076C3.54807 0.597656 0.597656 3.36745 0.597656 6.7991V37.9268C0.597656 41.3588 3.54796 44.1282 7.22076 44.1282H11.5557V53.34C11.5557 53.8818 11.9169 54.4236 12.4587 54.6646C12.6993 54.7852 12.8804 54.7852 13.121 54.7852C13.4822 54.7852 13.8434 54.6646 14.1445 54.484L27.8117 44.1282H48.1621C51.8347 44.1282 54.7852 41.3584 54.7852 37.9268V6.79913C54.7852 3.36748 51.8349 0.597688 48.1621 0.597688L48.1623 0.597656ZM51.7149 37.8665C51.7149 39.6729 50.1496 41.1176 48.2228 41.1176H27.2102C26.849 41.1176 26.4878 41.2381 26.1867 41.4187L14.6869 50.1488V42.5626C14.6869 41.7798 13.9646 41.1175 13.1216 41.1175H7.22135C5.29448 41.1175 3.72928 39.6724 3.72928 37.8665V6.9195C3.72928 5.11314 5.29459 3.66847 7.22135 3.66847H48.2833C50.2101 3.66847 51.7753 5.11357 51.7753 6.9195L51.7749 37.8665L51.7149 37.8665Z" fill="#7453C6"/>
<path d="M25.103 22.2737C24.4406 21.7319 23.4171 21.3103 22.0926 21.0091L19.022 20.2867C17.818 19.9856 17.0352 19.745 16.6739 19.5644C16.1322 19.2632 15.831 18.7815 15.831 18.1797C15.831 17.5174 16.1322 16.9756 16.6739 16.554C17.2762 16.1928 17.9985 15.9517 19.022 15.9517C19.8649 15.9517 20.6478 16.0722 21.1895 16.3734C22.0925 16.795 22.5141 17.5774 22.6346 18.601H26.1868C26.1268 16.7346 25.404 15.2894 24.0793 14.326C22.7547 13.3625 21.129 12.8809 19.2626 12.8809C17.035 12.8809 15.2887 13.4226 14.1447 14.4462C13.0006 15.4697 12.3988 16.7943 12.3988 18.3595C12.3988 20.1053 13.0011 21.3699 14.2052 22.1527C14.9276 22.6344 16.1921 23.1161 18.0585 23.4773L19.9854 23.899C21.1294 24.1396 21.9123 24.4407 22.454 24.7418C22.9958 25.043 23.2369 25.5247 23.2369 26.0664C23.2369 27.0899 22.6951 27.7523 21.6716 28.1134C21.1298 28.294 20.407 28.4145 19.5041 28.4145C17.9989 28.4145 16.9753 28.0533 16.3731 27.331C16.0119 26.9093 15.8314 26.3075 15.7108 25.5246H12.2188C12.2188 27.331 12.8811 28.7757 14.2056 29.8596C15.5302 30.9432 17.3365 31.4249 19.6847 31.4249C21.9727 31.4249 23.7186 30.8832 24.9227 29.8596C26.1267 28.8361 26.789 27.4515 26.789 25.8858C26.7281 24.3205 26.1863 23.1164 25.1027 22.2735L25.103 22.2737Z" fill="#7453C6"/>
<path d="M34.3165 13.4238L28.0547 31.0046H31.908L33.1121 27.3919H39.6145L40.7586 31.0046H44.7324L38.4706 13.4238H34.3165ZM34.0755 24.3817L36.3635 17.458L38.5911 24.3817H34.0755Z" fill="#7453C6"/>
</svg>
