<svg width="15" height="15" viewBox="0 0 15 15" fill="none" xmlns="http://www.w3.org/2000/svg">
<path d="M7.42578 0.0922852C3.56038 0.0922852 0.425781 3.22688 0.425781 7.09229C0.425781 10.9577 3.56038 14.0923 7.42578 14.0923C11.2912 14.0923 14.4258 10.9577 14.4258 7.09229C14.4258 3.22688 11.2912 0.0922852 7.42578 0.0922852ZM5.39166 10.6743H3.68684V5.54533H5.39166V10.6743ZM4.53931 4.84497H4.5282C3.95612 4.84497 3.58612 4.45116 3.58612 3.95897C3.58612 3.45567 3.96744 3.07275 4.55063 3.07275C5.13382 3.07275 5.49271 3.45567 5.50381 3.95897C5.50381 4.45116 5.13382 4.84497 4.53931 4.84497ZM11.5389 10.6743H9.83427V7.93044C9.83427 7.24086 9.58743 6.77057 8.9706 6.77057C8.49966 6.77057 8.21918 7.0878 8.09592 7.39403C8.05084 7.50362 8.03984 7.65678 8.03984 7.81006V10.6743H6.33513C6.33513 10.6743 6.35745 6.02652 6.33513 5.54533H8.03984V6.27155C8.26639 5.92206 8.67174 5.42496 9.57622 5.42496C10.6978 5.42496 11.5389 6.158 11.5389 7.73337V10.6743Z" fill="white"/>
</svg>
