<svg width="3557" height="3557" viewBox="0 0 3557 3557" fill="none" xmlns="http://www.w3.org/2000/svg">
<path d="M658.025 2475.43C658.025 2494.33 657.146 2510.55 655.347 2524.06C653.549 2537.56 649.594 2548.83 643.48 2557.74C637.367 2566.65 628.296 2573.17 616.309 2577.28C604.322 2581.36 587.86 2583.67 566.922 2584.15V2677.57C605.201 2677.06 636.727 2673.22 661.501 2666.11C686.274 2658.95 705.654 2647.33 719.679 2631.26C733.704 2615.2 743.533 2594.38 749.167 2568.85C754.761 2543.32 757.598 2512.19 757.598 2475.43V2247.23H658.065V2475.43H658.025Z" fill="#5032AD"/>
<path d="M1033.26 2040.49L849.492 2066.55V2103.27L1033.26 2078.01V2040.49Z" fill="#5032AD"/>
<path d="M2681.89 2107.1C2698.75 2107.1 2713.29 2101.23 2725.52 2089.48C2737.79 2077.74 2743.9 2063.19 2743.9 2045.85C2743.9 2028.51 2737.79 2014.44 2725.52 2002.22C2713.25 1989.99 2698.71 1983.84 2681.89 1983.84C2665.07 1983.84 2650.64 1989.95 2638.61 2002.22C2626.63 2014.48 2620.63 2029.03 2620.63 2045.85C2620.63 2062.67 2626.63 2077.78 2638.61 2089.48C2650.6 2101.23 2665.03 2107.1 2681.89 2107.1ZM2660.07 2022.87C2666.46 2016.76 2673.98 2013.68 2682.65 2013.68C2691.32 2013.68 2698.83 2016.76 2705.22 2022.87C2711.62 2028.99 2714.81 2036.42 2714.81 2045.09C2714.81 2053.76 2711.62 2061.31 2705.22 2067.67C2698.83 2074.06 2691.32 2077.26 2682.65 2077.26C2673.98 2077.26 2666.46 2074.06 2660.07 2067.67C2653.68 2061.27 2650.48 2053.76 2650.48 2045.09C2650.48 2036.42 2653.68 2029.03 2660.07 2022.87Z" fill="#5032AD"/>
<path d="M2846.53 2272.53C2829.67 2249.55 2807.61 2231.17 2780.28 2217.38C2752.95 2203.6 2719.38 2196.73 2679.59 2196.73C2658.13 2196.73 2637.35 2199 2617.17 2203.6C2596.99 2208.19 2581.05 2212.55 2569.3 2216.63V2305.45C2587.16 2300.34 2604.91 2296.66 2622.53 2294.34C2640.15 2292.03 2653.01 2290.91 2661.21 2290.91C2685.7 2290.91 2706.12 2294.34 2722.46 2301.26C2738.8 2308.13 2752.19 2317.72 2762.66 2329.98C2773.13 2342.25 2780.92 2356.92 2786.03 2374.02C2791.15 2391.12 2794.46 2409.9 2795.98 2430.32H1161.89C1156.25 2430.32 1150.9 2428.92 1145.82 2426.12C1140.71 2423.33 1135.24 2418.61 1129.36 2411.94C1123.49 2405.3 1116.97 2396.35 1109.82 2385.13C1102.67 2373.9 1094.24 2360.11 1084.57 2343.77L992.667 2188.34L901.525 2246.51L971.21 2349.88C984.476 2368.78 993.546 2382.29 998.381 2390.48C1003.22 2398.67 1005.65 2405.54 1005.65 2411.14C1005.65 2416.25 1002.7 2420.73 996.863 2424.52C990.989 2428.36 981.919 2430.28 969.692 2430.28H818.094V2518.34H951.351C971.25 2518.34 989.75 2516.19 1006.85 2511.83C1023.95 2507.52 1039.9 2496.89 1054.72 2480.06C1061.87 2486.7 1068.75 2492.45 1075.38 2497.29C1082.01 2502.16 1089.16 2506.08 1096.84 2509.15C1104.51 2512.23 1113.54 2514.51 1124.01 2516.03C1134.48 2517.54 1147.1 2518.3 1161.93 2518.3H2894.04V2447.1C2894.04 2414.45 2890.32 2382.93 2882.93 2352.52C2875.54 2322.15 2863.39 2295.46 2846.57 2272.49L2846.53 2272.53Z" fill="#5032AD"/>
<path d="M2696.45 2591.06C2681.63 2591.06 2668.88 2596.42 2658.17 2607.13C2647.46 2617.83 2642.11 2630.58 2642.11 2645.4C2642.11 2660.23 2647.46 2672.98 2658.17 2683.68C2668.88 2694.39 2681.63 2699.75 2696.45 2699.75C2711.28 2699.75 2724.02 2694.39 2734.73 2683.68C2745.44 2672.98 2750.79 2660.19 2750.79 2645.4C2750.79 2630.62 2745.44 2617.83 2734.73 2607.13C2724.02 2596.42 2711.24 2591.06 2696.45 2591.06Z" fill="#5032AD"/>
<path d="M2932.3 1691.31V1728.07L3116.07 1702.81V1665.29L2932.3 1691.31Z" fill="#5032AD"/>
<path d="M3077.78 1971.57H2978.25V2518.3H3077.78V1971.57Z" fill="#5032AD"/>
<path d="M3035.21 1864.76C3030.94 1859.93 3028.78 1853.93 3028.78 1846.78C3028.78 1840.15 3030.94 1834.51 3035.29 1829.92C3039.61 1825.32 3046.64 1823.05 3056.35 1823.05C3061.95 1823.05 3071.42 1824.56 3084.68 1827.64V1777.09C3079.57 1775.06 3073.69 1773.26 3067.06 1771.74C3060.43 1770.22 3053 1769.46 3044.84 1769.46C3036.17 1769.46 3027.62 1770.98 3019.19 1774.06C3010.76 1777.13 3003.25 1781.61 2996.62 1787.44C2989.98 1793.32 2984.75 1800.71 2980.91 1809.66C2977.08 1818.61 2975.16 1828.92 2975.16 1840.67C2975.16 1844.74 2975.68 1850.14 2976.68 1856.73C2977.68 1863.36 2979.47 1868.48 2982.03 1872.03H2950.62V1925.62H3099.95V1872.03H3059.79C3047.64 1872.03 3039.45 1869.6 3035.17 1864.76H3035.21Z" fill="#5032AD"/>
<path d="M383.458 923.568C384.377 925.206 385.296 926.605 386.295 928.163C391.61 935.715 399.042 942.228 408.711 946.823C458.139 969.958 525.267 1002.44 609.497 1039.24C609.377 1035.97 609.177 1032.61 609.097 1029.25C608.378 1011.95 607.859 993.093 607.659 972.795C607.539 962.406 607.659 953.935 607.659 948.142V948.022C602.664 945.784 597.67 943.427 592.795 941.109H592.675C588.999 939.391 585.243 937.633 581.487 935.915C548.882 920.651 516.277 905.347 484.111 888.645C477.478 885.169 470.885 881.732 464.332 878.136C473.402 880.694 482.473 883.451 491.423 886.168C524.108 896.237 556.234 907.665 588.32 919.292C604.023 924.806 619.207 930.72 634.271 936.834H634.39V936.714C659.244 946.104 684.617 955.773 710.07 966.482C710.989 966.881 711.988 967.281 712.907 967.721H713.026C733.804 976.591 754.702 985.022 775.56 994.212V994.332C793.7 1002.36 811.841 1010.32 829.662 1018.67C844.646 1025.58 859.51 1032.53 874.374 1039.64V1039.76C898.708 1051.39 922.882 1063.5 946.697 1076.44C921.843 1069.21 897.509 1061.18 873.255 1052.79C856.353 1047 839.651 1040.96 822.829 1034.97C799.174 1026.62 775.879 1017.75 752.424 1008.48C752.424 1008.48 744.872 1063.18 743.873 1085.99C743.754 1089.15 743.674 1092.23 743.554 1095.14C782.272 1110.41 823.429 1126.03 867.142 1141.69C1056.74 1209.46 1292.49 1277.39 1571.51 1322.22C1595.24 1324.38 1618.98 1328.66 1640.48 1330.89C1657.78 1330.89 1677.16 1333.05 1694.46 1333.05H1705.25C1706.97 1333.17 1708.8 1333.17 1710.56 1333.17C1710.96 1331.33 1711.28 1329.61 1711.48 1327.78C1714.12 1310.75 1716.16 1292.53 1717.07 1273.27C1718.51 1243.31 1717.19 1215.3 1714.24 1189.52C1710.88 1161.31 1705.57 1135.82 1699.57 1113.52H1692.86C1683.47 1113.52 1673.6 1113.01 1663.73 1112.41C1655.26 1111.89 1646.83 1111.41 1638.96 1111.41L1635.2 1111.21C1624.81 1110.21 1613.9 1108.65 1602.8 1107.13C1590.89 1105.49 1578.66 1103.78 1566.52 1102.66L1563.96 1102.34C1399.41 1075.97 1249.65 1041.52 1115.4 1003.72C926.718 950.739 768.807 891.242 643.301 838.259H643.181C632.193 833.664 621.364 829.109 610.895 824.514C600.187 819.918 589.718 815.363 579.529 810.848C570.978 807.092 562.507 803.296 554.356 799.66C552.318 798.861 550.4 797.942 548.442 797.023C499.335 775.006 457.18 755.148 422.097 738.525L391.13 723.861C386.135 721.503 381.46 718.786 377.065 715.59L376.945 866.269V893.36C376.146 903.749 378.264 914.258 383.378 923.608L383.458 923.568Z" fill="#3FDBB1"/>
<path d="M1753.89 1401.69H1753.77C1740.22 1401.89 1726.48 1401.81 1712.29 1401.37V1401.25L1707.1 1401.13L1694.55 1401.01H1689.47C1672.17 1401.01 1652.79 1398.86 1635.57 1398.86C1613.96 1396.7 1590.22 1392.42 1566.49 1390.31C1288.46 1345.67 1053.31 1278.03 864.236 1210.5C863.117 1251.25 862.798 1293.41 863.517 1336.84C864.955 1422.23 868.112 1397.66 875.624 1471.74C875.624 1536.43 903.035 1594.93 953.261 1635.44C996.255 1670.09 1047.92 1690.07 1097.71 1712.48C1153.25 1737.34 1209.67 1760.27 1266.93 1781.13C1380.21 1822.28 1496.36 1855.21 1614.43 1879.14C1663.14 1888.73 1712.45 1897.08 1761.84 1896.37C1761.84 1896.37 1808.51 1602.24 1753.81 1401.65L1753.89 1401.69Z" fill="#463884"/>
<path d="M1753.91 1401.69C1808.61 1602.28 1761.94 1896.41 1761.94 1896.41C1824.71 1895.49 1886.32 1880.3 1947.06 1864.52C2118.72 1819.69 2288.34 1768.26 2449.6 1693.26C2459.47 1688.67 2469.26 1683.99 2479.05 1679C2518.37 1658.82 2555.57 1634.57 2582.78 1600.36C2635.96 1533.63 2638.32 1448.44 2644.2 1367.57C2644.52 1363.18 2644.79 1359.1 2645.11 1355.22C2645.31 1352.59 2645.51 1349.91 2645.83 1347.47C2645.95 1345.43 2646.15 1343.4 2646.35 1341.48C2647.07 1333.85 2647.67 1327.01 2648.39 1320.78C2648.71 1318.02 2648.99 1315.47 2649.31 1312.95C2649.91 1307.35 2650.55 1302.36 2651.15 1297.57C2651.27 1295.93 2651.47 1294.41 2651.67 1292.89C2652.19 1288.41 2652.71 1284.14 2653.11 1279.86C2653.23 1278.35 2653.31 1276.91 2653.51 1275.39C2653.83 1272.03 2654.03 1268.56 2654.22 1265C2654.22 1263.68 2654.34 1262.44 2654.42 1261.12C2654.62 1254.89 2654.74 1248.18 2654.54 1240.43C2654.54 1238.19 2654.54 1235.83 2654.42 1233.31C2654.3 1230.88 2654.22 1228.32 2654.1 1225.56C2654.1 1222.92 2653.98 1220.17 2653.79 1217.21C2380.76 1301.68 2104.25 1356.06 1927.92 1385.11C1868.1 1395.62 1813.12 1401.21 1753.91 1401.73V1401.69Z" fill="#5032AD"/>
<path d="M435.986 999.086L405.019 984.502C391.354 977.989 380.365 968.399 372.614 956.691C368.938 978.908 378.927 1003.16 403.78 1014.95C455.006 1039 525.411 1073.13 614.276 1111.73C613.557 1102.46 612.637 1091.67 611.838 1079.52C541.154 1048.75 482.337 1020.94 435.986 999.046V999.086Z" fill="#5032AD"/>
<path d="M743.859 1134.38C744.059 1140.17 744.379 1145.68 744.778 1150.76C745.178 1156.07 745.578 1161.15 746.097 1166.26C783.297 1180.85 822.615 1195.71 864.291 1210.58C864.61 1200.27 865.01 1190.2 865.41 1180.13C822.535 1164.74 781.979 1149.48 743.859 1134.38Z" fill="#5032AD"/>
<path d="M1635.63 1398.94C1652.86 1398.94 1672.2 1401.1 1689.54 1401.1H1694.61C1697.37 1392.35 1700.01 1382.88 1702.44 1372.77H1700.29C1691.21 1372.77 1681.63 1372.25 1672.08 1371.65C1663.32 1371.13 1654.53 1370.65 1646.38 1370.65L1644.15 1370.53C1633.96 1369.53 1623.25 1367.97 1612.26 1366.45C1600.15 1364.74 1587.73 1362.98 1575.26 1361.86L1573.74 1361.66C1293.48 1316.75 1056.09 1248.26 865.377 1180.13C864.977 1190.2 864.577 1200.31 864.258 1210.58C1053.34 1278.11 1288.48 1345.76 1566.51 1390.39C1590.24 1392.55 1613.98 1396.82 1635.59 1398.94H1635.63Z" fill="#5032AD"/>
<path d="M383.445 923.565C378.37 914.175 376.212 903.707 377.012 893.318V866.227C366.942 878.853 360.909 894.436 360.309 911.578C359.59 928.08 364.065 943.664 372.656 956.69C374.175 947.02 378.25 937.63 384.883 929.879C384.284 927.721 383.764 925.683 383.445 923.565Z" fill="white"/>
<path d="M384.859 929.915C385.259 929.315 385.778 928.796 386.298 928.197C385.299 926.678 384.38 925.24 383.461 923.602C383.781 925.759 384.26 927.797 384.899 929.915H384.859Z" fill="white"/>
<path d="M405.03 984.5L435.997 999.084C482.348 1020.98 541.125 1048.79 611.85 1079.56C611.25 1071.73 610.731 1063.38 610.211 1054.31C610.012 1049.43 609.692 1044.44 609.492 1039.24C525.222 1002.48 458.094 969.956 408.706 946.82C399.037 942.225 391.605 935.712 386.29 928.16C385.771 928.76 385.291 929.279 384.852 929.878C378.219 937.63 374.143 946.98 372.625 956.69C380.377 968.397 391.365 977.987 405.03 984.5Z" fill="white"/>
<path d="M1710.6 1333.12C1708.88 1333.12 1707.04 1333.12 1705.28 1333H1694.49C1677.19 1333 1657.81 1330.85 1640.51 1330.85C1619.02 1328.61 1595.28 1324.33 1571.55 1322.18C1292.48 1277.34 1056.78 1209.42 867.178 1141.65C823.465 1125.94 782.309 1110.36 743.59 1095.1C743.471 1100.17 743.391 1105.09 743.391 1109.88C743.391 1118.55 743.59 1126.78 743.91 1134.34C782.029 1149.4 822.546 1164.7 865.46 1180.09C1056.18 1248.25 1293.56 1316.7 1573.82 1361.61L1575.34 1361.81C1587.77 1362.93 1600.2 1364.65 1612.34 1366.41C1623.33 1367.93 1634.04 1369.48 1644.23 1370.48L1646.47 1370.6C1654.62 1370.6 1663.37 1371.12 1672.16 1371.6C1681.75 1372.2 1691.3 1372.72 1700.37 1372.72H1702.53C1704.36 1365.49 1706.08 1358.06 1707.72 1350.23C1708.72 1344.71 1709.76 1339.04 1710.68 1333.12H1710.6Z" fill="white"/>
<path d="M3151.46 625.483C3146.67 618.85 3141.67 613.137 3136.48 608.462C3129.44 601.029 3120.17 595.515 3108.75 592.159C3079.9 584.527 3047.01 574.937 3011.05 564.429C2783.77 498.419 2432.99 389.216 2136.34 303.707C2086.24 289.562 2037.93 275.777 1991.78 263.15C1821.76 215.761 1643.47 216.68 1474.05 266.507C1401.81 288.004 1317.86 312.977 1229.03 339.349C1019.06 402.122 780.153 474.045 596.589 531.504C523.747 554.319 459.775 574.897 409.349 591.799C401.197 594.556 394.285 598.712 388.891 604.026C394.605 597.393 402.236 591.999 411.506 588.443C642.38 510.726 1164.38 355.452 1477.25 264.868C1645.43 213.004 1824.56 213.004 1994.98 260.473C2154.53 303.667 2342.28 359.687 2523.41 413.71C2754.28 484.834 2974.33 551.762 3110.22 590.561C3114.5 590.561 3116.66 592.718 3118.9 594.836C3134.6 601.149 3145.47 612.377 3151.5 625.403L3151.46 625.483Z" fill="white"/>
<path d="M422.117 738.486C457.16 755.108 499.355 774.967 548.462 796.983C550.38 797.902 552.338 798.821 554.376 799.62C562.527 803.297 570.998 807.052 579.549 810.808C589.738 815.284 600.247 819.879 610.915 824.474C621.424 829.069 632.213 833.624 643.201 838.219H643.321C768.827 891.203 926.738 950.699 1115.42 1003.68C1249.67 1041.48 1399.43 1075.93 1563.98 1102.3L1566.53 1102.62C1578.64 1103.74 1590.87 1105.45 1602.82 1107.09C1613.92 1108.61 1624.83 1110.13 1635.22 1111.17L1638.98 1111.37C1646.81 1111.37 1655.28 1111.89 1663.75 1112.37C1673.62 1112.97 1683.53 1113.49 1692.88 1113.49H1699.59C1696.12 1100.66 1692.48 1089.03 1688.8 1078.44C1648.37 1077.32 1608.33 1073.45 1568.49 1067.25C1455.93 1049.31 1350.49 1027.62 1252.35 1003.68C1027.71 949.061 840.95 882.652 694.146 822.556C682.839 817.881 671.85 813.286 661.022 808.811C650.114 804.215 639.645 799.74 629.256 795.145H629.136C620.385 791.469 611.834 787.713 603.363 784.157C601.445 783.238 599.488 782.319 597.57 781.52C516.776 746.078 452.085 714.791 403.817 692.175C390.99 686.182 382.12 676.592 377.125 665.604V715.63C381.52 718.787 386.195 721.544 391.19 723.901L422.157 738.566L422.117 738.486Z" fill="white"/>
<path d="M1734.52 1307.27C1733.6 1314.51 1732.61 1321.42 1731.49 1328.05C1731.17 1329.89 1730.89 1331.73 1730.45 1333.45C1730.33 1334.16 1730.25 1334.76 1730.05 1335.48C1729.13 1340.68 1728.01 1345.79 1726.89 1350.55C1725.17 1358.5 1723.22 1365.93 1721.3 1372.96C1718.34 1383.47 1715.3 1392.94 1712.35 1401.29L1707.15 1401.17L1694.61 1401.05C1697.36 1392.3 1700 1382.83 1702.44 1372.72C1704.28 1365.49 1705.99 1358.06 1707.63 1350.23C1708.63 1344.71 1709.67 1339.04 1710.59 1333.13C1710.99 1331.29 1711.31 1329.57 1711.51 1327.73C1714.15 1310.71 1716.18 1292.49 1717.1 1273.23C1718.54 1243.26 1717.22 1215.25 1714.27 1189.48C1710.91 1161.27 1705.59 1135.78 1699.6 1113.48C1696.12 1100.65 1692.49 1089.03 1688.81 1078.44C1693.89 1078.64 1699 1078.76 1704.08 1078.84C1708.27 1089.35 1712.55 1101.05 1716.5 1113.8C1723.86 1137.01 1730.45 1163.83 1734.32 1193.87C1736.16 1208.26 1737.36 1223.32 1737.88 1239.11C1738.48 1263.64 1737.16 1286.5 1734.52 1307.27Z" fill="#5032AD"/>
<path d="M1385.81 615.49C1320.92 740.077 1388.17 850.199 1477.39 931.912C1507.12 959.203 1539.33 983.257 1569.9 1003.64C1586.4 1014.62 1602.38 1024.61 1617.36 1033.36C1645.97 1050.19 1670.35 1062.69 1685.93 1070.36C1686.53 1072.08 1687.25 1073.92 1687.97 1075.88C1671.99 1075.56 1654.57 1073.84 1638.98 1073.84C1617.36 1071.68 1593.63 1067.41 1569.9 1065.17C1461.21 1047.75 1359 1026.77 1263.54 1003.64C1036.47 948.734 847.587 881.686 699.225 820.951C687.798 816.275 676.729 811.68 665.901 807.205C654.993 802.61 644.284 798.055 633.895 793.66C625.224 789.904 616.674 786.108 608.322 782.472C606.404 781.672 604.447 780.833 602.529 779.914C520.816 744.152 455.526 712.466 407.137 689.851C390.755 682.019 380.845 668.873 377.089 654.488C372.414 637.187 376.57 618.007 388.797 604.062C394.191 598.748 401.144 594.592 409.255 591.835C459.681 574.933 523.653 554.355 596.495 531.54C780.059 474.081 1018.96 402.158 1228.94 339.385C1317.76 313.013 1401.72 288.04 1473.96 266.543C1643.38 216.716 1821.67 215.797 1991.69 263.186C2037.84 275.813 2086.14 289.558 2136.25 303.743C2099.17 303.943 2062.29 305.261 2025.81 307.818C1838.97 320.964 1662.84 366.795 1527.74 464.611C1500.25 484.59 1476.6 504.249 1456.54 523.788C1454.38 525.946 1452.26 527.983 1450.1 530.101C1441.43 538.772 1433.6 547.403 1426.37 555.993C1417.7 566.063 1410.07 576.172 1403.35 586.041C1396.64 595.911 1390.73 605.82 1385.73 615.49H1385.81Z" fill="#7453C6"/>
<path d="M3197.28 814.165C3197.28 850.925 3193.32 885.768 3186.37 916.336C3180.66 941.589 3172.9 964.005 3163.63 982.345C3160.28 989.058 3156.72 995.171 3153.05 1000.77C3147.85 1008.72 3141.94 1015.23 3135.82 1020.1V1020.42C3134.31 1022.26 3132.47 1023.78 3128.71 1025.3C3126.27 1026.82 3123.84 1028.34 3121.08 1029.57C3112.53 1035.49 3100.5 1042.2 3094.99 1044.04C2961.65 1111.89 2808.29 1169.35 2653.74 1217.13C2653.74 1216.81 2653.74 1216.42 2653.62 1216.02C2380.39 1300.17 2103.17 1354.15 1926.72 1383.8C1870.58 1393.67 1811.92 1399.78 1753.62 1401.1C1739.87 1401.5 1726.21 1401.5 1712.54 1401.22H1712.22C1715.18 1392.87 1718.22 1383.4 1721.17 1372.89C1723.09 1365.86 1725.05 1358.42 1726.77 1350.47C1727.89 1345.68 1729.01 1340.6 1729.93 1335.41C1730.13 1334.69 1730.24 1334.09 1730.32 1333.37C1730.72 1331.65 1731.04 1329.81 1731.36 1327.98C1732.48 1321.34 1733.52 1314.43 1734.4 1307.2C1737.04 1286.42 1738.36 1263.6 1737.76 1239.03C1737.24 1223.25 1736.04 1208.14 1734.2 1193.8C1730.32 1163.75 1723.69 1136.94 1716.38 1113.72C1712.42 1100.98 1708.11 1089.27 1703.95 1078.76C1703.95 1078.76 1704.95 1078.56 1706.99 1078.24C1709.55 1077.84 1713.5 1077.12 1719.02 1076.2C1721.85 1075.81 1725.01 1075.21 1728.61 1074.57C1783.43 1065.3 1924.92 1040.52 2102.61 1003.56C2313.78 959.769 2576.14 898.634 2804.66 825.992C2821.16 820.798 2837.46 815.483 2853.57 810.089C2865.99 806.013 2878.22 801.818 2890.25 797.662C2898.28 794.905 2906.23 792.148 2914.18 789.311C2918.26 787.873 2922.33 786.474 2926.41 785.036C3002.09 757.825 3071.57 729.295 3131.07 699.647C3146.77 691.815 3161.72 683.944 3175.98 675.992C3178.34 682.705 3180.58 689.738 3182.49 697.17C3191.76 730.973 3197.16 771.131 3197.16 814.005L3197.28 814.165Z" fill="#7453C6"/>
<path d="M388.831 604.107C371.929 620.01 367.733 645.184 377.123 665.522V654.534C372.448 637.232 376.604 618.053 388.831 604.107Z" fill="#7453C6"/>
<path d="M403.817 692.129C452.125 714.745 516.816 746.032 597.57 781.474C599.208 780.954 600.926 780.475 602.564 779.955C520.852 744.194 455.561 712.507 407.173 689.892C390.79 682.06 380.881 668.914 377.125 654.529V665.518C382.12 676.506 390.99 686.096 403.817 692.089V692.129Z" fill="#7453C6"/>
<path d="M602.573 779.921C600.935 780.44 599.216 780.92 597.578 781.439C599.496 782.238 601.454 783.157 603.372 784.076C605.01 783.557 606.728 783.077 608.367 782.438C606.449 781.639 604.491 780.8 602.573 779.881V779.921Z" fill="#7453C6"/>
<path d="M665.945 807.25C664.307 807.769 662.669 808.249 661.07 808.768C671.859 813.244 682.887 817.839 694.195 822.514C695.913 821.994 697.551 821.475 699.27 820.995C687.842 816.32 676.774 811.725 665.945 807.25Z" fill="#7453C6"/>
<path d="M699.262 820.993C697.544 821.513 695.906 821.992 694.188 822.511C840.991 882.607 1027.75 949.056 1252.39 1003.64H1263.58C1036.5 948.737 847.624 881.688 699.262 820.953V820.993Z" fill="#7453C6"/>
<path d="M1688.77 1078.44C1648.33 1077.32 1608.29 1073.45 1568.45 1067.25C1455.9 1049.31 1350.45 1027.61 1252.31 1003.68H1263.5C1358.96 1026.81 1461.13 1047.79 1569.85 1065.21C1593.59 1067.45 1617.32 1071.73 1638.94 1073.88C1654.52 1073.88 1671.94 1075.6 1687.93 1075.92C1688.13 1076.72 1688.45 1077.56 1688.73 1078.48L1688.77 1078.44Z" fill="#7453C6"/>
<path d="M608.377 782.479C606.739 783.078 605.021 783.597 603.383 784.117C611.854 787.673 620.405 791.469 629.155 795.105H629.275C630.794 794.705 632.312 794.186 633.95 793.667C625.279 789.911 616.729 786.115 608.377 782.479Z" fill="#7453C6"/>
<path d="M633.933 793.701C632.295 794.221 630.776 794.7 629.258 795.14C639.647 799.735 650.155 804.21 661.024 808.805C662.662 808.286 664.3 807.806 665.899 807.287C654.99 802.692 644.282 798.136 633.893 793.741L633.933 793.701Z" fill="#7453C6"/>
<path d="M1753.76 1401.7C1740.22 1401.9 1726.47 1401.82 1712.29 1401.38V1401.26H1712.61C1726.27 1401.58 1739.9 1401.58 1753.68 1401.14C1753.8 1401.34 1753.8 1401.54 1753.8 1401.66L1753.76 1401.7Z" fill="#7453C6"/>
<path d="M2653.77 1217.21C2380.75 1301.68 2104.24 1356.06 1927.91 1385.11C1868.09 1395.62 1813.11 1401.22 1753.9 1401.73H1753.78C1753.78 1401.73 1753.78 1401.41 1753.66 1401.22C1811.91 1399.9 1870.61 1393.78 1926.75 1383.91C2103.2 1354.27 2380.43 1300.28 2653.66 1216.13C2653.78 1216.53 2653.77 1216.93 2653.77 1217.25V1217.21Z" fill="#7453C6"/>
<path d="M464.312 878.135C470.826 881.691 477.458 885.167 484.091 888.644C486.529 887.844 488.966 887.005 491.444 886.206C482.493 883.449 473.423 880.692 464.352 878.175L464.312 878.135Z" fill="white"/>
<path d="M775.473 994.288H775.593V994.168C754.695 985.018 733.837 976.547 713.06 967.676H712.94L712.141 967.477C733.238 976.347 754.336 985.098 775.513 994.288H775.473Z" fill="#D0021B"/>
<path d="M711.9 967.481H712.1L712.899 967.681C711.98 967.281 710.981 966.882 710.062 966.442C684.609 955.734 659.236 946.064 634.383 936.674V936.794C659.956 946.384 684.809 956.453 710.062 966.642C710.661 966.961 711.301 967.161 711.9 967.441V967.481Z" fill="#D0021B"/>
<path d="M743.862 1134.38C743.542 1126.83 743.342 1118.6 743.342 1109.93C743.342 1105.13 743.462 1100.26 743.542 1095.14C743.662 1092.19 743.742 1089.15 743.862 1085.99C744.86 1063.18 751.893 1008.88 751.893 1008.88L752.412 1008.48L607.647 948.061V948.18C607.647 953.974 607.527 962.445 607.647 972.834C607.847 993.092 608.366 1011.95 609.085 1029.29C609.205 1032.65 609.405 1036.01 609.485 1039.28C609.685 1044.48 610.005 1049.47 610.204 1054.35C610.724 1063.42 611.203 1071.77 611.843 1079.6C612.642 1091.71 613.561 1102.54 614.28 1111.81C615.399 1123.63 616.198 1133.1 616.837 1139.82C620.393 1182.81 621.233 1245.86 607.767 1330.01C615.119 1317.27 627.106 1299.96 646.086 1283.66C658.113 1273.35 669.941 1266.04 679.69 1260.85C689.36 1269.2 700.388 1280.63 710.657 1295.69C731.954 1327.06 738.667 1358.34 741.104 1376.88C744.381 1364.46 748.656 1345.6 751.693 1322.38C759.845 1258.93 750.694 1217.33 746.099 1166.31C745.58 1161.23 745.18 1156.12 744.781 1150.8C744.381 1145.73 744.061 1140.22 743.862 1134.42V1134.38Z" fill="#EF4438"/>
<path d="M767.006 1001.64C769.364 1000.64 772.4 998.484 775.477 994.289C754.3 985.139 733.202 976.348 712.105 967.477H711.905C711.306 967.158 710.666 966.958 710.067 966.678C684.814 956.489 659.96 946.42 634.388 936.83H634.268C631.91 938.868 628.754 941.026 624.798 943.063C621.961 944.502 619.084 945.621 616.527 946.34H616.407C613.25 947.379 610.493 947.778 608.256 948.058H607.656L752.422 1008.47C752.422 1008.47 754.459 1007.04 755.978 1006.12C760.973 1003.48 763.809 1003.16 766.966 1001.64H767.006Z" fill="#D0021B"/>
<path d="M751.922 1008.87C751.922 1008.87 744.89 1063.17 743.891 1085.99C744.89 1063.17 752.442 1008.47 752.442 1008.47L751.922 1008.87Z" fill="#EF4438"/>
<path d="M3176.11 676.11C3161.85 684.061 3146.86 691.893 3131.2 699.764C3071.7 729.413 3002.22 757.942 2926.54 785.153C2922.46 786.592 2918.39 787.99 2914.31 789.429C2906.36 792.266 2898.41 795.023 2890.38 797.78C2878.35 801.975 2866.12 806.131 2853.7 810.206C2837.59 815.601 2821.29 820.915 2804.79 826.109C2576.27 898.752 2313.95 959.887 2102.74 1003.68C1925.05 1040.68 1783.56 1065.41 1728.74 1074.68C1725.18 1075.28 1722.02 1075.92 1719.15 1076.32C1713.63 1077.24 1709.68 1077.96 1707.12 1078.36C1705.08 1078.68 1704.08 1078.88 1704.08 1078.88C1699.01 1078.76 1693.89 1078.68 1688.82 1078.48C1688.5 1077.56 1688.22 1076.76 1688.02 1075.92C1687.3 1074 1686.58 1072.17 1685.98 1070.41C1670.4 1062.78 1646.07 1050.23 1617.42 1033.41C1602.43 1024.66 1586.45 1014.67 1569.95 1003.68C1539.38 983.302 1507.17 959.247 1477.45 931.956C1388.18 850.244 1320.97 740.121 1385.86 615.534C1390.86 605.865 1396.77 595.955 1403.48 586.086C1410.2 576.216 1417.83 566.107 1426.5 556.038C1433.73 547.487 1441.56 538.816 1450.23 530.145C1452.39 527.988 1454.51 525.95 1456.67 523.832C1476.73 504.253 1500.38 484.594 1527.87 464.655C1662.97 366.84 1839.1 321.009 2025.94 307.863C2062.42 305.305 2099.3 303.987 2136.38 303.787C2433.07 389.256 2783.81 498.459 3011.09 564.509C3047.05 575.017 3079.97 584.567 3108.78 592.239C3120.21 595.596 3129.48 601.11 3136.51 608.542C3141.71 613.217 3146.7 618.931 3151.5 625.563C3151.5 625.683 3151.62 625.763 3151.62 625.883C3161.09 639.349 3169.44 656.331 3176.15 676.229L3176.11 676.11Z" fill="#5032AD"/>
<path d="M1134.73 3150.23H1085.99C1075.92 3150.23 1067.61 3148.67 1061.05 3145.59C1054.46 3142.51 1049.35 3138.24 1045.67 3132.84C1041.99 3127.45 1039.48 3120.78 1038.12 3112.83C1036.76 3104.91 1036.08 3096.08 1036.08 3086.41V3004.02H988.49V3107.87C988.49 3117.54 987.411 3125.17 985.333 3130.81C983.216 3136.4 979.939 3140.68 975.504 3143.55C971.069 3146.47 965.514 3148.31 958.762 3149.07C952.009 3149.87 944.057 3150.23 934.827 3150.23C922.121 3150.23 912.131 3148.67 904.819 3145.59C897.507 3142.51 891.833 3138.24 887.797 3132.84C883.762 3127.45 881.165 3120.78 880.006 3112.83C878.847 3104.91 878.288 3096.08 878.288 3086.41V3004.02H830.698V3190.66C830.698 3209.92 828.581 3225.71 824.345 3238.05C820.11 3250.36 813.437 3260.19 804.367 3267.5C795.296 3274.81 783.829 3279.81 769.923 3282.52C756.018 3285.2 739.436 3286.56 720.177 3286.56C700.917 3286.56 685.254 3284.84 670.989 3281.37C656.724 3277.89 644.857 3272.22 635.387 3264.34C625.917 3256.47 618.805 3246.08 613.97 3233.22C609.135 3220.35 606.738 3204.65 606.738 3186.15V3106.67H559.148V3196.02C559.148 3240.89 572.494 3275.21 599.266 3298.99C625.997 3322.76 665.914 3334.67 719.018 3334.67C744.191 3334.67 766.687 3331.95 786.466 3326.56C806.245 3321.12 822.907 3312.61 836.452 3301.02C849.998 3289.44 860.387 3274.61 867.539 3256.63C874.691 3238.65 878.288 3216.87 878.288 3191.34V3169.88C882.523 3177.64 889.556 3184.31 899.425 3189.9C909.255 3195.5 923.28 3198.33 941.42 3198.33C964.556 3198.33 983.695 3196.02 998.759 3191.38C1013.82 3186.75 1024.81 3176.48 1031.76 3160.61C1034.84 3171.44 1040.91 3180.43 1050.02 3187.59C1059.09 3194.74 1071.16 3198.33 1086.23 3198.33H1182.36V2974.97H1134.77V3150.19L1134.73 3150.23Z" fill="#939393"/>
<path d="M1305.91 3159.53C1305.91 3179.63 1305.43 3196.77 1304.47 3210.88C1303.51 3224.98 1300.39 3236.61 1295.2 3245.68C1289.96 3254.75 1282.05 3261.34 1271.42 3265.42C1260.8 3269.5 1245.97 3271.49 1227.03 3271.49V3319.64C1252.92 3319.64 1274.14 3316.92 1290.6 3311.53C1307.07 3306.1 1320.01 3297.43 1329.4 3285.44C1338.79 3273.45 1345.15 3257.67 1348.5 3238.17C1351.82 3218.63 1353.5 3194.58 1353.5 3165.93V3004.06H1305.91V3159.53Z" fill="#939393"/>
<path d="M1481.71 2784.14H1434.12V3198.42H1481.71V2784.14Z" fill="#939393"/>
<path d="M3030.22 2784.14V3150.23H2939.71C2922.29 3150.23 2909.62 3144.51 2901.71 3133.13C2893.76 3121.74 2889.8 3106.15 2889.8 3086.42V2784.14H2842.22V3107.87C2842.22 3117.54 2841.14 3125.17 2839.02 3130.81C2836.9 3136.4 2833.98 3140.68 2830.31 3143.55C2826.63 3146.47 2822.08 3148.31 2816.68 3149.07C2811.25 3149.87 2805.1 3150.23 2798.1 3150.23H2753.03C2752.39 3150.23 2751.79 3150.11 2751.11 3150.11C2735.25 3150.11 2723.54 3146.91 2716.03 3140.52C2708.48 3134.12 2702.76 3124.73 2698.93 3112.31C2698.93 3109.99 2699.01 3107.55 2699.21 3105.04C2699.41 3102.52 2699.49 3099.88 2699.49 3097.16C2699.49 3079.74 2696.89 3063.92 2691.66 3049.77C2686.42 3035.63 2679.27 3023.4 2670.2 3013.13C2661.09 3002.87 2650.38 2994.91 2637.99 2989.28C2625.61 2983.65 2612.06 2980.85 2597.4 2980.85C2586.97 2980.85 2576.42 2982.21 2565.79 2984.92C2555.16 2987.64 2544.69 2993.16 2534.46 3001.51C2524.2 3009.86 2514.17 3021.68 2504.3 3036.99C2494.43 3052.29 2485.04 3072.39 2476.17 3097.2C2471.89 3108.83 2467.38 3118.06 2462.54 3124.85C2457.71 3131.65 2452.75 3136.96 2447.76 3140.84C2442.72 3144.71 2437.69 3147.23 2432.65 3148.39C2427.62 3149.55 2422.78 3150.15 2418.15 3150.15H2394.37C2393.57 3150.15 2392.94 3150.23 2392.18 3150.27H1793.9C1788.46 3150.27 1783.35 3148.83 1778.51 3145.91C1773.68 3143 1768.64 3138.64 1763.41 3132.85C1758.17 3127.05 1752.66 3119.5 1746.87 3110.23C1741.07 3100.96 1734.28 3089.93 1726.57 3077.15L1656.96 2961.67L1612.29 2989.52L1673.78 3080.62C1679.58 3089.13 1684.41 3097.08 1688.29 3104.4C1692.16 3111.75 1694.08 3119.1 1694.08 3126.45C1694.08 3134.2 1689.73 3140.08 1681.02 3144.15C1672.3 3148.23 1659.84 3150.23 1643.58 3150.23H1539.73V3198.38H1627.91C1637.18 3198.38 1646.49 3197.98 1655.76 3197.22C1665.03 3196.46 1673.82 3194.62 1682.17 3191.7C1690.49 3188.79 1698.04 3184.27 1704.79 3178.08C1711.54 3171.88 1717.06 3163.57 1721.33 3153.14C1732.16 3170.17 1742.99 3181.95 1753.82 3188.55C1764.65 3195.14 1777.99 3198.42 1793.86 3198.42H2419.31C2426.26 3198.42 2432.85 3198.14 2439.05 3197.54C2445.24 3196.98 2451.23 3195.62 2457.03 3193.46C2462.82 3191.34 2468.33 3188.03 2473.57 3183.59C2478.8 3179.16 2483.92 3173.04 2488.95 3165.33C2508.69 3180.04 2527.83 3190.46 2546.37 3196.66C2564.95 3202.85 2583.29 3205.93 2601.47 3205.93C2622.73 3205.93 2640.43 3201.77 2654.58 3193.46C2668.68 3185.15 2679.43 3173.64 2686.78 3158.94V3160.1C2693.37 3174.04 2702.05 3183.87 2712.87 3189.71C2723.7 3195.5 2736.45 3198.42 2751.15 3198.42C2751.27 3198.42 2751.35 3198.42 2751.47 3198.42C2751.55 3198.42 2751.63 3198.42 2751.75 3198.42H2792.95C2816.92 3198.42 2836.54 3196.1 2851.85 3191.46C2867.11 3186.83 2878.26 3176.56 2885.21 3160.7C2888.29 3171.52 2894.4 3180.52 2903.47 3187.67C2912.54 3194.82 2924.65 3198.42 2939.71 3198.42H3077.8V2784.14H3030.22ZM2637.11 3142.72C2627.25 3151.99 2614.18 3156.66 2597.96 3156.66C2583.25 3156.66 2568.83 3153.86 2554.72 3148.23C2540.62 3142.64 2526.39 3135.16 2512.09 3125.89C2524.08 3089.93 2536.82 3064.8 2550.37 3050.45C2563.91 3036.15 2578.82 3029 2595.04 3029C2604.31 3029 2612.46 3030.84 2619.41 3034.51C2626.37 3038.19 2632.28 3043.14 2637.11 3049.3C2641.95 3055.49 2645.63 3062.64 2648.14 3070.75C2650.66 3078.86 2651.9 3087.21 2651.9 3095.69C2651.9 3117.74 2646.98 3133.41 2637.11 3142.68V3142.72Z" fill="#939393"/>
<path d="M2956.25 3556.08H601.288C270.281 3556.08 0.96875 3286.81 0.96875 2955.8V600.835C0.96875 269.828 270.281 0.515625 601.288 0.515625H2956.25C3287.26 0.515625 3556.57 269.828 3556.57 600.835V2955.8C3556.57 3286.81 3287.26 3556.12 2956.25 3556.12V3556.08ZM601.288 79.791C313.994 79.791 80.2441 313.541 80.2441 600.835V2955.8C80.2441 3243.09 313.954 3476.8 601.248 3476.8H2956.25C3243.55 3476.8 3477.26 3243.09 3477.26 2955.8V600.835C3477.26 313.541 3243.55 79.8309 2956.25 79.8309H601.288V79.791Z" fill="#5032AD"/>
</svg>
