<svg width="46" height="49" viewBox="0 0 46 49" fill="none" xmlns="http://www.w3.org/2000/svg">
<path d="M41.771 38.746C44.4273 34.9994 45.9889 30.422 45.9889 25.4798C45.9889 12.7976 35.7079 2.5166 23.0257 2.5166C10.3434 2.5166 0.0625 12.7976 0.0625 25.4798C0.0625 30.422 1.62409 34.9994 4.28042 38.746H41.771Z" fill="#2A428C"/>
<path d="M41.7722 6.07823V38.7459C37.6126 44.6133 30.7667 48.443 23.0267 48.443C15.2867 48.443 8.44087 44.6133 4.28125 38.7459V3.26641C4.28125 1.71335 5.54001 0.45459 7.09307 0.45459C9.26473 0.45459 15.537 1.40967 22.1607 2.53252C25.4008 3.0827 28.7253 3.67225 31.6956 4.20931C37.3848 5.23937 41.7722 6.07823 41.7722 6.07823Z" fill="#E9EFFF"/>
<path d="M23.3436 43.9891C23.1798 43.9891 23.0148 43.9674 22.8534 43.923C22.295 43.7695 21.8543 43.3684 21.6442 42.8223L21.1605 41.565C21.0705 41.3309 20.8665 41.3014 20.783 41.2994C20.7012 41.2983 20.4945 41.318 20.394 41.5477C20.2384 41.9034 19.8241 42.0658 19.4684 41.9102C19.1127 41.7546 18.9504 41.3401 19.1059 40.9845C19.4028 40.3054 20.0706 39.878 20.8147 39.894C21.5557 39.9107 22.2065 40.3684 22.4727 41.0602L22.9564 42.3176C23.0189 42.4799 23.1375 42.543 23.226 42.5674C23.3568 42.6033 23.5003 42.5768 23.6002 42.4982C24.068 42.1299 24.6781 41.927 25.3182 41.927H25.8353C26.2235 41.927 26.5382 42.2418 26.5382 42.63C26.5382 43.0182 26.2235 43.3329 25.8353 43.3329H25.3182C24.9922 43.3329 24.691 43.4287 24.47 43.6028C24.1489 43.8557 23.7497 43.9891 23.3436 43.9891Z" fill="#2A428C"/>
<path d="M28.18 43.3332C27.7918 43.3332 27.4766 43.0184 27.4766 42.6302C27.4766 42.242 27.7908 41.9272 28.179 41.9272H28.18C28.5682 41.9272 28.8829 42.242 28.8829 42.6302C28.8829 43.0184 28.5682 43.3332 28.18 43.3332Z" fill="#2A428C"/>
<path d="M41.7722 6.07823V9.82732H12.7167C11.1636 9.82732 9.90489 11.0861 9.90489 12.6391V44.3265C7.72292 42.8053 5.81838 40.9148 4.28125 38.7459V3.26641C4.28125 2.49035 4.59617 1.78739 5.10511 1.27845C5.61405 0.769514 6.31701 0.45459 7.09307 0.45459C9.26473 0.45459 15.537 1.40967 22.1607 2.53252C25.4008 3.0827 28.7253 3.67225 31.6956 4.20931C37.3848 5.23937 41.7722 6.07823 41.7722 6.07823Z" fill="#D3DCFB"/>
<path d="M31.6988 25.8546H14.3592C13.971 25.8546 13.6562 25.5399 13.6562 25.1517C13.6562 24.7635 13.971 24.4487 14.3592 24.4487H31.6988C32.087 24.4487 32.4017 24.7635 32.4017 25.1517C32.4017 25.5399 32.087 25.8546 31.6988 25.8546Z" fill="#D3DCFB"/>
<path d="M19.2799 25.1517C19.2799 24.7635 19.5946 24.4487 19.9828 24.4487H14.3592C13.971 24.4487 13.6562 24.7635 13.6562 25.1517C13.6562 25.5399 13.971 25.8546 14.3592 25.8546H19.9828C19.5946 25.8546 19.2799 25.5399 19.2799 25.1517Z" fill="#BEC8F7"/>
<path d="M37.7896 29.1349H8.26545C7.87724 29.1349 7.5625 28.8202 7.5625 28.432C7.5625 28.0437 7.87724 27.729 8.26545 27.729H37.7896C38.1778 27.729 38.4925 28.0437 38.4925 28.432C38.4925 28.8202 38.1778 29.1349 37.7896 29.1349Z" fill="#D3DCFB"/>
<path d="M13.1861 28.432C13.1861 28.0437 13.5009 27.729 13.8891 27.729H8.26545C7.87724 27.729 7.5625 28.0437 7.5625 28.432C7.5625 28.8202 7.87724 29.1349 8.26545 29.1349H13.8891C13.5009 29.1349 13.1861 28.8202 13.1861 28.432Z" fill="#BEC8F7"/>
<path d="M34.0414 32.4157H12.0155C11.6272 32.4157 11.3125 32.1009 11.3125 31.7127C11.3125 31.3245 11.6272 31.0098 12.0155 31.0098H34.0414C34.4296 31.0098 34.7443 31.3245 34.7443 31.7127C34.7443 32.1009 34.4296 32.4157 34.0414 32.4157Z" fill="#D3DCFB"/>
<path d="M16.9361 31.7127C16.9361 31.3245 17.2509 31.0098 17.6391 31.0098H12.0155C11.6272 31.0098 11.3125 31.3245 11.3125 31.7127C11.3125 32.1009 11.6272 32.4157 12.0155 32.4157H17.6391C17.2509 32.4157 16.9361 32.1009 16.9361 31.7127Z" fill="#BEC8F7"/>
<path d="M34.0414 35.6959H12.0155C11.6272 35.6959 11.3125 35.3812 11.3125 34.993C11.3125 34.6048 11.6272 34.29 12.0155 34.29H34.0414C34.4296 34.29 34.7443 34.6048 34.7443 34.993C34.7443 35.3812 34.4296 35.6959 34.0414 35.6959Z" fill="#D3DCFB"/>
<path d="M16.9361 34.993C16.9361 34.6048 17.2509 34.29 17.6391 34.29H12.0155C11.6272 34.29 11.3125 34.6048 11.3125 34.993C11.3125 35.3812 11.6272 35.6959 12.0155 35.6959H17.6391C17.2509 35.6959 16.9361 35.3812 16.9361 34.993Z" fill="#BEC8F7"/>
<path d="M35.2089 19.8563H12.2458C11.4693 19.8563 10.8398 19.2268 10.8398 18.4503C10.8398 17.6739 11.4693 17.0444 12.2458 17.0444H35.2089V19.8563Z" fill="#D3DCFB"/>
<path d="M16.4635 18.4503C16.4635 17.6739 17.093 17.0444 17.8694 17.0444H12.2458C11.4693 17.0444 10.8398 17.6739 10.8398 18.4503C10.8398 19.2268 11.4693 19.8563 12.2458 19.8563H17.8694C17.093 19.8563 16.4635 19.2268 16.4635 18.4503Z" fill="#BEC8F7"/>
<path d="M23.0262 18.4504C25.6144 18.4504 27.7126 16.3522 27.7126 13.764C27.7126 11.1758 25.6144 9.07764 23.0262 9.07764C20.438 9.07764 18.3398 11.1758 18.3398 13.764C18.3398 16.3522 20.438 18.4504 23.0262 18.4504Z" fill="white"/>
<path d="M23.0266 17.0443C24.8383 17.0443 26.307 15.5756 26.307 13.7639C26.307 11.9521 24.8383 10.4834 23.0266 10.4834C21.2148 10.4834 19.7461 11.9521 19.7461 13.7639C19.7461 15.5756 21.2148 17.0443 23.0266 17.0443Z" fill="#E9EFFF"/>
<path d="M22.0893 13.7639C22.0893 12.4977 22.5923 11.3496 23.4083 10.5064C23.2829 10.4917 23.1557 10.4834 23.0266 10.4834C21.2177 10.4834 19.7461 11.955 19.7461 13.7639C19.7461 15.5727 21.2177 17.0443 23.0266 17.0443C23.1557 17.0443 23.2829 17.036 23.4083 17.0213C22.5923 16.1781 22.0893 15.03 22.0893 13.7639Z" fill="#D3DCFB"/>
<path d="M41.7729 0.45459C43.3258 0.45459 44.5847 1.71344 44.5847 3.26641C44.5847 4.81938 43.3258 6.07823 41.7729 6.07823H12.7174C11.1644 6.07823 9.90557 4.81938 9.90557 3.26641C9.90557 1.71344 8.64672 0.45459 7.09375 0.45459H41.7729Z" fill="#E9EFFF"/>
<path d="M36.7734 30.4756V38.6991L38.2021 39.4135C38.9811 39.8031 39.8977 39.2366 39.8977 38.3656V30.4757H36.7734V30.4756Z" fill="#FF4155"/>
<path d="M36.7734 30.4756V36.7972C36.7734 35.9345 37.4728 35.2351 38.3356 35.2351C39.1984 35.2351 39.8977 35.9345 39.8977 36.7972V30.4756H36.7734Z" fill="#E80054"/>
<path d="M34.1626 38.442C34.8223 38.1122 35.5987 38.1122 36.2585 38.442L36.7726 38.6991V30.4756H33.6484V38.6991L34.1626 38.442Z" fill="#E80054"/>
<path d="M33.6484 30.4756V36.7972C33.6484 35.9345 34.3478 35.2351 35.2106 35.2351C36.0733 35.2351 36.7727 35.9345 36.7727 36.7972V30.4756H33.6484Z" fill="#C90052"/>
<path d="M32.219 39.4135L33.6477 38.6991V30.4756H30.5234V38.3656C30.5234 39.2366 31.44 39.803 32.219 39.4135Z" fill="#FF4155"/>
<path d="M30.5234 30.4756V36.7972C30.5234 35.9345 31.2228 35.2351 32.0856 35.2351C32.9484 35.2351 33.6477 35.9345 33.6477 36.7972V30.4756H30.5234Z" fill="#E80054"/>
<path d="M35.2089 33.9153C39.8677 33.9153 43.6444 30.1387 43.6444 25.4799C43.6444 20.8211 39.8677 17.0444 35.2089 17.0444C30.5501 17.0444 26.7734 20.8211 26.7734 25.4799C26.7734 30.1387 30.5501 33.9153 35.2089 33.9153Z" fill="#FFE98D"/>
<path d="M34.5059 33.2124C34.5059 32.8248 34.8212 32.5094 35.2089 32.5094V18.4503C34.8212 18.4503 34.5059 18.135 34.5059 17.7474C34.5059 17.3598 34.8212 17.0444 35.2089 17.0444C30.5501 17.0444 26.7734 20.8211 26.7734 25.4799C26.7734 30.1387 30.5501 33.9153 35.2089 33.9153C34.8213 33.9153 34.5059 33.6 34.5059 33.2124Z" fill="#FFDD40"/>
<path d="M35.2092 32.5093C39.0915 32.5093 42.2388 29.3621 42.2388 25.4797C42.2388 21.5974 39.0915 18.4502 35.2092 18.4502C31.3269 18.4502 28.1797 21.5974 28.1797 25.4797C28.1797 29.3621 31.3269 32.5093 35.2092 32.5093Z" fill="#FFDD40"/>
<path d="M35.2094 31.8065C38.7035 31.8065 41.536 28.974 41.536 25.4799C41.536 21.9858 38.7035 19.1533 35.2094 19.1533C31.7153 19.1533 28.8828 21.9858 28.8828 25.4799C28.8828 28.974 31.7153 31.8065 35.2094 31.8065Z" fill="#FF9100"/>
<path d="M35.2098 30.1662C37.798 30.1662 39.8962 28.068 39.8962 25.4798C39.8962 22.8916 37.798 20.7935 35.2098 20.7935C32.6216 20.7935 30.5234 22.8916 30.5234 25.4798C30.5234 28.068 32.6216 30.1662 35.2098 30.1662Z" fill="#FFB332"/>
<path d="M35.7319 20.4985L37.0092 23.0866L39.8654 23.5017C40.3431 23.5711 40.5338 24.158 40.1881 24.495L38.1214 26.5096L38.6093 29.3543C38.6909 29.83 38.1916 30.1928 37.7644 29.9682L35.2096 28.6251L32.655 29.9682C32.2278 30.1928 31.7284 29.83 31.81 29.3543L32.298 26.5096L30.2312 24.495C29.8855 24.158 30.0763 23.5711 30.5539 23.5017L33.4102 23.0866L34.6875 20.4985C34.9011 20.0656 35.5183 20.0656 35.7319 20.4985Z" fill="#FFE98D"/>
<path d="M35.2097 20.1738C35.002 20.1738 34.7943 20.282 34.6875 20.4984L33.4102 23.0867L35.2097 24.9789V20.1738Z" fill="#FFDD40"/>
<path d="M30.1091 23.8335C30.0129 24.0434 30.0388 24.3076 30.2309 24.4947L32.2976 26.5093L35.2094 24.9786L30.1091 23.8335Z" fill="#FFDD40"/>
<path d="M32.0117 29.8999C32.1815 30.0407 32.4285 30.087 32.6553 29.9678L35.2099 28.6248V24.9785L32.0117 29.8999Z" fill="#FFDD40"/>
<path d="M38.4052 29.9C38.5553 29.7756 38.6449 29.5772 38.6066 29.354L38.1187 26.5094L35.207 24.9785L38.4052 29.9Z" fill="#FFDD40"/>
<path d="M40.3073 23.8335C40.2303 23.6656 40.0751 23.5323 39.8628 23.5014L37.0066 23.0864L35.207 24.9786L40.3073 23.8335Z" fill="#FFDD40"/>
</svg>
