<svg width="95" height="112" viewBox="0 0 95 112" fill="none" xmlns="http://www.w3.org/2000/svg">
<path fill-rule="evenodd" clip-rule="evenodd" d="M72.2019 28.6134C81.332 19.3272 46.6014 -2.61575 20.3651 31.9435C20.4193 30.9196 24.8183 19.3627 19.3831 24.1907C5.13108 36.8521 0.783874 59.8355 15.9543 74.4333C23.5726 81.7642 58.548 85.893 73.2593 79.733C104.479 75.2107 98.9775 26.1082 72.2043 28.6134H72.2019Z" fill="#F3EDFF"/>
<path d="M77.1755 17.8529C75.7013 16.4142 73.3487 16.4498 71.9193 17.9335L57.3422 33.2921C55.9128 34.7758 55.9481 37.1436 57.4223 38.5823C58.8965 40.021 61.2491 39.9854 62.6785 38.5017L77.2555 23.1431C78.685 21.6594 78.6497 19.2916 77.1755 17.8529Z" fill="#EA907F"/>
<path d="M67.9727 24.0532C67.9727 24.0532 70.6361 26.1247 71.4132 27.2624C71.4132 27.2624 69.0818 25.5559 67.9727 24.0532Z" fill="#EAA192"/>
<path d="M69.6641 26.3711C69.6641 26.3711 71.0558 27.504 71.3832 28.0231C71.3832 28.0231 70.606 28.0823 69.6641 26.3711Z" fill="#EAA192"/>
<path d="M56.5228 111.346C56.5228 111.346 54.7472 99.4809 54.2974 97.6014C53.386 93.866 52.2698 87.5543 53.6498 83.2122C54.839 79.4815 56.5958 74.1582 57.8792 70.283C58.8495 67.3819 59.5442 65.2914 59.5442 65.2914L49.9808 62.7364L29.613 57.285C28.81 54.474 27.9622 52.5186 27.9622 52.5186C27.9622 52.5186 27.8821 44.2254 27.9504 41.0162C27.9622 40.4569 27.8421 40.0018 27.6325 39.6297C26.6576 37.8521 23.7162 37.9587 23.7162 37.9587L21.4249 50.5087C21.4249 50.5087 18.4012 63.6821 18.3187 64.1822C18.3187 64.1822 17.5322 73.6438 21.8017 81.873C26.0712 90.1093 27.2439 99.7179 27.2439 99.7179L26.0076 111.351H56.5228V111.346Z" fill="#ED998E"/>
<g style="mix-blend-mode:multiply" opacity="0.2">
<path d="M53.6534 83.2124C53.3166 84.2742 53.1282 85.4569 53.0505 86.6871C53.1918 90.8656 42.8372 89.4696 37.3455 89.5028C22.0784 89.6 23.8658 79.8089 25.7686 69.7926C26.9885 59.5725 26.8872 49.2291 27.0897 38.9497C27.6855 39.4806 27.9705 40.1253 27.9587 41.0117C27.8904 44.2186 27.9705 52.5141 27.9705 52.5141C27.9705 52.5141 28.8206 54.4719 29.6213 57.2805C36.0879 59.0107 53.326 63.6278 59.5501 65.2869C58.2808 69.072 55.071 78.7423 53.6534 83.21V83.2124Z" fill="#BCA77D"/>
</g>
<path d="M22.4531 44.4673C22.4531 44.4673 23.7978 45.0646 24.0121 44.062C24.224 43.0571 24.9894 38.6984 23.5011 38.7292L22.4555 44.4697L22.4531 44.4673Z" fill="#FCC9BE"/>
<path opacity="0.25" d="M48.8651 91.0837C48.8651 91.0837 40.7477 93.1268 35.3855 91.9583C30.0233 90.7922 27.4141 88.166 27.4141 88.166C27.4141 88.166 29.9503 93.8544 34.1539 95.2409C38.3574 96.6275 38.7931 107.933 38.7931 107.933C38.7931 107.933 39.3724 102.972 39.5184 100.567C39.5184 100.567 39.4454 102.975 40.3874 103.849C41.3294 104.724 40.8937 100.057 43.2133 97.5044C45.5329 94.9518 47.8525 94.3687 48.8651 91.0861V91.0837Z" fill="#EF9C8B"/>
<path d="M23.543 111.346H57.6895C57.3622 102.278 57.9109 97.8337 56.0976 95.5915C53.7473 92.6976 38.3249 93.3825 31.0952 94.2074C29.183 94.4254 27.5205 94.6506 26.3359 94.8307C25.1231 95.0037 24.3978 95.1293 24.3978 95.1293L23.543 111.346Z" fill="#68E6C4"/>
<path d="M50.435 93.7926L50.2207 102.114L50.0747 107.106C50.0582 107.942 49.5355 108.654 48.8054 108.94C48.5699 109.035 48.3109 109.083 48.0401 109.08C47.7787 109.075 47.5314 109.021 47.303 108.924C46.573 108.616 46.0643 107.883 46.0784 107.035L46.2221 101.953L46.4623 93.4893L50.435 93.7903V93.7926Z" fill="#7453C6"/>
<path opacity="0.2" d="M26.0312 111.346H30.7811L31.0991 94.2075C29.1869 94.4256 27.5243 94.6507 26.3397 94.8309L26.0336 111.346H26.0312Z" fill="white"/>
<path d="M50.2184 102.116L50.0724 107.108C50.0559 107.945 49.5331 108.656 48.8031 108.942C48.5558 108.995 48.2968 109.018 48.0354 109.014C47.7857 109.009 47.5385 108.978 47.303 108.926C46.5729 108.618 46.0643 107.885 46.0784 107.037L46.2221 101.955C46.792 101.607 47.456 101.412 48.1649 101.424C48.9302 101.436 49.6391 101.69 50.2207 102.114L50.2184 102.116Z" fill="#5032AD"/>
<path d="M50.8941 105.266C50.8682 106.857 49.5942 108.127 48.0494 108.101C46.5046 108.075 45.2753 106.764 45.3012 105.172C45.3271 103.581 46.6011 102.311 48.1459 102.337C49.6908 102.363 50.9201 103.674 50.8941 105.266Z" fill="#7453C6"/>
<path d="M30.029 87.8342L68.2189 87.5996C68.8783 87.5948 69.4953 87.4265 70.0346 87.1279C71.2238 86.4714 72.0245 85.1939 72.0175 83.7362H72.0104L71.7443 40.0495L71.5912 15.708H71.5983L71.5841 13.5203L71.563 10.2898H71.57C71.5535 8.16375 69.8368 6.45012 67.7268 6.46198L29.5345 6.69899C27.4268 6.71321 25.7289 8.44106 25.7383 10.5695H25.7501L26.1975 84.0159L26.1905 84.0111C26.2046 86.1372 27.9213 87.8461 30.029 87.8318V87.8342Z" fill="#93593F"/>
<path d="M30.2051 83.6079L67.9075 83.3733C67.9287 83.3733 67.9664 83.3733 67.9876 83.3662C68.9225 83.3212 69.669 82.5414 69.6596 81.5791L69.2357 12.0766C69.2357 12.0173 69.2287 11.9439 69.2216 11.8562C69.1557 11.3632 68.8848 10.9294 68.5057 10.6498C68.2137 10.4364 67.8487 10.3037 67.4601 10.3037L29.7576 10.5384C28.778 10.5455 27.9891 11.3537 27.9961 12.3326L28.42 81.8351C28.4271 82.8211 29.2231 83.6079 30.2027 83.6079H30.2051Z" fill="url(#paint0_linear_3011_11986)"/>
<path d="M66.0952 11.8467H31.5625C30.6512 11.8467 29.9141 12.5885 29.9141 13.5058V50.6509H67.7437V13.5082C67.7437 12.5909 67.0066 11.849 66.0952 11.849V11.8467Z" fill="url(#paint1_radial_3011_11986)"/>
<path d="M56.9381 32.2109C56.9381 32.2109 57.8021 32.5997 58.0015 32.2785C58.2007 31.9574 58.6259 31.6234 58.7649 31.5251C58.951 31.3936 59.3864 30.7776 59.5383 31.0098C59.6903 31.2421 58.8665 32.0585 58.7253 32.2638C58.5841 32.4689 59.6495 32.3471 59.8537 32.4823C60.0579 32.6176 60.068 34.4397 59.3316 34.4363C58.5952 34.4328 57.8344 33.9279 57.7033 33.9536C57.5725 33.9795 56.7266 33.7892 56.7266 33.7892L56.9377 32.2106L56.9381 32.2109Z" fill="#EEA886"/>
<path d="M59.6802 32.4398C59.6802 32.4398 61.9268 32.6044 62.0614 32.745C62.1959 32.8858 62.1744 33.011 61.9632 33.0048C61.7521 32.9985 59.7853 32.9109 59.7853 32.9109C59.7853 32.9109 62.3907 33.5682 62.5268 33.6575C62.6066 33.7097 62.5781 33.9545 62.4644 33.962C62.3504 33.9695 59.7248 33.4721 59.7248 33.4721C59.7248 33.4721 62.156 34.0907 62.2466 34.2012C62.3257 34.2979 62.2453 34.5189 62.0614 34.4857C61.8774 34.4529 59.583 34.0121 59.583 34.0121C59.583 34.0121 61.3196 34.5784 61.3405 34.7211C61.3531 34.8085 61.3383 35.021 60.8953 34.8601C60.4524 34.6992 59.3633 34.435 59.3633 34.435L59.6805 32.4395L59.6802 32.4398Z" fill="#EEA886"/>
<path d="M48.9818 45.079C48.99 45.1748 48.9736 45.7742 48.9457 46.6501H44.2695C44.1935 46.3148 44.1979 45.582 44.1453 45.5877C44.0912 45.5933 43.9304 46.3271 43.8154 46.6501H38.418C38.6589 44.6846 38.9483 42.5469 39.1778 40.8277C39.1946 40.7129 39.2082 40.6033 39.2221 40.4994C39.3067 39.8739 39.3687 39.4154 39.3994 39.195C39.4134 39.1005 39.4203 39.0497 39.4203 39.0497C39.5353 38.9962 39.6572 38.9483 39.7832 38.9032C42.7953 37.833 48.6041 38.9662 48.6041 38.9662C49.0955 42.0949 48.9821 45.0787 48.9821 45.0787L48.9818 45.079Z" fill="#292C47"/>
<path d="M45.8961 22.5663C45.8961 22.5663 50.8291 23.6018 51.2403 24.9572C51.6516 26.3126 52.3826 28.5429 53.2793 32.0652C53.4141 32.5948 58.5067 31.8845 58.5067 31.8845C58.5067 31.8845 58.9307 34.0319 58.9421 34.1008C58.9728 34.288 52.0629 34.6348 51.5642 34.5096C50.8446 34.329 49.632 29.5653 49.632 29.5653C49.632 29.5653 48.9788 36.7615 48.9788 37.8731C48.9788 38.9847 49.0529 41.2354 49.0529 41.2354C49.0529 41.2354 47.2252 41.9278 43.6757 41.7447C43.6757 41.7447 38.0265 41.5528 38.9906 39.8505C39.7197 38.5633 39.2727 29.9034 39.1631 29.8492C39.0536 29.7951 37.084 32.2339 37.2759 32.7034C37.4677 33.173 42.5647 34.8571 42.5647 34.8571C42.5647 34.8571 42.7139 35.3999 41.922 36.6294C41.922 36.6294 34.309 34.4298 34.2814 33.969C34.2539 33.5082 37.4481 24.5584 38.491 24.0898C39.9927 23.4152 43.9198 22.355 43.9198 22.355L45.8961 22.5666V22.5663Z" fill="#51578F"/>
<path d="M45.4484 31.4532L39.6562 29.7905L37.1238 38.4146L42.9159 40.0773L45.4484 31.4532Z" fill="#D9C7C1"/>
<path d="M44.8937 31.294L39.1016 29.6313L36.5691 38.2554L42.3612 39.9181L44.8937 31.294Z" fill="#6DBD7D"/>
<path d="M45.5611 29.0554L38.6406 27.0688L35.6149 37.3727L42.5353 39.3593L45.5611 29.0554Z" fill="#EDDAD3"/>
<path d="M44.9009 28.865L37.9805 26.8784L34.9547 37.1823L41.8751 39.1689L44.9009 28.865Z" fill="#548AD1"/>
<path d="M42.6294 30.3304L38.7227 29.209L38.5459 29.8108L42.4526 30.9323L42.6294 30.3304Z" fill="#609EF0"/>
<path d="M42.2153 31.4633L38.3086 30.3418L38.1319 30.9436L42.0386 32.0651L42.2153 31.4633Z" fill="#609EF0"/>
<path d="M44.1445 34.6072C44.1445 34.6072 44.6948 34.5922 44.8632 34.5681C45.0317 34.544 44.9205 34.8983 44.7249 34.965C44.5292 35.032 44.1445 34.6069 44.1445 34.6069V34.6072Z" fill="#E6A281"/>
<path d="M44.4684 37.2059C44.4684 37.2059 44.2281 37.2635 44.1106 37.2381C44.1106 37.2381 43.9004 37.1755 43.7484 37.1401C43.7 37.1292 43.6579 37.1204 43.6297 37.1176C43.5129 37.106 43.2533 37.1154 42.981 37.0099C42.7087 36.9047 41.7852 36.4364 41.7852 36.4364L42.0492 35.5875L42.2483 34.9148C42.2483 34.9148 43.8092 34.5041 44.0745 34.5733C44.1005 34.5802 44.1258 34.588 44.1489 34.5971C44.3677 34.6772 44.4966 34.8275 44.6064 34.8826C44.6466 34.9029 45.0332 35.1327 45.0531 35.2645C45.0813 35.4473 45.0259 35.5853 44.9306 35.6701C44.9306 35.6701 44.9699 36.0304 44.8347 36.2345C44.8347 36.2345 44.8819 36.5657 44.6406 36.7723C44.6406 36.7723 44.6501 37.1135 44.4684 37.2062V37.2059Z" fill="#EEA886"/>
<path d="M42.5639 34.8038C42.5639 34.8038 42.5772 35.941 41.8673 36.7906C41.8673 36.7906 36.3302 34.9042 35.6644 34.6454C34.9986 34.3865 38.0839 26.2803 38.0839 26.2803L40.354 27.0444L39.1344 29.3245C39.1344 29.3245 38.5306 30.602 37.275 32.703C37.275 32.703 38.0478 33.3757 42.5639 34.8034V34.8038Z" fill="#51578F"/>
<path d="M42.2853 22.8164C42.2853 22.8164 42.2302 24.9861 44.4904 24.9341C46.8301 24.8803 46.3343 22.6659 46.3343 22.6659C46.3343 22.6659 44.5632 21.9037 42.2853 22.8164Z" fill="#EED9CF"/>
<path d="M45.8155 20.8695C45.8155 20.8695 45.6122 21.9707 45.9617 22.7229C45.9617 22.7229 46.3176 24.4759 44.5025 24.5544C42.6874 24.633 42.707 22.6634 42.707 22.6634C42.707 22.6634 43.08 22.4487 42.79 20.8801C42.5003 19.3115 45.8151 20.8695 45.8151 20.8695H45.8155Z" fill="#EEA886"/>
<path d="M41.9872 18.5631C41.8661 18.6089 41.7983 18.7643 41.7836 18.9106C41.7469 19.2878 41.8726 19.6766 42.1229 19.9648C42.1642 20.0115 42.2091 20.0573 42.266 20.0834C42.6585 20.262 42.5126 19.1387 42.4732 18.9645C42.4301 18.7724 42.2348 18.4688 41.9863 18.5631H41.9872Z" fill="#FF9973"/>
<path d="M42.3434 20.1747C42.3123 20.1747 42.2756 20.1675 42.2343 20.1487C42.1628 20.1164 42.1096 20.0616 42.0665 20.0122C41.8015 19.7069 41.6713 19.3028 41.7098 18.9041C41.7244 18.747 41.7987 18.5584 41.9592 18.4965C42.0518 18.4614 42.149 18.4677 42.2389 18.5144C42.4012 18.5997 42.5112 18.8 42.5443 18.949C42.5461 18.9589 42.7249 19.9269 42.4617 20.1325C42.4342 20.1541 42.3948 20.1738 42.3434 20.1738V20.1747ZM42.0793 18.6177C42.0573 18.6177 42.0344 18.6222 42.0124 18.6303C41.9198 18.6653 41.8666 18.8 41.8556 18.9176C41.8216 19.2732 41.9418 19.6476 42.1784 19.9188C42.2114 19.9565 42.2508 19.9978 42.2967 20.0185C42.3462 20.0409 42.3636 20.0275 42.3719 20.0212C42.5158 19.908 42.4507 19.1951 42.4021 18.9796C42.3755 18.8601 42.2857 18.7012 42.1701 18.6401C42.1399 18.624 42.1096 18.6159 42.0802 18.6159L42.0793 18.6177Z" fill="#ED714B"/>
<path d="M42.3393 19.7822C42.3338 19.7822 42.3283 19.7822 42.3218 19.7804C42.2411 19.7616 42.1687 19.7077 42.1247 19.6314C42.0798 19.5559 42.0678 19.468 42.0908 19.3898C42.0944 19.3764 42.1073 19.3351 42.1458 19.309C42.1494 19.3063 42.1531 19.3045 42.1568 19.3027C42.1513 19.2004 42.1339 19.098 42.1063 18.9992C42.0981 18.9696 42.0871 18.9525 42.0807 18.9462C42.0807 18.948 42.0779 18.9498 42.0761 18.9534C42.0678 18.9669 42.0632 18.9875 42.0587 19.0091C42.0504 19.0477 42.0119 19.0729 41.9725 19.0648C41.933 19.0567 41.9074 19.019 41.9156 18.9804C41.922 18.9507 41.9294 18.9139 41.9505 18.8798C41.9798 18.8322 42.0275 18.8026 42.0788 18.8026C42.1559 18.7972 42.2164 18.8591 42.2457 18.9615C42.2833 19.0962 42.3035 19.2345 42.3035 19.3746C42.3035 19.4069 42.2815 19.4356 42.2494 19.4437C42.2411 19.4455 42.2329 19.4464 42.2256 19.4464C42.2191 19.4832 42.2274 19.5245 42.2494 19.5613C42.2742 19.6035 42.3127 19.6332 42.3549 19.6431C42.3943 19.652 42.4181 19.6906 42.409 19.7293C42.4007 19.7625 42.3714 19.784 42.3384 19.784L42.3393 19.7822Z" fill="#ED714B"/>
<path d="M47.1077 18.5631C47.2288 18.6089 47.2966 18.7643 47.3113 18.9106C47.348 19.2878 47.2223 19.6766 46.972 19.9648C46.9307 20.0115 46.8858 20.0573 46.8289 20.0834C46.4365 20.262 46.5823 19.1387 46.6217 18.9645C46.6648 18.7724 46.8601 18.4688 47.1086 18.5631H47.1077Z" fill="#FF9973"/>
<path d="M46.7501 20.175C46.6979 20.175 46.6584 20.1552 46.6319 20.1337C46.3687 19.9271 46.5475 18.9592 46.5493 18.9502C46.5823 18.8011 46.6924 18.6009 46.8547 18.5156C46.9446 18.468 47.0408 18.4617 47.1344 18.4976C47.2949 18.5587 47.3691 18.7481 47.3838 18.9053C47.4223 19.304 47.2921 19.708 47.0271 20.0124C46.984 20.0618 46.9308 20.1166 46.8593 20.1489C46.818 20.1678 46.7822 20.175 46.7501 20.175ZM47.0142 18.6179C46.984 18.6179 46.9546 18.626 46.9244 18.6422C46.8098 18.7023 46.719 18.8622 46.6924 18.9816C46.6447 19.1971 46.5787 19.9101 46.7226 20.0232C46.73 20.0295 46.7474 20.043 46.7978 20.0205C46.8437 19.9999 46.884 19.9586 46.9161 19.9209C47.1527 19.6488 47.2728 19.2743 47.2389 18.9196C47.2279 18.802 47.1747 18.6673 47.0821 18.6323C47.0592 18.6233 47.0372 18.6197 47.0152 18.6197L47.0142 18.6179Z" fill="#ED714B"/>
<path d="M46.7562 19.7824C46.7232 19.7824 46.6929 19.7599 46.6856 19.7276C46.6764 19.689 46.7002 19.6504 46.7397 19.6414C46.7818 19.6315 46.8204 19.6019 46.8451 19.5597C46.8671 19.5229 46.8754 19.4825 46.869 19.4448C46.8607 19.4448 46.8534 19.4448 46.8451 19.4421C46.813 19.434 46.791 19.4053 46.791 19.3729C46.791 19.2337 46.8112 19.0946 46.8488 18.9599C46.8772 18.8575 46.9387 18.7973 47.0157 18.8009C47.067 18.8009 47.1147 18.8306 47.1441 18.8782C47.1652 18.9123 47.1725 18.9491 47.1789 18.9787C47.1872 19.0173 47.1615 19.0551 47.1221 19.0631C47.0826 19.0712 47.0441 19.0461 47.0359 19.0075C47.0313 18.9868 47.0267 18.9653 47.0193 18.9518C47.0157 18.9464 47.012 18.9437 47.0111 18.9428C47.0129 18.9455 47.0001 18.9626 46.99 18.9976C46.9616 19.0964 46.9451 19.1987 46.9396 19.3011C46.9432 19.3029 46.9469 19.3056 46.9506 19.3074C46.9891 19.3334 47.0019 19.3747 47.0056 19.3882C47.0285 19.4663 47.0166 19.5543 46.9717 19.6297C46.9267 19.7052 46.8552 19.7599 46.7745 19.7788C46.769 19.7797 46.7635 19.7806 46.7571 19.7806L46.7562 19.7824Z" fill="#ED714B"/>
<path d="M42.333 18.839C42.3532 18.4888 42.4073 18.1386 42.4944 17.8144C42.6329 17.299 42.9502 16.8231 43.4399 16.5609C43.9809 16.2709 44.6366 16.2161 45.228 16.3436C45.6646 16.437 46.0818 16.6713 46.3386 17.035C46.6118 17.422 46.6403 18.0057 46.6815 18.4619C46.742 19.1335 46.687 19.8187 46.5137 20.4706C46.3725 21.0021 46.135 21.531 45.7526 21.9423C45.4518 22.2665 45.0456 22.5098 44.5907 22.5215C44.5192 22.5233 44.4467 22.5197 44.3761 22.5098C43.8736 22.4443 43.4573 22.1192 43.1574 21.7385C42.709 21.1701 42.4486 20.4436 42.3596 19.7271C42.3238 19.4424 42.3156 19.1416 42.333 18.8399V18.839Z" fill="#FF9973"/>
<path d="M44.5557 22.5923C44.4924 22.5923 44.4282 22.5878 44.365 22.5797C43.7781 22.5034 43.3526 22.1038 43.0986 21.7815C42.6712 21.24 42.3833 20.5127 42.2861 19.735C42.2503 19.4477 42.2411 19.1451 42.2586 18.8353C42.2787 18.4797 42.3356 18.1196 42.4227 17.7964C42.5795 17.2145 42.928 16.7538 43.4039 16.4988C43.9294 16.2178 44.5988 16.1361 45.2425 16.2743C45.7267 16.3785 46.1476 16.6407 46.3971 16.9945C46.6593 17.3653 46.7052 17.9077 46.7428 18.3432L46.7529 18.4555C46.8152 19.1478 46.7575 19.832 46.5832 20.4884C46.4191 21.1062 46.1568 21.6117 45.8056 21.9898C45.4544 22.3678 45.0234 22.5815 44.5915 22.5923C44.5795 22.5923 44.5676 22.5923 44.5557 22.5923ZM44.6236 16.3507C44.21 16.3507 43.8102 16.4441 43.4736 16.6236C43.0325 16.8598 42.7097 17.289 42.5639 17.8323C42.4796 18.1466 42.4245 18.4968 42.4044 18.8434C42.3869 19.1451 42.3961 19.4387 42.431 19.718C42.5245 20.4714 42.8024 21.1735 43.2141 21.6944C43.4516 21.9952 43.8468 22.3687 44.3851 22.4388C44.453 22.4477 44.5209 22.4513 44.5887 22.4495C44.9803 22.4397 45.3746 22.243 45.6983 21.8937C46.0339 21.5327 46.2843 21.0478 46.4429 20.4525C46.6135 19.8114 46.6694 19.1433 46.6089 18.4671L46.5988 18.354C46.5631 17.9355 46.5181 17.4147 46.2788 17.0744C46.0495 16.7503 45.6616 16.5087 45.2123 16.4126C45.017 16.3704 44.8198 16.3498 44.6245 16.3498L44.6236 16.3507Z" fill="#ED714B"/>
<path d="M45.4581 21.2396C45.2656 20.9074 44.8777 20.6928 44.4879 20.7026C44.0982 20.7125 43.7626 20.8598 43.5874 21.201C43.5471 21.1974 43.4847 21.192 43.4196 21.1687C43.1225 21.0169 42.9061 20.8221 42.7016 20.4916C42.498 20.1621 42.4008 19.573 42.366 19.151C42.266 19.6206 42.2697 20.8894 42.5989 21.5288C42.9336 22.178 43.3132 22.7625 44.0349 22.9313C44.6915 23.0849 45.4141 22.8182 45.8497 22.3136C46.6338 21.4048 46.7163 20.2168 46.7365 19.916C46.7438 19.8101 46.7374 19.23 46.6246 19.1366C46.5879 19.1061 46.5641 19.5973 46.5494 19.6853C46.5045 19.9546 46.3366 20.3165 46.1954 20.5518C46.0368 20.8158 45.7195 21.0699 45.4591 21.2405L45.4581 21.2396Z" fill="#39222F"/>
<path d="M44.4738 21.0747C44.2262 21.178 43.9575 21.2839 43.8594 21.3028C44.0529 21.4231 44.3335 21.4932 44.5719 21.4878C44.67 21.4851 45.0497 21.4249 45.1047 21.2803C45.1102 21.266 44.5655 21.1331 44.4747 21.0747H44.4738Z" fill="#FF9973"/>
<path d="M46.668 18.7363C46.6735 18.7616 46.6762 18.785 46.6744 18.803C46.6698 18.7814 46.668 18.7588 46.668 18.7363Z" fill="#39222F"/>
<path d="M42.5964 18.0817C42.4772 18.4759 42.4506 18.8782 42.402 19.284C42.3607 19.1278 42.3405 18.9671 42.3424 18.8063C42.3424 18.7354 42.347 18.66 42.3094 18.5989C42.2763 18.5459 42.1892 18.4948 42.1269 18.4867C42.0287 18.4732 41.9838 18.4948 41.9838 18.4948C41.9838 18.4948 41.9334 18.2406 41.9178 18.1589C41.8884 17.9964 41.8563 17.8303 41.8646 17.6659C41.8673 17.613 41.8692 17.56 41.871 17.5061C41.871 17.4944 41.871 17.4837 41.871 17.472L41.8729 17.4765C41.8875 17.1317 41.8994 16.7886 41.96 16.4465C42.0526 15.9176 42.2534 15.4148 42.656 15.0421C43.65 14.1226 45.4612 14.2968 46.3287 15.3789C46.4304 15.5055 46.5194 15.6554 46.5772 15.8054C46.6065 15.8808 46.5918 15.9949 46.6221 16.0595C46.6707 16.1619 46.8138 16.1008 46.9155 16.152C47.0293 16.2104 47.109 16.3217 47.1531 16.4393C47.1971 16.5579 47.2099 16.6836 47.2227 16.8084C47.2833 17.393 47.3355 18.0188 47.0485 18.528C46.9724 18.5163 46.8734 18.5298 46.8138 18.5792C46.7532 18.6285 46.7349 18.73 46.7156 18.8036C46.6744 18.959 46.6221 19.1682 46.6386 19.3307C46.6083 19.0281 46.5735 18.7121 46.4048 18.4534C46.2975 18.2882 46.1416 18.158 46.0196 18.0027C45.8335 17.7674 45.7262 17.4756 45.7161 17.182C45.5162 17.2798 45.3135 17.3364 45.1035 17.4055C44.8917 17.4756 44.6743 17.5277 44.4533 17.5636C43.9251 17.648 43.3382 17.6489 42.8146 17.5241C42.7275 17.7046 42.6551 17.8913 42.5973 18.0826L42.5964 18.0817Z" fill="#39222F"/>
<path d="M44.5549 20.6867C44.5476 20.6867 44.5393 20.6858 44.5311 20.6831C44.4385 20.6525 44.2991 20.6058 44.2266 20.4909C44.1579 20.3831 44.1698 20.2538 44.179 20.1587L44.2817 19.0371C44.2853 18.9976 44.3211 18.9689 44.3605 18.9725C44.4009 18.9761 44.4302 19.0111 44.4266 19.0497L44.3238 20.1712C44.3147 20.2682 44.311 20.3535 44.3504 20.4146C44.3926 20.4801 44.4788 20.5133 44.5779 20.5466C44.6164 20.5591 44.6366 20.5996 44.6237 20.6373C44.6136 20.6669 44.5852 20.6858 44.5549 20.6858V20.6867Z" fill="#ED714B"/>
<path d="M43.371 19.5924C43.1087 19.5637 43.1536 19.165 43.4159 19.1928C43.6782 19.2215 43.6333 19.6202 43.371 19.5924Z" fill="#39222F"/>
<path d="M42.6219 18.8667C42.8209 18.8604 43.0061 18.7966 43.2061 18.7958C43.4096 18.7949 43.5985 18.9053 43.7948 18.8927C43.8993 18.8864 43.9929 18.7697 43.9241 18.6718C43.7783 18.4626 43.4491 18.4213 43.2061 18.4285C42.9456 18.4357 42.6907 18.5021 42.532 18.7131C42.4844 18.776 42.5486 18.8694 42.6219 18.8676V18.8667Z" fill="#37212E"/>
<path d="M45.5761 19.5924C45.8383 19.5637 45.7934 19.165 45.5311 19.1928C45.2689 19.2215 45.3138 19.6202 45.5761 19.5924Z" fill="#39222F"/>
<path d="M46.4156 18.713C46.2579 18.5029 46.002 18.4355 45.7416 18.4283C45.4986 18.422 45.1694 18.4633 45.0236 18.6717C44.9548 18.7704 45.0483 18.8863 45.1529 18.8926C45.3491 18.9051 45.5371 18.7947 45.7416 18.7956C45.9406 18.7956 46.1267 18.8602 46.3257 18.8665C46.3991 18.8692 46.4633 18.7758 46.4156 18.7121V18.713Z" fill="#37212E"/>
<path d="M43.34 20.1927C43.0933 20.2125 42.8411 20.155 42.6504 20.032C42.4652 19.9126 42.3496 19.7392 42.3175 19.5309C42.2946 19.3828 42.279 19.1708 42.3368 19.0038C42.3615 18.932 42.4019 18.8745 42.4569 18.8332C42.578 18.7425 42.7283 18.6958 42.9053 18.6949C43.0796 18.694 43.2685 18.6985 43.4986 18.7093C43.5968 18.7138 43.6958 18.7192 43.7939 18.7255C44.0828 18.7434 44.2479 18.8925 44.2479 19.1358C44.2479 19.3037 44.1965 19.4788 44.1534 19.5956C44.0461 19.8856 43.8269 20.0868 43.5362 20.1604C43.4721 20.1766 43.4069 20.1873 43.3409 20.1927H43.34ZM42.8439 18.8305C42.7238 18.8404 42.6211 18.8763 42.5376 18.9392C42.5037 18.9643 42.4798 19.0002 42.4633 19.0469C42.4147 19.1879 42.4294 19.3774 42.4496 19.5112C42.4762 19.6809 42.5706 19.8228 42.7238 19.9215C42.9319 20.0562 43.2364 20.0993 43.5005 20.0329C43.7462 19.9709 43.9324 19.7994 44.0241 19.5516C44.081 19.398 44.1103 19.2544 44.1112 19.1367C44.1112 18.9239 43.9333 18.8682 43.7838 18.8584C43.6857 18.8521 43.5885 18.8467 43.4904 18.8422C43.2621 18.8314 43.0759 18.8269 42.9044 18.8278C42.8842 18.8278 42.8641 18.8287 42.8439 18.8305Z" fill="#D1145A"/>
<path d="M45.7749 20.1685C45.6841 20.1757 45.5915 20.1712 45.5016 20.1542C45.2137 20.0994 44.9945 19.909 44.8844 19.6172C44.8404 19.5005 44.7882 19.3254 44.7891 19.1574C44.7891 18.9186 44.9587 18.7722 45.243 18.7623C45.3365 18.7597 45.4282 18.757 45.5199 18.7561C45.7244 18.7525 45.8895 18.7534 46.0399 18.7588C46.1894 18.7641 46.3159 18.809 46.4177 18.8925C46.4636 18.9303 46.4975 18.9805 46.5195 19.0443C46.5708 19.1889 46.5653 19.3747 46.5525 19.5058C46.5323 19.7043 46.4342 19.8731 46.2673 19.9952C46.1316 20.094 45.9564 20.1551 45.7749 20.1685ZM45.2146 18.8997C45.077 18.9105 44.9285 18.9662 44.9275 19.1574C44.9275 19.3056 44.9743 19.4636 45.0147 19.5696C45.1073 19.8147 45.2889 19.9746 45.5273 20.0204C45.7584 20.0644 46.0096 20.0123 46.1829 19.8857C46.3177 19.7878 46.3966 19.6513 46.4131 19.4924C46.425 19.3756 46.4296 19.2104 46.3874 19.0883C46.3737 19.0479 46.3535 19.0183 46.3278 18.9967C46.2508 18.933 46.1518 18.8988 46.0344 18.8943C45.8867 18.889 45.7235 18.8881 45.5227 18.8917C45.4328 18.8934 45.3411 18.8952 45.2485 18.8979C45.2375 18.8979 45.2265 18.8979 45.2155 18.8997H45.2146Z" fill="#D1145A"/>
<path d="M44.893 19.1052C44.6344 19.0756 44.4409 19.081 44.1539 19.125L44.1328 18.9939C44.429 18.9481 44.639 18.9427 44.9086 18.9732L44.893 19.1052Z" fill="#D1145A"/>
<path d="M42.7979 18.696L42.1725 18.6924L42.1523 19.1728L42.3376 19.1925C42.3376 19.1925 42.3504 18.9339 42.5329 18.8711C42.7145 18.8082 42.8126 18.8001 42.8126 18.8001L42.8089 18.713" fill="#D1145A"/>
<path d="M46.1151 18.7515L46.7396 18.764L46.7478 19.2444L46.5626 19.2597C46.5626 19.2597 46.5562 19.0011 46.3755 18.9337C46.1949 18.8664 46.0977 18.8556 46.0977 18.8556L46.1032 18.7685" fill="#D1145A"/>
<path d="M32.4154 54.0332H47.0937C47.4328 54.0332 47.7084 54.3105 47.7084 54.6518V65.2275C47.7084 65.5688 47.4328 65.8461 47.0937 65.8461H32.4154C32.0763 65.8461 31.8008 65.5688 31.8008 65.2275V54.6518C31.8008 54.3105 32.0763 54.0332 32.4154 54.0332Z" fill="white"/>
<path d="M47.0937 67.5977H32.4154C32.076 67.5977 31.8008 67.8746 31.8008 68.2163V78.7919C31.8008 79.1336 32.076 79.4105 32.4154 79.4105H47.0937C47.4332 79.4105 47.7084 79.1336 47.7084 78.7919V68.2163C47.7084 67.8746 47.4332 67.5977 47.0937 67.5977Z" fill="white"/>
<path opacity="0.85" d="M55.3447 59.2568H50.9858C50.7338 59.2568 50.5312 59.4607 50.5312 59.7143C50.5312 59.9679 50.7338 60.1717 50.9858 60.1717H55.3447C55.5967 60.1717 55.7992 59.9679 55.7992 59.7143C55.7992 59.4607 55.5967 59.2568 55.3447 59.2568Z" fill="#B0B0FF"/>
<path opacity="0.85" d="M59.3488 61.4731H51.0123C50.7651 61.4731 50.5461 61.658 50.5319 61.9069C50.5178 62.17 50.7274 62.3904 50.9864 62.3904H59.3488C59.6008 62.3904 59.8033 62.1866 59.8033 61.933C59.8033 61.6793 59.6008 61.4755 59.3488 61.4755V61.4731Z" fill="#B0B0FF"/>
<path opacity="0.85" d="M64.2149 61.4731H61.0287C60.7767 61.4731 60.5742 61.6769 60.5742 61.9305C60.5742 62.1841 60.7767 62.388 61.0287 62.388H64.2408C64.4999 62.388 64.7095 62.1699 64.6954 61.9044C64.6836 61.6579 64.4622 61.4707 64.2149 61.4707V61.4731Z" fill="#B0B0FF"/>
<path opacity="0.85" d="M56.1094 64.1464C56.1094 64.4 56.3119 64.6038 56.5639 64.6038H59.3498C59.6017 64.6038 59.8043 64.4 59.8043 64.1464C59.8043 63.8928 59.6017 63.689 59.3498 63.689H56.5639C56.3119 63.689 56.1094 63.8928 56.1094 64.1464Z" fill="#B0B0FF"/>
<path opacity="0.85" d="M54.8885 63.689H51.0123C50.7651 63.689 50.5461 63.8738 50.5319 64.1227C50.5178 64.3858 50.7274 64.6062 50.9864 64.6062H54.8885C55.1405 64.6062 55.3431 64.4024 55.3431 64.1488C55.3431 63.8952 55.1405 63.6913 54.8885 63.6913V63.689Z" fill="#B0B0FF"/>
<path opacity="0.85" d="M64.2149 63.6894H61.0287C60.7767 63.6894 60.5742 63.8932 60.5742 64.1468C60.5742 64.4004 60.7767 64.6043 61.0287 64.6043H64.2408C64.4999 64.6043 64.7095 64.3862 64.6954 64.1208C64.6836 63.8743 64.4622 63.687 64.2149 63.687V63.6894Z" fill="#B0B0FF"/>
<path opacity="0.85" d="M55.3447 72.3877H50.9858C50.7338 72.3877 50.5312 72.5915 50.5312 72.8451C50.5312 73.0987 50.7338 73.3026 50.9858 73.3026H55.3447C55.5967 73.3026 55.7992 73.0964 55.7992 72.8451C55.7992 72.5939 55.5967 72.3877 55.3447 72.3877Z" fill="#B0B0FF"/>
<path opacity="0.85" d="M59.3488 74.6016H51.0123C50.7651 74.6016 50.5461 74.7864 50.5319 75.0353C50.5178 75.2984 50.7274 75.5188 50.9864 75.5188H59.3488C59.6008 75.5188 59.8033 75.315 59.8033 75.0614C59.8033 74.8078 59.6008 74.6039 59.3488 74.6039V74.6016Z" fill="#B0B0FF"/>
<path opacity="0.85" d="M64.2149 74.6015H61.0287C60.7767 74.6015 60.5742 74.8053 60.5742 75.0589C60.5742 75.3125 60.7767 75.5164 61.0287 75.5164H64.2408C64.4999 75.5164 64.7095 75.2983 64.6954 75.0329C64.6836 74.7864 64.4622 74.5991 64.2149 74.5991V74.6015Z" fill="#B0B0FF"/>
<path opacity="0.85" d="M56.1094 77.2748C56.1094 77.5284 56.3119 77.7323 56.5639 77.7323H59.3498C59.6017 77.7323 59.8043 77.5284 59.8043 77.2748C59.8043 77.0212 59.6017 76.8174 59.3498 76.8174H56.5639C56.3119 76.8174 56.1094 77.0212 56.1094 77.2748Z" fill="#B0B0FF"/>
<path opacity="0.85" d="M54.8885 76.8174H51.0123C50.7651 76.8174 50.5461 77.0023 50.5319 77.2511C50.5178 77.5142 50.7274 77.7346 50.9864 77.7346H54.8885C55.1405 77.7346 55.3431 77.5308 55.3431 77.2772C55.3431 77.0236 55.1405 76.8198 54.8885 76.8198V76.8174Z" fill="#B0B0FF"/>
<path opacity="0.85" d="M64.2149 76.8173H61.0287C60.7767 76.8173 60.5742 77.0211 60.5742 77.2748C60.5742 77.5284 60.7767 77.7322 61.0287 77.7322H64.2408C64.4999 77.7322 64.7095 77.5141 64.6954 77.2487C64.6836 77.0022 64.4622 76.8149 64.2149 76.8149V76.8173Z" fill="#B0B0FF"/>
<path opacity="0.85" d="M67.7437 46.2261H29.9141V50.0183H67.7437V46.2261Z" fill="#B0B0FF"/>
<path d="M46.5759 47.3799H31.4902C31.1793 47.3799 30.9297 47.6335 30.9297 47.9464C30.9297 48.2592 31.1817 48.5104 31.4902 48.5104H46.5759C46.8867 48.5104 47.1363 48.2568 47.1363 47.9464C47.1363 47.6359 46.8844 47.3799 46.5759 47.3799Z" fill="white"/>
<path d="M56.1094 47.3799H48.9339C48.6231 47.3799 48.3711 47.6335 48.3711 47.9464C48.3711 48.2592 48.6231 48.5104 48.9339 48.5104H56.1094C56.4203 48.5104 56.6699 48.2568 56.6699 47.9464C56.6699 47.6359 56.4179 47.3799 56.1094 47.3799Z" fill="white"/>
<path d="M65.3336 47.3799H58.1581C57.8473 47.3799 57.5977 47.6335 57.5977 47.9464C57.5977 48.2592 57.8496 48.5104 58.1581 48.5104H65.3336C65.6445 48.5104 65.8964 48.2568 65.8964 47.9464C65.8964 47.6359 65.6445 47.3799 65.3336 47.3799Z" fill="white"/>
<path opacity="0.2" d="M42.9343 60.8363C43.3878 58.9158 42.2086 56.9889 40.3005 56.5325C38.3923 56.076 36.4778 57.2628 36.0243 59.1833C35.5708 61.1038 36.75 63.0307 38.6581 63.4871C40.5662 63.9436 42.4808 62.7568 42.9343 60.8363Z" fill="#B0B0FF"/>
<path opacity="0.2" d="M39.4809 77.372C41.4422 77.372 43.0322 75.7718 43.0322 73.7978C43.0322 71.8239 41.4422 70.2236 39.4809 70.2236C37.5196 70.2236 35.9297 71.8239 35.9297 73.7978C35.9297 75.7718 37.5196 77.372 39.4809 77.372Z" fill="#B0B0FF"/>
<g opacity="0.2">
<path d="M44.5674 64.7935C44.5674 64.931 44.5462 65.0305 44.5014 65.0969C44.459 65.1632 44.3908 65.1964 44.3013 65.1964C44.2118 65.1964 44.1482 65.1632 44.1034 65.0945C44.0587 65.0258 44.0352 64.9262 44.0352 64.7935C44.0352 64.6536 44.0564 64.5517 44.1011 64.4877C44.1458 64.4214 44.2118 64.3882 44.3013 64.3882C44.3908 64.3882 44.4543 64.4214 44.4991 64.4925C44.5438 64.5612 44.565 64.6608 44.565 64.7935H44.5674ZM44.1647 64.7935C44.1647 64.9001 44.1765 64.976 44.1976 65.0234C44.2188 65.0684 44.2542 65.0921 44.3036 65.0921C44.3531 65.0921 44.386 65.0684 44.4096 65.021C44.4308 64.9736 44.4426 64.8978 44.4426 64.7935C44.4426 64.6892 44.4308 64.611 44.4096 64.5659C44.3884 64.5185 44.3531 64.4948 44.3036 64.4948C44.2542 64.4948 44.2212 64.5185 44.1976 64.5636C44.1765 64.6086 44.1647 64.6868 44.1647 64.7935Z" fill="#B0B0FF"/>
<path d="M44.9254 64.6939C45.0031 64.6939 45.0667 64.7152 45.1114 64.7579C45.1562 64.8005 45.1797 64.8574 45.1797 64.9285C45.1797 65.0115 45.1538 65.0778 45.102 65.1252C45.0502 65.1726 44.9749 65.1963 44.8807 65.1963C44.7935 65.1963 44.7252 65.1821 44.6758 65.1537V65.0399C44.704 65.0565 44.737 65.0684 44.7747 65.0778C44.8124 65.0873 44.8477 65.0921 44.8783 65.0921C44.9348 65.0921 44.9772 65.0802 45.0078 65.0541C45.0361 65.0281 45.0526 64.9925 45.0526 64.9427C45.0526 64.8479 44.9937 64.8029 44.8736 64.8029C44.8571 64.8029 44.8359 64.8029 44.8124 64.8076C44.7888 64.81 44.7653 64.8147 44.7488 64.8195L44.6923 64.7863L44.7229 64.4023H45.1279V64.5137H44.8336L44.8171 64.7081C44.8289 64.7081 44.8453 64.7034 44.8618 64.701C44.8807 64.6986 44.9019 64.6962 44.9278 64.6962L44.9254 64.6939Z" fill="#B0B0FF"/>
<path d="M45.3086 65.1184C45.3086 65.0923 45.3157 65.0733 45.3299 65.059C45.344 65.0447 45.3629 65.0376 45.3889 65.0376C45.4149 65.0376 45.4338 65.0447 45.448 65.059C45.4621 65.0733 45.4692 65.0923 45.4692 65.1184C45.4692 65.1446 45.4621 65.1636 45.448 65.1779C45.4338 65.1921 45.4149 65.1993 45.3889 65.1993C45.3629 65.1993 45.344 65.1921 45.3299 65.1779C45.3157 65.1636 45.3086 65.1422 45.3086 65.1161V65.1184Z" fill="#B0B0FF"/>
<path d="M45.9555 65.1844H45.8307V64.6771C45.8307 64.6155 45.8307 64.5681 45.8354 64.5326C45.8283 64.542 45.8166 64.5515 45.8048 64.561C45.793 64.5705 45.753 64.6037 45.6847 64.6605L45.6211 64.58L45.8495 64.3975H45.9531V65.182L45.9555 65.1844Z" fill="#B0B0FF"/>
<path d="M46.7408 64.7935C46.7408 64.931 46.7196 65.0305 46.6749 65.0969C46.6325 65.1632 46.5642 65.1964 46.4747 65.1964C46.3852 65.1964 46.3216 65.1632 46.2769 65.0945C46.2321 65.0258 46.2109 64.9262 46.2109 64.7935C46.2109 64.6536 46.2321 64.5517 46.2769 64.4877C46.3216 64.4214 46.3876 64.3882 46.477 64.3882C46.5665 64.3882 46.6301 64.4214 46.6749 64.4925C46.7196 64.5612 46.7408 64.6608 46.7408 64.7935ZM46.3381 64.7935C46.3381 64.9001 46.3499 64.976 46.3711 65.0234C46.3923 65.0684 46.4276 65.0921 46.477 65.0921C46.5265 65.0921 46.5595 65.0684 46.583 65.021C46.6042 64.9736 46.616 64.8978 46.616 64.7935C46.616 64.6892 46.6042 64.611 46.583 64.5659C46.5618 64.5185 46.5265 64.4948 46.477 64.4948C46.4276 64.4948 46.3946 64.5185 46.3711 64.5636C46.3499 64.6086 46.3381 64.6868 46.3381 64.7935Z" fill="#B0B0FF"/>
</g>
<g opacity="0.2">
<path d="M44.5674 78.5049C44.5674 78.6424 44.5462 78.7419 44.5014 78.8083C44.459 78.8746 44.3908 78.9078 44.3013 78.9078C44.2118 78.9078 44.1482 78.8747 44.1034 78.8059C44.0587 78.7372 44.0352 78.6376 44.0352 78.5049C44.0352 78.3651 44.0564 78.2632 44.1011 78.1992C44.1458 78.1328 44.2118 78.0996 44.3013 78.0996C44.3908 78.0996 44.4543 78.1328 44.4991 78.2039C44.5438 78.2726 44.565 78.3722 44.565 78.5049H44.5674ZM44.1647 78.5049C44.1647 78.6116 44.1765 78.6874 44.1976 78.7348C44.2188 78.7798 44.2542 78.8035 44.3036 78.8035C44.3531 78.8035 44.386 78.7798 44.4096 78.7348C44.4308 78.6874 44.4426 78.6116 44.4426 78.5073C44.4426 78.403 44.4308 78.3248 44.4096 78.2797C44.3884 78.2323 44.3531 78.2086 44.3036 78.2086C44.2542 78.2086 44.2212 78.2323 44.1976 78.2774C44.1765 78.3224 44.1647 78.4006 44.1647 78.5073V78.5049Z" fill="#B0B0FF"/>
<path d="M44.7528 78.8983L45.0613 78.2252H44.6562V78.1138H45.1955V78.2015L44.8894 78.8983H44.7528Z" fill="#B0B0FF"/>
<path d="M45.3086 78.8299C45.3086 78.8037 45.3157 78.7847 45.3299 78.7704C45.344 78.7562 45.3629 78.749 45.3889 78.749C45.4149 78.749 45.4338 78.7562 45.448 78.7704C45.4621 78.7847 45.4692 78.8037 45.4692 78.8299C45.4692 78.856 45.4621 78.875 45.448 78.8893C45.4338 78.9036 45.4149 78.9107 45.3889 78.9107C45.3629 78.9107 45.344 78.9036 45.3299 78.8893C45.3157 78.875 45.3086 78.8536 45.3086 78.8275V78.8299Z" fill="#B0B0FF"/>
<path d="M45.8551 78.4077C45.9328 78.4077 45.9964 78.4291 46.0411 78.4717C46.0859 78.5144 46.1094 78.5713 46.1094 78.6424C46.1094 78.7253 46.0835 78.7917 46.0317 78.8391C45.9799 78.8865 45.9045 78.9102 45.8103 78.9102C45.7232 78.9102 45.6549 78.896 45.6055 78.8675V78.7538C45.6337 78.7704 45.6667 78.7822 45.7044 78.7917C45.7421 78.8012 45.7774 78.8059 45.808 78.8059C45.8645 78.8059 45.9069 78.7941 45.9375 78.768C45.9658 78.7419 45.9823 78.7064 45.9823 78.6566C45.9823 78.5618 45.9234 78.5168 45.8033 78.5168C45.7868 78.5168 45.7656 78.5168 45.7421 78.5215C45.7185 78.5239 45.695 78.5286 45.6785 78.5334L45.622 78.5002L45.6526 78.1162H46.0576V78.2276H45.7632L45.7468 78.422C45.7585 78.422 45.775 78.4172 45.7915 78.4148C45.8103 78.4125 45.8315 78.4101 45.8574 78.4101L45.8551 78.4077Z" fill="#B0B0FF"/>
<path d="M46.7408 78.5049C46.7408 78.6424 46.7196 78.7419 46.6749 78.8083C46.6325 78.8746 46.5642 78.9078 46.4747 78.9078C46.3852 78.9078 46.3216 78.8747 46.2769 78.8059C46.2321 78.7372 46.2109 78.6376 46.2109 78.5049C46.2109 78.3651 46.2321 78.2632 46.2769 78.1992C46.3216 78.1328 46.3876 78.0996 46.477 78.0996C46.5665 78.0996 46.6301 78.1328 46.6749 78.2039C46.7196 78.2726 46.7408 78.3722 46.7408 78.5049ZM46.3381 78.5049C46.3381 78.6116 46.3499 78.6874 46.3711 78.7348C46.3923 78.7798 46.4276 78.8035 46.477 78.8035C46.5265 78.8035 46.5595 78.7798 46.583 78.7348C46.6042 78.6874 46.616 78.6116 46.616 78.5073C46.616 78.403 46.6042 78.3248 46.583 78.2797C46.5618 78.2323 46.5265 78.2086 46.477 78.2086C46.4276 78.2086 46.3946 78.2323 46.3711 78.2774C46.3499 78.3224 46.3381 78.4006 46.3381 78.5073V78.5049Z" fill="#B0B0FF"/>
</g>
<path d="M49.185 28.4429C47.1127 28.4429 45.4336 30.1352 45.4336 32.2185C45.4336 34.3019 47.1127 35.9942 49.185 35.9942C51.2573 35.9942 52.9364 34.3019 52.9364 32.2185C52.9364 30.1352 51.2573 28.4429 49.185 28.4429ZM49.185 35.7477C47.2469 35.7477 45.6785 34.1692 45.6785 32.2185C45.6785 30.2679 47.2492 28.6894 49.185 28.6894C51.1208 28.6894 52.6915 30.2679 52.6915 32.2185C52.6915 34.1692 51.1231 35.7477 49.185 35.7477Z" fill="white"/>
<path opacity="0.25" d="M52.6927 32.2186C52.6927 34.1693 51.1243 35.7478 49.1862 35.7478C47.2481 35.7478 45.6797 34.1693 45.6797 32.2186C45.6797 30.268 47.2504 28.6895 49.1862 28.6895C51.1219 28.6895 52.6927 30.268 52.6927 32.2186Z" fill="white"/>
<path d="M50.8336 31.9812L48.3633 30.5449V33.4152L50.8336 31.9812Z" fill="white"/>
<path opacity="0.2" d="M64.315 60.0179C64.3433 59.7027 64.4116 59.3946 64.5199 59.0959C64.8307 57.9511 67.3317 56.1783 68.1229 55.3653C64.8472 56.5243 62.1744 51.9025 64.899 49.62C65.4736 49.1887 71.441 43.5572 71.9897 43.5098V69.6929C68.7635 73.5468 63.3354 68.8586 66.8654 65.2441L68.9071 63.4215C67.5201 64.0093 65.7939 63.5115 64.932 62.2672C64.4657 61.6201 64.2491 60.8119 64.315 60.0155V60.0179Z" fill="#000107"/>
<path opacity="0.25" d="M75.2805 49.6982C75.1203 49.9423 74.9272 50.1627 74.6988 50.3666L67.9684 56.3797C67.1654 57.0978 66.1316 57.3941 65.1425 57.2803C65.0648 57.2708 64.9894 57.259 64.9141 57.2448C65.0977 56.7494 65.3992 56.2967 65.8231 55.9222L72.026 50.3832C72.9467 49.5583 74.1972 49.3379 75.2852 49.6982H75.2805Z" fill="#EF9C8B"/>
<path d="M72.3828 42.3628C72.3828 42.3628 74.9591 44.6974 75.6703 45.9251C75.6703 45.9251 73.4072 43.9911 72.3828 42.3628Z" fill="#EAA192"/>
<path d="M73.9453 44.875C73.9453 44.875 75.2876 46.1454 75.5843 46.7048C75.5843 46.7048 74.7813 46.7048 73.9453 44.875Z" fill="#EAA192"/>
<path d="M75.0039 57.6528C75.0039 57.6528 77.5802 59.9874 78.2914 61.2152C78.2914 61.2152 76.0283 59.2811 75.0039 57.6528Z" fill="#EAA192"/>
<path d="M76.5664 60.165C76.5664 60.165 77.9087 61.4354 78.2054 61.9948C78.2054 61.9948 77.4024 61.9948 76.5664 60.165Z" fill="#EAA192"/>
<path d="M76.5609 54.3841C76.5609 54.3841 73.9846 52.0495 73.2734 50.8218C73.2734 50.8218 75.5365 52.7558 76.5609 54.3841Z" fill="#EAA192"/>
<path d="M74.9984 51.8718C74.9984 51.8718 73.6561 50.6013 73.3594 50.042C73.3594 50.042 74.1624 50.042 74.9984 51.8718Z" fill="#EAA192"/>
<path d="M70.6299 51.0018L68.8307 52.4429C67.8346 53.2393 66.3863 53.0757 65.595 52.0731C64.8038 51.0729 64.9662 49.6129 65.9624 48.8213L67.7616 47.3755L67.7663 47.3802C67.738 48.1956 67.9923 49.0251 68.5363 49.7125C69.0803 50.3998 69.8268 50.8359 70.6228 50.99L70.6299 50.9995V51.0018Z" fill="#FCC9BE"/>
<path d="M71.1767 58.9066L69.3776 60.3477C68.3814 61.144 66.9331 60.9805 66.1419 59.9779C65.3506 58.9753 65.5131 57.5177 66.5093 56.7261L68.3084 55.2803L68.3131 55.285C68.2849 56.1003 68.5392 56.9299 69.0832 57.6172C69.6272 58.3046 70.3737 58.7407 71.1697 58.8948L71.1767 58.9042V58.9066Z" fill="#FCC9BE"/>
<path opacity="0.25" d="M76.7242 57.5746C76.5641 57.8188 76.371 58.0392 76.1402 58.243L69.4098 64.2561C68.6068 64.9743 67.573 65.2705 66.5839 65.1568C66.5062 65.1473 66.4308 65.1355 66.3555 65.1212C66.5392 64.6259 66.8429 64.1732 67.2645 63.7987L73.4674 58.2596C74.3881 57.4348 75.6386 57.2144 76.7266 57.5746H76.7242Z" fill="#EF9C8B"/>
<path d="M72.7197 66.5101L70.9205 67.9512C69.9244 68.7476 68.4761 68.584 67.6849 67.5814C66.8936 66.5812 67.0561 65.1212 68.0522 64.3296L69.8514 62.8838L69.8561 62.8885C69.8278 63.7039 70.0822 64.5334 70.6262 65.2208C71.1702 65.9081 71.9167 66.3442 72.7126 66.4983L72.7197 66.5078V66.5101Z" fill="#FCC9BE"/>
<path opacity="0.2" d="M64.2447 59.9637C64.273 59.6485 64.3413 59.3404 64.4496 59.0417C64.7604 57.8969 67.2614 56.1241 68.0526 55.3111C64.7769 56.4701 62.1041 51.8483 64.8287 49.5658C65.4033 49.1345 71.3707 43.503 71.9194 43.4556V69.6387C68.6932 73.4926 63.265 68.8044 66.7951 65.1899L68.8368 63.3673C67.4498 63.9551 65.7236 63.4573 64.8617 62.213C64.3954 61.5659 64.1788 60.7577 64.2447 59.9613V59.9637Z" fill="#000107"/>
<path d="M76.1522 42.4625C74.9229 41.0688 72.8034 40.9408 71.4187 42.1781L65.2135 47.7195C63.8288 48.9567 63.7016 51.0899 64.9309 52.4835C66.1602 53.8772 68.2796 54.0051 69.6643 52.7679L75.8696 47.2265C77.2543 45.9893 77.3814 43.8561 76.1522 42.4625Z" fill="#ED998E"/>
<path d="M76.4003 55.3798L70.1951 60.9189C69.4533 61.5802 68.5042 61.8527 67.5882 61.7484C66.7993 61.6584 66.0315 61.2815 65.4593 60.6368C64.6045 59.6651 64.4066 58.3307 64.8376 57.193C65.0213 56.6976 65.3227 56.2449 65.7466 55.8705L71.9495 50.3314C72.8703 49.5066 74.1207 49.2862 75.2087 49.6464C75.7598 49.8242 76.2731 50.1442 76.6853 50.6158C77.9122 52.0118 77.7874 54.1426 76.4027 55.3822L76.4003 55.3798Z" fill="#ED998E"/>
<path d="M75.2047 49.644C75.0446 49.8881 74.8515 50.1085 74.6207 50.3124L67.8903 56.3255C67.0872 57.0436 66.0534 57.3399 65.0644 57.2261C64.9866 57.2166 64.9113 57.2048 64.8359 57.1906C65.0196 56.6952 65.3211 56.2425 65.7449 55.868L71.9478 50.329C72.8686 49.5041 74.1191 49.2837 75.2071 49.644H75.2047Z" fill="#EA907F"/>
<path d="M78.117 58.4893C76.8877 57.0957 74.7683 56.9677 73.3836 58.2049L67.1783 63.7463C65.7936 64.9836 65.6665 67.1167 66.8957 68.5104C68.125 69.904 70.2445 70.032 71.6292 68.7948L77.8344 63.2534C79.2191 62.0161 79.3463 59.883 78.117 58.4893Z" fill="#ED998E"/>
<g opacity="0.5">
<path d="M72.3086 42.3086C72.3086 42.3086 74.8849 44.6432 75.5961 45.8709C75.5961 45.8709 73.333 43.9369 72.3086 42.3086Z" fill="#D8776A"/>
<path d="M73.8711 44.8208C73.8711 44.8208 75.2134 46.0912 75.5101 46.6506C75.5101 46.6506 74.7071 46.6506 73.8711 44.8208Z" fill="#D8776A"/>
</g>
<path opacity="0.5" d="M74.9297 57.5981C74.9297 57.5981 77.506 59.9327 78.2172 61.1605C78.2172 61.1605 75.9541 59.2264 74.9297 57.5981Z" fill="#D8776A"/>
<path opacity="0.5" d="M76.4922 60.1104C76.4922 60.1104 77.8345 61.3808 78.1312 61.9401C78.1312 61.9401 77.3282 61.9401 76.4922 60.1104Z" fill="#D8776A"/>
<g opacity="0.5">
<path d="M76.4867 54.3299C76.4867 54.3299 73.9104 51.9953 73.1992 50.7676C73.1992 50.7676 75.4623 52.7016 76.4867 54.3299Z" fill="#D8776A"/>
<path d="M74.9242 51.8176C74.9242 51.8176 73.5819 50.5472 73.2852 49.9878C73.2852 49.9878 74.0882 49.9878 74.9242 51.8176Z" fill="#D8776A"/>
</g>
<path d="M70.5556 50.9476L68.7565 52.3887C67.7603 53.1851 66.3121 53.0215 65.5208 52.0189C64.7295 51.0187 64.892 49.5587 65.8882 48.7671L67.6873 47.3213L67.692 47.326C67.6638 48.1414 67.9181 48.9709 68.4621 49.6583C69.0061 50.3456 69.7526 50.7817 70.5486 50.9358L70.5556 50.9453V50.9476Z" fill="#FCC9BE"/>
<path d="M71.0986 58.8524L69.2994 60.2935C68.3033 61.0898 66.855 60.9263 66.0638 59.9237C65.2725 58.9211 65.435 57.4635 66.4311 56.6719L68.2303 55.2261L68.235 55.2308C68.2068 56.0461 68.4611 56.8757 69.0051 57.563C69.5491 58.2504 70.2956 58.6865 71.0915 58.8406L71.0986 58.85V58.8524Z" fill="#FCC9BE"/>
<path d="M76.6461 57.52C76.486 57.7641 76.2929 57.9845 76.0621 58.1883L69.3317 64.2014C68.5287 64.9196 67.4948 65.2159 66.5058 65.1021C66.4281 65.0926 66.3527 65.0808 66.2773 65.0665C66.461 64.5712 66.7625 64.1185 67.1864 63.744L73.3892 58.2049C74.31 57.3801 75.5605 57.1597 76.6485 57.52H76.6461Z" fill="#EA907F"/>
<path d="M72.6455 66.4554L70.8463 67.8965C69.8502 68.6929 68.4019 68.5293 67.6106 67.5268C66.8194 66.5242 66.9819 65.0665 67.978 64.2749L69.7772 62.8291L69.7819 62.8338C69.7536 63.6492 70.008 64.4787 70.552 65.1661C71.0959 65.8534 71.8425 66.2895 72.6384 66.4436L72.6455 66.4531V66.4554Z" fill="#FCC9BE"/>
<g opacity="0.2">
<g style="mix-blend-mode:multiply">
<path d="M33.7525 19.1328V33.5814C33.7525 34.5332 32.9839 35.3069 32.0364 35.3069H27.7109V21.8668C27.7109 20.3566 28.9299 19.1328 30.4308 19.1328H33.7525Z" fill="#231F20"/>
</g>
</g>
<path d="M33.0842 16.9801V32.3327C33.0842 33.2837 32.3156 34.0575 31.3689 34.0575H21.3653C20.417 34.0575 19.6484 33.2837 19.6484 32.3327V16.9801C19.6484 16.0291 20.417 15.2554 21.3653 15.2554H31.3689C32.3156 15.2554 33.0842 16.0291 33.0842 16.9801Z" fill="#DCDCDC"/>
<path opacity="0.5" d="M33.0842 16.9801V18.4912H19.6484V16.9801C19.6484 16.0291 20.417 15.2554 21.3653 15.2554H31.3689C32.3156 15.2554 33.0842 16.0291 33.0842 16.9801Z" fill="#313951"/>
<path d="M27.6746 25.428L25.3173 25.3608C23.3588 26.4114 20.9023 28.9171 20.9023 31.7612C20.9023 32.0971 20.9209 32.4241 20.9571 32.7462H31.8245C31.8615 32.4241 31.8792 32.0971 31.8792 31.7612C31.8792 28.9171 29.6331 26.4786 27.6746 25.428Z" fill="#B0B0FF"/>
<path opacity="0.5" d="M29.7651 32.7456L29.62 30.3823L29.3711 32.7456H29.7651Z" fill="#A08410"/>
<path opacity="0.5" d="M23.4104 32.7456L23.2654 30.3823L23.0156 32.7456H23.4104Z" fill="#A08410"/>
<path d="M28.1965 26.3282C28.1941 26.9862 27.5302 27.348 26.7149 27.1359C25.8988 26.9247 25.2398 26.2197 25.2422 25.5617C25.2446 24.9037 25.9085 24.542 26.7238 24.754C27.5399 24.9653 28.1989 25.6702 28.1965 26.3282Z" fill="white"/>
<path d="M27.6865 26.1883C27.2595 26.4878 26.0205 25.8897 25.7361 25.451C25.6531 25.3239 25.7506 25.1928 25.7707 24.844C25.8126 24.1156 25.8763 22.9889 25.8763 22.959L27.6704 23.8687L27.6777 25.069C27.6777 25.069 27.9137 26.0281 27.6857 26.1883H27.6865Z" fill="#EA907F"/>
<path opacity="0.5" d="M27.6773 25.0686L27.67 25.0905C27.67 25.0905 27.467 24.9181 27.0618 24.7781C26.6557 24.6365 25.7816 24.9189 25.7816 24.9189L25.7695 24.8445C25.8114 24.116 25.8751 22.9894 25.8751 22.9595L27.6692 23.8692L27.6765 25.0695L27.6773 25.0686Z" fill="#D8776A"/>
<path d="M28.7925 18.6182C28.7925 18.6182 29.7053 20.0055 29.0495 21.0868C28.3946 22.1681 25.9309 23.5537 25.9309 23.5537C25.9309 23.5537 23.6123 22.7039 23.7694 19.8711C23.8032 19.2544 23.9571 17.3217 26.0082 17.2318C27.7307 17.1565 28.7934 18.619 28.7934 18.619L28.7925 18.6182Z" fill="#070E3F"/>
<path d="M28.2497 24.2562C26.5997 24.4877 25.2632 23.5432 24.7621 22.5574C24.7242 22.4837 24.6952 22.3874 24.671 22.2757C24.1506 22.2288 23.5802 21.4494 23.8509 20.9201C24.0475 20.5364 24.4011 20.6384 24.6074 20.7444C24.6388 19.9756 24.7218 19.2771 24.7218 19.2771C24.8563 18.3269 28.7806 18.3269 28.9152 19.2771C28.9152 19.2771 29.1109 20.2985 29.1867 21.4761C29.2036 21.7254 29.2141 21.9811 29.2165 22.2337C29.2286 23.3449 29.3494 24.1025 28.2497 24.2562Z" fill="#EA907F"/>
<path d="M27.8867 23.2785C27.8867 23.4242 28.0043 23.5423 28.1494 23.5423C28.2944 23.5423 28.412 23.4242 28.412 23.2785C28.412 23.1328 28.2944 23.0146 28.1494 23.0146C28.0043 23.0146 27.8867 23.1328 27.8867 23.2785Z" fill="white"/>
<path opacity="0.1" d="M24.091 21.3311C24.112 20.8981 24.3488 21.0924 24.2731 20.8771C24.2731 20.8771 24.112 20.7743 23.9887 20.9774C23.9033 21.1183 23.9799 21.7585 24.3496 21.926C24.3496 21.926 24.0709 21.7641 24.0918 21.3311H24.091Z" fill="#201135"/>
<path d="M24.5522 20.7105C24.5522 20.7105 24.6151 21.5288 24.8028 21.3402C24.9905 21.1516 25.3039 19.7457 25.0324 19.3467C25.0324 19.3467 27.4969 20.2281 28.8133 19.3257C28.8745 19.2836 29.1476 20.8788 29.1476 20.8157C29.1476 20.7526 29.2314 18.9688 28.6046 18.5706C27.9778 18.1716 25.2209 18.2978 24.7408 18.5495C24.2606 18.8012 24.553 20.7105 24.553 20.7105H24.5522Z" fill="#070E3F"/>
<path opacity="0.5" d="M26.3415 22.2814C26.3222 22.4166 26.4712 22.551 26.6751 22.5801C26.8789 22.61 27.0602 22.5242 27.0795 22.3891C27.0988 22.2539 26.9498 22.1196 26.746 22.0904C26.5421 22.0605 26.3609 22.1463 26.3415 22.2814Z" fill="#D8776A"/>
<path opacity="0.5" d="M28.447 22.2951C28.4277 22.4303 28.5767 22.5646 28.7805 22.5938C28.9844 22.6237 29.1656 22.5379 29.185 22.4028C29.2043 22.2676 29.0553 22.1332 28.8514 22.1041C28.6476 22.0742 28.4663 22.16 28.447 22.2951Z" fill="#D8776A"/>
<path d="M27.8865 22.3926C27.9799 22.3902 28.0573 22.3553 28.0621 22.3529C28.0903 22.34 28.1024 22.306 28.0895 22.2777C28.0766 22.2493 28.0428 22.2364 28.0146 22.2493C28.013 22.2493 27.8502 22.323 27.7511 22.2348C27.7278 22.2145 27.6915 22.2161 27.6706 22.2396C27.6496 22.2631 27.652 22.2995 27.6754 22.3197C27.7407 22.3772 27.8172 22.3926 27.8849 22.391L27.8865 22.3926Z" fill="#070E3F"/>
<path d="M28.2114 20.9372C28.2178 20.9372 28.2243 20.9356 28.2307 20.9331C28.2356 20.9315 28.6948 20.7502 29.0444 20.7543H29.046C29.0767 20.7543 29.1016 20.7284 29.1016 20.6976C29.1016 20.666 29.0767 20.6401 29.0452 20.6401C28.6706 20.6385 28.2074 20.819 28.188 20.8271C28.159 20.8384 28.1445 20.8716 28.1566 20.9008C28.1655 20.9234 28.1872 20.9372 28.2106 20.9364L28.2114 20.9372Z" fill="#070E3F"/>
<path d="M26.9641 20.8498C26.9875 20.8498 27.0084 20.8344 27.0165 20.8118C27.0269 20.7818 27.0108 20.7494 26.981 20.7389C26.9609 20.7316 26.4912 20.5706 26.1166 20.59C26.0851 20.5916 26.061 20.6183 26.0626 20.6499C26.0642 20.6815 26.0924 20.7057 26.1222 20.7041C26.4735 20.6839 26.9391 20.8449 26.9431 20.8466C26.9496 20.849 26.956 20.8498 26.9633 20.8498H26.9641Z" fill="#070E3F"/>
<path d="M28.612 21.3079C28.7047 21.3055 28.7812 21.3864 28.7836 21.4884C28.786 21.5904 28.7127 21.6746 28.6209 21.6762C28.5282 21.6786 28.4517 21.5977 28.4493 21.4957C28.4469 21.3937 28.5202 21.3096 28.612 21.3071V21.3079Z" fill="#070E3F"/>
<path d="M26.5808 21.2383C26.6734 21.2359 26.75 21.3168 26.7524 21.4188C26.7548 21.5208 26.6815 21.605 26.5896 21.6066C26.497 21.609 26.4204 21.5281 26.418 21.4261C26.4156 21.3241 26.4889 21.24 26.5808 21.2383Z" fill="#070E3F"/>
<path d="M24.79 21.0366C24.7843 21.0674 24.8053 21.0973 24.8359 21.1022L25.9356 21.2924C25.9348 21.3094 25.9316 21.3256 25.9316 21.3434C25.9396 21.6971 26.2321 21.9779 26.5833 21.9698C26.9072 21.9625 27.1658 21.7125 27.1997 21.3976C27.5445 21.2997 27.9014 21.3911 27.9908 21.4179C28.0013 21.7691 28.2913 22.0467 28.641 22.0386C28.993 22.0305 29.2726 21.7367 29.2645 21.3839C29.2565 21.0302 28.964 20.7509 28.6128 20.7582C28.2986 20.7655 28.0448 20.9994 27.9989 21.3013C27.8748 21.2665 27.5413 21.1937 27.2013 21.2786C27.1747 20.9428 26.8943 20.6813 26.5551 20.6886C26.2595 20.6951 26.0178 20.9039 25.9517 21.1791L24.8552 20.9889C24.8254 20.9832 24.7948 21.0043 24.79 21.035V21.0366ZM28.616 20.8804C28.9004 20.874 29.1372 21.1006 29.1437 21.3863C29.1501 21.6728 28.9237 21.9099 28.6385 21.9164C28.3533 21.9229 28.1181 21.6955 28.1117 21.4089C28.1052 21.1224 28.3308 20.8861 28.6152 20.8796L28.616 20.8804ZM26.5584 20.8116C26.8436 20.8052 27.0788 21.0318 27.0853 21.3175C27.0917 21.604 26.8661 21.8411 26.5817 21.8476C26.2965 21.8541 26.0605 21.6267 26.054 21.3402C26.0476 21.0536 26.274 20.8173 26.5592 20.8108L26.5584 20.8116Z" fill="#070E3F"/>
<g opacity="0.2">
<g style="mix-blend-mode:multiply">
<path d="M63.9113 1.80762V21.4883H53.5228C52.5311 21.4883 51.7266 20.6784 51.7266 19.6838V3.61209C51.7266 2.61751 52.5311 1.80762 53.5228 1.80762H63.9113Z" fill="#231F20"/>
</g>
</g>
<path d="M66.9971 2.67935V18.7494C66.9971 19.7448 66.1926 20.5547 65.2018 20.5547H54.7306C53.7381 20.5547 52.9336 19.7448 52.9336 18.7494V2.67935C52.9336 1.68392 53.7381 0.874023 54.7306 0.874023H65.2018C66.1926 0.874023 66.9971 1.68392 66.9971 2.67935Z" fill="#DCDCDC"/>
<path opacity="0.5" d="M66.9971 2.67935V4.26102H52.9336V2.67935C52.9336 1.68392 53.7381 0.874023 54.7306 0.874023H65.2018C66.1926 0.874023 66.9971 1.68392 66.9971 2.67935Z" fill="#313951"/>
<path d="M58.6503 11.4605L61.1178 11.3901C63.1678 12.4898 65.739 15.1126 65.739 18.0896C65.739 18.4412 65.7196 18.7834 65.6816 19.1206H54.3073C54.2686 18.7834 54.25 18.4412 54.25 18.0896C54.25 15.1126 56.6011 12.5601 58.6511 11.4605H58.6503Z" fill="#F7E58C"/>
<path opacity="0.5" d="M62.9067 19.1205L62.76 17.0576L62.5078 19.1205H62.9067Z" fill="#A08410"/>
<path opacity="0.5" d="M56.4918 19.1205L56.345 17.0576L56.0938 19.1205H56.4918Z" fill="#A08410"/>
<path d="M62.2765 8.20118C62.6872 8.17238 62.9975 7.81487 62.9689 7.4023C62.9571 7.22694 62.8837 7.06089 62.7622 6.93466C63.0641 6.88468 63.3306 6.69237 63.3745 6.36028C63.4183 6.02819 63.1923 5.73591 62.8702 5.64442V5.64865C63.151 5.76387 63.3644 6.03497 63.3188 6.35181C63.2792 6.62206 63.0937 6.77455 62.866 6.8491C63.0515 6.7144 63.1738 6.50853 63.2024 6.28064C63.2252 6.0231 63.0928 5.77742 62.866 5.65543C63.0017 5.40213 63.0566 5.07851 62.9258 4.8108C62.8179 4.58037 62.5843 4.4355 62.3305 4.44228C62.4544 4.06614 62.2512 3.66034 61.8768 3.53665C61.7014 3.4782 61.5108 3.4909 61.3447 3.57054C61.4138 3.24522 61.2081 2.92499 60.8842 2.85552C60.7999 2.83689 60.7122 2.83773 60.6279 2.85637C60.6313 2.69795 60.5436 2.55224 60.4019 2.48277C60.2366 2.41245 60.0502 2.41076 59.8833 2.47769C59.8006 2.33536 59.6522 2.24556 59.4878 2.23878C59.2727 2.23709 59.0889 2.39212 59.0526 2.60476C58.7785 2.51496 58.4682 2.45735 58.1958 2.5785C57.9724 2.67847 57.7927 2.89958 57.8029 3.15119C57.3323 3.06308 56.8803 3.37569 56.7934 3.84756C56.7867 3.8823 56.7825 3.91703 56.7808 3.95261C56.5649 3.97803 56.3794 4.11781 56.2934 4.31859C56.2293 4.4516 56.1989 4.59816 56.2048 4.74557C56.0126 4.78369 55.865 4.94042 55.8388 5.13611C55.8211 5.31656 55.8852 5.49616 56.0126 5.62408C56.021 5.67576 56.0176 5.72829 56.0024 5.77827C55.9265 6.03412 55.9822 6.3103 56.1517 6.51531C55.9889 6.76607 56.0598 7.1024 56.3094 7.2659C56.3288 7.27861 56.349 7.29047 56.3701 7.30064C56.2833 7.62172 56.4679 7.95296 56.785 8.04615C56.7336 8.29946 56.7951 8.56208 56.9528 8.7654C57.0759 8.92043 57.28 9.04073 57.474 8.98058C57.458 9.13562 57.6089 9.2593 57.7573 9.28302C57.813 9.29065 57.8695 9.29234 57.9251 9.28726C57.9968 9.27201 58.071 9.26862 58.1435 9.27794C58.2127 9.29827 58.2565 9.36859 58.3114 9.41434C58.3485 9.44653 58.3889 9.47533 58.432 9.49905C58.7651 9.67865 59.1774 9.60156 59.4228 9.31352C59.621 9.48719 59.9052 9.45076 60.1312 9.34317C60.2037 9.3059 60.272 9.26269 60.3369 9.21356C60.3926 9.16611 60.4618 9.13646 60.5343 9.12884C60.5815 9.12884 60.6296 9.13646 60.6768 9.13477C60.8387 9.12968 60.9568 9.02548 61.0605 8.91196C61.6086 9.35842 62.301 8.84673 62.274 8.20118H62.2765ZM55.8869 5.23015C55.8835 5.02513 56.0092 4.8396 56.2006 4.76844V4.79386C56.2006 4.79386 56.1475 4.83452 56.1239 4.85655C56.0817 4.89806 56.0454 4.94635 56.0168 4.99802C55.9561 5.10731 55.9291 5.23185 55.9383 5.35638C55.9442 5.41145 55.9569 5.46482 55.9754 5.51649C55.978 5.52242 55.9797 5.5292 55.9814 5.53598C55.9232 5.44449 55.8911 5.33859 55.8894 5.23015H55.8861H55.8869ZM59.5645 2.38026C59.3722 2.35146 59.1816 2.44549 59.0889 2.61747H59.0737C59.1403 2.4294 59.2525 2.27945 59.4827 2.27945C59.6269 2.28538 59.7568 2.3684 59.8242 2.49632C59.7517 2.43363 59.6632 2.39382 59.5687 2.37941H59.5653L59.5645 2.38026ZM61.0782 8.89417L61.0833 8.88909C61.499 9.06954 61.9814 8.88739 62.1762 8.47651C62.0067 8.92806 61.5943 9.2161 61.0849 8.89163L61.0782 8.89417Z" fill="#070E3F"/>
<path d="M61.0183 11.1356C60.724 10.4443 58.7533 10.6925 58.5011 11.0915C58.249 11.4905 57.5279 12.6944 58.6268 13.0485C59.7256 13.4018 61.3472 11.909 61.0183 11.1356Z" fill="white"/>
<path d="M58.849 12.5141C59.7589 12.5141 61.1461 11.5644 60.9909 11.0841C60.8484 10.6427 60.7346 9.39905 60.7093 8.396L58.5091 9.97089C58.5193 10.1268 58.3363 12.0643 58.3363 12.0643C58.3363 12.0643 58.3051 12.5141 58.849 12.5141Z" fill="#EA907F"/>
<path d="M56.4066 8.55176C56.1578 9.59124 57.4422 10.4681 58.0004 10.5841C58.1522 10.6155 60.6146 9.80049 60.8187 8.51957C60.9494 7.70374 61.3601 5.86961 59.9366 5.33504C59.5639 5.19526 56.9404 4.59123 56.959 6.06277C56.9741 7.22424 56.6967 7.33945 56.4066 8.55176Z" fill="#EA907F"/>
<path d="M58.0001 10.5831C57.9917 10.5195 58.4235 10.4416 58.9142 10.2577C59.1596 10.1671 59.3671 10.057 59.5113 9.96631C59.6547 9.87567 59.7365 9.80366 59.7609 9.82229C59.782 9.83754 59.7373 9.94937 59.6024 10.0815C59.4691 10.212 59.2499 10.3552 58.9876 10.4526C58.4597 10.6491 58.0043 10.6347 58.0001 10.5847V10.5831Z" fill="#D8776A"/>
<path d="M60.6885 8.41217C61.283 8.85355 61.8691 7.43793 61.3184 7.14989C61.159 7.06687 60.8361 7.01434 60.7298 7.33711C60.6143 7.6853 60.5578 8.31475 60.6885 8.41217Z" fill="#EA907F"/>
<path d="M61.1475 7.40674C61.0058 7.50162 60.736 7.8388 60.8818 8.11582C60.8818 8.11582 60.892 7.93622 60.994 7.83287L61.2402 7.73798L61.0024 7.70579L61.1483 7.40674H61.1475Z" fill="#070E3F"/>
<path d="M58.1187 7.51082C58.2267 7.56165 57.8506 7.94965 58.0648 8.00556C58.2798 8.06148 57.9189 8.12247 57.8868 7.94626C57.8548 7.77005 58.0226 7.46592 58.1179 7.51082H58.1187Z" fill="#070E3F"/>
<path d="M58.8725 7.24081C58.8151 7.36111 58.8607 7.50258 58.9728 7.55596C59.085 7.60933 59.2224 7.55511 59.2789 7.43481C59.3363 7.31451 59.2907 7.17303 59.1786 7.11966C59.0664 7.06629 58.929 7.12051 58.8725 7.24081Z" fill="#070E3F"/>
<path d="M58.9245 7.20437C58.9085 7.24503 58.9228 7.28993 58.9566 7.30349C58.9903 7.31704 59.0308 7.29501 59.0477 7.2535C59.0637 7.21284 59.0493 7.16794 59.0156 7.15438C58.9819 7.14083 58.9414 7.16286 58.9245 7.20437Z" fill="white"/>
<path d="M59.8647 7.08044C59.9263 7.09908 60.0098 6.93642 59.9592 6.89661C59.9592 6.89661 59.0552 6.34849 58.8789 6.46963C58.8789 6.46963 58.8384 6.58824 58.8443 6.6289C58.8528 6.69244 58.9236 6.77885 59.0256 6.81019L59.8647 7.08044Z" fill="#070E3F"/>
<path d="M57.3167 6.95256C57.31 7.08556 57.4044 7.19908 57.5284 7.20586C57.6524 7.21264 57.7586 7.10928 57.7654 6.97628C57.7721 6.84327 57.6777 6.72975 57.5537 6.72297C57.4297 6.71619 57.3235 6.81955 57.3167 6.95256Z" fill="#070E3F"/>
<path d="M57.3516 6.89739C57.3516 6.94144 57.3819 6.97703 57.4182 6.97618C57.4545 6.97618 57.484 6.93975 57.4831 6.8957C57.4831 6.85164 57.4528 6.81606 57.4165 6.81691C57.3803 6.81691 57.3507 6.85334 57.3516 6.89739Z" fill="white"/>
<path d="M57.2227 6.40934C57.1755 6.40256 57.1704 6.28141 57.2109 6.26616C57.2109 6.26616 57.9572 6.15349 57.9977 6.24583C57.9977 6.24583 58.0221 6.36274 58.0162 6.39578C58.0069 6.44746 57.9488 6.49575 57.8703 6.48473L57.2227 6.40934Z" fill="#070E3F"/>
<path d="M58.4503 8.91864C57.7461 8.99827 57.6854 8.73311 57.3928 8.71955C57.2326 8.71193 57.1415 8.84493 57.1879 8.97709C57.1879 8.97709 57.4105 9.59722 58.2285 9.42948C58.7446 9.32359 58.6063 8.90085 58.4511 8.91864H58.4503Z" fill="white"/>
<path d="M60.7932 6.44853C60.2012 6.54003 60.2231 6.41719 59.9212 5.83179C59.2887 6.00885 58.7414 5.85721 58.6622 5.40143C58.3426 5.7996 58.0196 6.02156 57.4622 5.60306C57.2497 5.92668 56.8044 5.62932 56.8086 5.42684C56.8179 4.97191 57.8315 3.93752 60.1084 4.6017C62.1256 5.18964 60.9618 7.60493 60.67 7.57612C60.3783 7.54732 60.8497 6.72641 60.7949 6.44769L60.7932 6.44853Z" fill="#070E3F"/>
<g style="mix-blend-mode:multiply">
<path d="M4.75947 43.1187C2.27377 40.6358 2.27377 36.6103 4.75947 34.1274C7.24516 31.6446 11.2753 31.6446 13.761 34.1274C16.2467 36.6103 16.2467 40.6358 13.761 43.1187C11.2753 45.6015 7.24516 45.6015 4.75947 43.1187Z" fill="#F3EDFF"/>
</g>
<g style="mix-blend-mode:multiply">
<path d="M90.7616 69.3319C88.6711 69.3319 86.9764 67.6391 86.9764 65.551C86.9764 63.4628 88.6711 61.77 90.7616 61.77C92.8522 61.77 94.5469 63.4628 94.5469 65.551C94.5469 67.6391 92.8522 69.3319 90.7616 69.3319Z" fill="#F3EDFF"/>
</g>
<defs>
<linearGradient id="paint0_linear_3011_11986" x1="96.4493" y1="128.466" x2="4.55199" y2="-26.8121" gradientUnits="userSpaceOnUse">
<stop stop-color="#B0B0FF"/>
<stop offset="1" stop-color="white"/>
</linearGradient>
<radialGradient id="paint1_radial_3011_11986" cx="0" cy="0" r="1" gradientUnits="userSpaceOnUse" gradientTransform="translate(108.35 72.3758) scale(108.153 108.852)">
<stop stop-color="#329291"/>
<stop offset="1" stop-color="#A1CBB0"/>
</radialGradient>
</defs>
</svg>
