<svg width="201" height="146" viewBox="0 0 201 146" fill="none" xmlns="http://www.w3.org/2000/svg">
<path d="M21.6533 145.24C8.45657 130.582 4.99513 110.462 9.52385 98.3694C12.9997 89.102 22.6196 82.2127 32.5136 82.328C40.3883 82.4288 47.6862 86.7959 55.561 87.1274C67.3731 87.6175 77.6709 78.9265 84.3919 69.2123C91.1128 59.498 95.6271 48.2705 103.314 39.2913C118.328 21.7509 145.313 15.6975 166.385 25.1667C186.865 34.3621 200.004 56.5434 200.898 78.9554C201.792 101.367 189.173 129.386 173.279 145.226" fill="#EBE3FF"/>
<mask id="mask0_3043_11118" style="mask-type:alpha" maskUnits="userSpaceOnUse" x="49" y="23" width="102" height="123">
<rect x="49.8906" y="23.3213" width="100.215" height="121.919" fill="#D9D9D9"/>
</mask>
<g mask="url(#mask0_3043_11118)">
<path d="M99.9375 69.3605L117.164 52.0579L119.023 31.6943L124.276 33.6373C124.276 33.6373 126.169 53.4964 124.77 55.7325C123.364 57.9755 108.126 75.0803 108.126 75.0803L99.9444 69.3605H99.9375Z" fill="#C79B7B"/>
<path d="M124.744 38.7912L124.278 31.742C124.278 31.742 125.135 30.5012 125.533 29.4854C125.93 28.4696 126.362 27.1539 125.711 25.4631C125.059 23.7724 124.367 24.9246 124.367 24.9246C123.482 23.3225 122.152 24.1747 122.152 24.1747C121.418 22.7566 119.923 23.5338 119.923 23.5338C119.923 23.5338 118.113 24.1678 117.53 24.8291C116.947 25.4904 117.152 28.6332 117.152 28.6332L119.004 31.6806L118.757 38.7162C118.881 38.7162 124.73 38.7844 124.73 38.7844L124.744 38.7912Z" fill="#C79B7B"/>
<g opacity="0.3">
<path d="M121.904 29.2605C121.452 28.2106 120.539 27.4061 119.449 27.0721L119.566 27.2221C119.621 26.6358 119.675 26.0563 119.73 25.47L119.614 25.62C120.272 25.5177 121.033 25.3473 121.308 24.6587C121.383 24.4747 121.431 24.1815 121.28 24.0111C121.17 23.8952 120.992 23.8747 120.841 23.8815C120.519 23.8815 120.19 23.9702 119.874 24.052C119.113 24.2429 118.366 24.4815 117.618 24.7269C117.433 24.7883 117.508 25.0814 117.7 25.02C118.42 24.7883 119.147 24.5496 119.881 24.3656C120.203 24.2838 120.546 24.1883 120.882 24.1883C120.965 24.1883 121.006 24.1951 121.047 24.2224C121.047 24.2224 121.061 24.2224 121.061 24.2633C121.061 24.2292 121.061 24.3519 121.061 24.3792C121.04 24.5837 120.917 24.7678 120.766 24.9042C120.43 25.2041 119.95 25.2655 119.525 25.3336C119.456 25.3473 119.415 25.4223 119.408 25.4836C119.353 26.0699 119.298 26.6494 119.243 27.2357C119.243 27.3039 119.298 27.3652 119.36 27.3857C120.389 27.6993 121.212 28.4492 121.637 29.4309C121.712 29.615 121.98 29.4582 121.904 29.2741V29.2605Z" fill="black"/>
</g>
<g opacity="0.3">
<path d="M125.708 27.1404C125.743 27.4471 125.564 27.7676 125.249 27.8425C124.933 27.9175 124.604 27.6994 124.508 27.3858C124.405 27.0313 124.474 26.629 124.467 26.2609C124.453 25.8246 124.405 25.3951 124.33 24.9724C124.296 24.7815 123.994 24.8633 124.035 25.0542C124.131 25.586 124.172 26.1246 124.159 26.6631C124.152 27.0858 124.124 27.563 124.447 27.8835C124.714 28.1561 125.16 28.238 125.503 28.0743C125.846 27.9107 126.065 27.5153 126.017 27.1404C125.996 26.9495 125.688 26.9426 125.708 27.1404Z" fill="black"/>
</g>
<g opacity="0.3">
<path d="M123.912 26.9291C123.7 27.2358 123.364 27.4881 122.98 27.4949C122.623 27.4949 122.28 27.2631 122.218 26.9018C122.184 26.6973 122.218 26.4927 122.239 26.2882C122.253 26.0564 122.259 25.8315 122.239 25.5997C122.218 25.1497 122.136 24.6998 122.013 24.2703C121.958 24.0794 121.663 24.1612 121.718 24.3521C121.869 24.8838 121.944 25.4292 121.937 25.9746C121.937 26.4382 121.779 26.97 122.088 27.379C122.328 27.6926 122.746 27.8426 123.137 27.7881C123.576 27.7267 123.933 27.4404 124.173 27.0859C124.283 26.9222 124.015 26.7723 123.905 26.9291H123.912Z" fill="black"/>
</g>
<g opacity="0.3">
<path d="M121.555 26.3903C121.322 26.6426 120.952 26.7517 120.622 26.6494C120.293 26.5471 120.053 26.2404 120.019 25.9063C120.012 25.8245 119.957 25.7495 119.861 25.7495C119.786 25.7495 119.697 25.8177 119.703 25.9063C119.752 26.3699 120.06 26.7858 120.506 26.9357C120.952 27.0857 121.459 26.9426 121.768 26.6085C121.898 26.4653 121.685 26.2472 121.548 26.3903H121.555Z" fill="black"/>
</g>
<path d="M78.479 234.308L91.4745 233.565C91.4745 233.565 100.486 193.329 101.069 183.164C101.652 172.999 100.609 147.652 100.609 147.652V147.7C101.11 148.218 104.95 154.217 109.936 159.773C116.458 167.047 123.418 174.908 125.05 177.035C129.837 183.286 141.296 230.804 141.296 230.804L153.545 228.806C153.545 228.806 145.946 179.046 143.772 172.863C138.704 158.43 111.918 129.17 110.793 127.554C109.353 125.495 105.732 118.91 105.732 118.91L73.9323 124.677C73.9323 124.677 73.6854 129.49 73.9665 133.676C75.0295 149.37 82.2714 175.521 83.1492 181.2C79.926 194.242 78.4858 234.322 78.4858 234.322L78.479 234.308Z" fill="#263238"/>
<path opacity="0.2" d="M102.687 144.761L100.609 147.693C101.021 148.415 107.872 157.919 109.655 159.35C110.114 152.86 108.537 147.679 102.687 144.761Z" fill="black"/>
<path d="M90.0574 81.9522C91.7238 84.3655 94.3366 86.997 99.6103 84.4132C103.156 82.6748 107.901 77.6027 114.389 72.1692L103.197 63.9883C99.2674 67.2606 98.0056 68.8695 92.7388 73.4372C85.833 80.541 90.0642 81.959 90.0642 81.959L90.0574 81.9522Z" fill="#8D67EB"/>
<path opacity="0.7" d="M90.0574 81.9522C91.7238 84.3655 94.3366 86.997 99.6103 84.4132C103.156 82.6748 107.901 77.6027 114.389 72.1692L103.197 63.9883C99.2674 67.2606 98.0056 68.8695 92.7388 73.4372C85.833 80.541 90.0642 81.959 90.0642 81.959L90.0574 81.9522Z" fill="#8D67EB"/>
<path d="M104.238 89.3629C103.265 86.0769 101.879 82.0069 100.734 78.7482C99.5065 75.244 96.5576 72.7488 92.8201 72.8102C87.0938 72.9125 81.0658 72.9193 71.41 75.4894L69.3047 92.1853L74.5166 118.821C74.5166 118.821 74.4823 125.284 73.1313 131.154C87.1007 135.401 104.286 134.446 112.701 128.788C112.701 128.788 106.193 95.9621 104.231 89.356L104.238 89.3629Z" fill="#8D67EB"/>
<path opacity="0.7" d="M77.2578 74.1804C77.2578 74.1804 81.6331 78.9798 88.0794 77.5277C94.5258 76.0756 93.0376 72.8101 93.0376 72.8101C93.0376 72.8101 92.3587 72.8237 91.2889 72.8305C88.3537 72.851 82.216 73.0146 77.2578 74.1804Z" fill="#263238"/>
<path d="M86.2631 106.29L78.987 98.8389L75.1055 115.064C75.1055 115.064 78.0818 120.764 78.1641 120.471C78.2463 120.177 86.2631 106.297 86.2631 106.297V106.29Z" fill="#263238"/>
<path d="M85.3802 106.495L79.0779 100.257L75.6558 99.6641L75.4844 113.456L79.5442 115.93L85.3802 106.495Z" fill="#8D67EB"/>
<path opacity="0.7" d="M85.3802 106.495L79.0779 100.257L75.6558 99.6641L75.4844 113.456L79.5442 115.93L85.3802 106.495Z" fill="white"/>
<path d="M75.4625 98.1641L81.998 105.568L86.2636 106.25L81.0791 127.786L75.0373 128.781L70.6758 120.198L75.4625 98.1641Z" fill="#8D67EB"/>
<path d="M75.4625 98.1641L81.998 105.568L86.2636 106.25L81.0791 127.786L75.0373 128.781L70.6758 120.198L75.4625 98.1641Z" fill="#263238"/>
<path d="M81.84 106.85L73.9604 99.998L71.375 116.476C71.375 116.476 74.797 121.916 74.8588 121.616C74.9136 121.316 81.84 106.85 81.84 106.85Z" fill="#8D67EB"/>
<path opacity="0.4" d="M81.84 106.85L73.9604 99.998L71.375 116.476C71.375 116.476 74.797 121.916 74.8588 121.616C74.9136 121.316 81.84 106.85 81.84 106.85Z" fill="black"/>
<path d="M80.9887 107.17L74.2063 101.437L70.75 101.123L71.6689 114.881L75.9139 117.035L80.9887 107.17Z" fill="#8D67EB"/>
<path opacity="0.7" d="M80.9887 107.17L74.2063 101.437L70.75 101.123L71.6689 114.881L75.9139 117.035L80.9887 107.17Z" fill="white"/>
<path d="M70.4423 99.6367L77.5469 106.509L81.8399 106.85L78.3905 128.733L72.4379 130.186L67.418 121.984L70.4423 99.6367Z" fill="#8D67EB"/>
<path opacity="0.2" d="M70.4423 99.6367L77.5469 106.509L81.8399 106.85L78.3905 128.733L72.4379 130.186L67.418 121.984L70.4423 99.6367Z" fill="black"/>
<path d="M63.1669 82.6201C62.6183 83.6155 50.4869 103.979 50.0274 108.424C49.4925 113.633 50.5486 115.194 52.8117 116.564C55.0679 117.941 77.102 118.548 77.102 118.548L76.3065 111.996L61.0547 107.763L74.3383 87.1469L63.1669 82.6269V82.6201Z" fill="#C79B7B"/>
<path d="M71.6312 75.496C71.6312 75.496 66.1107 75.0256 63.3127 80.6432C60.7342 85.8176 54.3633 97.1481 54.3633 97.1481L67.6469 102.745L75.019 89.7035L71.6312 75.5028V75.496Z" fill="#8D67EB"/>
<path opacity="0.7" d="M71.6312 75.496C71.6312 75.496 66.1107 75.0256 63.3127 80.6432C60.7342 85.8176 54.3633 97.1481 54.3633 97.1481L67.6469 102.745L75.019 89.7035L71.6312 75.5028V75.496Z" fill="#8D67EB"/>
<path d="M68.2812 117.914L77.0935 118.548C77.0935 118.548 78.4857 119.816 79.6721 120.471C80.8653 121.125 82.4152 121.882 84.6234 121.377C86.8316 120.866 85.5218 119.83 85.5218 119.83C87.6614 119.019 86.8248 117.246 86.8248 117.246C88.7107 116.585 87.9974 114.628 87.9974 114.628C87.9974 114.628 87.5174 112.303 86.8042 111.478C86.0841 110.654 82.1546 110.374 82.1546 110.374L78.0605 112.119L69.3374 110.947C69.3168 111.103 68.2812 117.914 68.2812 117.914Z" fill="#C79B7B"/>
<path d="M79.043 74.6236C82.321 71.5012 81.6627 63.034 80.7917 58.6572L91.1127 66.5654C90.907 67.0767 90.7287 67.6017 90.5984 68.1402C90.3172 69.1015 90.2966 70.1105 90.5229 71.0854C90.7492 71.883 91.7848 74.0918 91.7848 74.0918C91.7848 74.0918 92.4225 76.587 85.7293 76.8529C82.8079 77.2824 79.043 74.6304 79.043 74.6304V74.6236Z" fill="#C79B7B"/>
<path opacity="0.2" d="M82.8159 63.041C82.5279 68.2222 87.8564 70.4174 90.5309 71.0855C90.2978 70.1107 90.3252 69.1017 90.6064 68.1404L82.8159 63.0342V63.041Z" fill="black"/>
<path d="M78.8843 54.9074C80.4478 60.9203 81.2091 64.3427 84.9946 66.8378C90.6934 70.601 97.7707 66.4629 98.0998 60.0886C98.3947 54.3551 95.7819 45.4857 89.1435 44.2722C82.6012 43.0791 77.3138 48.8876 78.8843 54.9005V54.9074Z" fill="#C79B7B"/>
<path d="M76.2444 46.7266C76.4776 42.9702 85.7631 41.1977 88.7119 42.5476C89.1508 42.7521 84.1652 46.4471 84.4738 46.2631L82.0461 47.6129C81.6278 47.5993 80.9352 48.1992 80.7569 49.4741C80.7569 49.4741 82.9857 59.3866 80.6197 62.8157C78.0549 62.1476 77.1497 58.2208 75.9564 56.0119C74.1734 52.7123 71.8486 47.8311 76.2376 46.7335L76.2444 46.7266Z" fill="#263238"/>
<path d="M77.3829 60.4434C78.1921 61.916 79.6322 62.8773 80.9969 63.2454C83.0543 63.7976 83.3697 61.6842 82.8211 59.7958C82.3273 58.0983 81.3947 56.0939 79.3236 56.3735C77.28 56.6461 76.4639 58.7527 77.3829 60.4366V60.4434Z" fill="#C79B7B"/>
<path d="M87.442 54.7236C87.5654 55.344 88.0043 55.7872 88.4227 55.6985C88.841 55.6167 89.0879 55.0441 88.9644 54.4237C88.841 53.8033 88.4021 53.3602 87.9838 53.4488C87.5654 53.5306 87.3186 54.1033 87.442 54.7236Z" fill="#263238"/>
<path d="M93.8053 53.9942C93.9287 54.6145 94.3676 55.0577 94.786 54.969C95.2043 54.8872 95.4512 54.3146 95.3277 53.6942C95.2043 53.0738 94.7654 52.6307 94.3471 52.7193C93.9287 52.8011 93.6818 53.3738 93.8053 53.9942Z" fill="#263238"/>
<path d="M86.1007 52.3441C86.2036 52.3646 86.3202 52.3305 86.3956 52.2487C87.3077 51.2465 88.4255 51.3829 88.4392 51.3829C88.6038 51.4033 88.7615 51.2874 88.789 51.1306C88.8164 50.967 88.6998 50.817 88.5284 50.7966C88.4667 50.7898 87.0608 50.6193 85.9361 51.8669C85.8264 51.9896 85.8333 52.1805 85.9636 52.2828C86.0047 52.3169 86.0527 52.3373 86.1007 52.351V52.3441Z" fill="#263238"/>
<path opacity="0.2" d="M78.4922 58.4937C78.6773 58.0847 79.1643 57.8529 79.6306 57.8733C80.0901 57.8938 80.5152 58.1324 80.8513 58.4323C81.2559 58.7937 81.5576 59.2641 81.7222 59.7754" stroke="black" stroke-width="0.5" stroke-linecap="round" stroke-linejoin="round"/>
<path d="M96.8725 50.783C96.9274 50.7625 96.9754 50.7216 97.0096 50.6739C97.1057 50.5376 97.0645 50.3535 96.9274 50.258C95.5215 49.3513 94.2254 49.8967 94.1637 49.9104C94.0059 49.9785 93.9373 50.149 93.9991 50.3058C94.0676 50.4557 94.2391 50.5239 94.3968 50.4626C94.4517 50.4353 95.4529 50.0331 96.5845 50.7625C96.6736 50.8171 96.7833 50.8239 96.8725 50.7898V50.783Z" fill="#263238"/>
<path d="M93.5244 60.7913C93.0375 61.5003 92.5986 62.2366 92.2214 63.007C92.0774 62.9661 91.9265 62.9252 91.7894 62.8706C89.8212 62.2502 89.1148 61.3231 88.9365 60.4777C88.8542 60.0618 88.8748 59.6323 88.9914 59.2233C89.0531 58.9915 89.1423 58.7665 89.2657 58.562C90.1092 59.5096 91.8923 60.2255 92.8661 60.5663C93.2912 60.6959 93.5313 60.7913 93.5313 60.7913H93.5244Z" fill="#263238"/>
<path d="M92.8864 60.5526L92.4818 61.1935C90.637 60.6072 89.4163 59.9527 89.0117 59.2028C89.0734 58.971 89.1626 58.746 89.286 58.5415C90.1364 59.4959 91.9126 60.205 92.8864 60.5458V60.5526Z" fill="white"/>
<path d="M91.8099 62.8568C89.8417 62.2364 89.1353 61.3092 88.957 60.4639C89.6977 60.7093 90.3903 61.0911 91.0007 61.5751C91.3984 61.9092 91.6796 62.3591 91.8099 62.8568Z" fill="#C15854"/>
<path d="M79.2334 45.6906C79.2334 45.6906 82.0794 36.4189 90.6242 36.6371C89.8562 36.9575 89.1498 37.4143 88.5532 38.0006C88.5532 38.0006 95.6167 36.0644 98.7782 40.6662L97.2557 40.1208C97.2557 40.1208 99.848 43.9317 98.2158 47.0609L97.5643 45.7588C97.5643 45.7588 95.2944 49.9174 90.7134 49.6924L92.0849 48.6426C92.0849 48.6426 84.4934 49.7947 82.2989 48.2335C81.181 47.504 80.1524 46.6519 79.2266 45.6906H79.2334Z" fill="#263238"/>
</g>
<g clip-path="url(#clip0_3043_11118)">
<path d="M17.6275 89.907L14.4609 85.5107L15.2357 84.941L17.6275 88.2599L20.4006 84.4023L23.1798 88.2599L25.9591 84.4085L29.1318 88.7986L28.3509 89.3683L25.9591 86.0494L23.1798 89.907L20.4006 86.0494L17.6275 89.907Z" fill="#8AE2C7"/>
<path d="M23.2955 94.4394L20.1289 90.0493L20.9036 89.4796L23.2955 92.7985L26.0747 88.9409L28.854 92.7985L31.6332 88.9409L34.7998 93.3372L34.0251 93.9007L31.6332 90.5818L28.854 94.4394L26.0747 90.5818L23.2955 94.4394Z" fill="#8AE2C7"/>
<path d="M175.579 70.5757C171.97 70.1051 164.204 73.1763 166.22 78.1299C167.309 80.7739 172.117 82.4766 173.71 79.4426C173.771 79.2692 173.697 79.0711 173.531 78.9906C165.999 74.6872 158.11 87.102 166.067 91.6593C166.313 91.8079 166.307 91.3807 166.159 91.263C163.3 89.294 162.568 85.3621 164.523 82.489C164.548 82.4519 164.579 82.4085 164.603 82.3714C165.415 81.0587 166.577 79.9999 167.954 79.3187C168.987 78.8234 171.57 78.1361 172.523 79.1516C172.966 79.6222 172.947 79.0277 172.726 79.5788C172.584 79.9132 172.129 80.1051 171.804 80.229C170.998 80.4828 170.125 80.4519 169.338 80.1423C167.641 79.554 166.343 77.9999 166.786 76.1423C167.672 72.4147 172.388 71.0525 175.689 71.0215C175.923 71.0215 175.776 70.6005 175.597 70.5757H175.579Z" fill="#D5CCE2"/>
<path d="M140.729 5.57276C140.729 5.57276 136.707 6.0805 134.254 3.22601L135.029 0C135.029 0 136.178 2.04954 140.569 2.79876L140.722 5.57276H140.729Z" fill="#D5CCE2"/>
<path d="M86.8031 2.82036C90.683 2.43027 95.9893 8.99373 92.1648 12.1578C90.0435 13.9101 85.4135 13.1485 85.4688 9.8668C85.4873 9.68104 85.6287 9.53243 85.8132 9.50147C88.9183 8.79559 91.925 10.1269 91.4085 13.7368C90.8367 16.9194 88.162 19.2786 84.9524 19.4334C84.7679 19.4334 84.8294 19.1114 84.9524 19.0804C87.6271 18.5108 90.1542 16.8389 90.6768 13.9535C90.9166 12.9256 90.7014 11.8358 90.0927 10.9752C89.7299 10.5293 89.2442 10.2012 88.6969 10.0402C88.2419 9.89157 86.5941 9.62531 86.2313 10.0402C85.4996 10.8204 87.4733 12.0649 88.0575 12.2693C89.2257 12.6965 90.5231 12.5727 91.5868 11.9349C93.2101 10.7956 92.8043 8.6346 92.0234 7.10519C90.9658 5.04946 89.1028 3.37144 86.717 3.29095C86.5018 3.29095 86.6187 2.87609 86.7847 2.8637L86.8093 2.82655L86.8031 2.82036Z" fill="#D5CCE2"/>
<path d="M48.0781 37.805C48.0781 37.805 49.9104 41.4397 53.6366 41.8855L55.887 39.4644C55.887 39.4644 53.5567 39.644 50.4577 36.3994L48.0843 37.805H48.0781Z" fill="#8AE2C7"/>
<path d="M159.828 40.4211C159.828 40.4211 157.996 44.0619 154.27 44.5078L152.02 42.0867C152.02 42.0867 154.774 42.5078 157.849 39.2632L159.828 40.4211Z" fill="#8AE2C7"/>
<path d="M7.8089 121.913C7.8089 121.913 5.97657 125.554 2.25044 126L0 123.579C0 123.579 2.75463 124 5.829 120.755L7.8089 121.913Z" fill="#8AE2C7"/>
<path d="M107.003 19.9723C107.003 19.9723 106.284 23.9785 102.847 25.4893L100 23.8237C102.011 22.9073 103.683 21.3655 104.771 19.4336L107.003 19.9723Z" fill="#7453C6"/>
<path d="M4.54456 64.2724C6.72736 63.9257 8.74415 62.8916 10.3059 61.3188L10.8532 64.5882C8.23995 67.3003 4.26172 66.5634 4.26172 66.5634L4.54456 64.2662V64.2724Z" fill="#7453C6"/>
<path d="M199.999 104.347C199.999 104.347 199.28 108.353 195.843 109.864L192.996 108.198C195.007 107.282 196.679 105.74 197.768 103.808L199.999 104.347Z" fill="#7453C6"/>
</g>
<path d="M145.014 126.486L141.848 122.09L142.622 121.52L145.014 124.839L147.787 120.981L150.567 124.839L153.346 120.988L156.519 125.378L155.738 125.947L153.346 122.629L150.567 126.486L147.787 122.629L145.014 126.486Z" fill="#C6BAD8"/>
<path d="M150.682 131.018L147.516 126.628L148.29 126.059L150.682 129.378L153.461 125.52L156.241 129.378L159.02 125.52L162.187 129.916L161.412 130.48L159.02 127.161L156.241 131.018L153.461 127.161L150.682 131.018Z" fill="#C6BAD8"/>
<defs>
<clipPath id="clip0_3043_11118">
<rect width="200" height="126" fill="white"/>
</clipPath>
</defs>
</svg>
