<svg width="49" height="49" viewBox="0 0 49 49" fill="none" xmlns="http://www.w3.org/2000/svg">
<path d="M48.9396 24.4498C48.9396 29.574 47.3334 34.323 44.5971 38.2208C44.3704 38.5437 44.0397 37.9995 43.7978 38.3104C39.4074 43.9535 32.5517 47.5838 24.8482 47.5838C23.3213 47.5838 21.8277 47.4411 20.3801 47.1686C20.0796 47.1119 19.8773 47.9109 19.5808 47.8432C8.91075 45.407 0.949219 35.8581 0.949219 24.4498C0.949219 11.1976 11.6922 0.45459 24.9444 0.45459C38.1966 0.45459 48.9396 11.1976 48.9396 24.4498Z" fill="#6354B2"/>
<path d="M47.1715 24.2869C47.1715 35.6065 37.9952 44.7829 26.6755 44.7829C15.3559 44.7829 6.17969 35.6065 6.17969 24.2869C6.17969 12.9674 15.356 3.79102 26.6755 3.79102C37.9951 3.79102 47.1715 12.9673 47.1715 24.2869Z" fill="#6E61B7"/>
<path d="M28.9959 21.8226L16.6692 38.5074C16.4818 38.761 16.1027 38.761 15.9153 38.5074L3.58869 21.8226C3.36008 21.5132 3.58091 21.0755 3.96558 21.0755H7.35687C7.61566 21.0755 7.82553 20.8656 7.82553 20.6068V0.923246C7.82553 0.664454 8.03539 0.45459 8.29418 0.45459H24.2904C24.5492 0.45459 24.759 0.664454 24.759 0.923246V20.6068C24.759 20.8656 24.9689 21.0755 25.2277 21.0755H28.619C29.0035 21.0755 29.2245 21.5132 28.9959 21.8226Z" fill="#00C1FB"/>
<path d="M18.1052 36.5636L16.6692 38.5074C16.4818 38.761 16.1027 38.761 15.9153 38.5074L3.58869 21.8226C3.36008 21.5132 3.58091 21.0755 3.96558 21.0755H7.35687C7.61566 21.0755 7.82553 20.8656 7.82553 20.6068V0.923246C7.82553 0.664454 8.03539 0.45459 8.29418 0.45459H10.7512V22.9642C10.7512 23.223 10.5413 23.4329 10.2825 23.4329H9.3332C8.94852 23.4329 8.72769 23.8706 8.9563 24.18L18.1052 36.5636Z" fill="#00AAF2"/>
<path d="M43.8955 15.9201V38.1175C43.8955 38.8181 43.6497 39.4983 43.1945 40.031C41.3459 42.194 39.1195 44.0244 36.6175 45.42C36.5193 45.4747 36.1629 45.2895 36.064 45.3429C35.7561 45.509 35.4441 45.6686 35.1283 45.8214C34.9703 45.8979 35.069 46.2121 34.909 46.2852C31.8744 47.672 28.5004 48.4449 24.9458 48.4449C24.7903 48.4449 24.635 48.4434 24.4802 48.4405C22.1467 48.396 20.2852 46.4753 20.2852 44.1413V15.9201C20.2852 15.1437 20.9147 14.5142 21.6911 14.5142H42.4895C43.266 14.5142 43.8955 15.1437 43.8955 15.9201Z" fill="#DEECF1"/>
<path d="M26.0327 14.5142C25.2562 14.5142 24.6267 15.1437 24.6267 15.9201V48.4428C23.3725 48.4265 22.1415 48.3139 20.9407 48.1121C20.5614 48.0484 20.2852 47.7171 20.2852 47.3326V15.9201C20.2852 15.1437 20.9147 14.5142 21.6911 14.5142H26.0327Z" fill="#A8D3D8"/>
<path d="M39.9809 17.9821H38.4662C38.078 17.9821 37.7632 17.6674 37.7632 17.2792C37.7632 16.8909 38.078 16.5762 38.4662 16.5762H39.9809C40.3691 16.5762 40.6839 16.8909 40.6839 17.2792C40.6839 17.6674 40.3691 17.9821 39.9809 17.9821ZM25.0751 17.2792C25.0751 16.8909 24.7603 16.5762 24.3721 16.5762H24.1991C23.8108 16.5762 23.4961 16.8909 23.4961 17.2792C23.4961 17.6674 23.8108 17.9821 24.1991 17.9821H24.3721C24.7603 17.9821 25.0751 17.6674 25.0751 17.2792ZM27.5639 17.2792C27.5639 16.8909 27.2492 16.5762 26.861 16.5762H26.6879C26.2997 16.5762 25.9849 16.8909 25.9849 17.2792C25.9849 17.6674 26.2997 17.9821 26.6879 17.9821H26.861C27.2492 17.9821 27.5639 17.6674 27.5639 17.2792ZM35.9329 44.8791H28.247C27.8587 44.8791 27.544 45.1938 27.544 45.5821C27.544 45.9703 27.8587 46.285 28.247 46.285H34.9086C35.491 46.0188 36.0609 45.7302 36.6171 45.4199C36.5439 45.1097 36.2654 44.8791 35.9329 44.8791ZM39.1988 43.4731C39.587 43.4731 39.9018 43.1584 39.9018 42.7701C39.9018 42.3819 39.587 42.0671 39.1988 42.0671H24.9811C24.5928 42.0671 24.2781 42.3819 24.2781 42.7701C24.2781 43.1584 24.5928 43.4731 24.9811 43.4731H39.1988Z" fill="#8EBAC5"/>
<path d="M34.1962 17.2796C34.1962 17.6679 33.8816 17.9826 33.4932 17.9826H30.6813C30.293 17.9826 29.9783 17.6679 29.9783 17.2796C29.9783 16.8913 30.293 16.5766 30.6813 16.5766H33.4932C33.8815 16.5766 34.1962 16.8913 34.1962 17.2796ZM44.7878 20.7945C45.1762 20.7945 45.4908 20.4798 45.4908 20.0915V17.2796C45.4908 16.8913 45.1762 16.5766 44.7878 16.5766C44.7211 16.5766 44.6565 16.5859 44.5953 16.6033V15.9205C44.5953 14.7576 43.6492 13.8115 42.4864 13.8115H21.688C20.5251 13.8115 19.579 14.7576 19.579 15.9205V16.6032C19.5179 16.5859 19.4533 16.5766 19.3866 16.5766C18.9982 16.5766 18.6836 16.8913 18.6836 17.2796V20.0915C18.6836 20.4798 18.9982 20.7945 19.3866 20.7945C19.4533 20.7945 19.5178 20.7852 19.579 20.7679V47.8435C19.8755 47.9111 20.174 47.9734 20.4745 48.03C20.6441 48.062 20.8142 48.092 20.985 48.1204V15.9205C20.985 15.5328 21.3003 15.2175 21.688 15.2175H42.4864C42.874 15.2175 43.1894 15.5328 43.1894 15.9205V40.0337C43.6859 39.4528 44.1553 38.848 44.5953 38.2211V26.4854C44.6565 26.5027 44.7211 26.5121 44.7878 26.5121C45.1762 26.5121 45.4908 26.1975 45.4908 25.8091V22.9972C45.4908 22.6089 45.1762 22.2942 44.7878 22.2942C44.7211 22.2942 44.6565 22.3035 44.5953 22.3209V20.7679C44.6565 20.7852 44.721 20.7945 44.7878 20.7945Z" fill="#384949"/>
<path d="M39.4492 35.2627C39.3757 35.3703 39.2825 35.4636 39.1748 35.5371C37.7356 36.519 35.9937 37.0899 34.1181 37.0809C29.2552 37.0572 25.2815 33.0836 25.2579 28.2207C25.2488 26.3523 25.8152 24.6167 26.7902 23.1808C26.8712 23.0616 26.9738 22.959 27.093 22.878C28.5289 21.9031 30.2645 21.3367 32.1329 21.3458C36.9958 21.3694 40.9694 25.3431 40.9931 30.2059C41.0021 32.0817 40.4311 33.8236 39.4492 35.2627Z" fill="#4BCD5C"/>
<path d="M39.4856 35.2081C37.8872 37.5882 35.1706 39.1546 32.0881 39.1546C27.1703 39.1546 23.1836 35.1679 23.1836 30.2501C23.1836 27.1676 24.7499 24.4509 27.1301 22.8525C26.1784 24.2697 25.6231 25.9752 25.6231 27.8105C25.6231 32.7283 29.6098 36.715 34.5276 36.715C36.363 36.715 38.0685 36.1598 39.4856 35.2081Z" fill="#00C53B"/>
<path d="M39.7607 24.2136L31.771 34.524C31.6379 34.6959 31.4327 34.7964 31.2154 34.7964C30.998 34.7964 30.7928 34.6959 30.6597 34.524L26.7528 29.4822C26.515 29.1754 26.571 28.7338 26.8779 28.496C27.1847 28.2582 27.6262 28.3142 27.8641 28.621L31.2154 32.9457L38.6495 23.3523C38.8873 23.0454 39.3287 22.9893 39.6357 23.2273C39.9426 23.4653 39.9985 23.9067 39.7607 24.2136ZM34.522 10.9116C34.7966 11.1862 34.7966 11.6313 34.522 11.9058C34.3848 12.043 34.2048 12.1117 34.025 12.1117C33.8451 12.1117 33.6651 12.0431 33.5279 11.9058C32.7345 11.1123 31.4433 11.1122 30.6497 11.9058C30.3752 12.1803 29.93 12.1803 29.6556 11.9058C29.381 11.6312 29.381 11.1861 29.6556 10.9116C30.9972 9.56998 33.1803 9.56988 34.522 10.9116ZM36.8878 8.65647C34.2417 6.01034 29.936 6.01034 27.2899 8.65647C27.0154 8.93101 27.0154 9.37614 27.2899 9.65058C27.4271 9.7879 27.6071 9.85651 27.787 9.85651C27.9668 9.85651 28.1468 9.7879 28.284 9.65058C30.382 7.55269 33.7957 7.55269 35.8937 9.65058C36.1682 9.92512 36.6133 9.92512 36.8878 9.65058C37.1623 9.37614 37.1623 8.93101 36.8878 8.65647Z" fill="white"/>
</svg>
