<svg width="527" height="425" viewBox="0 0 527 425" fill="none" xmlns="http://www.w3.org/2000/svg">
<path d="M28.8595 13.8675C28.8569 13.9102 28.8489 13.9529 28.8435 13.9956C29.9219 13.0723 31.0137 12.1649 32.1374 11.2949C33.1545 10.5076 34.1928 9.74431 35.2659 9.03442C36.3496 8.31653 37.4787 7.67869 38.5999 7.02485C39.1684 6.69392 39.737 6.363 40.3136 6.04541C40.8741 5.73851 41.44 5.44227 42.0006 5.1327C42.5558 4.82579 43.111 4.52422 43.6796 4.24667C43.9598 4.11056 44.2428 3.97979 44.5284 3.85703C44.5738 3.83835 44.6218 3.817 44.6672 3.79832C44.4403 3.29926 44.2001 2.80554 43.9438 2.31982C37.7911 4.59361 32.3083 8.58074 27.3594 13.0269C27.8105 12.8561 28.3016 12.8081 28.6113 13.1043C28.8115 13.2964 28.8809 13.5927 28.8595 13.8675Z" fill="#8AE2C7"/>
<path d="M30.0585 15.9435C30.0184 15.8794 30.0131 15.7967 30.0798 15.7273C31.0782 14.6972 32.1459 13.7391 33.2723 12.8531C34.2787 12.0631 35.325 11.3319 36.3901 10.6247C37.4658 9.90942 38.5549 9.20487 39.6787 8.56704C39.959 8.40691 40.2419 8.25212 40.5275 8.10534C40.8185 7.95322 41.1201 7.81978 41.4084 7.665C41.9823 7.35542 42.5535 7.03784 43.1435 6.75495C43.7494 6.46405 44.3687 6.19718 44.9826 5.92496C45.1374 5.85558 45.2923 5.78886 45.4471 5.71947C45.2629 5.2044 45.0627 4.7 44.8465 4.20361C44.7691 4.23564 44.6917 4.26766 44.6143 4.29969C44.2886 4.44113 43.9683 4.59325 43.6506 4.75071C43.0233 5.06295 42.4094 5.40189 41.7928 5.73548C40.6503 6.35463 39.5159 6.98179 38.4001 7.64631C37.8502 7.97457 37.2897 8.28682 36.7451 8.62041C36.2006 8.95668 35.6614 9.30361 35.1302 9.66123C33.0214 11.0863 31.0301 12.6769 29.0868 14.3236C29.0842 14.3236 29.0815 14.3289 29.0762 14.3316C29.1749 14.2995 29.2764 14.2862 29.3778 14.2942C29.6714 14.3155 29.9464 14.5104 30.0665 14.7772C30.2453 15.1749 30.0825 15.6366 29.9223 16.0422C29.9624 16.0075 30.0078 15.9782 30.0531 15.9515L30.0585 15.9435Z" fill="#8AE2C7"/>
<path d="M42.8878 7.32893C42.3059 7.62516 41.7374 7.95075 41.1474 8.23631C40.5789 8.51119 40.0237 8.81543 39.4765 9.13301C38.3607 9.78419 37.2716 10.4861 36.2039 11.2093C34.1699 12.5891 32.1999 14.1103 30.4648 15.8556C30.7211 15.8636 30.9827 15.9784 31.1455 16.1812C31.4311 16.5362 31.4231 17.0779 31.1802 17.4622C35.6994 13.6486 40.9553 10.8544 46.1631 8.08953C45.9976 7.40899 45.8054 6.74714 45.5838 6.09863C44.6789 6.49895 43.7687 6.88325 42.8878 7.3316V7.32893Z" fill="#8AE2C7"/>
<g opacity="0.47">
<path d="M28.8044 14.3159C28.8044 14.3159 28.783 14.2892 28.775 14.2759C28.735 14.4066 28.6816 14.5347 28.6309 14.6628C28.7109 14.5401 28.8257 14.4387 28.9565 14.3746C28.9031 14.3773 28.8497 14.3613 28.8044 14.3186V14.3159Z" fill="#8AE2C7"/>
</g>
<path d="M48.57 6.25873C49.5816 5.85041 50.5933 5.44476 51.605 5.03644C51.9039 4.91634 52.2189 4.78557 52.4271 4.54005C52.7021 4.21713 52.7448 3.76077 52.7261 3.33911C52.6967 2.63188 52.5205 1.91132 52.1041 1.33754C51.6904 0.763752 51.007 0.355432 50.2997 0.384788C49.9099 0.400801 49.5389 0.544914 49.1759 0.683689C48.3831 0.990597 47.5903 1.2975 46.7441 1.66046C47.3314 2.85606 47.8279 4.09703 48.2203 5.37003C48.311 5.66626 48.3991 5.96783 48.5726 6.25606L48.57 6.25873Z" fill="#8AE2C7"/>
<path d="M25.769 19.6586C25.6276 19.6586 25.4888 19.6053 25.3793 19.5065C25.2218 19.3597 25.1604 19.1382 25.2192 18.9301C25.7717 16.9739 26.2949 15.2979 27.0129 13.0668C27.0236 13.0321 27.045 13.0001 27.0717 12.9734C32.5624 7.61985 39.2411 3.48594 46.3842 1.012C46.4909 0.974641 46.6084 1.02001 46.6618 1.12142C47.6281 2.92017 48.3461 4.831 48.7999 6.80054C48.8239 6.90463 48.7732 7.01138 48.6771 7.05941C44.5557 9.03963 40.509 11.2894 36.6492 13.742C34.8607 14.8789 32.9815 16.1412 31.3613 17.6677C31.3399 17.6891 31.3132 17.7051 31.2838 17.7158C30.1734 18.1374 28.9348 18.5724 27.8404 18.9567C27.1651 19.1943 26.5245 19.4211 25.9692 19.6239C25.9052 19.648 25.8384 19.6586 25.7717 19.6586H25.769ZM27.432 13.2616C26.7247 15.4633 26.2068 17.1233 25.6596 19.0555C25.6436 19.1169 25.6756 19.1569 25.6916 19.1702C25.7076 19.1836 25.7504 19.2156 25.8091 19.1943C26.3696 18.9914 27.0076 18.7646 27.6856 18.5271C28.7613 18.1481 29.9786 17.7184 31.0756 17.3048C32.7146 15.7676 34.6018 14.4972 36.3983 13.355C40.2207 10.9238 44.2274 8.69536 48.3087 6.72582C47.879 4.92174 47.2197 3.16836 46.3468 1.51106C39.3559 3.96098 32.8214 8.02017 27.4347 13.2589L27.432 13.2616Z" fill="#5032AD"/>
<path d="M31.2042 17.7291C31.1748 17.7291 31.1428 17.7238 31.1134 17.7104C30.996 17.6597 30.9426 17.5263 30.9906 17.4089C31.1401 17.0593 31.1187 16.6323 30.9372 16.2987C30.8918 16.2159 30.8224 16.1145 30.737 16.0878C30.6836 16.0718 30.6089 16.0772 30.5422 16.0852C30.3393 16.1065 30.1391 16.1492 29.9442 16.2079C29.8401 16.2399 29.7254 16.1919 29.6746 16.0958C29.6239 15.9998 29.6479 15.877 29.736 15.8103C29.9389 15.6502 29.9282 15.3059 29.8562 15.0604C29.8108 14.9029 29.7227 14.6974 29.5625 14.6093C29.325 14.4812 28.9833 14.6307 28.679 14.7908C28.5722 14.8469 28.4414 14.8122 28.3774 14.7107C28.3133 14.6093 28.34 14.4759 28.4361 14.4038C28.6229 14.2677 28.711 13.9955 28.647 13.758C28.5829 13.5205 28.38 13.3177 28.1291 13.2376C27.8862 13.1602 27.5926 13.1949 27.347 13.3337C27.2376 13.395 27.0961 13.355 27.0347 13.2456C26.9733 13.1362 27.0133 12.9947 27.1228 12.9334C27.4805 12.7332 27.8969 12.6852 28.2652 12.7999C28.6683 12.928 28.986 13.2483 29.0901 13.6379C29.1328 13.798 29.1354 13.9662 29.1034 14.1263C29.3223 14.0809 29.5572 14.0836 29.7787 14.2037C30.0163 14.3318 30.1952 14.5826 30.2966 14.9323C30.358 15.1511 30.3847 15.41 30.3313 15.6502C30.3847 15.6421 30.4381 15.6341 30.4915 15.6288C30.6116 15.6155 30.7424 15.6101 30.8758 15.6502C31.0627 15.7089 31.2175 15.853 31.3403 16.0798C31.5912 16.5415 31.6179 17.1046 31.4124 17.5877C31.375 17.6757 31.2896 17.7264 31.2015 17.7264L31.2042 17.7291Z" fill="#5032AD"/>
<path d="M46.2017 8.22562C46.1003 8.22562 46.0095 8.1589 45.9802 8.05749C45.425 6.07993 44.6509 4.16376 43.6766 2.35701C43.6152 2.24493 43.6579 2.10615 43.77 2.04744C43.8821 1.98873 44.0209 2.02876 44.0796 2.14084C45.0699 3.97695 45.8574 5.92781 46.4206 7.93739C46.4553 8.06015 46.3832 8.18559 46.2605 8.22028C46.2391 8.22562 46.2177 8.22829 46.1991 8.22829L46.2017 8.22562Z" fill="#5032AD"/>
<path d="M26.5428 15.9358C27.2742 16.7204 28.0056 17.505 28.737 18.287C28.3419 18.4551 27.9469 18.6205 27.5518 18.786C27.0847 18.9808 26.6149 19.1756 26.1478 19.3705C25.9956 19.4345 25.7927 19.4879 25.686 19.3598C25.6406 19.3064 25.6272 19.237 25.6219 19.1676C25.5872 18.818 25.694 18.4711 25.8034 18.1375C26.033 17.449 26.2866 16.7658 26.5428 15.9331V15.9358Z" fill="#5032AD"/>
<path d="M45.3457 2.86417C45.3457 2.70671 45.4738 2.57861 45.6313 2.57861C45.7888 2.57861 45.9169 2.70671 45.9169 2.86417C45.9169 3.02163 45.7888 3.14973 45.6313 3.14973C45.4738 3.14973 45.3457 3.02163 45.3457 2.86417Z" fill="#5032AD"/>
<path d="M46.3208 4.70832C46.4785 4.70832 46.6064 4.58047 46.6064 4.42276C46.6064 4.26506 46.4785 4.13721 46.3208 4.13721C46.163 4.13721 46.0352 4.26506 46.0352 4.42276C46.0352 4.58047 46.163 4.70832 46.3208 4.70832Z" fill="#5032AD"/>
<path d="M46.6074 6.07169C46.6074 5.91423 46.7355 5.78613 46.893 5.78613C47.0505 5.78613 47.1787 5.91423 47.1787 6.07169C47.1787 6.22915 47.0505 6.35725 46.893 6.35725C46.7355 6.35725 46.6074 6.22915 46.6074 6.07169Z" fill="#5032AD"/>
<path d="M496.409 159.782C497.101 157.673 497.779 155.564 498.46 153.452C498.8 152.392 499.145 151.33 499.492 150.273C499.84 149.208 500.216 148.152 500.558 147.085C500.891 146.038 501.214 144.988 501.55 143.941C501.889 142.885 502.301 141.853 502.634 140.794C502.794 140.287 502.928 139.768 503.092 139.261C503.143 139.094 503.201 138.932 503.255 138.765C503.005 138.683 502.753 138.593 502.502 138.51C499.485 147.706 496.466 156.905 493.276 166.163C493.564 166.277 493.853 166.389 494.142 166.504C494.92 164.27 495.675 162.029 496.413 159.783L496.409 159.782Z" fill="#8AE2C7"/>
<path d="M503.895 138.977C503.605 139.873 503.336 140.774 503.027 141.661C502.845 142.183 502.659 142.705 502.471 143.223C502.28 143.75 502.126 144.288 501.961 144.823C501.628 145.896 501.296 146.965 500.947 148.032C500.604 149.074 500.226 150.104 499.88 151.145C499.529 152.205 499.176 153.261 498.825 154.321C497.454 158.457 496.113 162.601 494.703 166.722C501.148 169.264 507.609 171.814 514.256 174.408C517.608 165.065 520.742 155.641 523.673 146.292C517.131 143.686 510.537 141.222 503.895 138.977ZM515.053 157.077C511.82 155.971 507.39 154.264 503.563 152.748C504.157 150.679 504.934 148.562 505.673 146.188C508.703 147.225 514.588 149.443 517.421 150.409C516.643 152.607 515.918 154.629 515.05 157.076L515.053 157.077Z" fill="#8AE2C7"/>
<path d="M514.017 174.692C514.017 174.692 513.994 174.686 513.984 174.683C510.85 173.377 507.221 172.003 503.709 170.67C500.103 169.303 496.372 167.89 493.065 166.512C492.916 166.452 492.843 166.281 492.899 166.133C494.759 161.298 496.265 156.479 497.721 151.818C499.103 147.407 500.527 142.843 502.25 138.273C502.307 138.125 502.474 138.048 502.625 138.098C507.414 139.733 516.536 142.933 523.829 145.968C523.974 146.028 524.047 146.188 523.998 146.335C523.033 149.169 522.092 152.046 521.095 155.092C519.002 161.496 516.835 168.114 514.374 174.516C514.346 174.59 514.289 174.649 514.215 174.681C514.153 174.71 514.08 174.71 514.017 174.692ZM493.561 166.08C496.793 167.418 500.415 168.793 503.921 170.12C507.332 171.413 510.854 172.749 513.931 174.021C516.341 167.723 518.474 161.209 520.534 154.91C521.501 151.955 522.414 149.163 523.349 146.406C516.25 143.465 507.5 140.39 502.709 138.751C501.037 143.218 499.642 147.679 498.291 151.996C496.857 156.578 495.379 161.315 493.557 166.079L493.561 166.08Z" fill="#5032AD"/>
<path d="M514.954 151.733C514.954 151.733 514.948 151.731 514.941 151.729L506.838 149.04C506.683 148.988 506.598 148.821 506.649 148.668C506.7 148.515 506.868 148.434 507.024 148.482L515.126 151.172C515.281 151.223 515.367 151.39 515.315 151.544C515.265 151.694 515.104 151.776 514.951 151.732L514.954 151.733Z" fill="#5032AD"/>
<path d="M514.083 154.245C514.083 154.245 514.076 154.243 514.069 154.241L505.904 151.519C505.749 151.468 505.663 151.3 505.716 151.144C505.767 150.991 505.934 150.91 506.093 150.959L514.259 153.681C514.414 153.732 514.499 153.9 514.447 154.056C514.397 154.206 514.236 154.289 514.083 154.245Z" fill="#5032AD"/>
<path d="M33.8389 211.757C33.8389 211.757 33.8174 211.766 33.8067 211.77C26.9218 213.773 20.2049 216.349 13.8517 219.426C13.7724 219.466 13.679 219.471 13.5921 219.441C13.5089 219.409 13.4385 219.348 13.4061 219.267C10.1751 211.967 6.86092 204.614 3.65488 197.5C2.78357 195.571 1.91225 193.642 1.04451 191.712C0.971019 191.549 1.04308 191.357 1.20807 191.283C7.86854 188.196 14.4376 185.501 21.2902 183.046C21.4537 182.988 21.633 183.063 21.7037 183.218L34.0217 211.325C34.057 211.413 34.0587 211.51 34.017 211.592C33.9811 211.667 33.9174 211.726 33.8389 211.757ZM21.4858 215.336C25.3276 213.79 29.2692 212.421 33.2656 211.25L21.2203 183.759C14.5926 186.144 8.22562 188.754 1.78162 191.729C2.60626 193.563 3.43447 195.395 4.25911 197.228C7.42064 204.242 10.6889 211.491 13.8789 218.689C16.3676 217.492 18.908 216.373 21.4894 215.334L21.4858 215.336Z" fill="#5032AD"/>
<path d="M3.99148 188.222C3.67164 188.334 3.43011 188.652 3.41593 188.988C3.40448 189.176 3.45722 189.359 3.52067 189.537C3.70603 190.07 3.97351 190.57 4.31249 191.021C4.46354 191.221 4.63385 191.418 4.86661 191.511C5.09936 191.605 5.40534 191.572 5.55728 191.372C5.72284 191.155 5.65349 190.848 5.56754 190.593C5.383 190.032 5.16135 189.48 4.90399 188.944C4.81987 188.766 4.7286 188.59 4.58586 188.452C4.44453 188.317 4.2278 188.139 3.99148 188.222Z" fill="#5032AD"/>
<path d="M8.35951 186.571C8.07744 186.685 7.91363 186.999 7.90601 187.3C7.89839 187.601 8.01415 187.889 8.14354 188.159C8.3083 188.496 8.49664 188.82 8.7157 189.127C8.91774 189.413 9.24874 189.72 9.58079 189.587C9.845 189.48 9.93258 189.152 9.928 188.872C9.92299 188.344 9.7211 187.842 9.52129 187.356C9.43376 187.138 9.34341 186.914 9.16794 186.756C8.99605 186.597 8.6987 186.435 8.35594 186.573L8.35951 186.571Z" fill="#5032AD"/>
<path d="M13.049 184.721C12.869 184.81 12.6739 184.913 12.5841 185.092C12.4921 185.276 12.5297 185.493 12.5881 185.69C12.733 186.174 12.9815 186.616 13.2357 187.052C13.3582 187.264 13.497 187.485 13.7061 187.613C13.9202 187.743 14.2296 187.749 14.3929 187.557C14.5404 187.388 14.5193 187.139 14.4853 186.92C14.3838 186.256 14.239 185.576 13.8484 185.028C13.7087 184.835 13.4778 184.643 13.0454 184.723L13.049 184.721Z" fill="#5032AD"/>
<path d="M17.4489 183.189C17.2288 183.322 16.981 183.418 16.918 183.663C16.855 183.909 16.9131 184.167 16.9899 184.409C17.1701 184.981 17.4538 185.532 17.8813 185.955C17.9828 186.053 18.0915 186.148 18.2268 186.195C18.3585 186.244 18.5225 186.239 18.6333 186.154C18.8157 186.019 18.8132 185.755 18.7777 185.533C18.6859 184.954 18.4956 184.399 18.3054 183.843C18.23 183.625 18.1517 183.4 17.987 183.237C17.8222 183.075 17.6312 183.075 17.4439 183.187L17.4489 183.189Z" fill="#5032AD"/>
<path d="M6.91071 196.129C6.7429 196.197 6.55358 196.118 6.48366 195.954C6.4173 195.789 6.49435 195.599 6.66432 195.527C12.0631 193.274 16.0143 191.639 20.2975 189.892C20.4653 189.825 20.6582 189.902 20.7246 190.067C20.7909 190.232 20.7103 190.423 20.5425 190.491C16.2593 192.238 12.3117 193.871 6.91644 196.123L6.91287 196.124L6.91071 196.129Z" fill="#8AE2C7"/>
<path d="M8.96596 201.04C8.79815 201.107 8.60526 201.03 8.53749 200.861C8.46973 200.693 8.55176 200.505 8.72314 200.436C10.7583 199.618 13.3913 198.501 15.9316 197.422C18.4339 196.363 20.8006 195.358 22.6037 194.633C22.7715 194.565 22.9644 194.642 23.0321 194.811C23.0999 194.979 23.0179 195.167 22.8465 195.236C21.047 195.96 18.6875 196.962 16.1851 198.022C13.6377 199.104 11.0047 200.22 8.96239 201.041L8.96596 201.04Z" fill="#8AE2C7"/>
<path d="M11.1065 205.724C10.9387 205.792 10.7458 205.714 10.6795 205.549C10.6131 205.384 10.6937 205.193 10.8616 205.125L24.563 199.536C24.7308 199.469 24.9237 199.546 24.9901 199.711C25.0564 199.876 24.9758 200.068 24.808 200.135L11.1065 205.724Z" fill="#8AE2C7"/>
<path d="M13.5958 210.456C13.428 210.524 13.2387 210.445 13.1688 210.282C13.1024 210.117 13.1795 209.927 13.3494 209.854L26.7035 204.299L26.7071 204.298C26.8749 204.23 27.0642 204.309 27.1342 204.473C27.2005 204.637 27.1235 204.827 26.9535 204.9L13.5994 210.455L13.5958 210.456Z" fill="#8AE2C7"/>
<path d="M487.84 25.9221C493.011 26.1523 498.182 26.4821 503.39 26.9425C503.993 24.2918 504.491 21.6099 504.883 18.9156C504.883 18.9156 488.064 17.3787 488.002 17.5093C487.939 20.3094 487.871 23.1033 487.84 25.9221Z" fill="#8AE2C7"/>
<path d="M499.085 26.613C498.855 26.613 498.644 26.4636 498.575 26.2334C498.052 24.4787 497.648 22.668 497.374 20.8572C497.188 19.6501 497.038 18.25 497.561 16.9558C497.723 16.5575 497.94 16.1966 498.152 15.8544C498.314 15.5868 498.469 15.3317 498.594 15.0704C499.129 13.9317 499.054 12.569 498.407 11.5983C497.735 10.5902 496.441 10.0738 495.346 10.3724C494.226 10.6711 493.417 11.8472 493.572 12.9361C493.659 13.5272 493.989 14.081 494.338 14.6721C494.73 15.3317 495.134 16.01 495.246 16.8251C495.315 17.3478 495.259 17.858 495.178 18.3807C494.811 20.907 494.257 23.4271 493.529 25.8725C493.442 26.1525 493.149 26.3143 492.863 26.2334C492.583 26.1463 492.421 25.8538 492.502 25.5676C493.218 23.172 493.759 20.7017 494.12 18.2314C494.188 17.7709 494.238 17.3602 494.182 16.9744C494.101 16.3771 493.765 15.8171 493.417 15.2259C493.031 14.5726 492.633 13.9006 492.514 13.0979C492.266 11.4551 493.41 9.76887 495.059 9.3333C496.59 8.92262 498.37 9.62575 499.291 11.0009C500.143 12.2765 500.249 14.0561 499.558 15.5246C499.409 15.842 499.235 16.1282 499.067 16.4082C498.868 16.7318 498.681 17.0429 498.55 17.3602C498.127 18.3994 498.264 19.6252 498.426 20.6954C498.693 22.4564 499.092 24.2173 499.596 25.9285C499.676 26.2085 499.521 26.5072 499.235 26.5943C499.185 26.6067 499.135 26.6192 499.085 26.6192V26.613Z" fill="#5032AD"/>
<path d="M500.886 324.119C500.58 324.119 500.316 323.936 500.09 323.75C497.429 321.523 495.671 318.281 495.269 314.855C495.058 313.064 495.207 311.243 495.354 309.481L495.38 309.162C495.744 304.711 495.967 300.191 496.044 295.726C496.044 295.589 496.158 295.482 496.296 295.482H496.302C496.44 295.482 496.551 295.598 496.548 295.735C496.469 300.211 496.246 304.743 495.882 309.202L495.856 309.522C495.712 311.261 495.565 313.055 495.771 314.8C496.158 318.101 497.854 321.227 500.419 323.373C500.434 323.387 500.451 323.399 500.469 323.413C498.934 320.336 498.603 316.846 498.4 313.522C498.063 308.006 498.027 302.409 498.294 296.887C498.3 296.751 498.418 296.643 498.559 296.649C498.696 296.655 498.805 296.771 498.799 296.91C498.535 302.415 498.57 307.995 498.905 313.493C499.116 316.968 499.468 320.623 501.214 323.744C501.252 323.814 501.255 323.898 501.223 323.971C501.191 324.043 501.123 324.096 501.044 324.11C500.991 324.122 500.941 324.125 500.892 324.125L500.886 324.119Z" fill="#5032AD"/>
<path d="M507.933 322.136C507.874 322.136 507.815 322.116 507.768 322.078C507.707 322.026 507.674 321.95 507.68 321.869C507.933 318.313 506.697 314.849 505.412 311.609C503.364 306.45 501.462 302.336 498.853 297.404C498.789 297.282 498.836 297.131 498.959 297.067C499.082 297.003 499.235 297.05 499.299 297.172C501.917 302.122 503.824 306.25 505.881 311.426C507.114 314.527 508.297 317.831 508.214 321.259C508.223 321.242 508.232 321.222 508.241 321.204C509.652 318.188 509.861 314.649 508.807 311.493C508.253 309.829 507.355 308.262 506.486 306.743L506.325 306.462C504.097 302.566 501.964 298.551 499.989 294.524C499.927 294.399 499.98 294.251 500.106 294.19C500.232 294.129 500.382 294.181 500.444 294.306C502.416 298.324 504.543 302.331 506.765 306.218L506.926 306.5C507.807 308.035 508.716 309.626 509.288 311.336C510.38 314.611 510.166 318.284 508.702 321.413C508.558 321.718 508.361 322.043 507.994 322.13C507.974 322.136 507.956 322.136 507.936 322.136H507.933Z" fill="#5032AD"/>
<path d="M508.781 310.239C508.781 310.239 509.609 309.911 509.597 309.876C509.532 309.71 509.474 309.533 509.506 309.359C509.538 309.185 509.694 309.019 509.873 309.04C510.055 309.06 510.163 309.249 510.237 309.414C510.516 310.033 510.742 310.674 510.97 311.313C511.032 311.487 511.094 311.679 511.02 311.847C510.95 312.007 510.753 312.103 510.58 312.056C510.41 312.01 510.287 311.83 510.31 311.656L509.389 311.928L508.781 310.239Z" fill="#5032AD"/>
<path d="M500.926 294.544C500.648 293.389 500.407 292.347 500.023 291.229C499.935 291.116 499.756 291.13 499.621 291.162C499.16 291.264 498.306 291.481 498.23 291.49C497.825 289.957 497.42 288.48 497.015 286.947C496.921 286.59 496.792 286.192 496.434 286.021C496.134 285.875 495.768 285.942 495.442 286.035C495.09 286.137 494.705 286.305 494.591 286.627C494.529 286.802 494.561 286.993 494.597 287.173C494.679 287.559 494.787 287.942 494.899 288.323C495.254 289.554 495.609 290.785 495.967 292.027C495.897 292.053 494.925 292.271 494.459 292.437C494.327 292.483 494.218 292.614 494.265 292.779C494.553 293.853 494.77 294.756 495.122 295.813C495.316 296.394 495.539 296.98 495.952 297.453C496.217 297.752 496.548 297.996 496.877 298.237C497.088 298.391 497.302 298.548 497.549 298.644C497.769 298.731 498.01 298.766 498.25 298.771C499.057 298.786 499.864 298.417 500.34 297.816C500.695 297.366 500.859 296.817 500.971 296.272C501.032 295.97 501.082 295.665 501.067 295.357C501.053 295.084 500.988 294.814 500.926 294.544ZM497.44 293.865C497.379 293.865 497.314 293.859 497.252 293.842C497.22 293.839 497.211 293.836 497.173 293.821C497.126 293.807 497.091 293.789 497.056 293.758C497.035 293.737 497.012 293.714 496.994 293.688C496.982 293.673 496.971 293.656 496.965 293.638C496.941 293.595 496.927 293.551 496.918 293.502C496.906 293.441 496.903 293.386 496.918 293.322C496.935 293.252 496.962 293.189 497.003 293.13C497.021 293.096 497.044 293.061 497.076 293.029C497.082 293.023 497.088 293.017 497.097 293.011C497.106 293.006 497.114 293 497.123 292.991C497.126 292.991 497.129 292.985 497.135 292.982C497.182 292.942 497.235 292.91 497.296 292.892C497.308 292.889 497.329 292.887 497.346 292.884C497.367 292.881 497.39 292.878 497.411 292.875C497.417 292.875 497.423 292.875 497.428 292.875C497.458 292.875 497.493 292.878 497.519 292.884C497.519 292.884 497.522 292.884 497.525 292.884C497.54 292.884 497.555 292.884 497.569 292.887C497.584 292.887 497.596 292.892 497.61 292.895C497.646 292.901 497.675 292.91 497.719 292.927C497.725 292.927 497.731 292.933 497.737 292.936C497.763 292.95 497.792 292.968 497.813 292.985C497.857 293.02 497.889 293.067 497.916 293.11L497.91 293.104C497.93 293.13 497.945 293.157 497.963 293.197C497.968 293.209 497.971 293.223 497.977 293.235C497.983 293.249 497.989 293.267 497.989 293.281C497.992 293.305 497.995 293.31 497.995 293.325C497.995 293.334 497.995 293.342 497.995 293.351C497.995 293.368 497.992 293.386 497.989 293.4C497.989 293.421 497.989 293.432 497.983 293.447C497.977 293.464 497.968 293.488 497.96 293.505C497.96 293.511 497.957 293.514 497.954 293.519C497.939 293.557 497.924 293.601 497.904 293.636C497.886 293.662 497.866 293.691 497.842 293.714L497.778 293.76C497.778 293.76 497.772 293.76 497.769 293.763C497.763 293.766 497.757 293.769 497.751 293.772C497.71 293.795 497.669 293.81 497.625 293.821C497.566 293.845 497.496 293.856 497.431 293.859L497.44 293.865ZM498.737 295.929C498.737 295.929 498.731 295.955 498.726 295.967C498.714 295.999 498.699 296.039 498.679 296.068C498.667 296.086 498.652 296.103 498.638 296.121C498.629 296.132 498.62 296.147 498.611 296.158C498.596 296.176 498.585 296.193 498.567 296.211C498.541 296.234 498.511 296.257 498.482 296.275C498.479 296.275 498.476 296.277 498.47 296.28C498.447 296.295 498.423 296.304 498.4 296.309C498.385 296.315 498.37 296.321 498.356 296.327C498.3 296.341 498.236 296.344 498.18 296.333C498.142 296.324 498.106 296.307 498.077 296.289L498.098 296.304C498.098 296.304 498.083 296.298 498.074 296.292C498.065 296.289 498.056 296.283 498.051 296.277C498.007 296.257 497.968 296.237 497.924 296.202C497.883 296.167 497.845 296.127 497.816 296.086C497.787 296.045 497.76 295.999 497.751 295.949C497.742 295.915 497.734 295.877 497.737 295.839C497.74 295.784 497.745 295.755 497.757 295.717C497.757 295.723 497.754 295.729 497.751 295.732C497.766 295.697 497.778 295.656 497.795 295.621C497.795 295.618 497.798 295.616 497.801 295.613C497.807 295.604 497.819 295.589 497.828 295.578C497.839 295.557 497.854 295.54 497.869 295.523C497.913 295.473 497.971 295.447 498.033 295.427C498.086 295.409 498.147 295.404 498.203 295.404C498.253 295.404 498.3 295.412 498.344 295.43C498.356 295.43 498.368 295.43 498.376 295.433C498.417 295.438 498.456 295.459 498.488 295.479C498.508 295.491 498.529 295.502 498.544 295.517C498.564 295.531 498.588 295.543 498.605 295.56C498.632 295.584 498.658 295.613 498.679 295.642C498.693 295.665 498.717 295.714 498.723 295.723C498.729 295.74 498.731 295.758 498.734 295.778C498.746 295.836 498.743 295.865 498.734 295.929H498.737Z" fill="#8AE2C7"/>
<path d="M15.33 277.075C13.2903 280.649 11.3147 284.255 9.40295 287.9C8.8435 288.964 8.27765 290.202 8.69964 291.327C8.8403 291.701 9.09605 292.043 9.4541 292.222C10.0935 292.538 10.9023 292.251 11.401 291.736C11.8997 291.225 12.165 290.534 12.4336 289.872C14.0864 285.815 16.3913 282.024 17.6829 277.839C16.9092 277.641 16.1547 277.366 15.33 277.075Z" fill="#8AE2C7"/>
<path d="M20.5849 277.602C15.4379 277.602 11.25 273.488 11.25 268.431C11.25 263.373 15.4379 259.259 20.5849 259.259C25.7318 259.259 29.9197 263.373 29.9197 268.431C29.9197 273.488 25.7318 277.602 20.5849 277.602ZM20.5849 259.809C15.7384 259.809 11.7967 263.677 11.7967 268.431C11.7967 273.184 15.7384 277.053 20.5849 277.053C25.4313 277.053 29.3731 273.184 29.3731 268.431C29.3731 263.677 25.4313 259.809 20.5849 259.809Z" fill="#5032AD"/>
<path d="M20.6202 275.678C16.5027 275.678 13.1523 272.328 13.1523 268.21C13.1523 264.093 16.4995 260.742 20.6202 260.742C24.741 260.742 28.0881 264.093 28.0881 268.21C28.0881 272.328 24.7378 275.678 20.6202 275.678ZM20.6202 261.289C16.8032 261.289 13.699 264.393 13.699 268.21C13.699 272.027 16.8032 275.131 20.6202 275.131C24.4373 275.131 27.5415 272.027 27.5415 268.21C27.5415 264.393 24.4341 261.292 20.6202 261.292V261.289Z" fill="#5032AD"/>
<path d="M15.873 271.426C15.7899 271.426 15.71 271.388 15.6557 271.317C15.1537 270.665 14.8341 269.834 14.7254 268.913C14.6359 268.143 14.6902 267.315 14.8884 266.378C14.9204 266.231 15.0674 266.135 15.2145 266.167C15.3615 266.199 15.4575 266.346 15.4255 266.493C15.2369 267.369 15.1857 268.14 15.2688 268.849C15.3647 269.671 15.6493 270.41 16.0872 270.982C16.1799 271.103 16.1576 271.276 16.0361 271.365C15.9849 271.404 15.9274 271.423 15.8698 271.423L15.873 271.426Z" fill="#5032AD"/>
<path d="M17.4359 272.989C17.3911 272.989 17.3464 272.98 17.3048 272.958C16.9883 272.785 16.707 272.561 16.4704 272.289C16.3713 272.174 16.3809 272.002 16.496 271.903C16.6111 271.803 16.7837 271.813 16.8828 271.928C17.0778 272.152 17.308 272.334 17.5669 272.475C17.7012 272.548 17.7492 272.715 17.6756 272.846C17.6245 272.938 17.5318 272.989 17.4359 272.989Z" fill="#5032AD"/>
<path d="M26.347 268.226C26.1967 268.226 26.072 268.104 26.072 267.954C26.0625 266.822 25.6405 265.675 24.9052 264.812C24.8061 264.696 24.8221 264.524 24.9372 264.425C25.0522 264.326 25.2249 264.342 25.324 264.457C26.1392 265.419 26.6091 266.691 26.6187 267.951C26.6187 268.101 26.4972 268.226 26.347 268.226Z" fill="#5032AD"/>
<path d="M14.7988 275.422C14.3928 275.825 14.4792 276.541 14.834 276.989C15.1889 277.44 15.7323 277.689 16.2566 277.919C16.4133 277.989 16.5699 278.06 16.7298 278.13C17.1805 278.332 17.6505 278.536 18.1428 278.507C18.6351 278.479 19.1466 278.14 19.1945 277.651C19.1977 277.606 19.2137 277.478 19.1881 277.44C19.169 277.411 19.1242 277.472 19.0954 277.456C18.4081 277.066 15.2944 276.228 14.802 275.422H14.7988Z" fill="#5032AD"/>
<path d="M11.3422 408.999C11.2722 408.999 11.2022 408.985 11.1323 408.957C10.8453 408.852 10.6844 408.544 10.7614 408.243L13.3926 397.963C13.4765 397.641 13.8054 397.445 14.1273 397.529C14.4492 397.613 14.6452 397.942 14.5612 398.264L13.2596 403.33L16.0587 397.865C16.2127 397.571 16.5696 397.452 16.8705 397.606C17.1644 397.76 17.2834 398.117 17.1294 398.418L11.874 408.677C11.7691 408.88 11.5591 409.006 11.3422 409.006V408.999Z" fill="#5032AD"/>
<path d="M19.9696 398.355C19.9696 398.355 11.4672 394.926 11.4462 394.807C10.8234 394.513 10.5295 394.338 10.0327 394.583C9.43787 394.877 9.17895 395.759 9.62681 396.248C9.80875 396.444 10.0607 396.556 10.3056 396.661C13.3287 397.928 16.3797 399.132 19.4518 400.265C20.0466 400.489 20.8304 400.657 21.2292 400.16C21.5022 399.817 21.4252 399.292 21.1593 398.943C20.8934 398.593 20.3615 398.516 19.9766 398.355H19.9696Z" fill="#8AE2C7"/>
<path d="M23.8749 384.527C22.0345 383.841 20.194 383.155 18.3466 382.463C17.8847 382.288 17.1919 382.057 16.954 382.519C16.3452 383.68 17.108 385.178 16.6881 386.409C16.5621 386.773 16.3662 387.116 16.1703 387.452C14.8827 389.67 13.5881 391.896 12.2305 394.289C14.7707 395.549 17.4229 396.57 20.145 397.361C20.6769 394.562 21.6006 391.574 22.4753 388.677C22.7832 387.662 23.42 387.452 24.2808 386.724C25.8133 385.43 24.6447 384.814 23.8749 384.527Z" fill="#8AE2C7"/>
<path d="M28.2873 44.7203C28.0211 44.7203 27.7505 44.7028 27.4799 44.6723C27.2748 44.6461 27.1265 44.4628 27.1526 44.2577C27.1788 44.0526 27.3621 43.9086 27.5672 43.9304C28.9767 44.0963 30.395 43.769 31.4554 43.0402C32.5901 42.2591 33.3275 40.9761 33.3843 39.6975C33.4236 38.7592 32.9959 37.6508 32.0926 37.3453C31.5471 37.162 30.923 37.2886 30.2597 37.4239C29.435 37.5897 28.584 37.7643 27.7898 37.341C26.7119 36.7649 26.3104 35.3816 26.6595 33.4353C26.8646 32.2832 27.1221 30.8519 26.3235 30.062C25.9482 29.6867 25.3984 29.5296 24.818 29.3638C24.3423 29.2241 23.8448 29.0845 23.4041 28.8096C22.492 28.2422 21.8854 27.1338 21.7894 25.8465C21.7021 24.7031 21.9902 23.5511 22.2214 22.6216C22.2738 22.4208 22.4789 22.2986 22.6797 22.351C22.8804 22.4034 23.0026 22.6041 22.9502 22.8048C22.7189 23.7256 22.4571 24.7686 22.5356 25.7897C22.6186 26.8414 23.0899 27.7317 23.7968 28.1681C24.1503 28.3863 24.5779 28.5128 25.0231 28.6394C25.6689 28.827 26.3322 29.019 26.8472 29.5252C27.9251 30.59 27.6152 32.3094 27.3927 33.5662C27.2268 34.4913 27.1046 36.1278 28.1389 36.6777C28.6931 36.9744 29.3826 36.8348 30.107 36.6864C30.8358 36.538 31.5907 36.3853 32.3282 36.634C33.6374 37.0748 34.1829 38.5454 34.1305 39.728C34.065 41.2379 33.201 42.7391 31.8787 43.6555C30.875 44.3494 29.6008 44.7203 28.2873 44.7203Z" fill="#5032AD"/>
<path d="M19.8156 155.334C19.0089 154.964 18.5819 154.073 18.5263 153.305C18.4559 152.423 18.7577 151.605 19.0219 150.883L22.0991 142.457C22.2911 141.936 22.5055 141.352 22.9273 140.87C23.4567 140.27 24.234 140.005 24.8959 140.195C25.783 140.448 26.2029 141.37 26.2062 142.12C26.2172 142.855 25.9164 143.539 25.6735 144.083L22.3012 151.739C22.182 151.999 21.8787 152.121 21.611 152.005C21.3457 151.883 21.2296 151.582 21.3457 151.314L24.7181 143.658C24.9407 143.158 25.168 142.634 25.1673 142.125C25.1601 141.747 24.9654 141.297 24.6111 141.195C24.298 141.104 23.9244 141.321 23.7148 141.559C23.4213 141.893 23.2465 142.361 23.0849 142.815L20.0077 151.242C19.7684 151.895 19.5245 152.572 19.5735 153.223C19.6125 153.736 19.9318 154.338 20.4386 154.443C20.9755 154.556 21.5898 154.135 22.2764 153.193C24.3306 150.363 26.2031 146.982 27.9962 142.855C28.3143 142.118 28.6094 141.344 28.3893 140.701C28.1572 140.026 27.386 139.578 26.6774 139.213C25.4872 138.6 24.1302 138.044 23.0733 138.569C22.3133 138.943 21.8579 139.804 21.4565 140.65C19.9453 143.856 18.7551 147.223 17.9238 150.667C17.8544 150.95 17.5746 151.122 17.292 151.053C17.0095 150.984 16.837 150.704 16.9064 150.421C17.7545 146.911 18.9666 143.467 20.5112 140.203C20.9684 139.236 21.5443 138.155 22.6067 137.633C24.0839 136.906 25.7324 137.556 27.1551 138.289C28.0465 138.751 29.0205 139.325 29.3791 140.366C29.7172 141.364 29.3407 142.388 28.9542 143.274C27.1362 147.47 25.2277 150.915 23.124 153.809C22.7676 154.294 21.6912 155.78 20.2227 155.468C20.0829 155.437 19.9482 155.395 19.8267 155.339L19.8156 155.334Z" fill="#5032AD"/>
<path d="M491.296 423.988C491.196 423.996 491.099 423.964 491.022 423.891C490.937 423.806 490.901 423.685 490.925 423.568C491.333 421.697 491.805 419.813 492.458 417.454C492.474 417.397 492.502 417.345 492.547 417.3C497.867 411.948 502.836 406.232 507.322 400.315C507.439 400.162 507.656 400.134 507.806 400.247C507.959 400.364 507.987 400.581 507.874 400.731C503.389 406.648 498.42 412.363 493.103 417.72C492.527 419.797 492.095 421.503 491.724 423.165C493.297 422.774 494.914 422.374 496.56 421.959C502.05 416.006 506.833 409.403 510.778 402.328C510.871 402.162 511.081 402.102 511.25 402.195C511.416 402.288 511.476 402.497 511.383 402.667C507.398 409.818 502.558 416.494 497 422.508C496.955 422.556 496.895 422.592 496.83 422.608C494.959 423.08 493.124 423.536 491.349 423.976C491.333 423.98 491.313 423.984 491.296 423.984V423.988Z" fill="#5032AD"/>
<path d="M508.098 414.275C507.658 414.315 507.234 414.162 506.956 413.867C506.315 413.182 506.472 412.056 507.376 410.862C508.15 409.838 509.005 408.862 509.836 407.914C510.78 406.837 511.752 405.728 512.599 404.554C513.309 403.566 514.281 402.061 514.491 400.383C514.559 399.819 514.523 399.367 514.374 399C513.914 397.867 512.635 397.173 511.155 396.366L511.05 396.31C510.881 396.217 510.82 396.007 510.913 395.842C511.006 395.672 511.216 395.612 511.381 395.705L511.486 395.761C513.018 396.592 514.462 397.378 515.015 398.742C515.209 399.222 515.265 399.786 515.18 400.472C514.955 402.311 513.922 403.917 513.164 404.966C512.301 406.163 511.312 407.289 510.36 408.378C509.542 409.314 508.691 410.282 507.932 411.286C507.751 411.528 506.871 412.762 507.464 413.4C507.601 413.545 507.823 413.617 508.061 413.589C508.299 413.561 508.497 413.44 508.598 413.266C508.674 413.129 508.65 412.895 508.541 412.75C508.461 412.645 508.4 412.661 508.38 412.665C508.194 412.71 508.009 412.593 507.965 412.407C507.92 412.222 508.037 412.036 508.223 411.992C508.553 411.915 508.88 412.044 509.098 412.335C509.376 412.706 509.421 413.23 509.207 413.609C509.001 413.972 508.606 414.222 508.15 414.279C508.134 414.279 508.122 414.279 508.106 414.283L508.098 414.275Z" fill="#5032AD"/>
<path d="M490.532 424.742C490.428 424.75 490.319 424.713 490.242 424.629C490.113 424.488 490.125 424.266 490.266 424.141L491.198 423.298C491.339 423.169 491.561 423.181 491.686 423.322C491.815 423.463 491.803 423.685 491.662 423.81L490.73 424.653C490.674 424.705 490.601 424.734 490.528 424.742H490.532Z" fill="#5032AD"/>
<path d="M500.511 418.074C500.422 418.082 500.329 418.054 500.256 417.994L496.09 414.444C495.945 414.319 495.929 414.101 496.05 413.956C496.175 413.811 496.392 413.795 496.538 413.916L500.704 417.465C500.849 417.59 500.866 417.808 500.745 417.953C500.684 418.026 500.599 418.066 500.511 418.074Z" fill="#5032AD"/>
<path d="M499.054 419.998C498.958 420.007 498.861 419.974 498.784 419.906L494.549 415.864C494.412 415.731 494.404 415.513 494.537 415.376C494.67 415.239 494.888 415.231 495.025 415.364L499.26 419.406C499.397 419.539 499.405 419.756 499.272 419.894C499.212 419.958 499.135 419.99 499.054 419.998Z" fill="#5032AD"/>
<path d="M496.788 422.12C495.38 420.66 494.069 419.107 492.867 417.474C493.129 417.183 493.408 416.901 493.702 416.635C495.053 418.115 496.405 419.599 497.76 421.08C497.78 421.1 497.8 421.124 497.796 421.152C497.796 421.177 497.776 421.197 497.756 421.213C497.429 421.519 497.102 421.83 496.792 422.116L496.788 422.12Z" fill="#5032AD"/>
<path d="M510.5 396.052C510.5 396.052 511.42 393.898 511.399 393.845C511.545 393.535 511.892 393.329 512.267 393.281C512.642 393.232 513.037 393.329 513.372 393.498C513.618 393.623 513.848 393.801 513.969 394.031C514.211 394.491 513.965 395.007 513.719 395.442C513.38 396.052 513.041 396.661 512.702 397.27C511.888 396.737 511.23 396.532 510.5 396.052Z" fill="#5032AD"/>
<path d="M509.916 395.507C509.602 395.676 509.158 396.451 508.964 396.749C508.275 397.794 507.674 398.891 507.161 400.033C507.085 400.206 507.008 400.392 507.044 400.577C507.085 400.763 507.23 400.904 507.371 401.029C508.343 401.88 509.473 402.529 510.594 403.171C510.852 403.32 511.191 403.461 511.425 403.276C511.51 403.207 511.562 403.106 511.61 403.009C512.312 401.569 512.994 400.117 513.655 398.657C513.724 398.5 513.797 398.334 513.772 398.165C513.744 397.984 513.611 397.838 513.482 397.709C512.639 396.886 510.231 395.338 509.92 395.507H509.916Z" fill="#8AE2C7"/>
<path d="M515.506 59.3407L494.012 69.7396C493.906 69.7902 493.862 69.9194 493.912 70.0257L495.653 73.6817C495.704 73.788 495.831 73.833 495.938 73.7846L498.711 72.4975C500.13 75.208 502.642 77.1673 505.47 77.763C508.653 78.4317 512.229 77.2452 514.166 74.8795C515.356 73.4274 516.01 71.5122 516.009 69.4835C516.009 67.8796 515.625 66.2112 514.802 64.2497L517.314 63.1425C517.366 63.1177 517.409 63.0748 517.428 63.0214C517.449 62.9669 517.446 62.9074 517.42 62.8531L515.796 59.4415C515.771 59.3895 515.727 59.3494 515.673 59.3305C515.62 59.3115 515.56 59.3148 515.508 59.3396L515.506 59.3407ZM494.391 70.0338L515.497 59.8225L516.933 62.8381L514.43 63.9411C514.324 63.9861 514.271 64.114 514.321 64.2236C515.178 66.2161 515.576 67.8859 515.577 69.4842C515.579 71.412 514.958 73.2314 513.831 74.6063C511.99 76.8539 508.588 77.9799 505.556 77.3421C502.792 76.7599 500.339 74.8085 498.998 72.1197C498.948 72.0156 498.819 71.9717 498.715 72.0212L495.949 73.3051L494.391 70.0338ZM510.248 66.1795C509.644 66.4672 509.063 66.7575 508.493 67.0402C508.374 67.0995 508.233 67.1585 508.097 67.2175C507.847 67.3259 507.63 67.4181 507.51 67.5167C507.428 67.5835 507.408 67.6985 507.46 67.7903C507.587 68.0102 507.581 68.2376 507.444 68.486C507.325 68.7012 507.053 68.8472 506.813 68.8281C506.58 68.809 506.387 68.6674 506.242 68.4035C506.185 68.3004 506.055 68.262 505.951 68.3172C504.631 69.0237 503.368 69.664 501.856 70.3949C501.802 70.4207 501.76 70.4714 501.743 70.5294C501.726 70.5874 501.735 70.6525 501.767 70.7036C502.442 71.7757 503.322 72.7218 504.385 73.5145C504.795 73.8216 505.352 74.1977 506.02 74.3955C506.822 74.6328 507.755 74.6048 508.722 74.3163C510.734 73.7162 512.365 72.0294 512.686 70.2142C512.972 68.5901 512.283 67.0089 511.732 65.7396C511.707 65.6876 511.665 65.6464 511.613 65.6241C511.558 65.6029 511.501 65.6051 511.448 65.6277C511.038 65.8092 510.637 65.9943 510.248 66.1795ZM508.685 67.4261C509.56 66.9901 510.461 66.5389 511.422 66.1091C511.934 67.2891 512.511 68.7236 512.261 70.1388C511.967 71.7998 510.462 73.3489 508.598 73.9037C507.978 74.0879 507.051 74.2517 506.14 73.9831C505.539 73.8034 505.023 73.455 504.641 73.1708C503.689 72.461 502.888 71.6241 502.261 70.6795C503.615 70.0207 504.778 69.4311 505.976 68.794C506.184 69.0749 506.455 69.2347 506.775 69.2599C507.182 69.2936 507.61 69.0619 507.815 68.6983C507.99 68.3844 508.025 68.0679 507.919 67.7689C508.018 67.7215 508.145 67.6667 508.265 67.6152C508.408 67.5552 508.553 67.4919 508.683 67.4271L508.685 67.4261Z" fill="#5032AD"/>
<path d="M509.376 73.7403C509.276 73.7877 509.228 73.9022 509.266 74.0061L509.556 74.8175C509.595 74.9292 509.719 74.9865 509.831 74.9472C509.943 74.9079 510 74.7835 509.961 74.6717L509.671 73.8603C509.632 73.7486 509.508 73.6913 509.396 73.7306C509.389 73.7338 509.382 73.7371 509.376 73.7403Z" fill="#5032AD"/>
<path d="M512.559 65.1067L511.525 65.6047C511.419 65.6553 511.372 65.7855 511.423 65.8919C511.474 65.9982 511.604 66.0444 511.71 65.9938L512.744 65.4959C512.851 65.4452 512.897 65.315 512.846 65.2087C512.795 65.1023 512.665 65.0561 512.559 65.1067Z" fill="#5032AD"/>
<path d="M500.835 70.8291C500.735 70.8765 500.686 70.9943 500.725 71.1005C500.767 71.2111 500.893 71.2673 501.003 71.2235C501.2 71.1466 501.377 71.0704 501.547 70.9952C501.714 70.9211 501.886 70.8448 502.072 70.7755C502.183 70.734 502.239 70.6073 502.195 70.4977C502.153 70.3871 502.027 70.3308 501.917 70.3747C501.721 70.4516 501.543 70.5278 501.374 70.603C501.206 70.6771 501.034 70.7534 500.848 70.8226C500.844 70.8248 500.839 70.8269 500.832 70.8302L500.835 70.8291Z" fill="#5032AD"/>
<path d="M512.253 71.227C512.217 71.2443 512.188 71.2695 512.166 71.3049C512.102 71.4046 512.132 71.5374 512.232 71.601L512.857 71.9997C512.957 72.0632 513.09 72.0333 513.153 71.9336C513.217 71.834 513.187 71.7012 513.087 71.6376L512.462 71.2389C512.397 71.1973 512.319 71.1958 512.253 71.227Z" fill="#5032AD"/>
<path d="M512.467 68.2766C512.376 68.3197 512.326 68.4241 512.352 68.5255C512.382 68.6415 512.498 68.711 512.615 68.6807L513.385 68.4803C513.501 68.4501 513.571 68.3337 513.54 68.2177C513.51 68.1017 513.391 68.0333 513.278 68.0624L512.507 68.2628C512.495 68.2659 512.48 68.2701 512.469 68.2755L512.467 68.2766Z" fill="#5032AD"/>
<path d="M506.338 74.1257C506.277 74.1548 506.23 74.2133 506.217 74.2859L506.097 75.0704C506.078 75.1877 506.159 75.2991 506.277 75.3148C506.394 75.3339 506.506 75.2531 506.521 75.1346L506.642 74.3501C506.661 74.2328 506.58 74.1214 506.462 74.1057C506.417 74.0992 506.373 74.1062 506.337 74.1234L506.338 74.1257Z" fill="#5032AD"/>
<path d="M503.345 72.4811C503.309 72.4984 503.28 72.5236 503.258 72.559C503.126 72.7661 502.945 72.952 502.74 73.0971C502.642 73.1659 502.62 73.3011 502.688 73.3965C502.757 73.4942 502.892 73.5159 502.987 73.4482C503.238 73.2704 503.457 73.0414 503.62 72.789C503.683 72.6894 503.656 72.5555 503.556 72.4919C503.492 72.4503 503.413 72.4488 503.348 72.4801L503.345 72.4811Z" fill="#5032AD"/>
<path d="M512.499 248.303C512.367 248.338 512.225 248.314 512.107 248.233C511.486 247.794 510.627 247.798 509.712 247.805C508.583 247.813 507.415 247.826 506.564 246.974C505.272 245.679 505.982 243.831 506.615 242.202C507.193 240.706 507.743 239.296 506.892 238.421C506.276 237.789 505.321 237.858 504.215 237.933C503.288 238.001 502.327 238.066 501.445 237.708C499.882 237.069 499.218 235.267 499.368 233.823C499.506 232.541 500.176 231.241 501.366 229.961C501.586 229.726 501.818 229.494 502.041 229.271C502.631 228.683 503.189 228.126 503.575 227.456C504.693 225.527 504.21 223.026 503.611 220.623C503.545 220.375 503.707 220.116 503.957 220.055C504.205 219.989 504.462 220.146 504.525 220.401C505.166 222.984 505.684 225.697 504.386 227.929C503.938 228.706 503.308 229.333 502.701 229.937C502.482 230.154 502.259 230.378 502.048 230.604C500.997 231.729 500.409 232.848 500.295 233.925C500.181 234.997 500.671 236.382 501.791 236.846C502.465 237.124 503.314 237.06 504.136 237.004C505.364 236.918 506.635 236.827 507.556 237.774C508.828 239.079 508.112 240.924 507.483 242.546C506.905 244.042 506.36 245.45 507.22 246.317C507.792 246.888 508.718 246.883 509.695 246.876C510.717 246.868 511.772 246.857 512.639 247.473C512.85 247.626 512.9 247.918 512.752 248.128C512.686 248.219 512.596 248.283 512.49 248.311L512.499 248.303Z" fill="#5032AD"/>
<path d="M24.9524 342.153C24.7858 342.153 24.6323 342.039 24.5884 341.872C24.5358 341.67 24.6586 341.464 24.856 341.412C26.3382 341.026 27.5267 340.236 28.2021 339.193C28.9651 338.017 28.9958 336.491 28.2766 335.483C27.8468 334.877 27.189 334.465 26.4917 334.027C25.676 333.513 24.834 332.987 24.3385 332.11C23.9131 331.356 23.8517 330.409 24.1806 329.514C24.5095 328.619 25.1629 327.935 25.9742 327.633C26.4566 327.453 26.961 327.4 27.4565 327.343C28.1363 327.269 28.7766 327.198 29.2283 326.813C29.7019 326.409 29.908 325.646 29.7545 324.865C29.601 324.098 29.1712 323.396 28.7546 322.716C28.645 322.541 28.702 322.309 28.8774 322.199C29.0528 322.089 29.2853 322.146 29.3949 322.322C29.8247 323.023 30.3115 323.817 30.4913 324.716C30.6579 325.545 30.5395 326.681 29.715 327.383C29.0879 327.918 28.2985 328.005 27.5355 328.089C27.0706 328.141 26.6277 328.19 26.233 328.334C25.6278 328.558 25.1366 329.08 24.8823 329.768C24.6323 330.452 24.6718 331.172 24.9875 331.733C25.391 332.443 26.119 332.9 26.8864 333.382C27.6144 333.838 28.3687 334.312 28.8862 335.04C29.7764 336.289 29.7545 338.162 28.8292 339.596C28.053 340.798 26.7066 341.701 25.0401 342.135C25.0094 342.144 24.9744 342.148 24.9437 342.148L24.9524 342.153Z" fill="#5032AD"/>
<path d="M479.2 9.7433C479.043 9.78899 478.876 9.70041 478.824 9.54534C478.3 7.93511 478.594 6.07185 479.614 4.56067C480.535 3.19648 482.001 2.16278 483.742 1.64498C483.903 1.59829 484.074 1.68929 484.121 1.84976C484.167 2.01022 484.076 2.18112 483.916 2.2278C482.31 2.70246 480.961 3.65403 480.119 4.89866C479.219 6.23441 478.945 7.93982 479.404 9.3506C479.457 9.50908 479.367 9.68339 479.209 9.7369C479.209 9.7369 479.202 9.73889 479.199 9.73988L479.2 9.7433Z" fill="#5032AD"/>
<path d="M476.041 10.706C475.881 10.7527 475.714 10.6641 475.664 10.5046C475.166 8.92017 475.199 7.18515 475.751 5.62103C475.809 5.46348 475.981 5.38011 476.141 5.43355C476.301 5.487 476.382 5.66342 476.328 5.82339C475.818 7.26423 475.79 8.861 476.248 10.3201C476.298 10.4796 476.208 10.6539 476.048 10.704C476.048 10.704 476.045 10.705 476.041 10.706Z" fill="#5032AD"/>
<path d="M526.374 108.879C526.244 108.889 526.113 108.839 526.022 108.733C524.278 106.757 521.668 105.51 519.033 105.399C516.398 105.289 513.693 106.304 511.782 108.125C511.611 108.291 511.335 108.286 511.174 108.11C511.008 107.939 511.018 107.662 511.189 107.501C513.26 105.525 516.212 104.414 519.068 104.539C521.929 104.66 524.77 106.018 526.666 108.165C526.822 108.346 526.807 108.617 526.626 108.773C526.55 108.839 526.46 108.874 526.369 108.879H526.374Z" fill="#5032AD"/>
<path d="M520.453 114.621C520.262 114.631 520.081 114.516 520.015 114.33C519.608 113.123 518.748 112.062 517.652 111.413C516.556 110.77 515.208 110.533 513.956 110.765C513.72 110.81 513.498 110.654 513.453 110.418C513.408 110.181 513.564 109.96 513.8 109.915C515.253 109.643 516.817 109.915 518.094 110.664C519.372 111.413 520.372 112.645 520.84 114.048C520.915 114.274 520.795 114.521 520.568 114.596C520.533 114.606 520.493 114.616 520.458 114.616L520.453 114.621Z" fill="#5032AD"/>
<path d="M26.9104 275.282C26.9104 275.282 26.9013 275.29 26.899 275.292C24.8981 276.889 22.666 278.148 20.2634 279.031C20.1262 279.081 19.9753 279.01 19.9233 278.875C19.8736 278.738 19.9441 278.587 20.0793 278.535C22.4287 277.671 24.6116 276.44 26.5672 274.88C26.6803 274.79 26.8468 274.809 26.9369 274.922C27.0249 275.033 27.0105 275.191 26.9081 275.284L26.9104 275.282Z" fill="#5032AD"/>
<path d="M25.3624 279.703C25.2622 279.794 25.11 279.795 25.0102 279.703C24.9019 279.606 24.895 279.439 24.9916 279.33L27.5859 276.463C27.6826 276.355 27.8503 276.348 27.9586 276.444C28.0669 276.541 28.0738 276.709 27.9771 276.817L25.3829 279.685C25.3829 279.685 25.3692 279.697 25.3624 279.703Z" fill="#5032AD"/>
<path d="M24.8921 92.6301C24.8921 94.1667 23.598 95.4125 22.002 95.4125V89.8477C23.598 89.8477 24.8921 91.0935 24.8921 92.6301Z" fill="#8AE2C7"/>
<path d="M19.1113 92.6301C19.1113 91.0935 20.4054 89.8477 22.0015 89.8477V95.4125C20.4054 95.4125 19.1113 94.1667 19.1113 92.6301Z" fill="#8AE2C7"/>
<path d="M28.2251 92.6304C28.2251 92.6304 28.2448 93.7403 28.1389 95.6884C28.0761 96.6587 28.0055 97.8441 27.8055 99.1919C27.6055 100.54 27.3232 102.065 26.7506 103.673C26.4683 104.477 26.0918 105.297 25.5938 106.097C25.0879 106.886 24.4487 107.694 23.4683 108.223C22.982 108.479 22.3859 108.619 21.8016 108.57C21.6879 108.57 21.5232 108.532 21.3702 108.498C21.2134 108.468 21.0879 108.408 20.9467 108.366C20.6801 108.253 20.4291 108.117 20.2055 107.955C19.2997 107.294 18.6879 106.38 18.1938 105.436C17.2291 103.522 16.6761 101.408 16.2604 99.2523C16.0526 98.1726 15.8957 97.074 15.7899 95.9678C15.6683 94.8616 15.5938 93.7479 15.5663 92.6304C15.535 91.5204 15.5506 90.3916 15.6173 89.2778C15.6918 88.1641 15.8173 87.0579 15.9977 85.9631C16.3781 83.7847 16.9663 81.6478 17.9899 79.7224C18.5075 78.7672 19.1585 77.8498 20.1153 77.1853C20.5899 76.8569 21.1742 76.619 21.7899 76.5813C22.3781 76.5397 23.0251 76.6983 23.5036 76.9701C24.4957 77.5213 25.1271 78.3406 25.6291 79.141C26.1232 79.9489 26.4879 80.7719 26.7702 81.5799C27.335 83.1919 27.6134 84.7172 27.8134 86.065C28.0134 87.4128 28.0801 88.5983 28.1428 89.5685C28.1938 90.5426 28.2095 91.3052 28.2212 91.8262C28.2212 92.3472 28.2212 92.6266 28.2212 92.6266L28.2251 92.6304ZM28.131 92.6304C28.131 92.6304 28.1271 92.3548 28.1153 91.8338C28.0957 91.3127 28.0761 90.5501 27.9702 89.5874C27.8801 88.6209 27.6918 87.4543 27.4016 86.1405C27.1114 84.8267 26.68 83.3618 26.0408 81.8479C25.7193 81.0928 25.335 80.3302 24.8604 79.6053C24.3781 78.8956 23.7938 78.1858 23.0408 77.7932C22.3075 77.3968 21.4212 77.4534 20.6879 77.9706C19.9428 78.4803 19.3389 79.292 18.8448 80.1603C17.8526 81.9272 17.2369 83.9923 16.8095 86.1027C16.5938 87.1636 16.4291 88.2434 16.3153 89.3345C16.1899 90.4293 16.1114 91.5204 16.0801 92.6304C16.0526 93.7328 16.0722 94.8389 16.1389 95.9413C16.2251 97.04 16.3585 98.1311 16.5467 99.2033C16.9389 101.34 17.5859 103.428 18.6408 105.206C19.1624 106.086 19.8055 106.901 20.6016 107.415C21.3938 107.939 22.331 107.966 23.0801 107.535C23.8448 107.12 24.4173 106.399 24.8957 105.682C25.3663 104.949 25.7428 104.179 26.0644 103.424C26.6997 101.906 27.1232 100.442 27.4134 99.1278C27.6997 97.8102 27.8918 96.6436 27.9781 95.6808C28.084 94.7144 28.0997 93.9517 28.1193 93.4345C28.1271 92.9135 28.131 92.6379 28.131 92.6379V92.6304Z" fill="#5032AD"/>
<path d="M24.9896 87.3752C24.9896 87.3752 26.0092 87.8924 27.7347 88.9156C28.5896 89.4366 29.6328 90.0633 30.7661 90.8788C31.8955 91.6942 33.1504 92.6683 34.3387 93.9217C34.9347 94.5484 35.5034 95.2544 35.9936 96.0623C36.4681 96.8703 36.8994 97.799 36.9073 98.8788C36.9073 99.4111 36.7465 99.9849 36.421 100.453C36.3622 100.551 36.2563 100.668 36.1504 100.782C36.0485 100.899 35.9347 100.974 35.8249 101.072C35.5936 101.242 35.3504 101.386 35.0916 101.503C34.0524 101.948 32.9308 102.027 31.8328 101.99C29.6249 101.884 27.4367 101.337 25.272 100.653C24.1896 100.31 23.1151 99.9132 22.0563 99.4715C20.9896 99.0411 19.9426 98.573 18.9073 98.0557C17.8838 97.5498 16.8602 96.9948 15.8798 96.4059C14.9034 95.8056 13.9543 95.1676 13.0445 94.4918C11.2406 93.1213 9.57787 91.6036 8.31513 89.8103C7.69552 88.9193 7.17395 87.9264 7.02885 86.8014C6.95826 86.2426 7.02101 85.6348 7.28375 85.0987C7.52689 84.5814 7.98179 84.1133 8.46415 83.8377C9.44454 83.2676 10.4955 83.1242 11.4602 83.0864C12.4328 83.06 13.3622 83.143 14.2289 83.294C15.97 83.5923 17.4955 84.0869 18.8171 84.5663C20.1426 85.0458 21.2524 85.5593 22.17 85.9708C23.0798 86.3936 23.7857 86.7485 24.2641 86.9901C24.7387 87.2393 24.9936 87.3714 24.9936 87.3714L24.9896 87.3752ZM24.9465 87.4545C24.9465 87.4545 24.6916 87.3261 24.2132 87.0845C23.7308 86.8542 23.0249 86.5031 22.0955 86.1293C21.174 85.7405 20.021 85.3441 18.6798 84.9514C17.3426 84.5663 15.8014 84.2266 14.1151 84.0416C13.272 83.951 12.3936 83.9057 11.5034 83.9623C10.6249 84.0265 9.69552 84.1775 8.97787 84.6268C8.26807 85.0571 7.88768 85.8311 8.00925 86.6994C8.11513 87.5715 8.56611 88.4701 9.11905 89.3082C10.2485 90.9958 11.8367 92.5059 13.5543 93.8802C14.4171 94.5711 15.323 95.228 16.2602 95.8509C17.1975 96.4814 18.1504 97.0704 19.1504 97.6329C20.1387 98.1841 21.1583 98.7013 22.1936 99.1695C23.2367 99.6263 24.2916 100.038 25.3622 100.393C27.4994 101.087 29.7112 101.548 31.8367 101.51C32.8877 101.491 33.9426 101.34 34.7896 100.917C35.6445 100.502 36.123 99.7207 36.0916 98.8825C36.0798 98.0368 35.6994 97.2063 35.272 96.4587C34.8328 95.7074 34.3112 95.0203 33.7779 94.3898C32.6994 93.1251 31.57 92.0604 30.5112 91.1846C29.4485 90.3087 28.4798 89.5876 27.6406 89.0515C26.8132 88.5003 26.123 88.119 25.6602 87.8547C25.1896 87.598 24.9387 87.4621 24.9387 87.4621L24.9465 87.4545Z" fill="#5032AD"/>
<path d="M19.0565 87.4543C19.0565 87.4543 18.8055 87.5902 18.3349 87.8469C17.8722 88.1112 17.1859 88.4925 16.3545 89.0437C15.5153 89.5798 14.5467 90.3047 13.4839 91.1768C12.4251 92.0527 11.2957 93.1173 10.2173 94.3821C9.68002 95.0163 9.16237 95.6997 8.72315 96.451C8.2957 97.1985 7.91923 98.0328 7.90355 98.8748C7.87217 99.7129 8.35061 100.494 9.20551 100.91C10.0526 101.336 11.1035 101.487 12.1584 101.502C14.2839 101.54 16.4957 101.08 18.633 100.385C19.6996 100.026 20.7584 99.6185 21.8016 99.1617C22.8369 98.6935 23.8526 98.1763 24.8447 97.6251C25.8408 97.0664 26.7977 96.4736 27.7349 95.8431C28.6722 95.2202 29.5781 94.5633 30.4408 93.8724C32.1584 92.4944 33.7467 90.9842 34.8761 89.3004C35.429 88.4623 35.88 87.5638 35.9859 86.6916C36.1075 85.8195 35.7271 85.0456 35.0173 84.619C34.2996 84.1697 33.3741 84.0187 32.4918 83.9545C31.6016 83.9017 30.7232 83.9432 29.88 84.0338C28.1937 84.2188 26.6526 84.5586 25.3153 84.9437C23.9781 85.3325 22.8251 85.7327 21.8996 86.1216C20.9702 86.4953 20.2643 86.8464 19.782 87.0767C19.3035 87.3184 19.0486 87.4467 19.0486 87.4467L19.0565 87.4543ZM19.0134 87.375C19.0134 87.375 19.2683 87.2429 19.7428 86.9937C20.2212 86.7521 20.9271 86.3972 21.8369 85.9743C22.7506 85.559 23.8643 85.0494 25.1898 84.5699C26.5114 84.0904 28.0369 83.5921 29.7781 83.2976C30.6486 83.1466 31.5741 83.0597 32.5467 83.0899C33.5153 83.1315 34.5624 83.2712 35.5428 83.8412C36.0212 84.1168 36.48 84.585 36.7232 85.1022C36.9859 85.6383 37.0486 86.2462 36.9781 86.8049C36.833 87.93 36.3114 88.9229 35.6879 89.8177C34.4251 91.6072 32.7624 93.1286 30.9584 94.4991C30.0486 95.1787 29.0996 95.8167 28.1232 96.4132C27.1428 97.0022 26.1232 97.5571 25.0957 98.0668C24.0643 98.5803 23.0134 99.0522 21.9467 99.4826C20.8879 99.9243 19.8134 100.321 18.731 100.664C16.5663 101.348 14.3781 101.895 12.1702 102.001C11.0722 102.039 9.94668 101.959 8.91139 101.514C8.65257 101.4 8.40943 101.257 8.17806 101.083C8.06825 100.985 7.95453 100.91 7.85257 100.793C7.74668 100.679 7.6408 100.559 7.58198 100.464C7.25649 99.996 7.0957 99.4222 7.0957 98.8899C7.10355 97.8101 7.53492 96.8776 8.00943 96.0734C8.49962 95.2693 9.06825 94.5595 9.66433 93.9328C10.8526 92.6756 12.1075 91.7053 13.2369 90.8899C14.3702 90.0706 15.4173 89.4477 16.2683 88.9267C17.9898 87.9035 19.0134 87.3863 19.0134 87.3863V87.375Z" fill="#5032AD"/>
</svg>
