<svg width="251" height="125" viewBox="0 0 251 125" fill="none" xmlns="http://www.w3.org/2000/svg">
<path d="M209.758 39.7373L220.768 64.1356L232.938 57.0335L237.857 60.8825L240.285 52.841L248.587 48.1492L209.758 39.7373Z" fill="#DFE4EF"/>
<g style="mix-blend-mode:multiply">
<path d="M234.615 55.8901L232.938 57.0336L237.857 60.8825L234.615 55.8901Z" fill="#CAD1DD"/>
</g>
<path d="M234.615 55.8901L209.758 39.7373L240.285 52.841L237.857 60.8825L234.615 55.8901Z" fill="#CAD1DD"/>
<path d="M205.987 124.747C205.199 124.747 204.412 124.694 203.651 124.581L203.727 124.049C204.584 124.173 205.474 124.226 206.37 124.205L206.381 124.742C206.246 124.742 206.111 124.742 205.981 124.742L205.987 124.747ZM209.11 124.463L209.013 123.937C209.876 123.781 210.745 123.561 211.586 123.276L211.759 123.786C210.89 124.076 210 124.307 209.11 124.468V124.463ZM200.986 123.931C200.107 123.625 199.271 123.239 198.494 122.777L198.774 122.315C199.519 122.761 200.323 123.131 201.164 123.427L200.986 123.937V123.931ZM214.278 122.729L214.035 122.251C214.828 121.848 215.594 121.387 216.306 120.882L216.619 121.317C215.886 121.838 215.098 122.31 214.278 122.723V122.729ZM196.304 121.124C195.646 120.501 195.042 119.803 194.518 119.046L194.961 118.74C195.462 119.465 196.04 120.136 196.676 120.732L196.304 121.124ZM218.712 119.572L218.335 119.191C218.971 118.568 219.548 117.892 220.055 117.189L220.492 117.5C219.969 118.23 219.37 118.928 218.712 119.572ZM193.175 116.663C192.814 115.847 192.517 114.977 192.296 114.081L192.819 113.952C193.035 114.821 193.321 115.659 193.666 116.448L193.17 116.663H193.175ZM221.906 115.17L221.426 114.929C221.825 114.15 222.17 113.335 222.461 112.492L222.974 112.669C222.672 113.533 222.316 114.376 221.906 115.17ZM191.87 111.386C191.832 110.94 191.816 110.479 191.816 110.022C191.816 109.571 191.832 109.11 191.87 108.659L192.409 108.702C192.377 109.137 192.361 109.582 192.361 110.022C192.361 110.463 192.377 110.908 192.414 111.343L191.875 111.386H191.87ZM223.697 110.044L223.168 109.936C223.346 109.088 223.47 108.203 223.551 107.311L224.09 107.354C224.015 108.267 223.88 109.169 223.702 110.038L223.697 110.044ZM192.814 106.093L192.29 105.969C192.501 105.078 192.781 104.209 193.127 103.377L193.623 103.581C193.288 104.386 193.013 105.234 192.814 106.093ZM223.621 104.66C223.6 103.785 223.529 102.893 223.411 102.013L223.945 101.943C224.063 102.845 224.134 103.752 224.161 104.643L223.621 104.66ZM194.826 101.229L194.362 100.95C194.826 100.188 195.36 99.4363 195.937 98.7278L196.358 99.0659C195.791 99.7584 195.279 100.483 194.826 101.224V101.229ZM222.936 99.3988C222.736 98.5399 222.494 97.681 222.213 96.8382L222.726 96.6664C223.012 97.5253 223.26 98.4003 223.465 99.2753L222.941 99.3934L222.936 99.3988ZM198.17 97.128L197.798 96.7415C198.445 96.1296 199.147 95.5391 199.886 94.9915L200.209 95.421C199.492 95.9578 198.807 96.5322 198.17 97.128ZM221.253 94.3581C220.892 93.5421 220.492 92.7423 220.061 91.98L220.53 91.7169C220.967 92.4953 221.377 93.3113 221.744 94.1434L221.248 94.3581H221.253ZM202.432 93.9501L202.157 93.4884C202.928 93.0375 203.743 92.6134 204.573 92.2377L204.795 92.7262C203.98 93.0966 203.187 93.5045 202.426 93.9501H202.432ZM207.281 91.7438L207.109 91.2338C207.637 91.0567 208.182 90.8903 208.727 90.7453C209.062 90.6541 209.396 90.5735 209.731 90.493L209.855 91.0137C209.526 91.0889 209.196 91.1748 208.867 91.2607C208.333 91.4056 207.805 91.5666 207.287 91.7438H207.281ZM212.476 90.5037L212.395 89.9723C213.253 89.8381 214.132 89.7307 215.087 89.6341L215.141 90.1709C214.197 90.2622 213.329 90.3695 212.482 90.5037H212.476ZM217.817 89.9723L217.784 89.4355C218.006 89.4247 218.227 89.414 218.443 89.4033C218.011 88.7859 217.547 88.1686 217.072 87.5727L217.493 87.2399C218.049 87.9324 218.583 88.6517 219.079 89.3764C219.548 89.355 220.018 89.3389 220.487 89.3227L220.503 89.8596C219.608 89.8918 218.707 89.924 217.817 89.9777V89.9723ZM223.2 89.779L223.184 89.2422C224.085 89.2154 224.981 89.1939 225.876 89.1563L225.898 89.6931C224.997 89.7254 224.101 89.7522 223.2 89.779ZM228.6 89.5589L228.562 89.0221C229.479 88.9631 230.38 88.8772 231.233 88.7806L231.297 89.312C230.434 89.414 229.523 89.4945 228.6 89.5589ZM233.984 88.9148L233.887 88.3887C234.793 88.2223 235.672 88.029 236.498 87.8143L236.638 88.335C235.796 88.5551 234.906 88.7537 233.984 88.9201V88.9148ZM239.238 87.519L239.049 87.0144C239.907 86.7031 240.732 86.3488 241.498 85.9623L241.741 86.44C240.953 86.8319 240.112 87.1916 239.238 87.5137V87.519ZM215.335 85.5543C214.742 84.9155 214.111 84.2713 213.458 83.654L213.83 83.2675C214.494 83.8955 215.13 84.5451 215.729 85.1946L215.33 85.5597L215.335 85.5543ZM244.093 85.0712L243.791 84.631C244.53 84.1264 245.226 83.5735 245.857 82.9776L246.224 83.3695C245.571 83.9814 244.854 84.5505 244.093 85.0712ZM211.462 81.8664C210.799 81.3027 210.092 80.7391 209.375 80.1915L209.704 79.7674C210.432 80.3204 211.144 80.8894 211.818 81.4584L211.468 81.8664H211.462ZM248.042 81.3188L247.605 81.0075C248.106 80.3043 248.549 79.5366 248.91 78.726L249.401 78.9461C249.023 79.7889 248.565 80.5888 248.042 81.3188ZM207.201 78.6187C206.483 78.1248 205.728 77.6255 204.962 77.1424L205.253 76.6915C206.03 77.18 206.785 77.6792 207.513 78.1785L207.206 78.6187H207.201ZM53.5569 77.6309V77.0941C54.4307 77.0887 55.337 77.0673 56.2379 77.0297L56.2595 77.5665C55.3478 77.5987 54.4415 77.6202 53.5569 77.6309ZM50.8489 77.6094C49.9372 77.588 49.0309 77.5504 48.1463 77.5021L48.1786 76.9653C49.0579 77.0136 49.9588 77.0511 50.865 77.0726L50.8543 77.6094H50.8489ZM58.9567 77.4269L58.9189 76.8901C59.8144 76.8311 60.7044 76.7613 61.5999 76.6754L61.6485 77.2122C60.7476 77.2927 59.8521 77.3679 58.9513 77.4269H58.9567ZM45.4437 77.3034C44.5374 77.2176 43.6311 77.1156 42.7518 77.0028L42.822 76.4714C43.6959 76.5841 44.5913 76.6861 45.4922 76.772L45.4437 77.3088V77.3034ZM64.3403 76.9331L64.2756 76.4016C65.1656 76.2996 66.0557 76.1815 66.9458 76.058L67.0213 76.5895C66.1312 76.713 65.2358 76.8311 64.3403 76.9331ZM40.0762 76.5949C39.1807 76.4392 38.2853 76.2674 37.4168 76.0795L37.53 75.5534C38.3932 75.7413 39.2778 75.9131 40.1679 76.0634L40.0762 76.5895V76.5949ZM250.275 76.3533L249.752 76.2298C249.957 75.3655 250.081 74.4905 250.113 73.6263L250.653 73.6477C250.615 74.5442 250.491 75.4568 250.275 76.3533ZM69.6969 76.1869L69.6106 75.6554C70.4953 75.5105 71.38 75.3602 72.2647 75.1991L72.3618 75.7252C71.4771 75.8863 70.587 76.0366 69.6969 76.1815V76.1869ZM202.664 75.7521C201.909 75.3119 201.121 74.8717 200.323 74.4369L200.582 73.9645C201.385 74.3993 202.178 74.8448 202.939 75.285L202.664 75.7467V75.7521ZM34.7897 75.4514C33.9104 75.2206 33.0365 74.9683 32.1842 74.7053L32.346 74.1953C33.1875 74.4583 34.056 74.7106 34.9245 74.9361L34.7843 75.4568L34.7897 75.4514ZM75.0158 75.2313L74.9079 74.7053C75.7872 74.5281 76.6665 74.3456 77.5458 74.1523L77.6591 74.6784C76.7798 74.8717 75.9005 75.0542 75.0158 75.2313ZM80.297 74.0826L80.1729 73.5618C81.0468 73.3579 81.9207 73.1485 82.7892 72.9338L82.9186 73.4545C82.0448 73.6692 81.1709 73.8786 80.2916 74.0826H80.297ZM29.6218 73.8356C28.7695 73.5243 27.9226 73.1861 27.1026 72.8425L27.313 72.3486C28.1222 72.6922 28.9637 73.025 29.8106 73.331L29.6218 73.8356ZM197.944 73.1968C197.145 72.7888 196.342 72.397 195.532 72.0104L195.764 71.5273C196.574 71.9138 197.383 72.3111 198.186 72.719L197.938 73.1968H197.944ZM85.5403 72.7996L85.4055 72.2789C86.274 72.0534 87.1425 71.8279 88.011 71.5971L88.1512 72.1178C87.2827 72.3486 86.4088 72.5741 85.5403 72.7996ZM24.6374 71.7098C23.8336 71.3072 23.0299 70.8778 22.2477 70.4268L22.5174 69.9598C23.2888 70.4054 24.0818 70.8295 24.8801 71.2267L24.6374 71.7045V71.7098ZM90.7567 71.4146L90.6165 70.8992C91.485 70.663 92.3481 70.4268 93.2166 70.1853L93.3622 70.7006C92.4937 70.9422 91.6306 71.1784 90.7621 71.4146H90.7567ZM249.951 71.0173C249.795 70.1316 249.531 69.2942 249.18 68.5265L249.671 68.3011C250.043 69.1116 250.318 69.992 250.485 70.9207L249.957 71.0173H249.951ZM193.094 70.8778C192.274 70.5127 191.454 70.1531 190.629 69.8041L190.839 69.3103C191.67 69.6592 192.495 70.0189 193.315 70.3893L193.094 70.8778ZM95.9569 69.9759L95.8113 69.4606L98.406 68.7305L98.5517 69.2458L95.9569 69.9759ZM19.9443 69.0097C19.1998 68.5211 18.45 68.0004 17.7272 67.4583L18.0508 67.0288C18.7683 67.5656 19.5073 68.081 20.2463 68.5641L19.9497 69.0097H19.9443ZM188.137 68.7949C187.301 68.4675 186.464 68.1507 185.623 67.8394L185.812 67.3348C186.659 67.6461 187.5 67.9629 188.336 68.2957L188.137 68.7949ZM101.146 68.5158L101.001 68.0004C101.864 67.7589 102.732 67.5173 103.601 67.2757L103.746 67.7911C102.883 68.0326 102.015 68.2742 101.152 68.5158H101.146ZM106.341 67.0771L106.201 66.5618C107.069 66.3256 107.938 66.0894 108.806 65.8639L108.947 66.3846C108.078 66.6155 107.21 66.8463 106.347 67.0825L106.341 67.0771ZM183.088 66.9483C182.241 66.6584 181.388 66.3793 180.531 66.1108L180.692 65.6009C181.55 65.8693 182.408 66.1484 183.26 66.4383L183.088 66.9483ZM247.756 66.3578C247.389 65.9498 246.979 65.574 246.531 65.2412L246.855 64.8118C247.33 65.1661 247.767 65.5633 248.155 65.9981L247.75 66.3578H247.756ZM15.6018 65.7834C14.9167 65.209 14.2316 64.6024 13.5788 63.9851L13.9511 63.5932C14.5984 64.2052 15.2727 64.801 15.9524 65.37L15.6071 65.7834H15.6018ZM111.558 65.7029L111.423 65.1822C112.297 64.9567 113.165 64.7366 114.039 64.5272L114.168 65.048C113.295 65.2627 112.426 65.4774 111.558 65.7029ZM177.963 65.3432C177.1 65.0963 176.237 64.8547 175.368 64.6292L175.508 64.1085C176.382 64.3394 177.251 64.5756 178.114 64.8279L177.963 65.3432ZM116.79 64.4199L116.666 63.8992C117.54 63.6952 118.419 63.4966 119.299 63.3087L119.412 63.8348C118.533 64.028 117.659 64.2213 116.785 64.4252L116.79 64.4199ZM172.757 63.969C171.883 63.7596 171.009 63.561 170.136 63.3731L170.249 62.847C171.128 63.0349 172.007 63.2335 172.887 63.4429L172.763 63.9636L172.757 63.969ZM122.05 63.2711L121.942 62.745C122.827 62.5679 123.706 62.3961 124.596 62.235L124.693 62.7611C123.808 62.9222 122.929 63.0939 122.05 63.2711ZM167.498 62.8416C166.618 62.6752 165.734 62.5142 164.849 62.3692L164.935 61.8378C165.825 61.9881 166.71 62.1438 167.595 62.3102L167.492 62.8363L167.498 62.8416ZM127.347 62.3048L127.261 61.7734C128.151 61.6284 129.041 61.4942 129.931 61.3654L130.006 61.8968C129.116 62.0203 128.232 62.1545 127.347 62.2995V62.3048ZM11.6638 62.074C11.0435 61.4191 10.4393 60.7427 9.8621 60.0556L10.2775 59.712C10.8439 60.3884 11.4427 61.0594 12.0576 61.7036L11.6638 62.074ZM162.195 61.9559C161.305 61.8271 160.42 61.7143 159.525 61.607L159.589 61.0755C160.485 61.1829 161.38 61.301 162.27 61.4244L162.195 61.9559ZM132.682 61.5587L132.617 61.0272C133.513 60.9198 134.408 60.8286 135.309 60.7427L135.358 61.2795C134.462 61.36 133.572 61.4567 132.682 61.5587ZM156.854 61.3225C155.959 61.2366 155.069 61.1614 154.173 61.097L154.211 60.5602C155.112 60.6246 156.008 60.6997 156.903 60.7856L156.849 61.3225H156.854ZM138.039 61.0594L138.001 60.5226C138.902 60.4582 139.797 60.4099 140.698 60.3669L140.72 60.9037C139.824 60.9467 138.929 60.995 138.033 61.0594H138.039ZM151.487 60.9306C150.592 60.8876 149.696 60.8554 148.795 60.8286L148.811 60.2918C149.712 60.3132 150.613 60.3508 151.514 60.3938L151.487 60.9306ZM143.417 60.8178L143.406 60.281C144.221 60.2649 145.035 60.2542 145.85 60.2542H146.114V60.791H145.855C145.046 60.791 144.237 60.7964 143.422 60.8178H143.417ZM8.17365 57.9298C7.6342 57.2051 7.11634 56.4589 6.63084 55.7127L7.08398 55.4229C7.56408 56.1637 8.07655 56.8991 8.61059 57.6131L8.17904 57.9298H8.17365ZM5.2283 53.3991C4.78595 52.6099 4.36519 51.8047 3.98219 50.9995L4.46768 50.7687C4.84529 51.5631 5.26066 52.3576 5.69761 53.136L5.2283 53.3991ZM2.9087 48.5194C2.57964 47.6766 2.27755 46.8177 2.01862 45.9695L2.53648 45.8139C2.79542 46.6513 3.09211 47.4995 3.41577 48.3262L2.91409 48.5194H2.9087ZM1.32274 43.3552C1.12315 42.4695 0.961315 41.573 0.837243 40.6926L1.37129 40.6175C1.48997 41.4871 1.6518 42.3675 1.846 43.2371L1.31735 43.3552H1.32274ZM0.578312 37.9978C0.551339 37.4664 0.535156 36.9242 0.535156 36.3927C0.535156 36.0277 0.540551 35.6573 0.556734 35.2869L1.09618 35.3084C1.08539 35.668 1.0746 36.0331 1.0746 36.3927C1.0746 36.9188 1.09078 37.4449 1.11775 37.971L0.578312 37.9978ZM1.31195 32.6619L0.777905 32.5921C0.875004 31.8298 1.00447 31.0568 1.16091 30.2999L1.24182 29.9241L1.77048 30.0422L1.68956 30.4126C1.53312 31.1534 1.40905 31.9103 1.31195 32.6619ZM2.46096 27.4762L1.94849 27.3152C2.21821 26.4617 2.53109 25.6081 2.88173 24.7761L3.37801 24.98C3.03816 25.796 2.73068 26.6388 2.46636 27.4762H2.46096ZM4.50005 22.5697L4.01995 22.3228C4.42992 21.5337 4.88305 20.7392 5.36855 19.9716L5.82708 20.2561C5.35237 21.013 4.91003 21.7914 4.50545 22.5697H4.50005ZM7.32672 18.0551L6.89517 17.7384C7.42382 17.0244 7.99563 16.3105 8.58902 15.6234L8.99899 15.9723C8.4164 16.6487 7.85538 17.3519 7.33212 18.0551H7.32672ZM10.8061 14.0075L10.4231 13.6318C11.0489 12.9983 11.7124 12.3756 12.3921 11.769L12.7535 12.1716C12.0792 12.7675 11.4265 13.3848 10.8115 14.0129L10.8061 14.0075ZM14.8034 10.4538L14.4689 10.0297C15.1702 9.47682 15.9038 8.94 16.6483 8.42466L16.9558 8.86485C16.2221 9.37482 15.4939 9.90627 14.798 10.4538H14.8034ZM19.2052 7.39934L18.9247 6.94305C19.6907 6.47602 20.4783 6.01972 21.2713 5.59027L21.5302 6.06267C20.748 6.48675 19.9658 6.93768 19.2106 7.40471L19.2052 7.39934ZM23.9145 4.8441L23.6826 4.36097C24.4917 3.97446 25.3279 3.60406 26.1586 3.26049L26.3636 3.75436C25.5437 4.09793 24.7183 4.46296 23.9145 4.8441ZM28.8666 2.7881L28.6832 2.28349C29.5301 1.98287 30.3986 1.69299 31.2563 1.43532L31.4128 1.95066C30.5605 2.20834 29.7028 2.49285 28.8666 2.7881ZM34.0021 1.2367L33.8726 0.715988C34.7465 0.501262 35.6366 0.30264 36.5159 0.130859L36.6184 0.656939C35.7445 0.828719 34.8652 1.02197 34.0021 1.2367Z" fill="#5032AD"/>
<path opacity="0.1" d="M193.658 35.3962V77.3686C193.658 85.1959 187.301 91.5417 179.459 91.5417H170.109L174.184 106.725L150.812 91.5417H91.6327C83.791 91.5417 77.4336 85.1959 77.4336 77.3686V35.3962C77.4336 27.5689 83.791 21.2231 91.6327 21.2231H179.459C187.301 21.2231 193.658 27.5689 193.658 35.3962Z" fill="black"/>
<path d="M71.6297 19.5308C71.8469 19.5308 72.0632 19.4479 72.2284 19.283C72.5588 18.9524 72.5588 18.4175 72.2284 18.0869L68.2359 14.1025C67.9046 13.7718 67.3687 13.7718 67.0375 14.1025C66.7063 14.4323 66.7063 14.968 67.0375 15.2986L71.0301 19.2838C71.1953 19.4487 71.4125 19.5316 71.6288 19.5316L71.6297 19.5308Z" fill="#926BF3"/>
<path d="M63.7767 22.977H69.4229C69.8909 22.977 70.2699 22.5986 70.2699 22.1316C70.2699 21.6645 69.8909 21.2861 69.4229 21.2861H63.7767C63.3087 21.2861 62.9297 21.6645 62.9297 22.1316C62.9297 22.5986 63.3087 22.977 63.7767 22.977Z" fill="#926BF3"/>
<path d="M75.0814 17.3276C75.5493 17.3276 75.9283 16.9492 75.9283 16.4822V10.8454C75.9283 10.3783 75.5493 10 75.0814 10C74.6134 10 74.2344 10.3783 74.2344 10.8454V16.4813C74.2344 16.9484 74.6134 17.3267 75.0814 17.3267V17.3276Z" fill="#926BF3"/>
<path d="M187.311 31.2594V73.2319C187.311 81.0592 180.954 87.405 173.112 87.405H163.763L167.837 102.588L144.465 87.405H85.2851C77.4433 87.405 71.0859 81.0592 71.0859 73.2319V31.2594C71.0859 23.4321 77.4433 17.0864 85.2851 17.0864H173.112C180.954 17.0864 187.311 23.4321 187.311 31.2594Z" fill="#926BF3"/>
<path d="M107.768 47.7485H83.8653C81.9122 47.7485 80.3281 49.3289 80.3281 51.2792V60.8041C80.3281 68.084 86.2402 73.9852 93.5344 73.9852H98.0997C105.393 73.9852 111.305 68.084 111.305 60.8041V51.2792C111.305 49.3289 109.722 47.7485 107.768 47.7485Z" fill="#8AE2C7"/>
<path d="M97.2682 60.4006V63.5345C97.2682 63.9807 96.9051 64.3431 96.4581 64.3431H95.1734C94.7264 64.3431 94.3633 63.9807 94.3633 63.5345V60.4006C93.7218 59.9453 93.3008 59.2019 93.3008 58.3565C93.3008 56.9704 94.427 55.8462 95.8157 55.8462C97.2044 55.8462 98.3307 56.9704 98.3307 58.3565C98.3307 59.2019 97.9089 59.9453 97.2682 60.4006Z" fill="#3B2101"/>
<path d="M97.0604 56.1742C97.6549 56.6337 98.0373 57.3519 98.0373 58.1597C98.0373 58.9674 97.6155 59.7484 96.9748 60.2038V63.3377C96.9748 63.7839 96.6117 64.1463 96.1647 64.1463H94.88C94.7777 64.1463 94.6804 64.1262 94.5898 64.0919C94.7374 64.2459 94.9446 64.343 95.1752 64.343H96.4599C96.9069 64.343 97.27 63.9806 97.27 63.5344V60.4005C97.9115 59.9451 98.3325 59.2018 98.3325 58.3564C98.3325 57.4206 97.8193 56.6053 97.0595 56.1733L97.0604 56.1742Z" fill="#49E0B2"/>
<path d="M108.752 47.8882C108.777 48.0539 108.789 48.2238 108.789 48.3963V57.9211C108.789 65.201 102.877 71.1022 95.5839 71.1022H91.0186C87.7338 71.1022 84.7291 69.9044 82.418 67.9231C84.7669 71.5693 88.8676 73.9851 93.5336 73.9851H98.0989C105.392 73.9851 111.304 68.0838 111.304 60.804V51.2791C111.304 49.6703 110.226 48.3142 108.752 47.8882Z" fill="#6FC9AD"/>
<path d="M95.7518 29.9C89.5738 29.936 84.6211 35.0328 84.6211 41.1994V47.7485H87.8178V41.1776C87.8178 36.7814 91.3349 33.1327 95.7392 33.09C100.186 33.0465 103.818 36.645 103.818 41.0747V42.7973C103.818 42.9396 103.934 43.0543 104.076 43.0543H106.758C106.9 43.0543 107.015 42.9388 107.015 42.7973V41.0747C107.015 34.8905 101.956 29.8623 95.7518 29.8991V29.9Z" fill="#E6E6E6"/>
<path d="M103.816 39.8377C103.816 35.4348 100.228 31.853 95.8166 31.853C91.4056 31.853 87.8164 35.4348 87.8164 39.8377V41.0757C87.8164 36.6728 91.4056 33.091 95.8166 33.091C100.228 33.091 103.816 36.6728 103.816 41.0757V39.8377Z" fill="#B3B3B3"/>
<path d="M106.691 44.1975H104.138C103.961 44.1975 103.816 44.0536 103.816 43.8761C103.816 43.6987 103.961 43.5547 104.138 43.5547H106.691C106.869 43.5547 107.013 43.6987 107.013 43.8761C107.013 44.0536 106.869 44.1975 106.691 44.1975Z" fill="#E6E6E6"/>
<path d="M106.892 44.6958H103.938C103.871 44.6958 103.816 44.7501 103.816 44.8172V45.2173C103.816 45.2843 103.871 45.3387 103.938 45.3387H106.892C106.959 45.3387 107.013 45.2843 107.013 45.2173V44.8172C107.013 44.7501 106.959 44.6958 106.892 44.6958Z" fill="#E6E6E6"/>
<path d="M106.712 43.0552H104.121V43.5541H106.712V43.0552Z" fill="#B3B3B3"/>
<path d="M106.712 44.1978H104.121V44.6966H106.712V44.1978Z" fill="#B3B3B3"/>
<path d="M175.709 55.0503H122.3C120.758 55.0503 119.508 56.2983 119.508 57.8377V67.0403C119.508 68.5797 120.758 69.8277 122.3 69.8277H175.709C177.251 69.8277 178.501 68.5797 178.501 67.0403V57.8377C178.501 56.2983 177.251 55.0503 175.709 55.0503Z" fill="white"/>
<path d="M132.563 58.6128V61.0963L134.851 60.3095L135.547 62.1301L133.259 63.0869L134.696 65.1234L133.151 66.2652L131.589 64.2135L130.059 66.2652L128.436 65.1234L129.889 63.0098L127.586 62.1301L128.25 60.3095L130.615 61.0963V58.6128H132.562H132.563Z" fill="#1A1A1A" stroke="white" stroke-miterlimit="10"/>
<path d="M144.617 58.6128V61.0963L146.905 60.3095L147.601 62.1301L145.313 63.0869L146.75 65.1234L145.205 66.2652L143.644 64.2135L142.114 66.2652L140.491 65.1234L141.943 63.0098L139.641 62.1301L140.305 60.3095L142.67 61.0963V58.6128H144.617Z" fill="#1A1A1A" stroke="white" stroke-miterlimit="10"/>
<path d="M156.668 58.6128V61.0963L158.956 60.3095L159.652 62.1301L157.365 63.0869L158.802 65.1234L157.256 66.2652L155.695 64.2135L154.164 66.2652L152.542 65.1234L153.994 63.0098L151.691 62.1301L152.356 60.3095L154.72 61.0963V58.6128H156.668H156.668Z" fill="#1A1A1A" stroke="white" stroke-miterlimit="10"/>
<path d="M168.718 58.6128V61.0963L171.006 60.3095L171.702 62.1301L169.414 63.0869L170.852 65.1234L169.306 66.2652L167.746 64.2135L166.215 66.2652L164.593 65.1234L166.045 63.0098L163.742 62.1301L164.406 60.3095L166.771 61.0963V58.6128H168.718Z" fill="#1A1A1A" stroke="white" stroke-miterlimit="10"/>
<path opacity="0.3" d="M163.26 34.0576H119.593C119.343 34.0576 119.141 34.2596 119.141 34.5088V35.9979C119.141 36.2471 119.343 36.4491 119.593 36.4491H163.26C163.51 36.4491 163.712 36.2471 163.712 35.9979V34.5088C163.712 34.2596 163.51 34.0576 163.26 34.0576Z" fill="white"/>
<path opacity="0.3" d="M177.304 43.1252H120.339C119.677 43.1252 119.141 42.5895 119.141 41.9291C119.141 41.2686 119.677 40.7329 120.339 40.7329H177.305C177.967 40.7329 178.503 41.2686 178.503 41.9291C178.503 42.5895 177.967 43.1252 177.305 43.1252H177.304Z" fill="white"/>
<path opacity="0.3" d="M177.304 50.2829H120.339C119.677 50.2829 119.141 49.7472 119.141 49.0868C119.141 48.4263 119.677 47.8906 120.339 47.8906H177.305C177.967 47.8906 178.503 48.4263 178.503 49.0868C178.503 49.7472 177.967 50.2829 177.305 50.2829H177.304Z" fill="white"/>
</svg>
