<svg width="123" height="96" viewBox="0 0 123 96" fill="none" xmlns="http://www.w3.org/2000/svg">
<path fill-rule="evenodd" clip-rule="evenodd" d="M90.9237 22.1347C103.519 9.46836 55.6098 -20.4565 19.4203 26.6765C19.4954 25.2797 25.5608 9.51885 18.0636 16.1044C-1.59444 33.3705 -7.59032 64.7184 13.3361 84.6265C23.8453 94.6246 72.0886 100.257 92.3799 91.8535C135.445 85.6867 127.855 18.7185 90.9237 22.1347Z" fill="#F3EDFF"/>
<mask id="mask0_3011_12199" style="mask-type:alpha" maskUnits="userSpaceOnUse" x="0" y="1" width="122" height="95">
<path fill-rule="evenodd" clip-rule="evenodd" d="M90.9237 22.1347C103.519 9.46836 55.6098 -20.4565 19.4203 26.6765C19.4954 25.2797 25.5608 9.51885 18.0636 16.1044C-1.59444 33.3705 -7.59032 64.7184 13.3361 84.6265C23.8453 94.6246 72.0886 100.257 92.3799 91.8535C135.445 85.6867 127.855 18.7185 90.9237 22.1347Z" fill="#347DCE"/>
</mask>
<g mask="url(#mask0_3011_12199)">
<path d="M7.15167 107.781C8.37369 99.9797 9.99716 94.0319 10.4137 89.9943C10.4388 89.741 10.4689 89.141 10.489 88.6977C10.489 88.6977 10.6446 86.9371 10.6621 86.4963C10.7424 84.6854 10.8202 84.2749 10.7299 83.6646C9.29961 73.9758 6.54946 57.2581 6.54946 57.2581C9.73117 54.829 17.3067 50.2012 17.3067 50.2012C21.4419 52.7671 24.862 50.3608 24.862 50.3608C29.6847 52.8482 35.1301 56.4425 35.1301 56.4425C35.2326 57.7014 34.0733 77.3827 33.0398 83.8316C32.9571 84.3508 37.9128 103.183 37.7068 118.602C37.4685 136.432 36.9415 180.708 36.9415 180.708C36.9415 180.708 31.7775 183.824 21.0279 181.858C21.0279 181.858 16.6216 181.043 10.2983 182.36C10.2983 182.36 1.67144 183.375 -4.8125 180.055C-4.8125 180.055 5.79918 116.396 7.14916 107.784L7.15167 107.781Z" fill="#816D62"/>
<path d="M6.55213 57.2581C6.55213 57.2581 9.72387 60.6498 13.4074 73.041C13.4074 73.041 14.9783 72.927 17.0032 72.7045L17.4499 70.5463L18.8576 70.9111L19.0056 70.2648L24.2175 71.4503C26.2624 70.9389 26.1822 70.9589 27.3115 70.6603L27.5522 71.5769L27.3917 70.9389L28.7468 70.6374L29.2157 71.6558L33.5366 71.8633C33.5366 71.8633 31.8379 58.7855 35.1353 56.4399C35.1353 56.4399 39.4413 58.5525 40.2467 71.0782C40.8766 80.8932 35.4737 81.0276 34.2018 81.0276C32.9294 81.0276 24.5284 78.5403 24.5284 78.5403C24.5284 78.5403 15.5353 81.6734 12.0274 81.3973C11.4226 81.3495 5.49322 82.8438 3.50341 66.534C2.9915 62.3393 4.57484 58.9071 6.55213 57.2556V57.2581Z" fill="#816D62"/>
<path d="M17.5965 70.7109C17.5865 70.6198 17.5764 70.5312 17.5664 70.4401L18.7583 70.7489L18.9038 70.1079L24.2107 71.3138L24.552 71.2276C25.6629 70.949 26.5703 70.7167 27.2747 70.5312L27.4028 70.498L27.4782 70.7844L28.5848 70.5389C28.5795 70.63 28.5795 70.7211 28.5848 70.8097L27.5483 71.0401L27.2848 71.0932L27.2147 70.8224C26.2812 71.0679 26.216 71.0859 24.6173 71.4863L24.216 71.5876L19.1021 70.4245L18.954 71.0732L17.609 70.7235C17.6015 70.7109 17.5965 70.7036 17.5965 70.7109Z" fill="#664E3E"/>
<path d="M8.81069 80.1766C10.0051 81.0002 11.1569 81.2179 11.9372 81.2481C11.9799 81.2481 12.015 81.2408 12.0376 81.2433C12.1781 81.2535 12.3337 81.2379 12.4993 81.2379C16.213 81.2379 24.403 78.4213 24.4862 78.3936L24.5263 78.4014L24.5664 78.414C24.6389 78.434 30.8694 80.2779 33.3514 80.7747C33.334 80.8556 33.3185 80.9394 33.3112 81.0226C30.8946 80.539 25.1335 78.8343 24.5311 78.657C23.9041 78.8723 16.1202 81.5043 12.4993 81.5043C12.3287 81.5043 12.1656 81.5194 12.0175 81.5092C11.995 81.5092 11.9648 81.5267 11.9272 81.5267C11.1142 81.4941 9.90727 81.2662 8.66016 80.4046C8.71536 80.334 8.76554 80.258 8.81069 80.1796V80.1766Z" fill="#664E3E"/>
<path d="M12.1 69.0747C12.0398 69.0747 11.9871 69.0338 11.972 68.9734C10.9206 64.3859 7.49553 58.6513 7.46038 58.5956C7.42272 58.5323 7.44283 58.4512 7.50553 58.4132C7.56828 58.3752 7.64858 58.3955 7.68619 58.4588C7.72134 58.5171 11.1666 64.2846 12.228 68.915C12.243 68.9861 12.2004 69.0567 12.1301 69.0747C12.1201 69.0747 12.11 69.0771 12.1 69.0771V69.0747Z" fill="#664E3E"/>
<path d="M33.3872 66.6655C33.3872 66.6655 33.3795 66.6655 33.377 66.6655C33.3045 66.6606 33.2489 66.5973 33.2543 66.5237C33.2717 66.2758 33.6932 60.4244 34.6093 58.0814C34.6369 58.013 34.7118 57.9801 34.78 58.008C34.8476 58.0358 34.88 58.1118 34.8525 58.1802C33.9519 60.4878 33.5201 66.4833 33.5153 66.5442C33.51 66.6148 33.4525 66.6684 33.3848 66.6684L33.3872 66.6655Z" fill="#664E3E"/>
<path d="M23.9352 78.4239C23.9352 78.4239 23.9125 78.4239 23.9023 78.419L17.7623 76.7904L17.9831 75.4252L16.6406 75.0984L16.9292 73.9786C16.9418 73.9075 17.0095 73.8569 17.0822 73.8725C17.1525 73.8851 17.2002 73.9533 17.1876 74.0269L16.9819 74.9284L18.2817 75.2226L18.0609 76.598L23.9652 78.1658C24.0353 78.1833 24.0783 78.2569 24.058 78.328C24.043 78.3884 23.9903 78.4264 23.9299 78.4264L23.9352 78.4239Z" fill="#664E3E"/>
<path d="M37.579 73.3933C37.5438 73.3933 37.5065 73.3782 37.4814 73.3504C36.3294 72.0612 33.015 72.0003 32.9821 72.0003C32.9096 72.0003 32.8516 71.9473 32.8516 71.8737C32.8516 71.8002 32.912 71.752 32.9821 71.752C33.1228 71.752 36.4449 71.808 37.6719 73.1834C37.7197 73.2365 37.7173 73.3173 37.6617 73.3655C37.6366 73.3884 37.6066 73.3962 37.5742 73.3962L37.579 73.3933Z" fill="#664E3E"/>
<path d="M10.5189 73.3932C10.4687 73.3932 10.421 73.3655 10.3984 73.3148C10.3683 73.2491 10.3984 73.1702 10.4637 73.14C11.7936 72.5297 13.1235 72.9827 13.1812 73.0031C13.249 73.026 13.2866 73.102 13.2615 73.1731C13.2389 73.2413 13.1636 73.2793 13.0934 73.2539C13.0809 73.2491 11.8036 72.8156 10.5716 73.383C10.554 73.3908 10.5365 73.3957 10.5164 73.3957L10.5189 73.3932Z" fill="#664E3E"/>
<path d="M28.8269 70.6455C28.8269 70.6455 30.4676 67.9707 32.8316 67.2742C32.8316 67.2742 35.1023 65.6528 36.2616 67.2084C36.2616 67.2084 36.2113 67.621 35.81 67.5601C35.4837 67.5094 34.6058 66.9474 33.3412 68.4012C33.3412 68.4012 35.1299 67.8772 36.2113 68.6165C36.2113 68.6165 36.3873 68.7582 36.3094 69.0777C36.234 69.3967 35.6645 70.7088 35.4335 71.1189C35.4335 71.1189 35.1502 71.1696 34.9747 71.1189C34.7987 71.0683 33.6921 71.1823 33.3436 71.3878C33.3436 71.3878 32.6634 71.8763 32.5329 71.869C32.4023 71.8612 28.9671 71.6308 28.9671 71.6308C28.9671 71.6308 28.749 71.1599 28.8245 70.6504L28.8269 70.6455Z" fill="#EA997D"/>
<path d="M17.4902 70.8526C17.4902 70.8526 14.4164 69.5381 12.3438 69.5332L13.4001 73.0614C13.4001 73.0614 15.8291 73.791 16.8579 73.791C16.8579 73.791 17.4927 72.1774 17.4927 70.8526H17.4902Z" fill="#EA997D"/>
<path d="M28.7 71.7495C28.77 71.7495 28.8305 71.6759 28.8305 71.6029C28.8305 71.5293 28.7725 71.4606 28.7024 71.4606C28.6772 71.4606 26.0575 71.4129 24.3737 71.3467C24.3012 71.3467 24.2408 71.4003 24.2384 71.4709C24.2359 71.5444 24.2911 71.6204 24.3636 71.6228C26.0527 71.6886 28.6724 71.747 28.7 71.747V71.7495Z" fill="#664E3E"/>
<path d="M24.4046 43.9873C24.4046 43.9873 24.1885 48.99 24.4046 49.8182C24.6202 50.6491 26.6327 51.951 28.6955 52.9288C28.6955 52.9288 26.0405 56.5611 20.8563 56.4522C15.6697 56.3432 14.7136 54.1623 13.8906 52.9693C13.8906 52.9693 17.4864 51.6724 17.5792 49.9753C17.6746 48.2757 17.5792 43.9873 17.5792 43.9873H24.4046Z" fill="#EA997D"/>
<path d="M21.0423 48.6074C19.4012 48.6074 18.262 47.6094 17.6222 46.7178C17.6121 45.2106 17.582 43.9897 17.582 43.9897H24.4075C24.4075 43.9897 24.3495 45.2081 24.3243 46.6494C23.7751 47.5511 22.7261 48.6099 21.0423 48.6099V48.6074Z" fill="#D87E66"/>
<path d="M13.7221 36.5506C14.3143 44.0052 17.1422 47.5844 20.7531 47.5844C24.3638 47.5844 27.217 44.6284 27.7817 36.5506C28.1979 30.5855 25.1015 26.8975 20.7531 26.8975C16.4045 26.8975 13.2303 30.36 13.7221 36.5506Z" fill="#EA997D"/>
<path d="M24.1523 38.2426C24.1523 38.5998 24.3481 38.8885 24.5913 38.8885C24.8349 38.8885 25.0307 38.5998 25.0307 38.2426C25.0307 37.8855 24.8349 37.5967 24.5913 37.5967C24.3481 37.5967 24.1523 37.8855 24.1523 38.2426Z" fill="#23242B"/>
<path d="M16.6406 38.2426C16.6406 38.5998 16.8364 38.8885 17.0798 38.8885C17.3232 38.8885 17.5189 38.5998 17.5189 38.2426C17.5189 37.8855 17.3232 37.5967 17.0798 37.5967C16.8364 37.5967 16.6406 37.8855 16.6406 38.2426Z" fill="#23242B"/>
<path d="M26.225 36.325C26.2854 36.3098 26.343 36.2743 26.3807 36.2186C26.4633 36.0996 26.4358 35.9349 26.3178 35.8488C25.8184 35.4917 24.6239 34.7723 23.4119 36.0413C23.3118 36.1477 23.2843 36.3022 23.3771 36.4137C23.4699 36.5251 23.613 36.5049 23.746 36.4491C24.8675 35.978 26.0041 36.2718 26.0142 36.2794C26.0771 36.325 26.152 36.3377 26.2226 36.3225L26.225 36.325Z" fill="#30323D"/>
<path d="M15.5563 36.2749C15.4961 36.2597 15.4409 36.2217 15.4033 36.166C15.323 36.0444 15.3556 35.8798 15.4785 35.7987C15.9904 35.4593 17.2074 34.7804 18.3768 36.09C18.4746 36.1989 18.4947 36.3559 18.3993 36.4649C18.304 36.5738 18.161 36.5485 18.028 36.4877C16.816 35.9177 15.7772 36.2344 15.7671 36.242C15.7019 36.285 15.6266 36.2952 15.5563 36.2774V36.2749Z" fill="#30323D"/>
<path d="M20.8605 42.0522C21.2294 42.0395 21.523 41.9407 21.6584 41.6646C22.0875 40.8084 21.2745 39.4254 21.1993 39.2557C21.1466 39.1392 21.0688 39.0683 20.9508 39.1215C20.8354 39.1747 20.8781 39.3292 20.9308 39.4482C21.1792 40.0055 21.3323 41.0339 21.1039 41.429C21.0663 41.4949 20.9985 41.5734 20.8204 41.5886C20.6924 41.5987 20.6046 41.7127 20.6096 41.8419C20.6196 42.0674 20.853 42.0547 20.8605 42.0547V42.0522Z" fill="#D87E66"/>
<path d="M21.0134 44.0303C21.9946 44.0303 22.6596 43.554 22.7022 43.5237C22.7872 43.4629 22.8051 43.3438 22.7447 43.2577C22.6848 43.1716 22.5668 43.1538 22.4812 43.2146C22.4237 43.2577 21.1213 44.1721 19.4953 43.2045C19.405 43.1513 19.2896 43.1817 19.2369 43.2703C19.1842 43.3616 19.2143 43.4781 19.3046 43.5312C19.9294 43.9036 20.5116 44.0277 21.0134 44.0277V44.0303Z" fill="#CE6565"/>
<path d="M14.8697 37.5612C14.8697 37.5612 14.5159 36.5126 13.1257 36.6367C11.7808 36.7557 12.2375 40.2411 13.4218 40.8136C14.6037 41.3885 14.9951 39.656 14.9951 39.656L14.8697 37.5612Z" fill="#EA997D"/>
<path d="M26.6384 37.5612C26.6384 37.5612 26.9923 36.5126 28.3822 36.6367C29.7275 36.7557 29.2707 40.2411 28.0887 40.8136C26.9067 41.3885 26.5156 39.656 26.5156 39.656L26.6408 37.5612H26.6384Z" fill="#EA997D"/>
<path d="M12.9023 34.5168C12.9023 34.5168 19.7301 29.3317 28.5025 34.5168C28.5025 34.5168 27.7821 26.7227 20.5079 26.7202C14.2799 26.7177 12.9023 34.5168 12.9023 34.5168Z" fill="#F9F8F7"/>
<path d="M3.80001 71.0676C5.59412 71.8249 14.9361 67.2681 21.0035 65.0623C27.0608 62.8584 33.4643 55.0112 33.4643 55.0112C32.9553 52.8202 30.3302 51.9818 30.2751 51.2168C30.2224 50.4518 28.9075 50.0871 28.9075 50.0871C25.7686 48.276 28.9877 42.1209 29.1985 39.4029C29.3745 37.1283 29.2967 36.1582 29.2967 36.1582C27.8188 25.3398 20.9935 25.935 20.9935 25.935C13.019 25.9199 12.3014 36.0771 12.3014 36.0771C12.3014 36.0771 11.7995 37.9287 12.3014 39.8918C13.0266 42.7262 14.9913 48.927 14.9913 48.927C14.5622 49.8186 12.6452 49.9553 12.5373 50.657C12.5021 50.8926 12.3466 52.078 11.5837 52.4579C11.1998 52.6479 10.3141 53.114 10.0029 53.4863C9.24761 54.3856 9.28773 54.8643 8.79594 55.1759C0.339744 60.561 3.79749 71.0676 3.79749 71.0676H3.80001ZM15.458 43.6052C14.7102 41.8929 13.9851 35.8618 15.458 33.9418C16.931 32.0218 18.3286 30.3931 20.6999 30.4539C23.071 30.5147 24.6219 31.6166 26.2302 33.4403C27.8386 35.2666 26.8727 41.3534 26.3907 43.1796C25.9092 45.0034 23.7261 47.4553 21.0587 47.5744C18.3913 47.6934 16.2083 45.315 15.458 43.6052Z" fill="#3A3C47"/>
<path d="M15.1289 48.8936C16.1627 48.116 17.6206 48.3516 18.9581 48.311C20.2955 48.2705 22.5539 47.46 22.5539 47.46C22.5539 47.46 20.8751 48.6429 19.2115 48.6834C17.5504 48.7239 17.1364 48.4732 15.9921 48.6834L15.1289 48.8962V48.8936Z" fill="#5B5F70"/>
<path d="M17.0616 51.3433C17.8771 51.3433 18.8582 51.204 20.1455 50.7582C24.1578 49.3727 25.9571 45.2743 25.9746 45.2338C26.0098 45.1527 25.9746 45.0565 25.8919 45.021C25.8112 44.9855 25.7159 45.021 25.6811 45.1046C25.6632 45.1451 23.9195 49.1143 20.0426 50.4517C17.6738 51.2699 16.374 51.0216 15.2273 50.8038C14.4519 50.6569 13.7167 50.5176 12.7732 50.7151C12.6854 50.7329 12.6302 50.819 12.6478 50.9077C12.6653 50.9963 12.7507 51.052 12.8385 51.0343C13.7218 50.8469 14.3917 50.9761 15.1671 51.1229C15.7292 51.2294 16.3264 51.3433 17.0591 51.3433H17.0616Z" fill="#5B5F70"/>
<path d="M20.3981 55.7126C20.7319 55.7126 21.0204 55.672 21.2513 55.5833C23.3617 54.7601 27.103 47.6551 27.2611 47.3537C27.3036 47.2751 27.2737 47.1764 27.1934 47.1333C27.1156 47.0903 27.0175 47.1207 26.9749 47.2017C26.9372 47.2751 23.1331 54.4992 21.1334 55.282C19.141 56.0596 11.7387 52.602 11.6659 52.5691C11.5856 52.5311 11.4902 52.5666 11.4526 52.6476C11.415 52.7287 11.4501 52.825 11.5304 52.8629C11.8064 52.9921 17.638 55.7151 20.3981 55.7151V55.7126Z" fill="#5B5F70"/>
<path d="M21.1946 56.0397C21.1946 56.0397 21.2021 56.0397 21.2046 56.0397C26.9084 55.675 29.9443 51.7564 29.9743 51.7159C30.027 51.645 30.0149 51.5437 29.9443 51.4879C29.8742 51.4322 29.7737 51.4474 29.7185 51.5184C29.6886 51.5563 26.7353 55.3583 21.1821 55.7155C21.0942 55.7206 21.0265 55.7991 21.0315 55.8878C21.0365 55.9739 21.1068 56.0397 21.1921 56.0397H21.1946Z" fill="#5B5F70"/>
<path d="M21.5353 60.5939C26.456 60.5939 31.9614 55.5381 32.2098 55.3076C32.2751 55.2468 32.2799 55.1455 32.22 55.077C32.1596 55.0112 32.059 55.0061 31.9913 55.0669C31.9261 55.1277 25.4776 61.0473 20.4714 60.1785C15.4479 59.3072 10.9714 53.4433 10.9262 53.385C10.8735 53.3141 10.7706 53.2989 10.7004 53.3547C10.6301 53.4078 10.615 53.5117 10.6702 53.5826C10.7154 53.6434 15.2697 59.6086 20.4162 60.5002C20.7826 60.5635 21.1565 60.5939 21.5328 60.5939H21.5353Z" fill="#5B5F70"/>
<path d="M26.5113 33.5366C26.5364 33.5366 26.564 33.5315 26.5867 33.5164C26.6645 33.4733 26.6945 33.3745 26.6519 33.296C26.5992 33.1947 25.3196 30.8212 24.2454 30.0233C24.1729 29.9702 24.0723 29.9854 24.0196 30.0588C23.967 30.1297 23.9819 30.2336 24.0549 30.2868C25.0711 31.0416 26.3556 33.4277 26.3682 33.453C26.3986 33.5087 26.4537 33.5391 26.5088 33.5391L26.5113 33.5366Z" fill="#5B5F70"/>
<path d="M15.2166 33.9976C15.2818 33.9976 15.342 33.9596 15.3671 33.8937C15.3747 33.8735 16.1676 31.8395 17.2064 30.4134C17.2591 30.3425 17.244 30.2386 17.1713 30.1855C17.0985 30.1323 16.9982 30.1475 16.9455 30.2209C15.884 31.6824 15.0986 33.6886 15.066 33.7747C15.0334 33.8583 15.0735 33.952 15.1563 33.9849C15.1764 33.9925 15.1965 33.995 15.2141 33.995L15.2166 33.9976Z" fill="#5B5F70"/>
<path d="M17.8447 47.9541C17.8823 47.9541 17.92 47.9414 17.9501 47.9135C18.0178 47.8552 18.0254 47.7514 17.9651 47.6856C17.9476 47.6653 16.2638 45.7047 15.8247 44.4661C15.7946 44.3826 15.7042 44.337 15.619 44.3674C15.5362 44.3977 15.491 44.4889 15.5211 44.575C15.9803 45.8719 17.6515 47.8173 17.7217 47.9008C17.7543 47.9363 17.797 47.9566 17.8422 47.9566L17.8447 47.9541Z" fill="#5B5F70"/>
<path d="M15.6746 47.954C15.6922 47.954 15.7123 47.9515 15.7298 47.9439C15.8127 47.9135 15.8553 47.8198 15.8252 47.7362C15.8101 47.6982 14.4551 43.9164 14.415 40.0536C14.415 39.965 14.3372 39.894 14.2519 39.894C14.1641 39.894 14.0913 39.9675 14.0938 40.0587C14.134 43.9773 15.5091 47.8096 15.5241 47.8476C15.5492 47.9135 15.6094 47.954 15.6746 47.954Z" fill="#5B5F70"/>
<path d="M19.4226 61.0498C17.9396 61.0498 10.8359 60.8016 9.27764 56.0928C9.25003 56.0067 9.29524 55.9155 9.37805 55.8876C9.46333 55.8597 9.55368 55.9054 9.58128 55.9889C11.2123 60.9156 19.5882 60.7256 19.6735 60.7205C19.7614 60.718 19.8366 60.7889 19.8391 60.8776C19.8416 60.9663 19.7714 61.0422 19.6836 61.0448C19.6534 61.0448 19.5631 61.0473 19.4226 61.0473V61.0498Z" fill="#5B5F70"/>
<path d="M4.16171 68.3856C3.99609 68.3856 3.85556 68.3627 3.74016 68.3145C3.65735 68.2819 3.61969 68.1854 3.65232 68.1021C3.68747 68.0184 3.78029 67.9804 3.8631 68.0135C4.47285 68.2668 6.42253 67.4841 8.48766 66.6556C10.8288 65.7156 13.4811 64.6519 15.6215 64.4113C19.6941 63.9554 22.9511 61.6631 22.9835 61.6403C23.0565 61.5896 23.1566 61.6074 23.2069 61.6783C23.2571 61.7517 23.2397 61.853 23.1692 61.9037C23.1368 61.9265 19.8095 64.2671 15.6566 64.7332C13.5589 64.9685 10.9267 66.0249 8.60562 66.9571C6.65845 67.7398 5.055 68.3832 4.16171 68.3832V68.3856Z" fill="#5B5F70"/>
<path d="M4.52247 65.9616H4.48481C4.39702 65.9616 4.32422 65.8904 4.32422 65.8018C4.32422 65.7132 4.39702 65.6425 4.48481 65.6425C4.48481 65.6425 4.49487 65.6425 4.52247 65.6425C4.89636 65.6425 8.0756 65.6245 11.6413 65.0498C11.7291 65.0342 11.8119 65.0951 11.8244 65.1837C11.8395 65.2724 11.7793 65.3537 11.6914 65.3664C8.10321 65.9465 4.90139 65.9591 4.52247 65.9591V65.9616Z" fill="#5B5F70"/>
<path d="M54.771 37.8452H52.6758V40.0894H54.771V37.8452Z" fill="#D0C3EA"/>
<path d="M50.5312 55.728H60.4933V40.0894H52.6743C51.4899 40.0894 50.5312 41.057 50.5312 42.2525V55.728Z" fill="#D0C3EA"/>
<path d="M71.5874 37.8887H69.4922V40.1329H71.5874V37.8887Z" fill="#D0C3EA"/>
<path d="M73.7155 55.769H63.7539V40.1304H71.5729C72.7573 40.1304 73.7155 41.098 73.7155 42.2935V55.769Z" fill="#D0C3EA"/>
<path d="M50.7579 53.4077H49.0214C49.0214 53.4077 45.5586 62.7494 45.5586 77.9903C45.5586 78.8212 45.5712 79.6623 45.5963 80.5054H50.7579L51.2824 72.3367L50.7579 53.4077Z" fill="#FFE6B1"/>
<path d="M46.151 82.3093H47.8522V75.8428H46.151C44.3821 75.8428 42.9492 77.2888 42.9492 79.0748C42.9492 80.8603 44.3821 82.3069 46.151 82.3069V82.3093Z" fill="#FFE6B1"/>
<path d="M55.5114 35.2666V41.3762C54.6886 41.3762 54.0234 40.7024 54.0234 39.8741V36.7687C54.0234 35.9378 54.6911 35.2666 55.5114 35.2666Z" fill="#FAA2A1"/>
<path d="M69.1016 35.2666V41.3762C69.9248 41.3762 70.5896 40.7024 70.5896 39.8741V36.7687C70.5896 35.9378 69.9224 35.2666 69.1016 35.2666Z" fill="#FAA2A1"/>
<path d="M48.3302 67.2759L46.3906 77.8838H47.8511L48.3302 67.2759Z" fill="#E8C884"/>
<path d="M49.0138 53.4484L57.2065 49.5425H67.0304L75.5392 53.4484L75.6596 95.5949H46.9336L49.0138 53.4484Z" fill="#FFE6B1"/>
<path d="M75.6206 81.8509L64.2812 81.4077L75.6206 86.8914V81.8509Z" fill="#E8C884"/>
<path d="M62.437 50.3755H61.8047V66.9567H62.437V50.3755Z" fill="#E8C884"/>
<path d="M56.7188 49.7934C56.7188 49.7934 58.1367 51.07 62.1216 51.07C66.106 51.07 67.5239 49.7934 67.5239 49.7934V41.5308H56.7188V49.7934Z" fill="#FAA2A1"/>
<path d="M56.2734 44.0058C62.1428 50.7714 68.3457 44.0944 68.3457 44.0944V32.4376C68.3457 30.8849 67.1487 29.626 65.6733 29.626H58.9459C57.4704 29.626 56.2734 30.8849 56.2734 32.4376V44.0058Z" fill="#FAA2A1"/>
<g opacity="0.12">
<path d="M68.3457 32.9866C68.3457 31.558 67.2038 30.4004 65.7961 30.4004H58.8231C57.4153 30.4004 56.2734 31.558 56.2734 32.9866V36.5733C56.2734 35.1447 57.4153 33.9871 58.8231 33.9871H65.7961C67.2038 33.9871 68.3457 35.1447 68.3457 36.5733V32.9866Z" fill="#231F20"/>
</g>
<path d="M62.5152 44.4079H61.7123C60.2267 44.4079 59.0195 43.1896 59.0195 41.6901V41.376H65.2075V41.6901C65.2075 43.1896 64.0003 44.4079 62.5152 44.4079Z" fill="white"/>
<path d="M58.0078 42.6557C58.0078 42.6557 61.4131 42.9216 62.118 41.9388C62.6473 43.028 66.2281 42.6557 66.2281 42.6557C66.2281 42.6557 65.4 40.0923 62.0203 40.0923C58.6401 40.0923 58.0078 42.6557 58.0078 42.6557Z" fill="#492F3B"/>
<path d="M56.2746 32.4702V38.5924C56.2746 41.6194 58.8493 42.5768 58.8493 42.5768C58.8493 45.0541 61.5643 45.2365 62.3093 45.2415C63.0547 45.239 65.7697 45.0566 65.7697 42.5768C65.7697 42.5768 68.3444 41.6194 68.3444 38.5924V32.4702H69.102V44.7983C69.102 48.4204 62.4272 49.5755 62.3068 49.5628C62.1865 49.5755 55.5117 48.4204 55.5117 44.7983V32.4702H56.2697H56.2746Z" fill="#492F3B"/>
<path d="M62.5748 40.1049H61.3203L61.491 37.7568L62.0556 37.7974L61.9299 39.5324H62.5748V40.1049Z" fill="#DB7170"/>
<path d="M62.1112 47.3362C62.656 47.3362 63.0974 46.8904 63.0974 46.3408V45.4061C63.0974 44.8564 62.656 44.4106 62.1112 44.4106C61.5669 44.4106 61.125 44.8564 61.125 45.4061V46.3408C61.125 46.8904 61.5669 47.3362 62.1112 47.3362Z" fill="#492F3B"/>
<path d="M73.7379 53.4077L75.5391 53.4482C75.5391 53.4482 78.9343 62.7494 78.9343 77.9903C78.9343 78.8212 78.9217 80.3004 78.8966 81.1439L73.735 80.5054L73.2109 72.3367L73.735 53.4077H73.7379Z" fill="#FFE6B1"/>
<path d="M78.9357 82.3192L63.2227 81.7216V76.4707H78.9357V82.3192Z" fill="#FFE6B1"/>
<path d="M63.2545 79.7764H60.1605C58.2712 79.7764 56.7383 78.2286 56.7383 76.3213V74.2036H61.1544C62.3137 74.2036 63.2574 75.1538 63.2574 76.3267V79.7764H63.2545Z" fill="#FAA2A1"/>
<path d="M46.3935 77.8838H50.8096V80.0015C50.8096 81.9088 49.2767 83.4566 47.3869 83.4566H44.293V80.0063C44.293 78.8365 45.2342 77.8838 46.3959 77.8838H46.3935Z" fill="#FAA2A1"/>
<path d="M63.2578 76.3263H73.217V60.4497L71.0817 72.5673L63.2578 76.3263Z" fill="#E8C884"/>
<path d="M62.3065 24.7725C66.8832 24.7725 70.0047 28.192 70.0047 31.0289V31.3734H54.6055V31.0289C54.6055 28.192 57.7294 24.7725 62.3041 24.7725H62.3065Z" fill="white"/>
<path d="M54.6634 29.9448C54.3298 29.9448 54.0586 29.6661 54.0586 29.3242C54.0586 28.9822 54.3298 28.7036 54.6634 28.7036H69.9524C70.286 28.7036 70.5572 28.9822 70.5572 29.3242C70.5572 29.6661 70.286 29.9448 69.9524 29.9448C70.286 29.9448 70.5572 30.2234 70.5572 30.5654C70.5572 30.9073 70.286 31.1859 69.9524 31.1859H54.6634C54.3298 31.1859 54.0586 30.9073 54.0586 30.5654C54.0586 30.2234 54.3298 29.9448 54.6634 29.9448Z" fill="#2E2F3B"/>
<path d="M71.5835 40.1326V32.6957C71.5835 31.8623 70.9135 31.186 70.0878 31.186H69.1016V37.6274C69.1016 39.0105 70.2135 40.1326 71.5835 40.1326Z" fill="white"/>
<path d="M56.8359 31.186V34.4511C56.8359 34.3497 56.8461 34.2484 56.8688 34.1446C57.0772 33.0504 58.3766 32.2094 59.9652 32.2094H64.261C65.9873 32.2094 67.3878 33.2124 67.3878 34.4511V31.186H56.8359Z" fill="white"/>
<path d="M70.0829 31.186V36.5737H69.0014C68.5373 36.5737 68.1158 36.3736 67.8247 36.0545C67.7218 35.9456 67.6362 35.8239 67.5709 35.6897C67.4559 35.4668 67.3906 35.2161 67.3906 34.9476V31.186H70.0829Z" fill="white"/>
<path d="M52.668 32.6981V40.1325C53.6817 40.1325 54.5524 39.522 54.9367 38.6481C55.0793 38.3366 55.1547 37.9896 55.1547 37.6248V31.1885H54.1661C53.338 31.1885 52.668 31.8648 52.668 32.7007V32.6981Z" fill="white"/>
<path d="M56.8685 31.186V34.9501C56.8685 35.1983 56.8134 35.4364 56.708 35.6467C56.6476 35.7809 56.5673 35.905 56.4697 36.0165C56.1757 36.3584 55.7392 36.5737 55.2548 36.5737H54.1758V31.186H56.8685Z" fill="white"/>
<path d="M55.2969 33.4532C55.2969 33.7951 55.4347 34.1067 55.658 34.3321C55.8813 34.5576 56.1903 34.6969 56.5287 34.6969H56.8676V34.1447C57.0759 33.0504 58.3759 32.2095 59.9639 32.2095H56.5287C55.849 32.2095 55.2969 32.7668 55.2969 33.4532Z" fill="#D0C3EA"/>
<path d="M68.9483 33.4532C68.9483 33.7951 68.8105 34.1067 68.5872 34.3321C68.3638 34.5576 68.0549 34.6969 67.7165 34.6969H67.3776L67.3926 34.3448C67.1843 33.2505 65.8693 32.2095 64.2812 32.2095H67.7165C68.3962 32.2095 68.9483 32.7668 68.9483 33.4532Z" fill="#D0C3EA"/>
<path d="M53.2656 37.6123C53.2656 37.896 53.3836 38.1543 53.5692 38.3418C53.7549 38.5292 54.0106 38.6483 54.2968 38.6483H54.9393C55.0824 38.3367 55.1573 37.9897 55.1573 37.6249V36.5737H54.2968C53.7297 36.5737 53.2656 37.0398 53.2656 37.6148V37.6123Z" fill="#D0C3EA"/>
<path d="M70.9932 37.6147C70.9932 37.8984 70.8753 38.1568 70.6896 38.3442C70.504 38.5317 70.2483 38.6507 69.9621 38.6507H69.3196C69.1765 38.3391 69.1016 37.9921 69.1016 37.6274V36.5762H69.9621C70.5291 36.5762 70.9932 37.0423 70.9932 37.6172V37.6147Z" fill="#D0C3EA"/>
<path d="M64.9727 36.5305C64.9727 36.8673 65.1481 37.1434 65.3662 37.1434C65.5847 37.1434 65.7602 36.8699 65.7602 36.5305C65.7602 36.1911 65.5847 35.9175 65.3662 35.9175C65.1481 35.9175 64.9727 36.1911 64.9727 36.5305Z" fill="#23242B"/>
<path d="M58.7227 36.5305C58.7227 36.8673 58.8981 37.1434 59.1167 37.1434C59.3347 37.1434 59.5107 36.8699 59.5107 36.5305C59.5107 36.1911 59.3347 35.9175 59.1167 35.9175C58.8981 35.9175 58.7227 36.1911 58.7227 36.5305Z" fill="#23242B"/>
<path d="M66.7453 35.0715C66.8004 35.0715 66.8657 35.0386 66.9106 34.9955C67.0088 34.9069 66.9861 34.7726 66.8981 34.6763C66.5292 34.2635 65.1466 33.6809 64.3112 34.266C64.2034 34.342 64.1483 34.4687 64.2083 34.5852C64.2687 34.7017 64.3963 34.7068 64.5244 34.6891C65.5005 34.5624 66.5369 34.9879 66.5471 34.993C66.6274 35.0335 66.6776 35.069 66.7429 35.069L66.7453 35.0715Z" fill="#30323D"/>
<path d="M57.7989 35.0715C57.7438 35.0715 57.6785 35.0386 57.6331 34.9955C57.5379 34.9069 57.5582 34.7726 57.6457 34.6763C58.0145 34.2635 59.3971 33.6809 60.233 34.266C60.3408 34.342 60.3959 34.4687 60.3355 34.5852C60.2755 34.7017 60.1474 34.7068 60.0193 34.6891C59.0433 34.5624 58.0073 34.9879 57.9971 34.993C57.9169 35.0335 57.8666 35.069 57.8013 35.069L57.7989 35.0715Z" fill="#30323D"/>
<path d="M67.5708 35.6898L67.2295 35.7607V35.6569C67.2295 35.4314 67.0516 35.2744 66.8283 35.2744H63.5936C63.3703 35.2744 63.1319 35.4314 63.1319 35.6569V35.6999C62.8863 35.6594 62.0655 35.5657 61.2451 35.6797V35.6569C61.2451 35.4314 61.1223 35.2744 60.899 35.2744H57.6643C57.441 35.2744 57.2302 35.4314 57.2302 35.6569V35.7481L56.711 35.6468C56.6506 35.781 56.5703 35.9051 56.4727 36.0166L57.2302 36.1609V37.4249C57.2302 37.6503 57.441 37.7567 57.6643 37.7567H60.899C61.1223 37.7567 61.2451 37.6503 61.2451 37.4249V36.0926C62.0655 35.9609 62.9666 36.0875 63.1319 36.1153V37.4249C63.1319 37.6503 63.3703 37.7567 63.5936 37.7567H66.8283C67.0516 37.7567 67.2295 37.6503 67.2295 37.4249V36.1812L67.8241 36.0546C67.7216 35.9457 67.6361 35.824 67.5708 35.6898ZM60.999 37.3717C60.999 37.4477 60.9391 37.5085 60.8661 37.5085H57.6116C57.5362 37.5085 57.4763 37.4477 57.4763 37.3717V35.6594C57.4763 35.5834 57.5362 35.5226 57.6116 35.5226H60.8661C60.9391 35.5226 60.999 35.5834 60.999 35.6594V37.3717ZM66.9008 37.3717C66.9008 37.4477 66.8408 37.5085 66.7654 37.5085H63.5109C63.4379 37.5085 63.378 37.4477 63.378 37.3717V35.6594C63.378 35.5834 63.4379 35.5226 63.5109 35.5226H66.7654C66.8408 35.5226 66.9008 35.5834 66.9008 35.6594V37.3717Z" fill="#30323D"/>
<path d="M47.2853 58.8388C47.135 58.3094 46.5955 57.8813 46.0782 57.8813H29.3969C28.8801 57.8813 28.5813 58.3094 28.7293 58.8388L34.3854 78.8088C34.5358 79.3383 35.0753 79.7664 35.5921 79.7664H52.2739C52.7906 79.7664 53.0894 79.3383 52.941 78.8088L47.2853 58.8388Z" fill="white"/>
<path d="M46.6017 58.8388C46.4514 58.3094 45.9119 57.8813 45.3946 57.8813H28.7133C28.1965 57.8813 27.8977 58.3094 28.0457 58.8388L33.7018 78.8088C33.8522 79.3383 34.3917 79.7664 34.9085 79.7664H51.5903C52.1071 79.7664 52.4058 79.3383 52.2574 78.8088L46.6017 58.8388Z" fill="#192636"/>
<path d="M64.5697 79.7656H35.4724C35.1611 79.7656 34.9102 80.0218 34.9102 80.333C34.9102 80.6447 35.1635 80.9034 35.4724 80.9034H64.5697C64.881 80.9034 65.1319 80.6472 65.1319 80.333C65.1319 80.0194 64.8781 79.7656 64.5697 79.7656Z" fill="#D1CBCF"/>
<path d="M66.3003 79.7656H52.4162C52.128 79.7656 51.8945 80.0018 51.8945 80.2926V80.3764C51.8945 80.6671 52.128 80.9034 52.4162 80.9034H66.3003C66.5885 80.9034 66.822 80.6671 66.822 80.3764V80.2926C66.822 80.0018 66.5885 79.7656 66.3003 79.7656Z" fill="white"/>
<path d="M83.2756 55.4044C80.1768 58.872 79.5043 82.7656 79.5043 87.0336C79.5043 91.3021 78.5433 106.148 78.7366 106.73C78.9295 107.313 85.657 107.505 85.657 107.505L83.278 55.4019L83.2756 55.4044Z" fill="#212D51"/>
<path d="M84.3083 88.7812C84.3083 88.7812 84.1154 115.172 84.6926 133.22C85.1388 147.197 84.8855 171.448 84.8855 171.448C84.8855 171.448 87.7687 172.613 90.0747 172.223C92.3807 171.835 95.8411 171.448 95.8411 171.448C95.8411 171.448 98.9176 140.981 99.6853 135.353C100.453 129.724 105.452 91.4965 104.491 91.4965C103.53 91.4965 84.3059 88.7783 84.3059 88.7783L84.3083 88.7812Z" fill="#3A384D"/>
<path d="M104.492 91.499C103.531 91.499 84.7567 88.3936 84.7567 88.3936C84.7567 88.3936 84.2447 98.9688 84.3399 113.427C89.5866 134.59 93.3279 158.578 94.0381 171.666C95.0823 171.536 95.8422 171.45 95.8422 171.45C95.8422 171.45 98.9188 140.983 99.6865 135.355C100.455 129.727 105.453 91.499 104.492 91.499Z" fill="#2E2D3D"/>
<path d="M111.643 88.4497C114.396 102.84 114.164 171.081 114.164 171.081C114.164 171.081 110.308 173.452 107.327 173.3C105.206 173.191 103.039 171.919 103.039 171.919C103.039 171.919 97.3754 126.315 95.636 116.482C93.8971 106.649 92.9336 92.1225 92.9336 92.1225L111.643 88.4497Z" fill="#3A384D"/>
<path d="M100.939 50.7485C106.994 52.0099 112.763 54.629 113.147 55.0166C113.53 55.4042 112.569 82.3782 112.569 89.3639C112.569 97.3481 92.0012 97.4494 87.0026 94.1511C81.3169 90.3974 84.5032 68.2134 84.5032 63.7506C84.5032 59.2872 85.369 56.2806 85.369 56.2806C85.369 56.2806 94.5958 52.0125 95.8455 51.5262C97.0947 51.0398 100.939 50.7511 100.939 50.7511V50.7485Z" fill="#DBE5EB"/>
<path d="M90.8455 54.6291C90.7803 61.0325 92.5342 70.4527 92.7048 69.9588C94.3059 65.3007 98.6641 56.6986 99.1137 54.4341C96.1652 55.6626 90.8479 54.6291 90.8479 54.6291H90.8455Z" fill="#F2F2F2"/>
<path d="M98.8511 54.0564C98.1709 54.4996 96.55 55.2747 94.8836 55.2747C93.8776 55.2747 93.1848 54.2716 93.1297 52.7468L92.362 44.5399C92.2416 43.2658 93.1775 42.1234 94.4422 42.0018L97.6967 41.6928C98.9589 41.5712 100.279 37.5691 100.397 38.8457L100.934 51.5208C101.054 52.7949 100.206 53.1723 98.8535 54.0589L98.8511 54.0564Z" fill="#F09959"/>
<g style="mix-blend-mode:multiply">
<path d="M100.603 43.8131L100.392 38.8434C100.272 37.5693 98.9546 41.5714 97.6924 41.6905L94.4379 41.9995C93.1757 42.1211 92.2397 43.2609 92.3577 44.5375L93.005 51.4678C96.1367 51.3614 99.133 47.8304 100.601 43.8105L100.603 43.8131Z" fill="#F0CEB4"/>
</g>
<path d="M94.4946 59.4138C95.5833 58.6387 95.7767 56.1792 95.7767 56.1792L95.0312 55.0317C94.5724 55.0266 94.1258 55.0064 93.7013 54.9785L92.5072 55.9208C92.5725 57.9269 93.2222 58.8363 93.0192 59.3479C92.5522 60.5258 91.99 62.6104 91.6211 64.4594C92.0881 67.7675 92.6102 70.2144 92.6977 69.9587C93.2324 68.4006 94.0779 66.4047 94.9785 64.3508C94.7803 62.5648 94.557 60.4574 94.4917 59.4163L94.4946 59.4138Z" fill="#993341"/>
<g opacity="0.5">
<path d="M92.6658 72.8511C92.4976 72.8511 92.3347 72.7498 92.1838 72.5525C91.6646 71.8711 89.0701 60.0698 89.3084 54.3301L89.6922 54.3453C89.4438 60.2851 92.091 71.7898 92.4879 72.3144C92.5754 72.4283 92.6407 72.4663 92.6707 72.461C92.7915 72.4459 92.9544 72.0811 93.0173 71.9418C93.0395 71.8911 93.0598 71.8458 93.0772 71.8103C93.1101 71.7445 93.4335 70.9589 93.8855 69.8699C95.5891 65.749 99.5813 56.0956 100.344 54.8645L100.67 55.0697C99.925 56.2754 95.9406 65.9058 94.2418 70.0194C93.697 71.3339 93.4562 71.9194 93.4239 71.9851C93.4084 72.0177 93.3886 72.0587 93.3683 72.1015C93.243 72.3825 93.0521 72.8058 92.7161 72.8462C92.6987 72.8462 92.6832 72.8486 92.6658 72.8486V72.8511Z" fill="#BDCCD4"/>
</g>
<path d="M92.8029 49.2688L91.4202 51.5004L90.7227 53.8156C90.7227 53.8156 90.7831 57.8633 91.4879 57.9924C92.1933 58.1216 94.243 55.4063 94.243 55.4063C94.243 55.4063 95.6861 59.7351 96.2932 59.3527C99.0735 57.6049 101.385 54.3601 101.932 53.2735C102.569 52.007 102.998 51.2243 102.998 51.2243C102.998 51.2243 101.018 47.5869 100.762 47.5869C100.602 48.4608 96.2357 53.6965 95.3298 53.6965C94.7202 53.6965 93.6962 53.7978 93.5357 53.4052C93.0866 52.3059 92.8004 49.2739 92.8004 49.2739L92.8029 49.2688Z" fill="white"/>
<path d="M101.096 47.9673C101.716 48.0635 103.397 49.173 105.773 50.4901C105.947 50.5864 106.303 51.4274 106.478 51.5261C110.39 53.7096 115 55.6651 115 55.6651C115 55.6651 114.488 83.3506 114.488 89.0422C114.488 94.7339 115 108.06 115 108.06C115 108.06 112.039 109.372 107.439 110C102.697 110.646 99.4928 111.036 99.4928 111.036C99.4928 111.036 97.9545 92.1476 99.3647 75.5895C100.775 59.0314 101.096 47.9698 101.096 47.9698V47.9673Z" fill="#303C60"/>
<path d="M92.804 49.2695C87.5496 59.361 88.4754 65.0425 88.2192 74.2296C87.9634 83.4144 87.6748 109.838 87.6748 109.838C87.6748 109.838 83.9911 109.16 83.3491 108.772C82.709 108.384 82.4504 61.9396 82.9647 58.7075L83.4767 55.4729L88.282 52.8866L88.9873 51.7215L92.8011 49.2721L92.804 49.2695Z" fill="#303C60"/>
<path d="M98.918 98.807L114.727 100.088C114.603 96.1828 114.488 91.7473 114.488 89.0398C114.488 83.3482 115.449 55.5967 115.449 55.5967C115.449 55.5967 110.39 53.7046 106.478 51.5211C106.406 51.4806 106.303 51.3134 106.195 51.126L106.157 51.1969L107.184 58.1829L103.98 61.3516L106.544 62.8385C106.544 62.8385 100.968 77.7807 100.072 85.2199C99.1766 92.6595 98.918 98.8046 98.918 98.8046V98.807Z" fill="url(#paint0_linear_3011_12199)"/>
<path d="M88.9855 51.7183L88.2806 52.8834L83.2747 55.4063C83.2747 55.4063 83.2495 56.0699 82.8981 58.722C82.5993 60.9712 82.622 83.6084 82.8754 97.4537C84.8753 96.5521 86.7196 95.4728 86.8076 94.5411C87.0005 92.4717 86.0399 82.6387 85.8465 76.7517C85.6532 70.8653 84.9483 61.4221 84.9483 61.4221L87.5124 60.452L86.1675 57.8658C86.1675 57.8658 86.5514 57.2832 86.9357 56.1839C87.3195 55.0846 87.8963 53.5977 88.9855 51.7208V51.7183Z" fill="url(#paint1_linear_3011_12199)"/>
<path d="M114.49 56.6655C108.052 59.6722 105.743 73.9354 105.166 81.4076C104.669 87.8289 106.132 110.178 107.442 109.998C112.041 109.37 115.002 108.057 115.002 108.057C115.002 108.057 114.49 94.7313 114.49 89.0397C114.49 84.0572 114.884 62.2229 114.982 56.8581L114.49 56.6655Z" fill="#212D51"/>
<path d="M115.453 55.6319C117.631 61.0652 119.495 83.2514 119.651 90.2376C119.811 97.4488 120.068 107.346 120.068 107.346C120.068 107.346 111.865 108.121 110.713 108.121C110.135 107.685 109.591 99.549 108.63 87.3246C107.669 75.1007 110.055 62.1949 111.034 59.8671C112.379 56.6654 115.455 55.6294 115.455 55.6294L115.453 55.6319Z" fill="#303C60"/>
<path d="M99.5246 47.42C100.134 46.9059 100.814 46.2549 101.236 45.5684C101.628 44.9301 101.761 44.1728 101.906 43.4483C102.144 42.2553 102.155 41.0318 102.355 39.8312C102.448 39.2714 102.613 38.7294 102.777 38.1873C102.834 37.9923 102.895 37.7947 102.947 37.5971C103.221 36.6042 103.371 35.591 103.253 34.5626C103.15 33.6507 102.902 33.0301 102.255 32.3336C101.329 31.3407 100.031 30.7581 98.7067 30.4921C97.3816 30.2261 96.0169 30.254 94.6666 30.3224C93.8438 30.3654 93.0133 30.4237 92.22 30.6517C89.7864 31.3508 89.4775 34.5322 89.563 36.6776C89.6307 38.4127 89.6733 40.1377 89.711 41.8677C89.7458 43.5218 90.0445 45.2012 90.8577 46.6677C91.0283 46.9768 91.2241 47.2757 91.4624 47.5391C92.3931 48.5523 93.7206 49.064 95.0959 49.0083C96.2151 48.9626 97.2965 48.6055 98.2977 48.1267C98.7516 47.9089 99.1384 47.7468 99.5295 47.4175L99.5246 47.42Z" fill="#F09959"/>
<path d="M90.6708 47.1845C91.1228 48.0635 91.8528 48.8589 92.7535 49.2388C93.6246 49.6036 94.5755 49.7125 95.509 49.7758C96.3444 49.8316 97.1372 49.7708 97.8899 49.3858C99.0042 48.8158 100.138 48.1471 100.786 47.0706C101.142 46.4804 101.328 45.799 101.446 45.1202C101.506 44.7757 101.549 44.4262 101.594 44.0791C101.634 43.7701 101.732 43.4231 101.709 43.1141C101.664 42.4808 101.732 41.8349 101.797 41.2017C101.84 40.7863 101.85 40.3151 101.985 39.925C102.128 39.5121 102.284 39.1018 102.349 38.6687C102.414 38.2305 102.412 37.7694 101.99 37.501C101.845 37.8125 101.805 38.162 101.757 38.504C101.591 39.7072 101.315 40.8952 100.931 42.0477C100.796 42.4555 100.64 42.8684 100.364 43.1951C99.6569 44.0335 98.5097 43.6257 97.5917 43.494C96.6606 43.3598 95.7169 43.4054 94.781 43.3952C93.963 43.3876 93.1624 43.2661 92.3445 43.2889C91.8151 43.304 91.2906 43.3851 90.7815 43.5345C90.578 43.5928 90.39 43.6941 90.184 43.7422C89.996 43.7878 89.8355 43.8714 89.7852 44.0842C89.6397 44.72 90.0385 45.4672 90.2295 46.065C90.3073 46.3056 90.3851 46.5488 90.4804 46.7818C90.5355 46.9186 90.5983 47.0554 90.6684 47.1921L90.6708 47.1845Z" fill="#764544"/>
<path d="M104.135 37.2576C103.869 38.1897 103.53 39.1016 103.121 39.978C102.845 40.5707 102.411 40.9836 101.952 40.3199C101.543 39.7298 101.44 38.9242 101.405 38.2251C101.36 37.3285 101.43 36.4267 101.43 35.5275C101.43 34.76 101.626 32.4778 100.228 33.144C99.7561 33.3694 99.2896 33.4327 98.7926 33.5568C98.3812 33.6607 98.0776 33.8684 97.628 33.7873C97.2268 33.7139 96.8579 33.5138 96.4716 33.3821C96.0849 33.2504 95.6358 33.1921 95.2819 33.3973C94.8328 33.6556 94.6849 34.2255 94.3639 34.6308C93.9094 35.2083 93.0538 35.4211 92.3861 35.1222C92.0502 34.9728 91.7717 34.717 91.4377 34.565C91.1041 34.413 90.6574 34.4003 90.4215 34.684C90.3113 34.8157 90.2687 34.9905 90.1957 35.1476C89.8723 35.8467 88.5143 36.1836 88.2388 35.259C88.2388 35.2539 88.2359 35.2463 88.2335 35.2413C88.1532 34.95 88.2412 34.6333 88.3915 34.3674C88.4795 34.2103 88.5873 34.066 88.6526 33.8962C88.8808 33.296 88.4491 32.8324 88.4694 32.26C88.4897 31.7153 88.743 31.1708 89.1592 30.8238C89.9497 30.1702 91.2172 30.1652 91.7867 29.309C91.9399 29.0785 92.0226 28.81 92.1507 28.5669C92.3513 28.1895 92.6622 27.8728 93.0388 27.6727C93.8089 27.2598 94.7477 27.3561 95.5884 27.5891C96.125 27.7386 96.6471 27.9387 97.1489 28.1844C97.5279 28.3718 97.8992 28.5897 98.313 28.6631C98.8303 28.7568 99.0382 28.4832 99.4723 28.3414C99.8615 28.2148 100.409 28.4174 100.735 28.6201C101.196 28.9063 101.548 29.3445 101.856 29.7954C102.097 30.1474 102.323 30.5249 102.393 30.9453C103.289 31.2316 104.185 32.0877 104.519 32.9743C104.792 33.7012 104.714 34.5118 104.587 35.2793C104.473 35.9429 104.325 36.599 104.142 37.2474L104.135 37.2576Z" fill="#764544"/>
<path d="M102.396 39.008C102.432 38.9802 102.467 38.9548 102.504 38.9346C102.856 38.742 103.34 38.737 103.704 38.9219C103.937 39.0409 104.098 39.236 104.206 39.4386C104.447 39.8895 104.487 40.4417 104.334 40.9154C104.128 41.5486 103.681 42.1058 103.217 42.6353C103.014 42.8683 102.783 43.0988 102.495 43.2635C102.337 43.3546 101.93 43.5674 101.802 43.3293C101.759 43.2508 101.762 43.1545 101.762 43.0659C101.779 42.306 101.825 41.5486 101.9 40.7913C101.96 40.1935 101.9 39.426 102.396 39.0106V39.008Z" fill="#F09959"/>
<path d="M91.9308 36.8394C91.7654 36.8546 91.5996 36.8876 91.4391 36.9357C91.0451 37.0548 90.6811 37.27 90.3852 37.5588C90.2547 37.6855 89.8307 38.0021 90.1445 38.0933C90.4403 38.1769 90.8068 37.9843 91.0828 37.9008C91.6572 37.726 92.2697 37.7488 92.8691 37.7995C93.1103 37.8197 93.3487 37.8653 93.3762 37.5841C93.3936 37.3866 93.3612 37.1307 93.1882 37.0092C93.0025 36.8774 92.6888 36.8673 92.4703 36.8445C92.2924 36.8242 92.1116 36.8242 91.9332 36.8394H91.9308Z" fill="#764544"/>
<path d="M98.0632 36.8648C99.0243 37.1916 99.7847 37.6399 100.121 38.111C100.138 38.1364 100.163 38.1592 100.171 38.1896C100.178 38.22 100.171 38.2555 100.141 38.2706C100.121 38.2808 100.098 38.2757 100.078 38.2706C99.019 38.0832 98.0231 37.7843 96.9339 37.7539C96.6879 37.7463 96.2789 37.7539 96.1986 37.4702C96.1435 37.2752 96.2465 37.0928 96.4021 36.9813C96.7183 36.7509 97.2225 36.728 97.5962 36.7737C97.7543 36.7939 97.9124 36.8142 98.0632 36.8648Z" fill="#764544"/>
<path d="M92.4276 39.2207C92.3923 38.9218 92.2894 38.5596 91.9606 38.4786C91.8001 38.438 91.6372 38.4785 91.5265 38.6027C91.4965 38.6356 91.4738 38.6736 91.454 38.7141C91.4337 38.742 91.4163 38.7698 91.3989 38.7977C91.2906 38.9851 91.263 39.2131 91.3133 39.4233C91.3182 39.5981 91.3709 39.7628 91.5115 39.8894C91.672 40.0338 91.9505 40.0237 92.139 39.9274C92.3948 39.7982 92.4624 39.4892 92.4301 39.2207H92.4276Z" fill="#603333"/>
<path d="M98.1662 39.2411C98.1488 38.927 98.0656 38.5445 97.732 38.4407C97.5135 38.3722 97.2554 38.4584 97.1297 38.6585C97.0669 38.7598 97.0393 38.8763 97.0171 38.9928C96.9668 39.2816 96.9465 39.6438 97.1698 39.8693C97.2979 39.9984 97.5039 40.0668 97.6769 39.9959C98.0255 39.8515 98.186 39.6387 98.1638 39.2385L98.1662 39.2411Z" fill="#603333"/>
<path d="M94.666 37.8377C94.7516 37.8605 94.8367 37.9162 94.857 38.0074C95.0876 39.0054 94.8744 40.0363 94.493 40.9685C94.3876 41.2268 94.2672 41.4801 94.1415 41.7309C94.0289 41.9588 93.8655 42.1893 93.7876 42.4325C93.7098 42.6807 93.8959 42.8808 94.084 43.0125C94.287 43.1519 94.5254 43.2076 94.769 43.1873C94.8594 43.1797 94.9696 43.2253 95.0223 43.3013C95.0678 43.3672 95.045 43.4355 94.9595 43.4431C94.4451 43.4811 93.9157 43.2735 93.5822 42.8758C93.4289 42.6934 93.3535 42.4832 93.4367 42.2476C93.5421 41.9538 93.7301 41.6777 93.8684 41.3991C94.3924 40.32 94.7666 39.1117 94.4881 37.9086C94.4678 37.8199 94.6235 37.8301 94.6685 37.8427L94.666 37.8377Z" fill="#DB6357"/>
<path d="M96.7001 44.084C96.5851 44.0257 96.4546 43.9903 96.324 43.9903C96.1935 43.9903 96.0654 44.0207 95.9373 44.046C95.4809 44.1423 95.0139 44.1879 94.5474 44.1803C94.2013 44.1752 93.9001 44.1473 93.5714 44.0131C93.172 43.8484 92.4522 43.8915 92.4571 44.4589C92.4648 45.3986 93.5636 46.0015 94.384 46.0217C95.0942 46.0395 95.8599 46.0141 96.4744 45.6139C96.6803 45.4797 96.9636 45.2745 97.0593 45.0389C97.0995 44.9402 97.1144 44.8287 97.1169 44.7223C97.1217 44.4259 96.9564 44.2107 96.7001 44.0814V44.084Z" fill="#F09959"/>
<path d="M96.0954 44.4388C96.0224 44.4261 95.9475 44.421 95.9045 44.421C95.6763 44.421 95.4578 44.5148 95.2344 44.5654C94.8506 44.6566 94.4392 44.6313 94.0679 44.497C93.9499 44.454 93.8368 44.4008 93.714 44.378C93.3901 44.3223 93.0566 44.5502 93.232 44.9048C93.3626 45.1708 93.6236 45.3506 93.9021 45.4469C94.5446 45.6698 95.3224 45.6673 95.9272 45.343C96.0828 45.2595 96.2356 45.1531 96.3212 44.9985C96.4063 44.844 96.4063 44.6287 96.2811 44.5046C96.2482 44.4717 96.1732 44.4514 96.0978 44.4362L96.0954 44.4388Z" fill="white"/>
<path d="M103.414 31.6574C103.469 31.6347 103.542 31.6473 103.587 31.6828C104.681 32.4984 104.882 33.9498 104.687 35.2214C104.671 35.3201 104.418 35.3125 104.43 35.2214C104.621 33.9751 104.438 32.5541 103.366 31.7562C103.316 31.7182 103.379 31.6726 103.412 31.66L103.414 31.6574Z" fill="#603333"/>
<path d="M103.407 33.0227C103.743 33.7572 104.012 34.6514 103.558 35.4012C103.51 35.4822 103.259 35.4493 103.311 35.3632C103.753 34.6362 103.487 33.7724 103.161 33.0607C103.119 32.9644 103.367 32.9391 103.407 33.0227Z" fill="#603333"/>
<path d="M96.7956 32.3769C96.828 32.3313 96.9262 32.3389 96.9711 32.3516C97.5184 32.496 98.0956 32.653 98.6651 32.5416C99.2046 32.4352 99.5986 32.0654 99.8795 31.6069C99.9273 31.5284 100.178 31.5587 100.126 31.6449C99.8142 32.154 99.3777 32.5416 98.7854 32.6682C98.1328 32.8101 97.4729 32.6429 96.8435 32.4757C96.7932 32.463 96.7681 32.4225 96.7981 32.3795L96.7956 32.3769Z" fill="#603333"/>
<path d="M93.7372 28.4863C93.8828 28.3141 94.0331 28.1443 94.2216 28.0177C94.4145 27.8885 94.6456 27.8226 94.8762 27.7948C95.3103 27.7441 95.83 27.7593 96.2037 28.0126C96.3265 28.0962 96.0983 28.162 96.0229 28.1114C95.7068 27.8986 95.2702 27.8859 94.9038 27.9366C94.7056 27.9645 94.5199 28.0278 94.3594 28.1494C94.2062 28.2659 94.081 28.4154 93.9553 28.5597C93.8977 28.6256 93.6546 28.5825 93.7348 28.4888L93.7372 28.4863Z" fill="#603333"/>
<path d="M94.4327 29.2534C94.5807 29.0305 94.7837 28.8507 95.0249 28.7392C95.0776 28.7139 95.1526 28.7063 95.2053 28.7392C95.2231 28.7494 95.243 28.7645 95.243 28.7899C95.243 28.8127 95.2231 28.8304 95.2053 28.8406C95.1501 28.8659 95.0975 28.8963 95.0472 28.9267C95.0346 28.9343 95.022 28.9419 95.0095 28.952C95.0095 28.952 94.9843 28.9697 94.9998 28.9596C94.9945 28.9621 94.9896 28.9672 94.9843 28.9697C94.9597 28.9875 94.9345 29.0077 94.9118 29.028C94.819 29.1065 94.7412 29.1977 94.6783 29.2914C94.6459 29.3396 94.5753 29.3497 94.5226 29.3421C94.4927 29.337 94.3999 29.3041 94.4327 29.256V29.2534Z" fill="#603333"/>
<path d="M90.7969 31.1356C90.8496 31.1078 90.925 31.1052 90.9777 31.1356C91.0202 31.161 91.028 31.2091 90.9777 31.2344C90.4256 31.5156 90.1119 32.1666 90.2124 32.782C90.2274 32.8707 89.9741 32.8834 89.9567 32.782C89.8484 32.1235 90.2076 31.4345 90.7969 31.1356Z" fill="#603333"/>
<path d="M91.9558 47.7717C91.981 47.7565 92.0163 47.7515 92.0462 47.7515C92.0936 47.7515 92.1642 47.7641 92.1743 47.8224L92.2619 48.3619C92.2643 48.3822 92.2391 48.405 92.2241 48.4126C92.199 48.4278 92.1642 48.4328 92.1342 48.4328C92.0864 48.4328 92.0163 48.4202 92.0061 48.3619L91.9181 47.8224C91.9157 47.8022 91.9409 47.7793 91.9558 47.7717Z" fill="#603333"/>
<path d="M93.2757 48.3142C93.3009 48.299 93.3362 48.2939 93.3661 48.2939C93.414 48.2939 93.4841 48.3066 93.4943 48.3649C93.5218 48.5118 93.5494 48.6612 93.5745 48.8082C93.5769 48.8284 93.5518 48.8512 93.5368 48.8588C93.5117 48.874 93.4739 48.8816 93.4464 48.8791C93.399 48.8791 93.3284 48.8664 93.3188 48.8082C93.2912 48.6612 93.2661 48.5118 93.2385 48.3649C93.2356 48.3446 93.2607 48.3218 93.2757 48.3142Z" fill="#603333"/>
<path d="M91.8815 46.0315C91.9066 46.0163 91.9443 46.0112 91.9719 46.0112C92.0018 46.0112 92.0347 46.0163 92.0623 46.0315C92.0797 46.0416 92.1 46.0568 92.1 46.0821V46.4596C92.1 46.4824 92.0797 46.5001 92.0623 46.5102C92.0371 46.5254 91.9994 46.5305 91.9719 46.5305C91.9419 46.5305 91.9066 46.5254 91.8815 46.5102C91.8641 46.5001 91.8438 46.4849 91.8438 46.4596V46.0821C91.8438 46.0594 91.8641 46.0416 91.8815 46.0315Z" fill="#603333"/>
<path d="M90.5807 44.5857C90.6058 44.5705 90.6406 44.5654 90.6711 44.5654C90.7136 44.5654 90.7963 44.5781 90.7987 44.6364C90.8064 44.7782 90.8214 44.9226 90.8466 45.0619C90.849 45.0822 90.8238 45.105 90.8089 45.1126C90.7837 45.1278 90.7489 45.1328 90.7185 45.1328C90.6711 45.1328 90.6005 45.1202 90.5908 45.0619C90.5657 44.92 90.5478 44.7782 90.543 44.6364C90.543 44.6136 90.5633 44.5959 90.5807 44.5857Z" fill="#603333"/>
<path d="M95.6354 47.0652C95.6605 47.05 95.6958 47.0449 95.7258 47.0449C95.7707 47.0449 95.8486 47.0576 95.8539 47.1158C95.8664 47.2425 95.8761 47.3666 95.8887 47.4932C95.8887 47.5135 95.8664 47.5338 95.851 47.5439C95.8258 47.5591 95.791 47.5642 95.7611 47.5642C95.7156 47.5642 95.6378 47.5515 95.6329 47.4932C95.6228 47.3666 95.6102 47.2425 95.5977 47.1158C95.5977 47.0956 95.6204 47.0753 95.6354 47.0652Z" fill="#603333"/>
<path d="M93.3377 46.5406C93.3406 46.4849 93.4233 46.4697 93.4658 46.4697C93.4958 46.4697 93.5287 46.4748 93.5562 46.49C93.5736 46.5001 93.5939 46.5178 93.5939 46.5406C93.5886 46.6394 93.5838 46.7382 93.5765 46.837C93.5736 46.8927 93.491 46.9079 93.4484 46.9079C93.4184 46.9079 93.3832 46.9029 93.358 46.8877C93.3406 46.8775 93.3203 46.8598 93.3203 46.837C93.3251 46.7382 93.3305 46.6394 93.3353 46.5406H93.3377Z" fill="#603333"/>
<path d="M95.0306 48.5089C95.0306 48.4532 95.1162 48.438 95.1587 48.438C95.1887 48.438 95.2216 48.4431 95.2491 48.4582C95.2665 48.4684 95.2868 48.4861 95.2868 48.5089C95.2815 48.6406 95.2767 48.7723 95.2714 48.904C95.2714 48.9598 95.1863 48.975 95.1437 48.975C95.1133 48.975 95.0809 48.9699 95.0533 48.9547C95.0359 48.9446 95.0156 48.9269 95.0156 48.904C95.0205 48.7723 95.0258 48.6406 95.033 48.5089H95.0306Z" fill="#603333"/>
<path d="M100.785 44.3424C100.785 44.2867 100.87 44.2715 100.913 44.2715C100.95 44.2715 101.041 44.2867 101.041 44.3424C101.036 44.578 101.031 44.8136 101.026 45.0491C101.026 45.1049 100.94 45.1201 100.898 45.1201C100.86 45.1201 100.77 45.1049 100.77 45.0491C100.775 44.8136 100.78 44.578 100.785 44.3424Z" fill="#603333"/>
<path d="M99.1505 44.3069C99.1756 44.2917 99.2109 44.2866 99.2409 44.2866C99.2714 44.2866 99.3062 44.2917 99.3313 44.3069C99.3487 44.317 99.369 44.3322 99.369 44.3575V44.6868C99.369 44.7096 99.3487 44.7274 99.3313 44.7375C99.3062 44.7527 99.2714 44.7577 99.2409 44.7577C99.2109 44.7577 99.1785 44.7527 99.1505 44.7375C99.1331 44.7274 99.1133 44.7122 99.1133 44.6868V44.3575C99.1133 44.3347 99.1331 44.317 99.1505 44.3069Z" fill="#603333"/>
<path d="M97.4846 43.7164C97.4924 43.6607 97.5649 43.6455 97.6127 43.6455C97.6427 43.6455 97.678 43.6506 97.7031 43.6658C97.7205 43.6759 97.7433 43.6936 97.7409 43.7164C97.723 43.8355 97.7206 43.9571 97.7283 44.0786C97.7283 44.1014 97.7056 44.1192 97.6906 44.1293C97.6654 44.1445 97.6301 44.1496 97.6002 44.1496C97.5702 44.1496 97.5373 44.1445 97.5098 44.1293C97.4924 44.1192 97.475 44.104 97.4721 44.0786C97.4648 43.9571 97.4697 43.838 97.4846 43.7164Z" fill="#603333"/>
<path d="M97.701 46.4088C97.7034 46.3531 97.7861 46.3379 97.8291 46.3379C97.8591 46.3379 97.8915 46.343 97.919 46.3581C97.9369 46.3683 97.9567 46.386 97.9567 46.4088C97.9519 46.5354 97.9442 46.6596 97.9393 46.7862C97.9369 46.8419 97.8542 46.8571 97.8112 46.8571C97.7813 46.8571 97.7489 46.8521 97.7208 46.8369C97.7034 46.8267 97.6836 46.809 97.6836 46.7862C97.6884 46.6596 97.6962 46.5354 97.701 46.4088Z" fill="#603333"/>
<path d="M99.6317 46.131C99.6395 46.0753 99.712 46.0601 99.7599 46.0601C99.7922 46.0601 99.8952 46.0753 99.888 46.131C99.8551 46.3539 99.8203 46.5794 99.7874 46.8022C99.7797 46.8579 99.7072 46.8731 99.6593 46.8731C99.6269 46.8731 99.5239 46.8579 99.5317 46.8022C99.5641 46.5768 99.5993 46.3539 99.6317 46.131Z" fill="#603333"/>
<path d="M97.2414 48.291C97.2815 48.291 97.369 48.3062 97.369 48.3619V48.904C97.369 48.9597 97.2815 48.9749 97.2414 48.9749C97.2013 48.9749 97.1133 48.9597 97.1133 48.904V48.3619C97.1133 48.3062 97.2013 48.291 97.2414 48.291Z" fill="#603333"/>
<path d="M98.6321 47.934C98.6394 47.9138 98.6723 47.8986 98.6897 47.891C98.7196 47.8809 98.7573 47.8783 98.7873 47.8834C98.8303 47.891 98.8956 47.9138 98.8777 47.9695C98.8627 48.0126 98.8526 48.0556 98.84 48.1012C98.8178 48.1924 98.8028 48.2836 98.795 48.3773C98.7902 48.433 98.7124 48.4482 98.6669 48.4482C98.637 48.4482 98.6041 48.4432 98.5765 48.428C98.5591 48.4178 98.5364 48.4001 98.5393 48.3773C98.5514 48.2253 98.5843 48.0759 98.6292 47.9315L98.6321 47.934Z" fill="#603333"/>
<path d="M91.7652 43.6359C91.7677 43.5801 91.8503 43.5649 91.8929 43.5649C91.9233 43.5649 91.9557 43.57 91.9833 43.5852C92.0012 43.5953 92.021 43.6131 92.021 43.6359C92.0137 43.8005 92.0162 43.9651 92.0336 44.1272C92.0336 44.1475 92.0108 44.1678 91.9958 44.1779C91.9707 44.1931 91.9335 44.1982 91.9054 44.1982C91.8605 44.1982 91.7827 44.1855 91.7778 44.1272C91.7628 43.9626 91.7575 43.8005 91.7652 43.6359Z" fill="#603333"/>
</g>
<g style="mix-blend-mode:multiply">
<path d="M28.0955 17.9878C24.8361 14.7321 24.8361 9.45348 28.0955 6.19775C31.355 2.94202 36.6396 2.94202 39.899 6.19775C43.1585 9.45348 43.1585 14.7321 39.899 17.9878C36.6396 21.2435 31.355 21.2435 28.0955 17.9878Z" fill="#F3EDFF"/>
</g>
<path d="M101.948 16.9013C99.289 16.9013 97.1337 14.7484 97.1337 12.0927C97.1337 9.43703 99.289 7.28418 101.948 7.28418C104.606 7.28418 106.762 9.43703 106.762 12.0927C106.762 14.7484 104.606 16.9013 101.948 16.9013Z" fill="#F3EDFF"/>
<g style="mix-blend-mode:multiply">
<path d="M119.18 48.4999C117.089 48.4999 115.394 46.8071 115.394 44.7189C115.394 42.6308 117.089 40.938 119.18 40.938C121.27 40.938 122.965 42.6308 122.965 44.7189C122.965 46.8071 121.27 48.4999 119.18 48.4999Z" fill="#F3EDFF"/>
</g>
<defs>
<linearGradient id="paint0_linear_3011_12199" x1="103.412" y1="72.5527" x2="112.639" y2="83.7113" gradientUnits="userSpaceOnUse">
<stop stop-color="#222E52"/>
<stop offset="0.41" stop-color="#283458"/>
<stop offset="1" stop-color="#303C60"/>
</linearGradient>
<linearGradient id="paint1_linear_3011_12199" x1="88.3304" y1="64.3198" x2="80.2462" y2="90.0855" gradientUnits="userSpaceOnUse">
<stop stop-color="#222E52"/>
<stop offset="0.41" stop-color="#283458"/>
<stop offset="1" stop-color="#303C60"/>
</linearGradient>
</defs>
</svg>
