<svg width="141" height="95" viewBox="0 0 141 95" fill="none" xmlns="http://www.w3.org/2000/svg">
<path d="M38.9832 41.6862C38.9832 41.6862 27.2323 32.6637 13.3891 32.4968C3.28017 32.3754 -3.09801 38.8561 1.95824 48.5062C6.43977 57.0582 17.177 61.1418 23.4229 71.7811C30.3499 83.5801 35.8164 93.3624 44.7589 93.4017C54.3888 93.4436 55.6892 88.5681 64.4038 81.0598C73.1175 73.5515 75.0142 64.2094 67.4973 55.5056C59.9804 46.8019 39.9842 45.4359 39.9842 45.4359L38.984 41.6853L38.9832 41.6862Z" fill="#F3EDFF"/>
<path d="M43.7064 31.8102C43.7064 31.8102 38.568 17.3194 54.3865 14.55C75.1638 10.9119 74.9037 5.21239 86.5956 1.39931C96.6759 -1.88881 111.576 0.78329 112.909 14.6063C114.368 29.7327 110.429 35.3037 100.401 41.1443C92.0728 45.9948 80.8306 51.6568 79.6409 51.6568C78.4513 51.6568 63.1815 42.7486 63.3165 40.9265C63.4514 39.1043 43.7064 31.8102 43.7064 31.8102Z" fill="#F3EDFF"/>
<path d="M96.9705 54.8783C96.9705 54.8783 116.668 53.8936 126.073 58.045C136.468 62.633 147.369 78.5273 133.969 85.9213C125.154 90.7843 111.645 88.9318 106.119 83.834C100.593 78.7362 90.5977 75.4168 90.7684 73.7964C90.9391 72.176 96.9705 54.8783 96.9705 54.8783Z" fill="#F3EDFF"/>
<path d="M20.8174 24.3184H86.1062L99.793 76.0463H34.5042L20.8174 24.3184Z" fill="#BFB8B3"/>
<path d="M86.1062 24.3184L99.793 76.0463H35.533L21.8462 24.3184H86.1062Z" fill="#D6D2CF"/>
<path d="M95.9492 73.0903L83.8275 27.2734H24.6603L36.7821 73.0903H95.9492Z" fill="white"/>
<path d="M28.7744 55.2583L29.2061 55.144L21.1092 24.5411H42.4961V24.0947H20.5282L28.7744 55.2583Z" fill="#6E6966"/>
<path d="M46.8142 56.4487C30.8714 27.2743 59.2988 42.0651 64.0297 36.886C67.1169 33.5078 63.5578 28.9947 60.0434 27.2734H79.8348L84.7803 30.8731L90.043 50.7653L77.2982 63.208C77.2982 63.208 72.3457 67.921 66.9596 73.0903H42.6589C48.5294 68.7719 50.0185 62.3117 46.8151 56.4487H46.8142Z" fill="#F5F5F5"/>
<path d="M34.5061 76.0459H137.711V77.6574C137.711 79.8286 135.949 81.5883 133.776 81.5883H37.9821C36.0622 81.5883 34.5061 80.034 34.5061 78.1163V76.0459Z" fill="#D6D2CF"/>
<path d="M83.1487 77.3824V76.0459H137.711V77.3824C137.711 79.7054 135.826 81.5883 133.5 81.5883H87.3594C85.0337 81.5883 83.1487 79.7054 83.1487 77.3824Z" fill="#BFB8B3"/>
<path d="M111.685 81.8116H133.499C135.944 81.8116 137.934 79.8251 137.934 77.3825V75.8228H115.478V76.2691H137.487V77.3825C137.487 79.5787 135.698 81.3652 133.499 81.3652H111.686V81.8116H111.685Z" fill="#6E6966"/>
<path d="M57.9194 59.4606V59.4517H118.875C116.329 60.8328 114.601 63.5272 114.601 66.6243C114.601 69.7214 116.329 72.4158 118.875 73.7969H57.9194V73.788C53.959 73.788 50.7475 70.5811 50.7475 66.6243C50.7475 62.6675 53.9581 59.4606 57.9194 59.4606Z" fill="white"/>
<path d="M67.2486 50.0644V50.0581H107.164C105.497 50.9625 104.365 52.7266 104.365 54.755C104.365 56.7835 105.496 58.5476 107.164 59.452H67.2495V59.4457C64.6557 59.4457 62.5534 57.3459 62.5534 54.755C62.5534 52.1642 64.6557 50.0644 67.2495 50.0644H67.2486Z" fill="white"/>
<path d="M116.401 50.0403V50.0456H47.5251C48.9418 49.2769 49.9026 47.7788 49.9026 46.0558C49.9026 44.3327 48.9409 42.8337 47.5251 42.0659H116.401V42.0713C118.604 42.0713 120.391 43.8551 120.391 46.0567C120.391 48.2583 118.605 50.0421 116.401 50.0421V50.0403Z" fill="#D4E5FF"/>
<path d="M86.1064 10.9121L114.867 23.8986L86.1064 36.8859L57.3456 23.8986L86.1064 10.9121Z" fill="#242323"/>
<path d="M51.4358 80.0565H80.2734V77.5781H51.4358V80.0565ZM79.8265 79.6101H51.8827V78.0245H79.8265V79.6101Z" fill="#6E6966"/>
<path d="M46.5022 80.0565H50.5547V77.5781H46.5022V80.0565ZM50.1078 79.6101H46.9491V78.0245H50.1078V79.6101Z" fill="#6E6966"/>
<path d="M41.9022 77.5176H45.5078V80.1174H41.9022V77.5176Z" fill="#6E6966"/>
<path d="M39.328 79.9639C39.9608 79.9639 40.4766 79.4496 40.4766 78.8167C40.4766 78.1837 39.9617 77.6694 39.328 77.6694C38.6943 77.6694 38.1795 78.1837 38.1795 78.8167C38.1795 79.4496 38.6943 79.9639 39.328 79.9639ZM39.328 78.1167C39.715 78.1167 40.0297 78.431 40.0297 78.8176C40.0297 79.2041 39.715 79.5184 39.328 79.5184C38.941 79.5184 38.6264 79.2041 38.6264 78.8176C38.6264 78.431 38.941 78.1167 39.328 78.1167Z" fill="#6E6966"/>
<path d="M50.7486 66.6235C50.7486 62.7086 53.8939 59.5285 57.7971 59.4633C57.8365 59.4535 57.8776 59.4473 57.9196 59.4473H120.388C120.673 59.4473 120.902 59.6776 120.902 59.9606C120.902 60.2436 120.672 60.474 120.388 60.474H92.3632C90.6462 61.9694 89.5611 64.1692 89.5611 66.6235C89.5611 69.0777 90.6426 71.2695 92.3543 72.7649H120.388C120.673 72.7649 120.902 72.9953 120.902 73.2783C120.902 73.5613 120.672 73.7916 120.388 73.7916H93.829C93.829 73.7916 93.8335 73.7943 93.8353 73.7952H57.9196V73.7916C57.8946 73.7916 57.8713 73.7881 57.8472 73.7845C53.9198 73.7452 50.7477 70.5553 50.7477 66.6235H50.7486Z" fill="#DE3636"/>
<path d="M67.2478 50.0641V50.0579H85.3599C85.401 50.0472 85.4439 50.04 85.4877 50.04H108.529C108.813 50.04 109.043 50.2704 109.043 50.5534C109.043 50.8364 108.812 51.0667 108.529 51.0667H89.4472C88.5311 52.0256 87.9671 53.3237 87.9671 54.7539C87.9671 56.1842 88.5186 57.4546 89.4177 58.4108H108.529C108.813 58.4108 109.043 58.6411 109.043 58.9241C109.043 59.2072 108.812 59.4375 108.529 59.4375H90.7441C90.7513 59.442 90.7593 59.4464 90.7665 59.45H67.2487V59.4437C64.6549 59.4437 62.5527 57.3439 62.5527 54.753C62.5527 52.1622 64.6549 50.0624 67.2487 50.0624L67.2478 50.0641Z" fill="#FDAA29"/>
<path d="M46.8172 49.0188H60.5728C61.2611 48.2233 61.6794 47.1885 61.6794 46.0538C61.6794 44.9191 61.2628 43.8897 60.5773 43.0942H46.8172C46.533 43.0942 46.3033 42.8639 46.3033 42.5809C46.3033 42.2979 46.5339 42.0675 46.8172 42.0675H59.3072C59.3072 42.0675 59.3036 42.0649 59.301 42.064H116.401V42.0693C118.604 42.0693 120.391 43.8531 120.391 46.0547C120.391 48.2563 118.605 50.0401 116.401 50.0401V50.0455H66.3781C66.3718 50.0455 66.3665 50.0472 66.3602 50.0472H46.8172C46.533 50.0472 46.3033 49.8169 46.3033 49.5339C46.3033 49.2509 46.5339 49.0205 46.8172 49.0205V49.0188Z" fill="#8D67EB"/>
<path d="M110.912 23.2822H111.359V34.3626H110.912V23.2822Z" fill="#242323"/>
<path d="M110.892 33.4756C110.07 33.3415 109.512 32.5669 109.646 31.7455C109.78 30.924 110.556 30.3668 111.378 30.5009C112.201 30.635 112.758 31.4096 112.624 32.231C112.49 33.0524 111.714 33.6096 110.892 33.4756Z" fill="#242323"/>
<path d="M111.135 33.3828C111.973 33.3828 112.652 34.0613 112.652 34.8988V40.0698H109.618V34.8988C109.618 34.0613 110.297 33.3828 111.136 33.3828H111.135Z" fill="#242323"/>
<path d="M107.776 61.2769H116.414V61.7232H107.776V61.2769Z" fill="#E7E8E8"/>
<path d="M101.469 62.9849H115.098V63.4313H101.469V62.9849Z" fill="#E7E8E8"/>
<path d="M97.301 66.4004H113.957V66.8468H97.301V66.4004Z" fill="#E7E8E8"/>
<path d="M95.9678 51.7114H104.605V52.1578H95.9678V51.7114Z" fill="#E7E8E8"/>
<path d="M89.6564 53.4194H103.285V53.8658H89.6564V53.4194Z" fill="#E7E8E8"/>
<path d="M99.7952 56.835H104.102V57.2814H99.7952V56.835Z" fill="#E7E8E8"/>
<path d="M50.2607 47.8438H58.8984V48.2901H50.2607V47.8438Z" fill="#BFD9FF"/>
<path d="M51.5822 46.1353H53.5039V46.5816H51.5822V46.1353Z" fill="#BFD9FF"/>
<path d="M51.3499 43.8193H55.6562V44.2657H51.3499V43.8193Z" fill="#BFD9FF"/>
<path d="M103.801 68.1094H114.164V68.5558H103.801V68.1094Z" fill="#E7E8E8"/>
<path d="M96.5994 71.5249H115.477V71.9713H96.5994V71.5249Z" fill="#E7E8E8"/>
<path d="M86.408 8.39108L96.3203 12.8657L96.1363 13.2725L86.224 8.79786L86.408 8.39108Z" fill="#242323"/>
<path d="M100.07 14.5595L104.914 16.7461L104.73 17.1529L99.8863 14.9663L100.07 14.5595Z" fill="#242323"/>
<g style="mix-blend-mode:multiply">
<path d="M13.826 79.8262C10.5666 76.5704 10.5666 71.2919 13.826 68.0361C17.0854 64.7804 22.3701 64.7804 25.6295 68.0361C28.8889 71.2919 28.8889 76.5704 25.6295 79.8262C22.3701 83.0819 17.0854 83.0819 13.826 79.8262Z" fill="#F3EDFF"/>
</g>
<g style="mix-blend-mode:multiply">
<path d="M56.0063 17.8764C53.3476 17.8764 51.1923 15.7235 51.1923 13.0678C51.1923 10.4121 53.3476 8.25928 56.0063 8.25928C58.665 8.25928 60.8203 10.4121 60.8203 13.0678C60.8203 15.7235 58.665 17.8764 56.0063 17.8764Z" fill="#F3EDFF"/>
</g>
<g style="mix-blend-mode:multiply">
<path d="M131.043 64.9237C128.952 64.9237 127.258 63.2309 127.258 61.1428C127.258 59.0546 128.952 57.3618 131.043 57.3618C133.133 57.3618 134.828 59.0546 134.828 61.1428C134.828 63.2309 133.133 64.9237 131.043 64.9237Z" fill="#F3EDFF"/>
</g>
<g style="mix-blend-mode:multiply">
<path d="M23.5155 94.639C21.425 94.639 19.7303 92.9462 19.7303 90.8581C19.7303 88.7699 21.425 87.0771 23.5155 87.0771C25.6061 87.0771 27.3008 88.7699 27.3008 90.8581C27.3008 92.9462 25.6061 94.639 23.5155 94.639Z" fill="#F3EDFF"/>
</g>
<g style="mix-blend-mode:multiply">
<path d="M120.916 33.2582C120.214 32.5574 120.214 31.4212 120.916 30.7204C121.617 30.0196 122.755 30.0196 123.456 30.7204C124.158 31.4212 124.158 32.5574 123.456 33.2582C122.755 33.959 121.617 33.959 120.916 33.2582Z" fill="#F3EDFF"/>
</g>
<path d="M34.331 76.2691H109.234V75.8227H34.6751L30.6548 60.6284L30.2231 60.7418L34.331 76.2691Z" fill="#6E6966"/>
<path d="M63.3174 26.5955C71.1418 21.6905 86.3793 20.8888 95.4023 22.5378C102.039 23.7511 104.733 26.3491 105.801 27.9936L94.9044 32.9137L79.7107 33.9975L63.3183 26.5955H63.3174Z" fill="#1A1919"/>
<path d="M69.9324 28.0669C69.9056 27.9411 69.8913 27.8134 69.8913 27.6857C69.8913 24.727 77.1508 22.3281 86.1058 22.3281C95.0608 22.3281 102.32 24.727 102.32 27.6857C102.32 27.8143 102.306 27.9411 102.279 28.0669L102.277 28.0786C102.273 28.0946 102.269 28.1098 102.265 28.1259L99.9911 37.7233H72.2188L69.945 28.1259C69.9414 28.1098 69.9369 28.0946 69.9333 28.0786L69.9307 28.0669H69.9324Z" fill="#2F2E2E"/>
<path d="M80.4852 25.8941C84.737 20.8945 90.0167 29.1126 92.8286 32.9132C94.5375 35.2237 98.0332 35.5987 100.512 35.5371L99.9942 37.7226H72.2219L71.7652 35.7933C76.505 34.4104 76.9823 30.0125 80.486 25.8932L80.4852 25.8941Z" fill="#383737"/>
<path d="M67.2478 59.4521V59.4459C65.1653 59.4459 63.4 58.0915 62.7851 56.2158C63.1775 56.0988 63.5788 55.9702 63.9908 55.8256C69.5449 53.8731 76.5398 55.7229 80.9624 57.3621C83.2755 58.2192 86.4896 58.1799 89.0289 57.9469C89.1505 58.1085 89.2792 58.2647 89.4177 58.4111H108.529C108.813 58.4111 109.043 58.6415 109.043 58.9245C109.043 59.2075 108.812 59.4378 108.529 59.4378H90.7441C90.7513 59.4423 90.7593 59.4467 90.7665 59.4503H67.2487L67.2478 59.4521Z" fill="#FD8F29"/>
<path d="M60.82 72.4706C69.3737 72.3688 73.4619 67.0943 79.7302 69.2852C86.776 71.7484 89.0079 71.3189 91.2629 71.6055C91.5883 72.0269 91.9538 72.4153 92.3552 72.7652H120.388C120.673 72.7652 120.902 72.9956 120.902 73.2786C120.902 73.5616 120.672 73.7919 120.388 73.7919H93.829C93.829 73.7919 93.8335 73.7946 93.8353 73.7955H57.9196V73.7919C57.8946 73.7919 57.8713 73.7884 57.8472 73.7848C55.0916 73.7571 52.7096 72.1769 51.5325 69.8789C53.7169 71.2475 56.8292 72.5179 60.82 72.4697V72.4706Z" fill="#C43131"/>
<path d="M62.8906 72.9841V71.9565C59.698 71.9565 57.1006 69.5638 57.1006 66.6239C57.1006 63.6839 59.698 61.2913 62.8906 61.2913V60.2637C59.1304 60.2637 56.0718 63.117 56.0718 66.6239C56.0718 70.1307 59.1304 72.9841 62.8906 72.9841Z" fill="#B02B2B"/>
<path d="M46.3029 49.5328C46.3029 49.2489 46.5335 49.0195 46.8169 49.0195H60.5725C60.6824 48.8927 60.7843 48.7597 60.8791 48.6213C64.1003 48.8507 68.2878 48.6802 73.286 47.4651C85.6973 44.4466 88.166 47.4696 101.948 48.8391C113.265 49.964 118.776 47.2107 120.387 46.1885C120.315 48.3267 118.559 50.039 116.4 50.039V50.0444H66.3778C66.3715 50.0444 66.3661 50.0462 66.3599 50.0462H46.8169C46.5326 50.0462 46.3029 49.8158 46.3029 49.5328Z" fill="#7453C6"/>
<path d="M53.4501 46.0996H57.1406V53.6401L55.2949 51.9643L53.4501 53.6401V46.0996Z" fill="#DE3636"/>
<path d="M53.4501 53.6401V52.6669L56.5087 46.0996H57.1406V53.6401L55.2949 51.9643L53.4501 53.6401Z" fill="#C93131"/>
</svg>
