<svg width="24" height="24" viewBox="0 0 24 24" fill="none" xmlns="http://www.w3.org/2000/svg">
<path d="M0 4C0 1.79086 1.79086 0 4 0H20C22.2091 0 24 1.79086 24 4V20C24 22.2091 22.2091 24 20 24H4C1.79086 24 0 22.2091 0 20V4Z" fill="#7453C6" fill-opacity="0.1"/>
<path d="M11.5131 6.81885C9.44435 6.81885 7.7631 8.5001 7.7631 10.5688V12.3751C7.7631 12.7563 7.6006 13.3376 7.40685 13.6626L6.6881 14.8563C6.24435 15.5938 6.5506 16.4126 7.3631 16.6876C10.0569 17.5876 12.9631 17.5876 15.6569 16.6876C16.4131 16.4376 16.7444 15.5438 16.3319 14.8563L15.6131 13.6626C15.4256 13.3376 15.2631 12.7563 15.2631 12.3751V10.5688C15.2631 8.50635 13.5756 6.81885 11.5131 6.81885Z" stroke="#7453C6" stroke-width="1.5" stroke-miterlimit="10" stroke-linecap="round"/>
<path d="M12.668 6.9999C12.4742 6.94365 12.2742 6.8999 12.068 6.8749C11.468 6.7999 10.893 6.84365 10.3555 6.9999C10.5367 6.5374 10.9867 6.2124 11.5117 6.2124C12.0367 6.2124 12.4867 6.5374 12.668 6.9999Z" stroke="#7453C6" stroke-width="1.5" stroke-miterlimit="10" stroke-linecap="round" stroke-linejoin="round"/>
<path d="M13.3867 16.9126C13.3867 17.9438 12.543 18.7876 11.5117 18.7876C10.9992 18.7876 10.5242 18.5751 10.1867 18.2376C9.84922 17.9001 9.63672 17.4251 9.63672 16.9126" stroke="#7453C6" stroke-width="1.5" stroke-miterlimit="10"/>
</svg>
