<svg width="43" height="43" viewBox="0 0 43 43" fill="none" xmlns="http://www.w3.org/2000/svg">
<path d="M38.9434 0H4.0566C2.98084 0 1.94902 0.427395 1.18796 1.18796C0.427348 1.94893 0 2.98084 0 4.0566V38.9434C0 40.0192 0.427395 41.051 1.18796 41.812C1.94893 42.5727 2.98084 43 4.0566 43H38.9434C40.0192 43 41.051 42.5726 41.812 41.812C42.5727 41.0511 43 40.0192 43 38.9434V4.0566C43 2.98084 42.5726 1.94902 41.812 1.18796C41.0511 0.427348 40.0192 0 38.9434 0ZM6.24763 4.86792H11.9269C12.5068 4.86792 13.0424 5.17724 13.3322 5.67925C13.6219 6.18125 13.6219 6.79989 13.3322 7.30189C13.0424 7.80389 12.5067 8.11321 11.9269 8.11321H6.24763C5.66776 8.11321 5.13209 7.80389 4.84233 7.30189C4.55258 6.79988 4.55258 6.18124 4.84233 5.67925C5.13209 5.17725 5.66778 4.86792 6.24763 4.86792ZM14.3608 14.6038H6.24763C5.66776 14.6038 5.13209 14.2945 4.84233 13.7925C4.55258 13.2904 4.55258 12.6718 4.84233 12.1698C5.13209 11.6678 5.66778 11.3585 6.24763 11.3585H14.3608C14.9407 11.3585 15.4764 11.6678 15.7661 12.1698C16.0559 12.6718 16.0559 13.2905 15.7661 13.7925C15.4764 14.2945 14.9407 14.6038 14.3608 14.6038ZM31.3986 22.717C33.2338 22.7155 34.9572 23.6011 36.0242 25.0945C37.0913 26.5875 37.3708 28.5045 36.7751 30.2406C36.1789 31.9766 34.7808 33.3175 33.0213 33.84V34.8868C33.0213 35.4667 32.712 36.0023 32.21 36.2921C31.708 36.5819 31.0893 36.5819 30.5873 36.2921C30.0853 36.0023 29.776 35.4667 29.776 34.8868V33.84C28.6035 33.4905 27.5757 32.7719 26.8448 31.7911C26.1139 30.8103 25.719 29.6193 25.7194 28.3962C25.7194 27.8163 26.0287 27.2807 26.5307 26.9909C27.0327 26.7012 27.6514 26.7012 28.1534 26.9909C28.6554 27.2807 28.9647 27.8164 28.9647 28.3962C28.9647 29.0417 29.2211 29.6611 29.6775 30.1173C30.1339 30.5736 30.7532 30.8301 31.3986 30.8301C32.0439 30.8301 32.6634 30.5737 33.1197 30.1173C33.576 29.661 33.8325 29.0416 33.8325 28.3962C33.8325 27.7509 33.5761 27.1314 33.1197 26.6751C32.6633 26.2188 32.0439 25.9623 31.3986 25.9623C29.5633 25.9638 27.84 25.0782 26.773 23.5848C25.7059 22.0918 25.4263 20.1748 26.0221 18.4387C26.6183 16.7027 28.0164 15.3618 29.7759 14.8392V13.7925C29.7759 13.2126 30.0852 12.677 30.5872 12.3872C31.0892 12.0974 31.7079 12.0974 32.2099 12.3872C32.7118 12.677 33.0212 13.2126 33.0212 13.7925V14.8392C34.1936 15.1888 35.2215 15.9074 35.9524 16.8882C36.6833 17.869 37.0781 19.06 37.0778 20.2831C37.0778 20.8629 36.7685 21.3986 36.2665 21.6884C35.7644 21.9781 35.1458 21.9781 34.6438 21.6884C34.1418 21.3986 33.8325 20.8629 33.8325 20.2831C33.8325 19.6376 33.5761 19.0182 33.1197 18.562C32.6633 18.1057 32.0439 17.8491 31.3986 17.8491C30.7532 17.8491 30.1338 18.1056 29.6775 18.562C29.2212 19.0183 28.9647 19.6377 28.9647 20.2831C28.9647 20.9284 29.2211 21.5479 29.6775 22.0042C30.1338 22.4605 30.7532 22.717 31.3986 22.717Z" fill="#7453C6"/>
</svg>
