<svg width="24" height="20" viewBox="0 0 24 20" fill="none" xmlns="http://www.w3.org/2000/svg">
<path d="M1.65984 8.64296L1.66734 8.63968L21.6867 0.336245C21.8551 0.265768 22.0383 0.238127 22.22 0.255797C22.4017 0.273466 22.5762 0.335893 22.7278 0.437495C22.888 0.54248 23.0196 0.685652 23.1108 0.854128C23.2019 1.0226 23.2498 1.2111 23.25 1.40265V6.71312C23.2499 6.97499 23.1585 7.22862 22.9914 7.4303C22.8244 7.63199 22.5923 7.76908 22.335 7.81796L11.4164 9.83687C11.3735 9.84501 11.3348 9.86786 11.3069 9.90149C11.2791 9.93512 11.2638 9.97742 11.2638 10.0211C11.2638 10.0648 11.2791 10.1071 11.3069 10.1407C11.3348 10.1743 11.3735 10.1972 11.4164 10.2053L22.3345 12.2242C22.5917 12.273 22.8239 12.4099 22.991 12.6114C23.1581 12.8129 23.2497 13.0663 23.25 13.3281V18.6395C23.2501 18.8224 23.2048 19.0025 23.1182 19.1636C23.0316 19.3247 22.9063 19.4618 22.7536 19.5625C22.5699 19.6845 22.3544 19.7497 22.1339 19.75C21.9806 19.7499 21.8289 19.7191 21.6877 19.6595L1.66875 11.4034L1.65984 11.3992C1.39037 11.2834 1.16076 11.0911 0.999427 10.8462C0.838089 10.6013 0.752101 10.3144 0.752101 10.0211C0.752101 9.72779 0.838089 9.44092 0.999427 9.19598C1.16076 8.95104 1.39037 8.75877 1.65984 8.64296V8.64296Z" fill="#7453C6"/>
</svg>
