<svg width="26" height="27" viewBox="0 0 26 27" fill="none" xmlns="http://www.w3.org/2000/svg">
<path d="M16.7024 21.4926C16.7015 20.8508 16.8734 20.2207 17.1996 19.6679L8.99809 14.8912C8.68083 15.4361 8.22643 15.888 7.67977 16.2022C7.13311 16.5164 6.51359 16.6818 5.88308 16.6816C4.9263 16.6812 4.00832 16.3011 3.33178 15.6245C2.65523 14.948 2.2754 14.0303 2.27502 13.0736C2.2754 12.1169 2.65588 11.1996 3.33247 10.5233C4.00906 9.84697 4.92643 9.46689 5.88308 9.46689C6.51381 9.4666 7.13356 9.63179 7.68047 9.94596C8.22738 10.2601 8.68199 10.7123 8.99948 11.2573L17.194 6.47358C16.8715 5.92219 16.7015 5.29469 16.7024 4.65591C16.7026 4.18191 16.7964 3.7125 16.9779 3.27465C17.1595 2.83681 17.4252 2.43894 17.7605 2.1039C18.0958 1.76887 18.494 1.50322 18.932 1.32201C19.37 1.14079 19.8392 1.04766 20.3132 1.04785C20.787 1.04785 21.2561 1.14102 21.6938 1.32236C22.1314 1.50369 22.5289 1.76955 22.8638 2.1046C23.1988 2.43966 23.4646 2.83762 23.6457 3.27535C23.8269 3.71309 23.9201 4.18217 23.9199 4.65591C23.9201 5.12959 23.8269 5.59847 23.6457 6.03612C23.4646 6.47378 23.1988 6.87158 22.8638 7.20652C22.5289 7.54146 22.1314 7.80689 21.6938 7.98807C21.2561 8.16925 20.7869 8.26241 20.3132 8.26222C19.6823 8.26258 19.0625 8.09773 18.5151 7.78385C17.9678 7.46997 17.5124 7.01833 17.194 6.47358L8.99948 11.2573C9.321 11.8085 9.49047 12.4354 9.48974 13.0736C9.4908 13.7119 9.32081 14.339 8.99809 14.8898L17.1996 19.6665C17.5174 19.1228 17.9723 18.6718 18.5186 18.3587C19.065 18.0456 19.6835 17.8811 20.3132 17.8817C20.7871 17.8817 21.2567 17.9752 21.6945 18.1566C22.1322 18.338 22.5296 18.604 22.8645 18.9392C23.1995 19.2744 23.4654 19.6724 23.6464 20.1103C23.8275 20.5482 23.9203 21.0173 23.9199 21.4912C23.9199 22.4477 23.5402 23.3651 22.8638 24.0415C22.1875 24.7178 21.2697 25.0979 20.3132 25.0979C19.3564 25.0982 18.439 24.7185 17.7619 24.0425C17.0848 23.3665 16.7035 22.4494 16.7024 21.4926V21.4926Z" stroke="#7453C6" stroke-width="1.2" stroke-linecap="round"/>
</svg>
