<svg width="24" height="24" viewBox="0 0 24 24" fill="none" xmlns="http://www.w3.org/2000/svg">
<g clip-path="url(#clip0_1595_10955)">
<path d="M19.96 20.9991C19.8945 20.999 19.8297 20.9855 19.7695 20.9596C19.7093 20.9336 19.6551 20.8957 19.61 20.8481L16.662 17.9081C15.2066 18.6145 13.6118 18.9873 11.994 18.9991H11.939C9.81243 18.9992 7.73461 18.3619 5.97369 17.1696C4.21278 15.9773 2.84958 14.2847 2.06003 12.3101C2.0195 12.2114 1.9991 12.1057 2.00003 11.9991C2.00242 11.8898 2.02268 11.7817 2.06003 11.6791C2.76186 9.7674 4.05343 8.12842 5.74803 6.99908L3.14803 4.37908C3.10033 4.33411 3.06232 4.27987 3.03635 4.21968C3.01037 4.15949 2.99697 4.09463 2.99697 4.02908C2.99697 3.96352 3.01037 3.89866 3.03635 3.83847C3.06232 3.77829 3.10033 3.72404 3.14803 3.67908L3.67803 3.14908C3.72292 3.10125 3.77714 3.06312 3.83734 3.03706C3.89753 3.011 3.96243 2.99756 4.02803 2.99756C4.09363 2.99756 4.15853 3.011 4.21872 3.03706C4.27892 3.06312 4.33314 3.10125 4.37803 3.14908L20.838 19.6191C20.8857 19.664 20.9237 19.7183 20.9497 19.7785C20.9757 19.8387 20.9891 19.9035 20.9891 19.9691C20.9891 20.0346 20.9757 20.0995 20.9497 20.1597C20.9237 20.2199 20.8857 20.2741 20.838 20.3191L20.308 20.8491C20.2632 20.8963 20.2092 20.9339 20.1494 20.9597C20.0896 20.9855 20.0252 20.9989 19.96 20.9991ZM7.20003 8.44008C5.82406 9.28676 4.73346 10.5264 4.06903 11.9991C4.78617 13.4932 5.91002 14.7548 7.31161 15.6392C8.7132 16.5236 10.3357 16.9949 11.993 16.9991C13.0622 16.9735 14.1182 16.7568 15.111 16.3591L13.354 14.5991C12.7943 14.8661 12.1656 14.9532 11.5544 14.8482C10.9432 14.7433 10.3796 14.4515 9.94103 14.0131C9.50329 13.5739 9.2121 13.01 9.10737 12.3988C9.00264 11.7876 9.0895 11.159 9.35603 10.5991L7.20003 8.44008ZM19.6 15.8901L18.181 14.4701C18.9284 13.7784 19.5208 12.9363 19.919 11.9991C19.1971 10.5085 18.072 9.25 16.6712 8.36626C15.2705 7.48252 13.6502 7.00889 11.994 6.99908C11.596 6.99941 11.1986 7.0295 10.805 7.08908L9.11503 5.39908C11.66 4.67086 14.3845 4.91183 16.7621 6.07543C19.1397 7.23902 21.0017 9.24264 21.988 11.6991C22.0041 11.7984 22.0041 11.8997 21.988 11.9991C21.9913 12.1117 21.9708 12.2238 21.928 12.3281C21.4424 13.6811 20.6448 14.9007 19.6 15.8881V15.8901Z" fill="black" fill-opacity="0.33"/>
</g>
<defs>
<clipPath id="clip0_1595_10955">
<rect width="24" height="24" fill="white"/>
</clipPath>
</defs>
</svg>
