<svg width="24" height="24" viewBox="0 0 24 24" fill="none" xmlns="http://www.w3.org/2000/svg">
<path d="M22.1999 0H5.40003C4.9227 0.000440523 4.46527 0.200232 4.12772 0.555538C3.79016 0.910843 3.60037 1.39237 3.59995 1.89481V3.78965L1.80007 3.78943C1.32275 3.79009 0.865098 3.98988 0.527761 4.34497C0.19022 4.70027 0.000417854 5.1818 0 5.68424V22.1052C0.000418497 22.6076 0.19022 23.0891 0.527761 23.4445C0.865093 23.7998 1.32276 23.9996 1.80007 24H18.6C19.0773 23.9996 19.5347 23.7998 19.8723 23.4445C20.2098 23.0892 20.3996 22.6076 20.4 22.1052V20.2106H22.2001H22.1999C22.6773 20.2099 23.1349 20.0101 23.4722 19.655C23.8098 19.2997 23.9996 18.8182 24 18.3158V1.89482C23.9996 1.39237 23.8098 0.91086 23.4722 0.555543C23.1349 0.200237 22.6772 0.000439847 22.1999 0ZM19.1999 22.1051C19.1999 22.2727 19.1367 22.4333 19.0244 22.5518C18.9118 22.6701 18.7592 22.7366 18.6 22.7366H1.8001C1.46862 22.7366 1.19994 22.454 1.19994 22.1051V10.1052H9.59988C9.93136 10.1052 10.1998 9.82259 10.1998 9.47369C10.1998 9.12499 9.93134 8.84217 9.59988 8.84217H1.19994V5.6843C1.19994 5.33538 1.46863 5.05278 1.8001 5.05278H7.20006C7.53153 5.05278 7.80022 4.76995 7.80022 4.42126C7.80022 4.07234 7.53153 3.78952 7.20006 3.78952H4.80024V1.8949C4.80024 1.54599 5.06872 1.26339 5.40018 1.26339H22.2001C22.3593 1.26339 22.5119 1.32991 22.6245 1.4482C22.737 1.56671 22.8002 1.72728 22.8002 1.89492V5.05279H20.2895C20.1663 4.68427 19.9377 4.36511 19.6351 4.13909C19.3328 3.91287 18.9711 3.79084 18.6002 3.78952H10.8002C10.4687 3.78952 10.2 4.07235 10.2 4.42126C10.2 4.76996 10.4687 5.05278 10.8002 5.05278H18.6002C18.7594 5.05278 18.912 5.1193 19.0245 5.23781C19.1369 5.3561 19.2001 5.5169 19.2001 5.68431V8.84218H13.2001C12.8689 8.84218 12.6002 9.12501 12.6002 9.4737C12.6002 9.82262 12.8689 10.1052 13.2001 10.1052H19.2001L19.1999 22.1051ZM22.8001 18.3157C22.8001 18.4831 22.7369 18.6439 22.6243 18.7622C22.5117 18.8807 22.3592 18.9473 22.1999 18.9473H20.4V6.31576H22.8001L22.8001 18.3157ZM12.9328 15.8955L9.3329 13.3692C9.14875 13.2401 8.91207 13.228 8.71704 13.3379C8.52201 13.4478 8.40022 13.6617 8.40022 13.8948V18.9473C8.40022 19.1801 8.52201 19.3942 8.71704 19.5041C8.91207 19.6138 9.14875 19.6019 9.3329 19.4728L12.9328 16.9465C13.0998 16.8293 13.2 16.6321 13.2 16.4209C13.2 16.2099 13.0998 16.0127 12.9328 15.8955ZM9.60011 17.7672V15.0748L11.5201 16.4209L9.60011 17.7672ZM10.2001 6.94698C10.2001 6.59829 10.4687 6.31546 10.8002 6.31546H17.4002C17.7314 6.31546 18.0001 6.5983 18.0001 6.94698C18.0001 7.2959 17.7314 7.57873 17.4002 7.57873H10.8002C10.4687 7.57873 10.2001 7.29589 10.2001 6.94698ZM3.60009 6.94698C3.60009 7.2025 3.45403 7.43291 3.2297 7.53051C3.00558 7.62832 2.74756 7.57435 2.57597 7.39372C2.40438 7.2131 2.3529 6.9415 2.44581 6.70536C2.53872 6.46944 2.7574 6.31547 3.00016 6.31547C3.1592 6.31547 3.31196 6.38199 3.42434 6.5005C3.53692 6.61901 3.60009 6.77957 3.60009 6.94698ZM5.40019 6.94698C5.40019 7.2025 5.25391 7.43291 5.02979 7.53051C4.80547 7.62832 4.54745 7.57435 4.37585 7.39372C4.20426 7.2131 4.15299 6.9415 4.2459 6.70536C4.3386 6.46944 4.55749 6.31547 4.80025 6.31547C4.95929 6.31547 5.11184 6.38199 5.22443 6.5005C5.33701 6.61901 5.40019 6.77957 5.40019 6.94698ZM7.20008 6.94698C7.20008 7.2025 7.05401 7.43291 6.82968 7.53051C6.60556 7.62832 6.34754 7.57435 6.17595 7.39372C6.00436 7.2131 5.95288 6.9415 6.04579 6.70536C6.1387 6.46944 6.35759 6.31547 6.60014 6.31547C6.7594 6.31547 6.91194 6.38199 7.02453 6.5005C7.13691 6.61901 7.20008 6.77957 7.20008 6.94698ZM11.4002 8.84182C11.6427 8.84182 11.8616 8.9958 11.9545 9.23171C12.0474 9.46763 11.9959 9.73945 11.8243 9.92007C11.6527 10.1007 11.3947 10.1547 11.1706 10.0569C10.9463 9.95906 10.8002 9.72887 10.8002 9.47333C10.8002 9.12464 11.0687 8.84182 11.4002 8.84182ZM9.60005 4.42091C9.60005 4.67621 9.45399 4.90662 9.22966 5.00444C9.00554 5.10202 8.74752 5.04805 8.57593 4.86743C8.40434 4.6868 8.35286 4.4152 8.44577 4.17907C8.53868 3.94315 8.75736 3.78918 9.00012 3.78918C9.15917 3.78918 9.31192 3.8557 9.4243 3.97421C9.53688 4.09272 9.60005 4.25328 9.60005 4.42091Z" fill="#7453C6"/>
</svg>
