<svg width="24" height="24" viewBox="0 0 24 24" fill="none" xmlns="http://www.w3.org/2000/svg">
<path d="M5.48828 9.8292V7.65852C5.48828 4.06605 6.57362 1.14648 12.0003 1.14648C17.427 1.14648 18.5124 4.06605 18.5124 7.65852V9.8292" stroke="#7453C6" stroke-width="1.2" stroke-linecap="round" stroke-linejoin="round"/>
<path d="M17.4266 22.8532H6.57318C2.23182 22.8532 1.14648 21.7678 1.14648 17.4265V15.2558C1.14648 10.9144 2.23182 9.8291 6.57318 9.8291H17.4266C21.7679 9.8291 22.8533 10.9144 22.8533 15.2558V17.4265C22.8533 21.7678 21.7679 22.8532 17.4266 22.8532Z" stroke="#7453C6" stroke-width="1.2" stroke-linecap="round" stroke-linejoin="round"/>
<mask id="path-3-inside-1_1595_10951" fill="white">
<path fill-rule="evenodd" clip-rule="evenodd" d="M16.3375 16.3415H16.3472H16.3375Z"/>
</mask>
<path d="M16.3375 15.3415C15.7852 15.3415 15.3375 15.7892 15.3375 16.3415C15.3375 16.8938 15.7852 17.3415 16.3375 17.3415V15.3415ZM16.3472 17.3415C16.8995 17.3415 17.3472 16.8938 17.3472 16.3415C17.3472 15.7892 16.8995 15.3415 16.3472 15.3415V17.3415ZM16.3375 17.3415H16.3472V15.3415H16.3375V17.3415Z" fill="#7453C6" mask="url(#path-3-inside-1_1595_10951)"/>
<mask id="path-5-inside-2_1595_10951" fill="white">
<path fill-rule="evenodd" clip-rule="evenodd" d="M11.9947 16.3415H12.0045H11.9947Z"/>
</mask>
<path d="M11.9947 15.3415C11.4424 15.3415 10.9947 15.7892 10.9947 16.3415C10.9947 16.8938 11.4424 17.3415 11.9947 17.3415V15.3415ZM12.0045 17.3415C12.5567 17.3415 13.0045 16.8938 13.0045 16.3415C13.0045 15.7892 12.5567 15.3415 12.0045 15.3415V17.3415ZM11.9947 17.3415H12.0045V15.3415H11.9947V17.3415Z" fill="#7453C6" mask="url(#path-5-inside-2_1595_10951)"/>
<mask id="path-7-inside-3_1595_10951" fill="white">
<path fill-rule="evenodd" clip-rule="evenodd" d="M7.65292 16.3415H7.66267H7.65292Z"/>
</mask>
<path d="M7.65292 15.3415C7.10063 15.3415 6.65292 15.7892 6.65292 16.3415C6.65292 16.8938 7.10063 17.3415 7.65292 17.3415V15.3415ZM7.66267 17.3415C8.21495 17.3415 8.66267 16.8938 8.66267 16.3415C8.66267 15.7892 8.21495 15.3415 7.66267 15.3415V17.3415ZM7.65292 17.3415H7.66267V15.3415H7.65292V17.3415Z" fill="#7453C6" mask="url(#path-7-inside-3_1595_10951)"/>
</svg>
