<svg width="24" height="24" viewBox="0 0 24 24" fill="none" xmlns="http://www.w3.org/2000/svg">
<path fill-rule="evenodd" clip-rule="evenodd" d="M3.37637 8.16306L6.9166 5.19727C6.76999 4.93401 6.6872 4.6352 6.6872 4.31847C6.6872 3.26074 7.61028 2.40338 8.74877 2.40338C9.8874 2.40338 10.8103 3.26087 10.8103 4.31847C10.8103 4.45537 10.7948 4.58893 10.7654 4.71757L13.7059 6.09401C14.0837 5.6972 14.6359 5.44681 15.2507 5.44681C15.6676 5.44681 16.0558 5.56189 16.3803 5.75986L19.9205 2.79407C19.7739 2.53081 19.6911 2.232 19.6911 1.91509C19.6911 0.857356 20.6142 0 21.7527 0C22.8913 0 23.8142 0.857491 23.8142 1.91509C23.8142 2.97282 22.8912 3.83017 21.7527 3.83017C21.3357 3.83017 20.9476 3.71509 20.6231 3.51712L17.0831 6.48346C17.2297 6.74671 17.3125 7.04552 17.3125 7.36243C17.3125 8.42017 16.3894 9.27752 15.2509 9.27752C14.1123 9.27752 13.1893 8.42003 13.1893 7.36243C13.1893 7.22553 13.2049 7.09197 13.2342 6.96334L10.2937 5.58689C9.916 5.9837 9.36381 6.2341 8.74896 6.2341C8.33203 6.2341 7.94387 6.11901 7.6194 5.92105L4.07897 8.8863C4.22559 9.14955 4.30837 9.44836 4.30837 9.76528C4.30837 10.823 3.38529 11.6804 2.24681 11.6804C1.10818 11.6804 0.185246 10.8229 0.185246 9.76528C0.185246 8.70755 1.10832 7.85019 2.24681 7.85019C2.66412 7.85019 3.0519 7.96527 3.37637 8.16306ZM3.96833 14.8063H0.52509C0.236024 14.8063 0 15.0254 0 15.2941V23.5122C0 23.7807 0.235839 24 0.52509 24H3.96833C4.2574 24 4.49342 23.7809 4.49342 23.5122V15.2941C4.49342 15.0252 4.25739 14.8063 3.96833 14.8063ZM23.4749 6.95171H20.0317C19.7426 6.95171 19.5066 7.17079 19.5066 7.43949V23.5122C19.5066 23.7807 19.7424 24 20.0317 24H23.4749C23.764 24 24 23.7809 24 23.5122L23.9998 7.43949C23.9998 7.17097 23.764 6.95189 23.4749 6.95189L23.4749 6.95171ZM16.9729 12.5413H13.5296C13.2406 12.5413 13.0045 12.7604 13.0045 13.0291V23.5118C13.0045 23.7803 13.2404 23.9996 13.5296 23.9996H16.9729C17.2619 23.9996 17.498 23.7805 17.498 23.5118V13.0291C17.498 12.7605 17.2619 12.5413 16.9729 12.5413ZM10.4708 9.99872H7.0278C6.73873 9.99872 6.50271 10.2178 6.50271 10.4865V23.5122C6.50271 23.7807 6.73855 24 7.0278 24H10.471C10.7601 24 10.9961 23.7809 10.9961 23.5122V10.4865C10.9961 10.218 10.7601 9.9989 10.4708 9.9989V9.99872Z" fill="#7453C6"/>
</svg>
