<svg width="24" height="24" viewBox="0 0 24 24" fill="none" xmlns="http://www.w3.org/2000/svg">
<path d="M22.9612 0H1.03839C0.762665 0.000739952 0.498533 0.124805 0.303934 0.344808C0.109329 0.565063 2.94084e-06 0.863254 2.94084e-06 1.17404V17.4556C-0.000653037 17.7667 0.108456 18.0653 0.303278 18.2856C0.498101 18.5059 0.762452 18.6297 1.03841 18.6297H10.7412V21.9668H7.20993C6.95585 21.9668 6.7125 22.081 6.53364 22.2845C6.35478 22.4877 6.25529 22.7632 6.25726 23.0496V23.6021C6.25595 23.7086 6.2929 23.811 6.36002 23.886C6.42693 23.9609 6.51789 24.0021 6.61235 23.9999H17.3876C17.4821 24.0021 17.5731 23.9609 17.64 23.886C17.7071 23.811 17.7441 23.7086 17.7427 23.6021V23.0496C17.7427 22.7647 17.6424 22.4912 17.4637 22.2897C17.2851 22.0882 17.0428 21.975 16.7901 21.975H13.2588V18.6297H22.9616C23.2375 18.6297 23.5019 18.5059 23.6967 18.2857C23.8916 18.0654 24.0007 17.7667 24 17.4557V1.17409C24 0.863317 23.8907 0.565126 23.6961 0.344858C23.5015 0.124849 23.2373 0.000789334 22.9616 5.05816e-05L22.9612 0ZM1.03839 0.781878H22.9612C23.1523 0.783358 23.3065 0.958477 23.3065 1.17404V15.5911H0.693467V1.17404C0.693467 0.958471 0.847618 0.783355 1.03872 0.781878H1.03839ZM17.0496 23.0499V23.2294H6.95053V23.0499C6.95053 22.8881 7.06663 22.7571 7.21007 22.7571H16.7903C16.8592 22.7571 16.9252 22.788 16.974 22.843C17.0225 22.8977 17.0498 22.9722 17.0498 23.0499H17.0496ZM12.5657 21.9752H11.4344V18.63H12.5657V21.9752ZM22.9615 17.8565H1.03867C0.848005 17.8565 0.693412 17.6821 0.693412 17.4671V16.3621H23.307V17.4671H23.3068C23.3015 17.6777 23.1485 17.8457 22.9615 17.8454L22.9615 17.8565Z" fill="#7453C6"/>
<path d="M7.25748 2.35181H21.6057V3.61981V3.61956C21.5974 3.72908 21.6302 3.83735 21.6962 3.91801C21.762 3.9989 21.8547 4.04478 21.952 4.04478C22.0493 4.04478 22.1423 3.99891 22.2081 3.91801C22.2739 3.83736 22.3069 3.72908 22.2986 3.61956V1.96211C22.2986 1.74704 22.144 1.57265 21.9534 1.57265H7.25977C7.16291 1.56353 7.06692 1.60052 6.9952 1.67476C6.9237 1.74901 6.88281 1.85383 6.88281 1.96358C6.88281 2.07334 6.9237 2.17816 6.9952 2.25241C7.06692 2.32665 7.16291 2.36364 7.25977 2.35452L7.25748 2.35181Z" fill="#7453C6"/>
<path d="M6.43885 12.4466C7.97185 12.4466 9.54157 13.0957 10.585 13.6371L4.56311 13.6373V5.02426H5.19983C5.29669 5.03338 5.39268 4.99639 5.4644 4.92214C5.5359 4.8479 5.57679 4.74308 5.57679 4.63332C5.57679 4.52357 5.5359 4.41899 5.4644 4.3445C5.39269 4.27026 5.29669 4.23327 5.19983 4.24239H4.22026C4.02915 4.24412 3.875 4.41924 3.875 4.6348V14.0271C3.875 14.2421 4.02959 14.4165 4.22026 14.4165H19.6482C19.8389 14.4165 19.9935 14.2421 19.9935 14.0271V4.6348C19.9935 4.41923 19.8393 4.24412 19.6482 4.24239H18.6074C18.4273 4.25966 18.2888 4.42959 18.2888 4.63332C18.2888 4.8373 18.4273 5.00724 18.6074 5.02426H19.3006V13.6373H13.3621C14.3808 13.0849 15.9457 12.4468 17.5914 12.4468V12.4466C17.782 12.4466 17.9366 12.2722 17.9366 12.0571V3.6707C17.9366 3.45563 17.782 3.28125 17.5914 3.28125C14.1629 3.28125 12.5269 4.29227 11.939 4.77025C11.3831 4.28139 9.83046 3.28125 6.43868 3.28125C6.24802 3.28125 6.09342 3.45563 6.09342 3.6707V12.0571C6.09342 12.1605 6.12972 12.2596 6.19466 12.3326C6.25938 12.4056 6.34707 12.4466 6.43868 12.4466H6.43885ZM6.78651 4.06521C10.5113 4.14537 11.6452 5.51007 11.6673 5.53766C11.7283 5.61955 11.8175 5.66765 11.9122 5.67036C12.0097 5.67529 12.1048 5.63435 12.1744 5.55715C12.1866 5.54062 13.4649 4.14563 17.2413 4.06544L17.241 11.6758C14.7921 11.7947 12.6272 13.1373 11.9881 13.5708C11.3343 13.1454 9.10074 11.8029 6.78408 11.6758L6.78651 4.06521Z" fill="#7453C6"/>
<path d="M11.1883 6.36027C10.1536 5.65536 8.96829 5.28169 7.75977 5.28024C7.66269 5.27087 7.5667 5.30786 7.4952 5.38235C7.42348 5.45659 7.38281 5.56117 7.38281 5.67092C7.38281 5.78068 7.42348 5.8855 7.4952 5.95975C7.5667 6.03399 7.66269 6.07123 7.75977 6.06186C8.83227 6.07172 9.88315 6.4047 10.8037 7.02602C10.8603 7.0682 10.9268 7.0904 10.9948 7.08966C11.1483 7.09188 11.2847 6.97941 11.3295 6.81366C11.3744 6.64816 11.3166 6.46885 11.1883 6.37414L11.1883 6.36027Z" fill="#7453C6"/>
<path d="M11.1883 7.97666C10.1536 7.2715 8.96829 6.89809 7.75977 6.89638C7.66269 6.88726 7.5667 6.92425 7.4952 6.99849C7.42348 7.07298 7.38281 7.17756 7.38281 7.28732C7.38281 7.39707 7.42348 7.50189 7.4952 7.57613C7.5667 7.65038 7.66269 7.68737 7.75977 7.67825C8.82745 7.68737 9.87414 8.01418 10.7938 8.62587C10.9528 8.74549 11.1677 8.6974 11.274 8.51809C11.38 8.33878 11.3374 8.09632 11.1784 7.9767L11.1883 7.97666Z" fill="#7453C6"/>
<path d="M11.188 9.49507C10.1534 8.79016 8.96805 8.41649 7.75954 8.41504C7.56865 8.41504 7.41406 8.58942 7.41406 8.80449C7.41406 9.01957 7.56865 9.19395 7.75954 9.19395C8.82744 9.20332 9.87435 9.53111 10.7936 10.1443C10.9525 10.2639 11.1675 10.2158 11.2737 10.0365C11.3798 9.8572 11.3372 9.61474 11.1782 9.49512L11.188 9.49507Z" fill="#7453C6"/>
<path d="M11.188 11.0175C10.1534 10.3126 8.96805 9.9392 7.75954 9.9375C7.56865 9.9375 7.41406 10.1119 7.41406 10.327C7.41406 10.542 7.56865 10.7164 7.75954 10.7164C8.83074 10.7238 9.88112 11.0516 10.8034 11.6667C10.9624 11.7866 11.1773 11.7383 11.2834 11.559C11.3896 11.3797 11.3468 11.1374 11.188 11.0175Z" fill="#7453C6"/>
<path d="M12.912 7.0744C12.9797 7.07514 13.0462 7.05294 13.1028 7.01077C14.0216 6.39366 15.0703 6.06561 16.1395 6.06043C16.3197 6.04341 16.4581 5.87347 16.4581 5.66949C16.4581 5.46576 16.3197 5.29583 16.1395 5.27881C14.931 5.28054 13.7457 5.65396 12.711 6.35884C12.5824 6.45355 12.5249 6.63286 12.5698 6.79836C12.6146 6.9641 12.751 7.07657 12.9045 7.07436L12.912 7.0744Z" fill="#7453C6"/>
<path d="M16.1448 6.89506C14.9363 6.89703 13.751 7.27045 12.7163 7.97534C12.5574 8.09496 12.5147 8.33742 12.6208 8.51673C12.7271 8.69603 12.942 8.74414 13.101 8.62451C14.0215 8.01258 15.0691 7.68553 16.1376 7.67688C16.3176 7.65987 16.4562 7.48993 16.4562 7.28595C16.4562 7.08222 16.3176 6.91228 16.1376 6.89502L16.1448 6.89506Z" fill="#7453C6"/>
<path d="M16.1448 8.41069C14.9363 8.41242 13.751 8.78584 12.7163 9.49073C12.5574 9.61059 12.5147 9.85305 12.6208 10.0321C12.7271 10.2114 12.942 10.2598 13.101 10.1399C14.0211 9.52649 15.0686 9.19871 16.1376 9.18955C16.3283 9.18955 16.4829 9.01518 16.4829 8.8001C16.4829 8.58502 16.3283 8.41064 16.1376 8.41064L16.1448 8.41069Z" fill="#7453C6"/>
<path d="M12.9122 11.7243C12.9802 11.7241 13.0466 11.7011 13.103 11.658C14.0225 11.0423 15.0707 10.7143 16.1397 10.7076C16.3304 10.7076 16.485 10.5332 16.485 10.3182C16.485 10.1031 16.3304 9.92871 16.1397 9.92871C14.9312 9.93044 13.7459 10.3039 12.7112 11.0087C12.5813 11.1044 12.524 11.2857 12.5708 11.4525C12.6176 11.6192 12.7571 11.7305 12.9122 11.7243Z" fill="#7453C6"/>
<path d="M4.96094 6.16851V12.4639C4.96094 12.6792 5.11553 12.8536 5.30619 12.8536C5.49708 12.8536 5.65167 12.6792 5.65167 12.4639V6.16851C5.65167 5.95319 5.49708 5.77881 5.30619 5.77881C5.11553 5.77881 4.96094 5.95319 4.96094 6.16851Z" fill="#7453C6"/>
<path d="M18.9598 12.4584V6.16307C18.9447 5.95983 18.7941 5.80371 18.6135 5.80371C18.4326 5.80371 18.282 5.95984 18.2669 6.16307V12.4584C18.2586 12.568 18.2916 12.6762 18.3574 12.7569C18.4232 12.8378 18.5162 12.8837 18.6135 12.8837C18.7108 12.8837 18.8035 12.8378 18.8693 12.7569C18.9353 12.6762 18.9681 12.568 18.9598 12.4584Z" fill="#7453C6"/>
<path d="M3.39259 2.35012H5.52794C5.70812 2.33286 5.84652 2.16292 5.84652 1.95919C5.84652 1.75521 5.70811 1.58527 5.52794 1.56826H3.39259C3.29572 1.55913 3.19973 1.59613 3.12801 1.67037C3.05651 1.74461 3.01562 1.84943 3.01562 1.95919C3.01562 2.06895 3.05651 2.17352 3.12801 2.24801C3.19973 2.32225 3.29572 2.35925 3.39259 2.35012Z" fill="#7453C6"/>
</svg>
