<svg width="15" height="15" viewBox="0 0 15 15" fill="none" xmlns="http://www.w3.org/2000/svg">
<path d="M7.5131 1.81885C5.44435 1.81885 3.7631 3.5001 3.7631 5.56885V7.3751C3.7631 7.75635 3.6006 8.3376 3.40685 8.6626L2.6881 9.85635C2.24435 10.5938 2.5506 11.4126 3.3631 11.6876C6.05685 12.5876 8.9631 12.5876 11.6569 11.6876C12.4131 11.4376 12.7444 10.5438 12.3319 9.85635L11.6131 8.6626C11.4256 8.3376 11.2631 7.75635 11.2631 7.3751V5.56885C11.2631 3.50635 9.5756 1.81885 7.5131 1.81885Z" stroke="#7453C6" stroke-width="1.5" stroke-miterlimit="10" stroke-linecap="round"/>
<path d="M8.66797 1.9999C8.47422 1.94365 8.27422 1.8999 8.06797 1.8749C7.46797 1.7999 6.89297 1.84365 6.35547 1.9999C6.53672 1.5374 6.98672 1.2124 7.51172 1.2124C8.03672 1.2124 8.48672 1.5374 8.66797 1.9999Z" stroke="#7453C6" stroke-width="1.5" stroke-miterlimit="10" stroke-linecap="round" stroke-linejoin="round"/>
<path d="M9.38672 11.9126C9.38672 12.9438 8.54297 13.7876 7.51172 13.7876C6.99922 13.7876 6.52422 13.5751 6.18672 13.2376C5.84922 12.9001 5.63672 12.4251 5.63672 11.9126" stroke="#7453C6" stroke-width="1.5" stroke-miterlimit="10"/>
</svg>
