<svg width="54" height="54" viewBox="0 0 54 54" fill="none" xmlns="http://www.w3.org/2000/svg">
<path d="M25.6836 16.503C25.6836 15.7752 26.2737 15.1851 27.0011 15.1851C27.728 15.1851 28.3185 15.7752 28.3185 16.503V23.8205L30.7073 21.4316C31.2216 20.9176 32.0553 20.9176 32.5696 21.4316C33.0835 21.946 33.0835 22.7797 32.5696 23.2941L27.9607 27.9025C27.7205 28.1582 27.379 28.3176 27.0011 28.3176C26.2741 28.3176 25.6836 27.7275 25.6836 27.0001V16.5026V16.503ZM44.1408 28.3176C43.4139 28.3176 42.823 27.7275 42.823 27.0001C42.823 26.2731 43.4139 25.6826 44.1408 25.6826H45.1272C45.8541 25.6826 46.4446 26.2727 46.4446 27.0001C46.4446 27.7271 45.8546 28.3176 45.1272 28.3176H44.1408ZM8.87419 28.3176C8.14726 28.3176 7.55675 27.7275 7.55675 27.0001C7.55675 26.2731 8.14683 25.6826 8.87419 25.6826H9.86058C10.5875 25.6826 11.1784 26.2727 11.1784 27.0001C11.1784 27.7271 10.5875 28.3176 9.86058 28.3176H8.87419ZM25.6826 44.1404C25.6826 43.4134 26.2726 42.8225 27 42.8225C27.7269 42.8225 28.3174 43.4134 28.3174 44.1404V45.1277C28.3174 45.8547 27.7274 46.4453 27 46.4453C26.2731 46.4453 25.6826 45.8551 25.6826 45.1277V44.1404ZM25.6826 8.87236C25.6826 8.14538 26.2726 7.55483 27 7.55483C27.7269 7.55483 28.3174 8.14495 28.3174 8.87236V9.85965C28.3174 10.5866 27.7274 11.1776 27 11.1776C26.2731 11.1776 25.6826 10.5867 25.6826 9.85965V8.87236ZM27 2.15088C33.86 2.15088 40.0726 4.93241 44.5701 9.4295C49.0669 13.9273 51.8482 20.1396 51.8482 26.9998C51.8482 33.86 49.0669 40.0722 44.5701 44.5701C40.0726 49.0672 33.86 51.8487 27 51.8487C20.1401 51.8487 13.9274 49.0672 9.4299 44.5701C4.93313 40.0722 2.1518 33.86 2.1518 26.9998C2.1518 20.1396 4.93313 13.9273 9.4299 9.4295C13.9274 4.93241 20.1401 2.15088 27 2.15088ZM42.7081 11.2918C38.6897 7.27315 33.1346 4.78627 27 4.78627C20.8654 4.78627 15.3105 7.27315 11.2919 11.2918C7.27349 15.3105 4.78678 20.8652 4.78678 27C4.78678 33.1348 7.27349 38.6892 11.2919 42.7082C15.3103 46.7268 20.8654 49.2137 27 49.2137C33.1346 49.2137 38.6895 46.7268 42.7081 42.7082C46.7265 38.6895 49.2132 33.1348 49.2132 27C49.2132 20.8652 46.7265 15.3108 42.7081 11.2918ZM46.0925 7.90722C41.2078 3.02217 34.4566 0 27 0C19.5434 0 12.7929 3.0226 7.90751 7.90722C3.02238 12.7923 0 19.544 0 27C0 34.456 3.02238 41.2082 7.90751 46.0928C12.7922 50.9778 19.5434 54 27 54C34.4566 54 41.2071 50.9774 46.0925 46.0928C50.9776 41.2077 54 34.456 54 27C54 19.544 50.9776 12.7918 46.0925 7.90722Z" fill="#7453C6"/>
</svg>
