<svg width="51" height="51" viewBox="0 0 51 51" fill="none" xmlns="http://www.w3.org/2000/svg">
<path d="M44.8635 3.92486e-05H6.13612C2.70936 3.92486e-05 0 2.82446 0 6.21349V35.5875C0 38.9769 2.70936 41.801 6.13573 41.801H28.9263C29.1652 43.1728 29.7231 44.3832 30.6793 45.3515L30.9182 45.5934C30.5198 45.9161 30.2806 46.3195 30.2806 46.8845V49.3055C30.2806 50.1931 30.9976 51 31.9539 51H44.385C45.2615 51 46.0583 50.2739 46.0583 49.3055V46.8845C46.0583 46.481 45.8988 46.0776 45.6599 45.7546L46.1381 45.0285C46.8551 43.9793 47.2538 42.6882 47.2538 41.3971C49.4053 40.4287 50.9992 38.25 50.9992 35.6678L51 6.21345C51 2.82442 48.2906 0 44.8639 0L44.8635 3.92486e-05ZM49.4056 35.5875C49.4056 37.2013 48.5291 38.6539 47.2542 39.4611V34.1352C47.2542 32.1176 45.023 30.9881 43.4291 31.8757C43.0307 31.0688 42.0744 30.5039 41.0384 30.5039C40.3213 30.5846 39.6837 30.9073 39.2056 31.4723C38.4885 30.9073 37.5323 30.8265 36.7351 31.1496V29.7777H43.7474C44.9426 29.7777 45.8989 28.8093 45.8989 27.5991V21.7083C45.8989 20.4979 44.9426 19.5296 43.7474 19.5296L29.7236 19.5289C28.5284 19.5289 27.5722 20.4973 27.5722 21.7075V27.5983C27.5722 28.8087 28.5285 29.777 29.7236 29.777H31.6362V33.4083L29.9629 35.1029C29.2459 35.829 28.8471 36.7974 28.8471 37.7658V40.0253L6.13592 40.0257C3.66547 40.0257 1.59378 37.9278 1.59378 35.426V10.1685H49.4062L49.4056 35.5875ZM45.6602 41.7206C45.5805 42.5275 45.3416 43.3344 44.8635 44.0609L44.1464 45.11L32.831 45.1096L31.8747 44.222C31.237 43.5763 30.7589 42.7694 30.5997 41.801C30.4402 40.9941 30.4402 37.847 30.4402 37.9274C30.4402 37.3625 30.6791 36.7975 31.0779 36.3941L31.6358 35.8291L31.6354 38.412C31.6354 38.8155 31.9541 39.2189 32.4322 39.2189C32.8306 39.2189 33.229 38.8962 33.229 38.412V26.7112C33.229 26.1462 33.6274 25.662 34.1055 25.662C34.6634 25.5813 35.1416 26.0655 35.1416 26.6304V36.7174C35.1416 37.1208 35.4602 37.5243 35.9383 37.5243C36.4165 37.5243 36.7351 37.2016 36.7351 36.7174V33.651C36.7351 33.0861 37.1335 32.6826 37.6914 32.6826C38.2493 32.6826 38.6477 33.0861 38.6477 33.651V36.7174C38.6477 37.1208 38.9663 37.5243 39.4445 37.5243C39.9226 37.5243 40.2413 37.2016 40.2413 36.7174V33.2476C40.2413 32.6826 40.6397 32.1984 41.1178 32.1984C41.6757 32.1984 42.1538 32.6019 42.1538 33.1668V36.7982C42.1538 37.2016 42.4725 37.6051 42.9506 37.6051C43.349 37.6051 43.7474 37.2824 43.7474 36.7982V34.1353C43.8272 33.6511 44.2255 33.2476 44.7037 33.2476C45.1818 33.2476 45.66 33.6511 45.66 34.216C45.6604 42.124 45.6604 41.3168 45.6604 41.7206L45.6602 41.7206ZM43.748 5.72943C43.748 6.13287 43.4294 6.5363 42.9512 6.5363H25.4991C25.1007 6.5363 24.7023 6.21363 24.7023 5.72943C24.7023 5.32599 25.0209 4.92255 25.4991 4.92255H42.9503C43.4284 4.92255 43.7474 5.32599 43.7474 5.72943H43.748ZM15.7778 5.72943C15.7778 6.5363 15.1401 7.10127 14.4231 7.10127C13.6263 7.10127 13.0684 6.45554 13.0684 5.72943C13.0684 4.92255 13.706 4.35759 14.4231 4.35759C15.1401 4.35759 15.7778 5.00331 15.7778 5.72943ZM11.2356 5.72943C11.2356 6.5363 10.598 7.10127 9.88093 7.10127C9.1639 7.10127 8.52626 6.45554 8.52626 5.72943C8.52626 4.92255 9.1639 4.35759 9.88093 4.35759C10.598 4.35759 11.2356 5.00331 11.2356 5.72943ZM5.41814 4.35759C6.21492 4.35759 6.77282 5.00331 6.77282 5.72943C6.77282 6.5363 6.13517 7.10127 5.41814 7.10127C4.70111 7.10127 3.98411 6.5363 3.98411 5.72943C3.98411 5.00331 4.62138 4.35759 5.41814 4.35759Z" fill="#7453C6"/>
<path d="M5.25961 22.6763C5.658 22.7571 6.13615 22.5148 6.2159 22.1114C6.61429 20.7395 7.33167 19.4484 8.28759 18.3993C8.60623 18.0766 8.60623 17.5924 8.28759 17.2694C7.96895 16.9467 7.49081 16.9467 7.17182 17.2694C5.9766 18.4797 5.10013 20.013 4.70137 21.7075C4.54224 22.1114 4.78147 22.5152 5.25961 22.6763Z" fill="#7453C6"/>
<path d="M22.3891 22.111C22.4689 22.5144 22.947 22.7567 23.3454 22.6759C23.7438 22.5952 23.9831 22.111 23.9033 21.7075C23.4252 20.0938 22.6284 18.5604 21.4329 17.2694C21.1142 16.9467 20.6361 16.9467 20.3171 17.2694C19.9985 17.592 19.9985 18.0762 20.3171 18.3993C21.2734 19.448 21.9908 20.7391 22.3891 22.111Z" fill="#7453C6"/>
<path d="M7.41388 24.2903V30.1004H6.6171C6.2187 30.1004 5.82031 30.423 5.82031 30.9072C5.82031 31.3915 6.13895 31.7141 6.6171 31.7141H10.5217C10.9201 33.4894 12.4343 34.7805 14.3468 34.7805C16.1796 34.7805 17.7732 33.4894 18.1719 31.7141H22.0765C22.5546 31.7141 22.8733 31.3915 22.8733 30.9072C22.8733 30.5038 22.5546 30.1004 22.0765 30.1004H21.2797V24.2903C21.2797 21.1432 19.208 18.4803 16.4189 17.5926C16.8173 16.9469 17.0566 16.2208 17.0566 15.575C17.0566 14.1225 15.8614 12.9121 14.427 12.9121C12.9925 12.9121 11.7973 14.1225 11.7973 15.575C11.7973 16.2208 12.0362 16.9469 12.435 17.5926C9.40621 18.4799 7.41388 21.1431 7.41388 24.2903ZM19.606 24.2903V30.1004H9.00756V24.2903C9.00756 21.3047 11.3983 18.8837 14.3465 18.8837C17.2151 18.8833 19.6058 21.3043 19.6058 24.2903H19.606Z" fill="#7453C6"/>
</svg>
