<svg width="15" height="15" viewBox="0 0 15 15" fill="none" xmlns="http://www.w3.org/2000/svg">
<path d="M7.71484 0.0922852C3.84945 0.0922852 0.714844 3.22689 0.714844 7.09229C0.714844 10.9577 3.84945 14.0923 7.71484 14.0923C11.5802 14.0923 14.7148 10.9577 14.7148 7.09229C14.7148 3.22689 11.5802 0.0922852 7.71484 0.0922852ZM11.2266 5.44819V6.396C10.7797 6.39617 10.3454 6.30859 9.93587 6.1358C9.67252 6.02462 9.42716 5.88137 9.20275 5.70825L9.20948 8.62564C9.20666 9.28257 8.94676 9.89981 8.47637 10.3647C8.09355 10.7432 7.60848 10.9838 7.08271 11.0617C6.95917 11.08 6.83345 11.0894 6.7063 11.0894C6.14348 11.0894 5.60916 10.9071 5.17207 10.5707C5.08982 10.5074 5.01115 10.4387 4.93625 10.3647C4.42646 9.86087 4.16357 9.17798 4.20784 8.45958C4.24161 7.91273 4.46055 7.39121 4.82554 6.98245C5.30843 6.44153 5.98398 6.1413 6.7063 6.1413C6.83345 6.1413 6.95917 6.15084 7.08271 6.16913V6.51957V7.49443C6.96557 7.45579 6.84047 7.43455 6.71021 7.43455C6.05029 7.43455 5.51641 7.97295 5.52628 8.63335C5.53254 9.05589 5.76335 9.42525 6.10378 9.62885C6.26377 9.72456 6.44782 9.78384 6.64423 9.79461C6.79812 9.80306 6.94588 9.78162 7.08271 9.73645C7.5542 9.5807 7.89433 9.13784 7.89433 8.61552L7.89589 6.66189V3.09518H9.20117C9.20243 3.22451 9.21555 3.3507 9.23994 3.47298C9.33846 3.96793 9.61745 4.39734 10.0057 4.69008C10.3443 4.94545 10.7659 5.09682 11.2228 5.09682C11.2231 5.09682 11.2269 5.09682 11.2266 5.09652V5.44819H11.2266Z" fill="white"/>
</svg>
