<svg width="33" height="33" viewBox="0 0 33 33" fill="none" xmlns="http://www.w3.org/2000/svg">
<g clip-path="url(#clip0_2279_11758)">
<path d="M30.25 5.5134C28.875 6.18715 27.5275 6.46078 26.125 6.87465C24.5836 5.13528 22.2984 5.03903 20.1025 5.86128C17.9066 6.68353 16.4684 8.69378 16.5 10.9997V12.3747C12.0381 12.4888 8.06438 10.4565 5.5 6.87465C5.5 6.87465 -0.25025 17.095 11 21.9997C8.426 23.7143 5.85887 24.8707 2.75 24.7497C7.2985 27.2288 12.2554 28.0813 16.5468 26.8355C21.4693 25.4055 25.5145 21.7164 27.0669 16.1903C27.53 14.5096 27.7599 12.7732 27.7502 11.0299C27.7475 10.6875 29.8265 7.2184 30.25 5.51203V5.5134Z" stroke="#7A5CC8" stroke-width="1.75" stroke-linecap="round" stroke-linejoin="round"/>
</g>
<defs>
<clipPath id="clip0_2279_11758">
<rect width="33" height="33" fill="white"/>
</clipPath>
</defs>
</svg>
