<svg width="14" height="15" viewBox="0 0 14 15" fill="none" xmlns="http://www.w3.org/2000/svg">
<path d="M7 0.0922852C3.1346 0.0922852 0 3.22688 0 7.09229C0 10.9577 3.1346 14.0923 7 14.0923C10.8654 14.0923 14 10.9577 14 7.09229C14 3.22688 10.8654 0.0922852 7 0.0922852ZM10.1961 5.55014C10.1992 5.61903 10.2007 5.68825 10.2007 5.75778C10.2007 7.88087 8.58466 10.3291 5.62929 10.3292C4.72192 10.3292 3.87758 10.0632 3.16653 9.60748C3.29225 9.62233 3.42021 9.6297 3.54977 9.6297C4.30258 9.6297 4.99536 9.37292 5.54533 8.94194C4.84198 8.92891 4.24896 8.46439 4.04431 7.82597C4.14226 7.84477 4.24298 7.85503 4.34627 7.85503C4.49292 7.85503 4.63498 7.83527 4.76999 7.79842C4.03481 7.65123 3.48099 7.0015 3.48099 6.22348C3.48099 6.21622 3.48099 6.2097 3.4812 6.20297C3.69771 6.32335 3.9453 6.39577 4.20891 6.40388C3.7775 6.11603 3.49391 5.62395 3.49391 5.0665C3.49391 4.77213 3.57349 4.49634 3.71149 4.2589C4.50381 5.23109 5.68793 5.87047 7.02328 5.93765C6.99573 5.81995 6.98152 5.69733 6.98152 5.57129C6.98152 4.68433 7.70111 3.96474 8.58839 3.96474C9.05057 3.96474 9.46799 4.1601 9.76118 4.47241C10.1272 4.40021 10.4709 4.26648 10.7814 4.08244C10.6613 4.45746 10.4066 4.77213 10.0749 4.97112C10.3999 4.93224 10.7097 4.84604 10.9975 4.71808C10.7825 5.04033 10.5098 5.32338 10.1961 5.55014Z" fill="white"/>
</svg>
