<svg width="27" height="27" viewBox="0 0 27 27" fill="none" xmlns="http://www.w3.org/2000/svg">
<path d="M1.25 25.7089L3.51875 20.5141C1.78304 18.0644 1.00617 15.0692 1.33394 12.0905C1.66171 9.11175 3.07158 6.35435 5.29897 4.33573C7.52637 2.31711 10.4182 1.17604 13.4316 1.12667C16.4451 1.0773 19.3732 2.12302 21.6663 4.06758C23.9593 6.01214 25.4598 8.72187 25.8861 11.6882C26.3124 14.6546 25.6352 17.6737 23.9816 20.1789C22.3281 22.6841 19.8117 24.5032 16.9049 25.2949C13.9981 26.0865 10.9006 25.7963 8.19375 24.4786L1.25 25.7089Z" stroke="#7A5CC8" stroke-width="1.75" stroke-linecap="round" stroke-linejoin="round"/>
<path d="M9.5 11.3553C9.5 11.5366 9.57243 11.7104 9.70136 11.8386C9.83029 11.9668 10.0052 12.0388 10.1875 12.0388C10.3698 12.0388 10.5447 11.9668 10.6736 11.8386C10.8026 11.7104 10.875 11.5366 10.875 11.3553V9.98822C10.875 9.80693 10.8026 9.63307 10.6736 9.50489C10.5447 9.3767 10.3698 9.30469 10.1875 9.30469C10.0052 9.30469 9.83029 9.3767 9.70136 9.50489C9.57243 9.63307 9.5 9.80693 9.5 9.98822V11.3553ZM9.5 11.3553C9.5 13.1681 10.2243 14.9067 11.5136 16.1885C12.803 17.4704 14.5516 18.1905 16.375 18.1905M16.375 18.1905H17.75C17.9323 18.1905 18.1072 18.1185 18.2361 17.9903C18.3651 17.8622 18.4375 17.6883 18.4375 17.507C18.4375 17.3257 18.3651 17.1519 18.2361 17.0237C18.1072 16.8955 17.9323 16.8235 17.75 16.8235H16.375C16.1927 16.8235 16.0178 16.8955 15.8889 17.0237C15.7599 17.1519 15.6875 17.3257 15.6875 17.507C15.6875 17.6883 15.7599 17.8622 15.8889 17.9903C16.0178 18.1185 16.1927 18.1905 16.375 18.1905Z" stroke="#7A5CC8" stroke-width="1.75" stroke-linecap="round" stroke-linejoin="round"/>
</svg>
