<svg width="20" height="20" viewBox="0 0 20 20" fill="none" xmlns="http://www.w3.org/2000/svg">
<path d="M1 18.8792L2.65 15.1012C1.38766 13.3196 0.822667 11.1412 1.06104 8.97488C1.29942 6.80855 2.32479 4.80316 3.94471 3.33507C5.56463 1.86699 7.66775 1.03712 9.85938 1.00122C12.051 0.96531 14.1805 1.72583 15.8482 3.14006C17.5159 4.55429 18.6071 6.52499 18.9172 8.68235C19.2272 10.8397 18.7347 13.0354 17.5321 14.8574C16.3295 16.6793 14.4994 18.0023 12.3854 18.5781C10.2713 19.1538 8.01863 18.9427 6.05 17.9844L1 18.8792Z" stroke="white" stroke-width="1.75" stroke-linecap="round" stroke-linejoin="round"/>
<path d="M7 8.43958C7 8.57142 7.05268 8.69786 7.14645 8.79109C7.24021 8.88431 7.36739 8.93669 7.5 8.93669C7.63261 8.93669 7.75979 8.88431 7.85355 8.79109C7.94732 8.69786 8 8.57142 8 8.43958V7.44535C8 7.31351 7.94732 7.18707 7.85355 7.09384C7.75979 7.00062 7.63261 6.94824 7.5 6.94824C7.36739 6.94824 7.24021 7.00062 7.14645 7.09384C7.05268 7.18707 7 7.31351 7 7.44535V8.43958ZM7 8.43958C7 9.758 7.52678 11.0224 8.46447 11.9547C9.40215 12.8869 10.6739 13.4107 12 13.4107M12 13.4107H13C13.1326 13.4107 13.2598 13.3583 13.3536 13.2651C13.4473 13.1719 13.5 13.0454 13.5 12.9136C13.5 12.7817 13.4473 12.6553 13.3536 12.5621C13.2598 12.4688 13.1326 12.4165 13 12.4165H12C11.8674 12.4165 11.7402 12.4688 11.6464 12.5621C11.5527 12.6553 11.5 12.7817 11.5 12.9136C11.5 13.0454 11.5527 13.1719 11.6464 13.2651C11.7402 13.3583 11.8674 13.4107 12 13.4107Z" stroke="white" stroke-width="1.75" stroke-linecap="round" stroke-linejoin="round"/>
</svg>
