<svg width="33" height="40" viewBox="0 0 33 40" fill="none" xmlns="http://www.w3.org/2000/svg">
<mask id="mask0_3011_11503" style="mask-type:luminance" maskUnits="userSpaceOnUse" x="0" y="0" width="33" height="40">
<path d="M32.7135 0.520996H0.21875V39.1008H32.7135V0.520996Z" fill="white"/>
</mask>
<g mask="url(#mask0_3011_11503)">
<path d="M8.97522 36.856H8.4192C8.30443 36.856 8.20955 36.8375 8.13456 36.7994C8.05958 36.7618 8.00091 36.7101 7.95908 36.6443C7.91726 36.5785 7.88869 36.4974 7.87288 36.4011C7.85757 36.3048 7.84992 36.1976 7.84992 36.0801V35.0778H7.30717V36.3412C7.30717 36.4588 7.29493 36.5518 7.27095 36.6198C7.24698 36.6878 7.20923 36.7401 7.15873 36.7749C7.10823 36.8102 7.04447 36.8326 6.96795 36.8418C6.89092 36.8511 6.80012 36.856 6.69504 36.856C6.55017 36.856 6.43591 36.8375 6.35276 36.7994C6.26962 36.7618 6.20483 36.7101 6.15841 36.6443C6.1125 36.5785 6.08292 36.4974 6.06965 36.4011C6.05639 36.3048 6.04976 36.1976 6.04976 36.0801V35.0778H5.50701V37.3484C5.50701 37.5823 5.48303 37.7744 5.43457 37.9246C5.38611 38.0742 5.31011 38.1939 5.20707 38.2832C5.10351 38.3724 4.97293 38.4328 4.81428 38.466C4.65564 38.4986 4.4669 38.515 4.24705 38.515C4.02719 38.515 3.84865 38.4937 3.68593 38.4518C3.52321 38.4094 3.38803 38.3408 3.27989 38.2451C3.17225 38.1493 3.09064 38.0231 3.03555 37.8664C2.98045 37.7097 2.95291 37.5187 2.95291 37.294V36.3271H2.41016V37.4137C2.41016 37.9594 2.56268 38.3773 2.86772 38.6662C3.17276 38.9557 3.62778 39.1004 4.23327 39.1004C4.52046 39.1004 4.77705 39.0672 5.002 39.0014C5.22747 38.9356 5.41723 38.8322 5.5723 38.6907C5.72737 38.5492 5.84521 38.3697 5.92682 38.1509C6.00844 37.9322 6.04925 37.6672 6.04925 37.3571V37.0959C6.09771 37.19 6.1778 37.2711 6.29002 37.3391C6.40224 37.4071 6.56191 37.4414 6.76901 37.4414C7.03324 37.4414 7.25106 37.4131 7.42296 37.3565C7.59487 37.3 7.72036 37.1753 7.79942 36.9827C7.83462 37.1144 7.90399 37.2238 8.00754 37.3108C8.1111 37.3979 8.24831 37.4414 8.42022 37.4414H9.51644V34.7241H8.97369V36.8554L8.97522 36.856Z" fill="white"/>
<path d="M10.9272 36.9685C10.9272 37.2134 10.9216 37.4212 10.9108 37.5932C10.8996 37.7651 10.8644 37.906 10.8047 38.0165C10.7451 38.127 10.6548 38.2069 10.5334 38.2565C10.412 38.306 10.2431 38.3305 10.0273 38.3305V38.9165C10.3227 38.9165 10.5645 38.8833 10.7527 38.8174C10.9404 38.7516 11.0884 38.6455 11.1955 38.4997C11.3026 38.3538 11.375 38.1618 11.4133 37.9245C11.451 37.6868 11.4704 37.394 11.4704 37.0458V35.0767H10.9277V36.968L10.9272 36.9685Z" fill="white"/>
<path d="M12.9334 32.4023H12.3906V37.4414H12.9334V32.4023Z" fill="white"/>
<path d="M30.5896 32.4024V36.856H29.5572C29.3587 36.856 29.2144 36.7869 29.1236 36.6476C29.0333 36.5088 28.9879 36.3195 28.9879 36.0795V32.4024H28.4451V36.3407C28.4451 36.4582 28.4329 36.5513 28.4089 36.6193C28.3844 36.6873 28.3518 36.7395 28.3094 36.7743C28.2676 36.8097 28.2156 36.832 28.1539 36.8413C28.0921 36.8505 28.0218 36.8554 27.9422 36.8554H27.428C27.4208 36.8554 27.4142 36.8538 27.4061 36.8538C27.225 36.8538 27.0918 36.8146 27.0056 36.7368C26.9194 36.659 26.8546 36.5447 26.8103 36.3935C26.8103 36.3652 26.8113 36.3358 26.8138 36.3048C26.8159 36.2743 26.8169 36.2422 26.8169 36.209C26.8169 35.9968 26.7873 35.8047 26.7276 35.6323C26.6679 35.4598 26.5863 35.3112 26.4828 35.1866C26.3792 35.0615 26.2568 34.9646 26.1155 34.8966C25.9742 34.8281 25.8201 34.7938 25.6523 34.7938C25.5335 34.7938 25.4131 34.8101 25.2917 34.8433C25.1703 34.8765 25.0514 34.9434 24.9346 35.0452C24.8178 35.1464 24.703 35.2905 24.5903 35.4766C24.4775 35.6633 24.3709 35.907 24.2694 36.209C24.221 36.3505 24.1689 36.4626 24.1138 36.5453C24.0587 36.628 24.0026 36.6927 23.945 36.7401C23.8879 36.7874 23.8302 36.8179 23.7731 36.832C23.7159 36.8462 23.6603 36.8532 23.6078 36.8532H23.3364C23.3272 36.8532 23.3196 36.8543 23.3114 36.8549H16.4883C16.4265 36.8549 16.3679 36.8375 16.3128 36.8021C16.2577 36.7667 16.2001 36.7139 16.1409 36.6432C16.0812 36.5725 16.0185 36.4811 15.9521 36.3679C15.8858 36.2553 15.8088 36.1209 15.7206 35.9658L14.9268 34.5614L14.4172 34.9004L15.1186 36.0082C15.1849 36.1116 15.24 36.2085 15.2839 36.2977C15.3278 36.3869 15.3502 36.4767 15.3502 36.566C15.3502 36.6601 15.3007 36.7319 15.2013 36.7814C15.1018 36.8309 14.96 36.8554 14.7743 36.8554H13.5898V37.4414H14.5958C14.7019 37.4414 14.8075 37.4365 14.9136 37.4273C15.0197 37.418 15.1197 37.3957 15.2145 37.3604C15.3094 37.325 15.3951 37.27 15.4726 37.1944C15.5497 37.1193 15.6124 37.0181 15.6614 36.8908C15.7848 37.0981 15.9083 37.2412 16.0317 37.3212C16.1552 37.4012 16.3072 37.4414 16.4883 37.4414H23.6211C23.7006 37.4414 23.7756 37.4382 23.846 37.4311C23.9164 37.424 23.9848 37.4077 24.0511 37.3816C24.1174 37.356 24.1801 37.3157 24.2398 37.2613C24.2995 37.2075 24.3577 37.1329 24.4153 37.0388C24.6403 37.2178 24.8586 37.3446 25.0703 37.4197C25.282 37.4948 25.4916 37.5323 25.6987 37.5323C25.941 37.5323 26.143 37.4817 26.3042 37.3805C26.4654 37.2793 26.5878 37.1394 26.6715 36.9604V36.9746C26.7465 37.1438 26.846 37.264 26.9694 37.3348C27.0928 37.4055 27.2382 37.4409 27.4061 37.4409C27.4071 37.4409 27.4081 37.4409 27.4096 37.4409C27.4106 37.4409 27.4117 37.4409 27.4127 37.4409H27.8825C28.1559 37.4409 28.3798 37.4126 28.5543 37.356C28.7288 37.2994 28.8553 37.1748 28.9348 36.9822C28.97 37.1139 29.0394 37.2232 29.1435 37.3103C29.247 37.3974 29.3848 37.4409 29.5572 37.4409H31.1319V32.4019H30.5891L30.5896 32.4024ZM26.1068 36.764C25.9941 36.8766 25.8456 36.9332 25.66 36.9332C25.4921 36.9332 25.3279 36.8989 25.1672 36.8309C25.006 36.7629 24.8438 36.6721 24.6811 36.5594C24.8178 36.122 24.9632 35.8162 25.1177 35.642C25.2723 35.4679 25.4421 35.3809 25.6273 35.3809C25.7334 35.3809 25.8257 35.4032 25.9053 35.4478C25.9849 35.4924 26.0517 35.5528 26.1073 35.6279C26.1624 35.703 26.2042 35.79 26.2328 35.8891C26.2614 35.9881 26.2757 36.0893 26.2757 36.1927C26.2757 36.4609 26.2195 36.6514 26.1068 36.7645V36.764Z" fill="white"/>
<path d="M15.6903 13.3361C15.6807 13.5733 15.6551 13.7975 15.6266 14.0042C15.6235 14.0282 15.6205 14.0483 15.6138 14.0723H15.4297C15.2292 14.0723 15.0068 14.0451 14.8099 14.0451C14.562 14.0179 14.2886 13.9634 14.0152 13.94C10.8071 13.3872 8.09538 12.5564 5.91468 11.7222C5.41223 11.5323 4.93883 11.3392 4.49351 11.1526C4.49351 11.115 4.49657 11.078 4.49657 11.0405C4.49657 11.0236 4.49963 11.0029 4.49963 10.9828C4.50269 10.9452 4.50575 10.905 4.50932 10.8609V10.8408C4.51238 10.8272 4.51238 10.8136 4.51544 10.7967V10.7766C4.51544 10.7733 4.51851 10.7733 4.51851 10.7733C4.51851 10.7564 4.52157 10.7358 4.52157 10.7189C4.52463 10.7124 4.52463 10.702 4.52463 10.695C4.52463 10.671 4.52769 10.6438 4.53075 10.6171C4.53075 10.6106 4.53075 10.6003 4.53381 10.5899C4.53381 10.5731 4.53687 10.5524 4.53993 10.5355C4.54299 10.5116 4.54299 10.4882 4.54605 10.4643C4.54911 10.4403 4.55217 10.4131 4.55574 10.3864C4.55574 10.3832 4.5588 10.3832 4.5588 10.3832C4.56492 10.332 4.5685 10.2847 4.57462 10.2439C4.57768 10.227 4.57768 10.2102 4.58074 10.1965C4.58686 10.1285 4.59349 10.0883 4.59349 10.0883C4.86385 10.2036 5.13063 10.3119 5.40406 10.4136C5.5979 10.4882 5.78868 10.5627 5.98252 10.634C6.26206 10.7358 6.54211 10.8342 6.82828 10.9224C6.55486 10.763 6.27532 10.6171 5.99528 10.4746V10.4713C5.82337 10.3832 5.65504 10.2983 5.48007 10.2134C5.27652 10.1117 5.06687 10.0132 4.86028 9.91524H4.85722C4.61543 9.80315 4.37057 9.69488 4.12929 9.58605H4.12623C4.12011 9.58279 4.11348 9.57952 4.10736 9.57571C3.81507 9.45002 3.5289 9.32814 3.2361 9.20953C3.06113 9.13498 2.88617 9.0637 2.70508 8.99569C2.33627 8.85313 1.96747 8.71438 1.59254 8.58869C1.48746 8.55496 1.38595 8.52068 1.28086 8.49021C1.35381 8.53428 1.43033 8.57836 1.50684 8.61916C1.87871 8.82266 2.25415 9.01256 2.62907 9.19919C2.67039 9.21932 2.71477 9.24326 2.75609 9.26339H2.75915C2.81322 9.2906 2.87035 9.32107 2.92749 9.34828V9.65026C2.93055 9.90109 2.93718 10.1318 2.94636 10.3456C2.94636 10.3864 2.94942 10.4273 2.94942 10.4675C1.97971 10.0164 1.20741 9.61652 0.641194 9.33141C0.529991 9.277 0.444294 9.19592 0.383591 9.10397C0.370838 9.0871 0.361146 9.06643 0.348394 9.04629C0.291262 8.93421 0.265756 8.80525 0.275449 8.67684V6.49658C0.326459 6.53413 0.38053 6.56786 0.437662 6.59833L0.793714 6.77789C1.19772 6.98139 1.68385 7.22569 2.24649 7.4934C2.26894 7.507 2.29087 7.51734 2.31638 7.52713C2.40871 7.5712 2.50716 7.61854 2.60561 7.66261C2.72344 7.72029 2.84383 7.7747 2.96472 7.83238C3.08562 7.88679 3.20957 7.94447 3.33659 8.00214C4.05839 8.32426 4.87558 8.67031 5.77848 9.01637C6.68749 9.35861 7.68271 9.70467 8.76719 10.0306C10.3123 10.4953 12.0354 10.9159 13.9269 11.2412L13.9555 11.2445C14.0952 11.2581 14.235 11.2782 14.3717 11.2989C14.5023 11.3191 14.6263 11.3365 14.7466 11.3495L14.788 11.3528C14.8803 11.3528 14.9757 11.3593 15.0741 11.3631C15.1853 11.3735 15.2996 11.3767 15.4077 11.3767H15.4843C15.5541 11.6515 15.6148 11.9633 15.6562 12.3093C15.6878 12.6282 15.7036 12.9704 15.6878 13.3366L15.6903 13.3361Z" fill="#8AE2C7"/>
<path d="M16.1109 14.9129H16.1099C15.9543 14.9156 15.7957 14.914 15.6329 14.9091V14.908L15.5733 14.9069L15.4289 14.9058H15.3702C15.1713 14.9058 14.9484 14.8797 14.7505 14.8797C14.502 14.8536 14.2291 14.8008 13.9562 14.7747C10.7589 14.2273 8.0543 13.3975 5.87972 12.5688C5.86697 13.0689 5.8634 13.5863 5.87156 14.1185C5.88788 15.1659 5.9241 14.8645 6.01082 15.7731C6.01082 16.567 6.32606 17.2841 6.9035 17.7814C7.3978 18.2064 7.99207 18.4512 8.56492 18.726C9.20357 19.0307 9.85242 19.312 10.511 19.5683C11.8138 20.0732 13.1497 20.477 14.5076 20.7708C15.0677 20.8883 15.635 20.9906 16.2032 20.9819C16.2032 20.9819 16.7399 17.3739 16.1109 14.9129Z" fill="#C9C9C9"/>
<path d="M16.1138 14.913C16.7428 17.374 16.2061 20.982 16.2061 20.982C16.9279 20.9706 17.637 20.7845 18.3353 20.5908C20.3094 20.0407 22.2606 19.4095 24.1153 18.49C24.2291 18.4339 24.3413 18.3763 24.454 18.3148C24.9065 18.0672 25.3339 17.7701 25.6466 17.3501C26.2583 16.5317 26.2853 15.4865 26.3531 14.494C26.3567 14.4401 26.3603 14.3901 26.3639 14.3427C26.3664 14.3101 26.3684 14.278 26.372 14.2475C26.373 14.2225 26.3756 14.1975 26.3776 14.1735C26.3858 14.0799 26.3929 13.9961 26.4011 13.92C26.4047 13.8862 26.4082 13.8552 26.4118 13.8237C26.4189 13.7551 26.4261 13.6936 26.4327 13.6349C26.4337 13.6147 26.4363 13.5962 26.4383 13.5772C26.4439 13.5222 26.4501 13.4694 26.4547 13.4172C26.4557 13.3987 26.4572 13.3808 26.4592 13.3623C26.4628 13.3209 26.4649 13.2785 26.4674 13.2349C26.4674 13.2186 26.4684 13.2039 26.47 13.1876C26.4725 13.1114 26.4735 13.0287 26.471 12.934C26.471 12.9063 26.471 12.878 26.47 12.8464C26.4689 12.8165 26.4674 12.785 26.4664 12.7512C26.4664 12.7186 26.4654 12.6848 26.4628 12.6489C23.3226 13.6849 20.1426 14.3525 18.1144 14.7084C17.4268 14.8373 16.7938 14.9059 16.1133 14.9119L16.1138 14.913Z" fill="#EFEFEF"/>
<path d="M0.955703 9.97422L0.599649 9.79575C0.442537 9.71576 0.316031 9.59824 0.227272 9.45459C0.184934 9.72719 0.299707 10.0243 0.585877 10.1696C1.17505 10.4645 1.9851 10.8834 3.00633 11.3568C2.99817 11.2431 2.98745 11.1109 2.97827 10.9618C2.16516 10.5842 1.48927 10.243 0.955703 9.97422Z" fill="#EFEFEF"/>
<path d="M15.496 14.5583C15.3919 14.5583 15.2817 14.5524 15.1716 14.5447C15.0706 14.5387 14.9701 14.5322 14.8762 14.5322L14.8502 14.5311C14.7329 14.5186 14.6099 14.5001 14.4834 14.4811C14.3442 14.4599 14.2008 14.4386 14.058 14.425L14.0407 14.4223C10.8173 13.8711 8.08722 13.0316 5.89376 12.1953C5.40049 12.0065 4.93427 11.8193 4.49609 11.6343C4.49864 11.7056 4.5017 11.773 4.50681 11.8356C4.5114 11.9003 4.51599 11.9629 4.52211 12.0255C4.94958 12.204 5.40202 12.3868 5.88101 12.5691C8.05559 13.3977 10.7597 14.2275 13.9575 14.7749C14.2304 14.801 14.5033 14.8538 14.7517 14.8799C14.9497 14.8799 15.1726 14.906 15.3715 14.906H15.4302C15.4618 14.7983 15.4924 14.6824 15.5205 14.5583H15.496Z" fill="#EFEFEF"/>
<path d="M15.6156 14.072C15.5957 14.072 15.5748 14.072 15.5549 14.0709H15.4309C15.232 14.0709 15.009 14.0448 14.8101 14.0448C14.5627 14.017 14.2898 13.9648 14.0169 13.9387C10.8078 13.3886 8.0966 12.555 5.9159 11.7242C5.41345 11.5315 4.94006 11.3406 4.49474 11.1528C4.49372 11.2154 4.49219 11.2753 4.49219 11.334C4.49219 11.4401 4.49474 11.5413 4.4978 11.6338C4.93598 11.8188 5.40223 12.006 5.8955 12.1948C8.08895 13.0311 10.819 13.8707 14.0424 14.4219L14.0597 14.4246C14.2026 14.4382 14.3454 14.4594 14.4852 14.4806C14.6117 14.4991 14.7346 14.5182 14.8519 14.5307L14.8779 14.5318C14.9718 14.5318 15.0723 14.5378 15.1733 14.5443C15.2835 14.5519 15.3937 14.5579 15.4977 14.5579H15.5222C15.5431 14.4692 15.563 14.3778 15.5819 14.2815C15.5936 14.214 15.6054 14.1438 15.6161 14.0715L15.6156 14.072Z" fill="#919191"/>
<path d="M15.9295 12.9189C15.9356 13.2209 15.9198 13.4989 15.8912 13.753C15.8815 13.8444 15.8688 13.9293 15.856 14.0109C15.853 14.0311 15.8499 14.055 15.8433 14.0751C15.8433 14.0855 15.8402 14.092 15.8402 14.0991C15.8275 14.1633 15.8147 14.228 15.802 14.2857C15.7831 14.3842 15.7607 14.4756 15.7382 14.5605C15.703 14.6894 15.6683 14.8048 15.6367 14.9098L15.5765 14.9066H15.4301C15.4617 14.7983 15.4939 14.6829 15.5224 14.5572C15.5413 14.4691 15.5638 14.3777 15.5826 14.2825C15.5923 14.2144 15.6051 14.1432 15.6143 14.0724C15.6204 14.0485 15.6239 14.0284 15.627 14.0044C15.6556 13.7976 15.6811 13.5735 15.6908 13.3362C15.7066 12.9701 15.6908 12.6273 15.6591 12.309C15.6178 11.9629 15.5576 11.6511 15.4872 11.3763C15.449 11.2202 15.4077 11.0782 15.3633 10.9492C15.4235 10.9492 15.4811 10.9525 15.5413 10.9525C15.5893 11.0814 15.6367 11.224 15.6841 11.3834C15.7668 11.6685 15.8433 11.9939 15.8877 12.3634C15.9101 12.5397 15.9229 12.7263 15.929 12.9194L15.9295 12.9189Z" fill="#7F7F7F"/>
<path d="M32.7123 7.70565C32.7123 8.15672 32.6664 8.58439 32.5868 8.95929C32.521 9.26943 32.4322 9.54421 32.3256 9.76893C32.2868 9.85163 32.246 9.92618 32.2037 9.99528C32.144 10.0927 32.0762 10.1727 32.0058 10.2325V10.2363C31.9884 10.2586 31.967 10.2777 31.9237 10.2962C31.8956 10.3147 31.8675 10.3337 31.8359 10.3484C31.7375 10.4208 31.5992 10.5035 31.536 10.5258C30.0021 11.3583 28.2387 12.0629 26.4614 12.6489C26.4614 12.6451 26.4614 12.6402 26.4604 12.6353C23.3182 13.6675 20.13 14.3302 18.1003 14.6937C17.4545 14.815 16.7796 14.8901 16.1099 14.9059C15.9517 14.9108 15.7946 14.9108 15.6375 14.907H15.6339C15.6681 14.8047 15.7033 14.6882 15.737 14.5593C15.7594 14.4733 15.7814 14.3819 15.8013 14.2845C15.814 14.2258 15.8273 14.1632 15.8375 14.0995C15.84 14.0908 15.841 14.0832 15.8421 14.0745C15.8467 14.0533 15.8502 14.031 15.8538 14.0081C15.8666 13.927 15.8783 13.8422 15.889 13.7529C15.9196 13.4977 15.9349 13.2181 15.9278 12.9166C15.9222 12.7229 15.9079 12.5379 15.887 12.3616C15.8426 11.9927 15.7661 11.6641 15.6819 11.3795C15.636 11.2233 15.587 11.0797 15.5391 10.9507C15.5391 10.9507 15.5508 10.948 15.5743 10.9448C15.6033 10.9399 15.6492 10.9312 15.7125 10.9197C15.7451 10.9148 15.7819 10.9072 15.8227 10.8996C16.4532 10.7859 18.0804 10.4823 20.1239 10.0285C22.553 9.49089 25.5698 8.7411 28.1978 7.84984C28.3876 7.78618 28.5753 7.72089 28.7605 7.65505C28.9033 7.60499 29.0441 7.55385 29.1823 7.5027C29.2747 7.46896 29.3665 7.43523 29.4578 7.40041C29.5047 7.38299 29.5517 7.36558 29.5986 7.34817C30.4693 7.01463 31.2682 6.66477 31.9527 6.30075C32.1333 6.20445 32.3052 6.10814 32.4695 6.01074C32.4965 6.09345 32.522 6.17942 32.5445 6.27083C32.6511 6.68599 32.7133 7.17841 32.7133 7.70456L32.7123 7.70565Z" fill="#C9C9C9"/>
<path d="M0.26102 5.65506C0.264081 5.68553 0.270712 5.716 0.276834 5.74647V5.88196C0.251328 5.81775 0.232454 5.74974 0.225823 5.68172C0.222762 5.66159 0.222762 5.64418 0.222762 5.62405C0.219702 5.44068 0.282955 5.25786 0.413542 5.12891C0.292647 5.27473 0.238575 5.46789 0.26102 5.65452V5.65506Z" fill="#7453C6"/>
<path d="M2.87174 7.28636C2.85287 7.29289 2.83348 7.2967 2.81461 7.30323C1.93417 6.89297 1.22206 6.52678 0.675226 6.25201C0.64666 6.2384 0.615034 6.22154 0.585958 6.20793C0.439557 6.13339 0.334986 6.01804 0.277344 5.88255V5.74707C0.321723 5.92336 0.436497 6.08605 0.623705 6.18127C0.639519 6.1878 0.655332 6.19814 0.671655 6.20521C1.22155 6.47999 1.9561 6.85978 2.87174 7.28691V7.28636Z" fill="#7453C6"/>
<path d="M2.94036 7.3166C2.92149 7.32313 2.9021 7.33021 2.88323 7.33674C2.86079 7.3264 2.83885 7.31279 2.81641 7.303C2.83528 7.29647 2.85466 7.29266 2.87354 7.28613C2.89598 7.29647 2.91792 7.30627 2.94036 7.3166Z" fill="#7453C6"/>
<path d="M3.98557 7.78857C3.96312 7.7951 3.94731 7.80217 3.92537 7.8087C3.79479 7.75103 3.67083 7.69335 3.54688 7.63894C3.56269 7.63241 3.58207 7.62533 3.60095 7.62207C3.7249 7.67648 3.85192 7.73035 3.98557 7.78802V7.78857Z" fill="#7453C6"/>
<path d="M10.475 10.0298H10.348C7.76333 9.3616 5.61425 8.54435 3.92578 7.80871C3.94823 7.80218 3.96404 7.7951 3.98597 7.78857C5.69026 8.53455 7.86484 9.35507 10.475 10.0303V10.0298Z" fill="#7453C6"/>
<path d="M15.3645 10.9488C14.9003 10.9352 14.4392 10.8879 13.9816 10.8096C12.6875 10.5892 11.4735 10.3247 10.3477 10.0293H10.4747C11.5714 10.3144 12.7477 10.5718 13.9975 10.7856C14.2709 10.8128 14.5443 10.8634 14.7922 10.8906C14.9733 10.8906 15.1738 10.9108 15.3549 10.9146C15.3579 10.9249 15.361 10.9347 15.3645 10.9483V10.9488Z" fill="#7453C6"/>
<path d="M3.23581 7.45613C3.21693 7.4594 3.19755 7.46647 3.18173 7.473H3.17867C3.07716 7.42566 2.98177 7.38159 2.88281 7.33751C2.90169 7.33099 2.92107 7.32391 2.93994 7.31738C3.03533 7.36146 3.13378 7.40879 3.23581 7.45668V7.45613Z" fill="#7453C6"/>
<path d="M3.5995 7.62201C3.58063 7.62527 3.56125 7.63235 3.54543 7.63888C3.41842 7.58447 3.29752 7.52679 3.17969 7.47292C3.1955 7.46639 3.21488 7.45932 3.23376 7.45605C3.35159 7.50666 3.47555 7.56433 3.5995 7.62201Z" fill="#7453C6"/>
<path d="M16.1098 14.9132C15.9542 14.9159 15.7955 14.9143 15.6328 14.9094V14.9083H15.6364C15.7935 14.9121 15.9506 14.9121 16.1087 14.9072C16.1098 14.9099 16.1098 14.9121 16.1098 14.9132Z" fill="#7453C6"/>
<path d="M26.4609 12.6503C23.3207 13.6863 20.1407 14.3539 18.1126 14.7098C17.4249 14.8387 16.7919 14.9073 16.1114 14.9133H16.1104C16.1104 14.9133 16.1104 14.9095 16.1094 14.9073C16.7797 14.891 17.4545 14.8159 18.0998 14.6951C20.129 14.3316 23.3172 13.6689 26.4599 12.6367C26.4609 12.6416 26.4609 12.6465 26.4609 12.6503Z" fill="#7453C6"/>
<path d="M4.86124 9.91556H4.86226V9.91447C4.622 9.80184 4.38174 9.69846 4.14301 9.58963H4.14199L4.13281 9.58691C4.37511 9.69574 4.61792 9.80293 4.86175 9.91556H4.86124Z" fill="#D0021B"/>
<path d="M4.12995 9.5866H4.1325L4.14168 9.58932C4.13097 9.58442 4.11923 9.57953 4.10903 9.57408C3.81623 9.44295 3.52445 9.32434 3.23828 9.20898V9.21007C3.53261 9.3276 3.81827 9.45111 4.10903 9.57626C4.11617 9.58007 4.12331 9.58225 4.12995 9.58605V9.5866Z" fill="#D0021B"/>
<path d="M4.49668 11.6335C4.4931 11.541 4.49106 11.4398 4.49106 11.3337C4.49106 11.2749 4.49208 11.2151 4.49361 11.1525C4.49463 11.116 4.49617 11.0785 4.49719 11.0398C4.50892 10.7596 4.58951 10.0936 4.58951 10.0936L4.59513 10.0887L2.93014 9.34766V9.34874C2.93014 9.42002 2.92912 9.52395 2.93014 9.65127C2.93269 9.89993 2.9383 10.1312 2.94646 10.3434C2.94748 10.3847 2.95004 10.4261 2.95106 10.4658C2.95361 10.5295 2.95667 10.591 2.95922 10.6508C2.96483 10.7618 2.97095 10.8646 2.97809 10.961C2.98727 11.1095 2.99798 11.2423 3.00615 11.356C3.0189 11.5007 3.02859 11.6172 3.03522 11.6999C3.07603 12.2271 3.08572 13.0008 2.93116 14.033C3.01533 13.8768 3.15357 13.6641 3.37189 13.4644C3.51013 13.3382 3.64582 13.2484 3.75855 13.1842C3.86976 13.2865 3.99626 13.4269 4.11461 13.6119C4.35946 13.9966 4.43699 14.3807 4.46505 14.6081C4.5028 14.4558 4.55177 14.2245 4.58696 13.9394C4.68082 13.1608 4.57523 12.651 4.52269 12.0247C4.51708 11.9621 4.51198 11.8995 4.50739 11.8348C4.5028 11.7722 4.49923 11.7048 4.49668 11.6335Z" fill="#EF4438"/>
<path d="M4.85942 9.91415C4.82422 9.96476 4.78953 9.99196 4.76403 10.0056C4.72577 10.0224 4.69414 10.0257 4.63701 10.06C4.61814 10.0703 4.59569 10.0872 4.59569 10.0872L2.92969 9.34773H2.93938C2.96488 9.34447 2.99651 9.3374 3.03171 9.3276C3.06334 9.31726 3.09547 9.30366 3.1271 9.28679C3.17505 9.25959 3.20974 9.23619 3.2383 9.20898C3.53059 9.3276 3.81676 9.45003 4.10956 9.57517C4.11568 9.57844 4.12231 9.5817 4.12844 9.58551H4.1315C4.37329 9.69379 4.61814 9.80261 4.85942 9.9147V9.91415Z" fill="#D0021B"/>
<path d="M4.58842 10.0938C4.58842 10.0938 4.50783 10.7598 4.49609 11.04C4.50783 10.7598 4.59454 10.0889 4.59454 10.0889L4.58893 10.0938H4.58842Z" fill="#EF4438"/>
<path d="M32.1886 5.39438V5.39112C32.1315 5.3095 32.0744 5.24203 32.0137 5.18436C31.9341 5.09295 31.8259 5.02493 31.6959 4.98412C31.3653 4.88945 30.9868 4.77029 30.5736 4.64188C27.9573 3.83496 23.9259 2.49209 20.5113 1.44413C19.9359 1.2711 19.3794 1.10188 18.8483 0.948981C16.8931 0.365693 14.8425 0.379295 12.8939 0.98979C12.0639 1.25097 11.1009 1.55948 10.0771 1.88159C7.66428 2.65151 4.91379 3.53297 2.80297 4.23869C1.96691 4.51999 1.22929 4.77137 0.650833 4.97814C0.555444 5.01187 0.475867 5.06628 0.415675 5.13049C0.275906 5.30025 0.224895 5.53422 0.278966 5.74751C0.323346 5.9238 0.438119 6.08649 0.625328 6.18171C1.18185 6.45976 1.93222 6.84662 2.87285 7.28735C2.8953 7.29769 2.91723 7.30748 2.93968 7.31782C3.03507 7.36189 3.13352 7.40923 3.23554 7.45711C3.35337 7.50772 3.47733 7.56539 3.60128 7.62307C3.72524 7.67748 3.85226 7.73135 3.9859 7.78902C5.69018 8.535 7.86476 9.35552 10.475 10.0308C11.5717 10.3159 12.748 10.5732 13.9978 10.7871C14.2712 10.8143 14.5446 10.8649 14.7925 10.8921C14.9736 10.8921 15.1741 10.9122 15.3551 10.916C15.3582 10.9264 15.3613 10.9362 15.3648 10.9498C15.425 10.9498 15.4827 10.953 15.5429 10.953C15.5429 10.953 15.5526 10.9498 15.5781 10.9465C15.6066 10.9432 15.651 10.9329 15.7148 10.9226C15.75 10.916 15.7847 10.909 15.826 10.9024C16.4554 10.7871 18.0832 10.4851 20.1277 10.0308C22.5568 9.49482 25.5736 8.74557 28.1996 7.85377C28.3904 7.78957 28.5781 7.72482 28.7622 7.65735C28.9051 7.61001 29.0454 7.5556 29.1851 7.505C29.2775 7.47126 29.3693 7.43698 29.4616 7.40325C29.506 7.38638 29.5539 7.36951 29.6014 7.35264C30.4726 7.01693 31.2704 6.66761 31.954 6.30468C32.1351 6.2062 32.307 6.11152 32.4722 6.01304C32.3927 5.76873 32.2973 5.56197 32.1891 5.39602L32.1886 5.39438Z" fill="#EFEFEF"/>
<path d="M3.45281 28.4888C3.45281 28.7195 3.44261 28.917 3.42221 29.0819C3.4018 29.2468 3.3564 29.3839 3.28652 29.4932C3.21663 29.6021 3.11257 29.6815 2.97535 29.7316C2.83813 29.7816 2.64991 29.8094 2.41016 29.8159V30.9558C2.84834 30.9493 3.20847 30.903 3.49209 30.8154C3.7752 30.7284 3.99709 30.5864 4.15778 30.3905C4.31846 30.1941 4.43068 29.9405 4.49496 29.6287C4.55923 29.317 4.59137 28.9372 4.59137 28.4888V25.7046H3.45281V28.4888Z" fill="white"/>
<path d="M7.74668 23.1816L5.64453 23.4994V23.9483L7.74668 23.6398V23.1816Z" fill="white"/>
<path d="M26.6071 23.9942C26.8 23.9942 26.9662 23.9229 27.1065 23.7793C27.2468 23.6362 27.3167 23.4588 27.3167 23.2466C27.3167 23.0344 27.2468 22.8636 27.1065 22.7139C26.9662 22.5643 26.8 22.4897 26.6071 22.4897C26.4143 22.4897 26.2495 22.5643 26.1123 22.7139C25.9751 22.8636 25.9062 23.0409 25.9062 23.2466C25.9062 23.4523 25.9751 23.6362 26.1123 23.7793C26.2495 23.9224 26.4143 23.9942 26.6071 23.9942ZM26.3577 22.9664C26.4306 22.8918 26.5168 22.8543 26.6163 22.8543C26.7158 22.8543 26.8015 22.8918 26.8749 22.9664C26.9479 23.0409 26.9846 23.1313 26.9846 23.2374C26.9846 23.3435 26.9479 23.4354 26.8749 23.5132C26.802 23.591 26.7158 23.6302 26.6163 23.6302C26.5168 23.6302 26.4311 23.5916 26.3577 23.5132C26.2847 23.4354 26.248 23.3435 26.248 23.2374C26.248 23.1313 26.2847 23.0409 26.3577 22.9664Z" fill="white"/>
<path d="M26.7708 29.8994C26.6014 29.8994 26.4555 29.9647 26.3326 30.0958C26.2102 30.2264 26.1484 30.382 26.1484 30.5632C26.1484 30.7444 26.2097 30.8995 26.3326 31.0306C26.455 31.1612 26.6009 31.2271 26.7708 31.2271C26.9406 31.2271 27.086 31.1618 27.2089 31.0306C27.3314 30.9 27.3931 30.7439 27.3931 30.5632C27.3931 30.3826 27.3319 30.227 27.2089 30.0958C27.0865 29.9653 26.9401 29.8994 26.7708 29.8994Z" fill="white"/>
<path d="M28.4888 26.0131C28.296 25.7329 28.0435 25.5087 27.7313 25.3406C27.4186 25.1725 27.035 25.0881 26.5795 25.0881C26.3341 25.0881 26.0964 25.1164 25.8653 25.1725C25.6348 25.2285 25.4522 25.2813 25.318 25.3314V26.4152C25.5226 26.3532 25.7251 26.308 25.9266 26.2797C26.1281 26.2514 26.2755 26.2378 26.3688 26.2378C26.6489 26.2378 26.8825 26.2797 27.0697 26.3641C27.2564 26.4484 27.4099 26.5649 27.5298 26.7145C27.6492 26.8641 27.7385 27.0431 27.7971 27.2515C27.8553 27.4605 27.8935 27.689 27.9109 27.9382H9.21805C9.15378 27.9382 9.09257 27.9213 9.03391 27.887C8.97524 27.8528 8.9125 27.7951 8.84568 27.714C8.77834 27.6329 8.70387 27.5241 8.62225 27.387C8.54063 27.2499 8.44422 27.0818 8.33302 26.8826L7.28169 24.9858L6.23955 25.6959L7.03684 26.9572C7.18885 27.1879 7.29241 27.3527 7.34801 27.4523C7.40361 27.5519 7.43115 27.6362 7.43115 27.7048C7.43115 27.7673 7.39749 27.8218 7.33066 27.868C7.26333 27.9148 7.15978 27.9382 7.0195 27.9382H5.28516V29.0128H6.80934C7.03684 29.0128 7.24854 28.9862 7.44442 28.9334C7.63979 28.8806 7.82241 28.7511 7.99176 28.5454C8.07338 28.6265 8.15244 28.6967 8.22845 28.7555C8.30446 28.8148 8.38607 28.8626 8.47381 28.9002C8.56155 28.9377 8.6651 28.9655 8.78497 28.9845C8.90485 29.003 9.04921 29.0128 9.21856 29.0128H29.0326V28.1439C29.0326 27.7456 28.9903 27.3609 28.9056 26.9898C28.8209 26.6193 28.6821 26.2939 28.4893 26.0137L28.4888 26.0131Z" fill="white"/>
<path d="M29.4688 18.9208V19.3691L31.5709 19.0612V18.603L29.4688 18.9208Z" fill="white"/>
<path d="M31.1346 22.3408H29.9961V29.0122H31.1346V22.3408Z" fill="white"/>
<path d="M30.6474 21.0374C30.5984 20.9781 30.5739 20.9052 30.5739 20.8176C30.5739 20.7365 30.5989 20.6679 30.6484 20.6119C30.6979 20.5559 30.7785 20.5276 30.8891 20.5276C30.9534 20.5276 31.0616 20.5461 31.2131 20.5836V19.9671C31.1544 19.9421 31.0876 19.9203 31.0116 19.9018C30.9356 19.8833 30.8509 19.8735 30.7575 19.8735C30.6581 19.8735 30.5606 19.892 30.4642 19.9296C30.3678 19.9671 30.2816 20.0215 30.2056 20.0928C30.1296 20.1646 30.0699 20.255 30.0261 20.3638C29.9822 20.4726 29.9602 20.5988 29.9602 20.7419C29.9602 20.792 29.9659 20.8573 29.9776 20.9384C29.9893 21.0194 30.0097 21.0815 30.0388 21.125H29.6797V21.779H31.3875V21.125H30.9284C30.7897 21.125 30.6958 21.0956 30.6468 21.0363L30.6474 21.0374Z" fill="white"/>
<path opacity="0.6" d="M32.4706 6.00832C32.3053 6.1068 32.1334 6.20148 31.9523 6.29996C31.2688 6.66288 30.471 7.0122 29.5997 7.34792C29.5518 7.36479 29.5043 7.38166 29.4599 7.39852C29.3676 7.43226 29.2758 7.46654 29.1835 7.50027C29.0437 7.55087 28.9039 7.60529 28.7606 7.65262C28.5764 7.72064 28.3887 7.78484 28.1979 7.84905C25.5719 8.74085 22.5546 9.49064 20.126 10.026C18.082 10.4804 16.4538 10.7824 15.8243 10.8977C15.783 10.9042 15.7478 10.9113 15.7131 10.9178C15.6493 10.9282 15.605 10.938 15.5764 10.9418C15.5509 10.945 15.5412 10.9483 15.5412 10.9483C15.481 10.9483 15.4234 10.945 15.3632 10.945C15.3601 10.9314 15.3571 10.9211 15.3535 10.9113C15.3474 10.8874 15.3377 10.8672 15.331 10.8471C15.153 10.7519 14.8735 10.5995 14.5424 10.3928C14.3705 10.2845 14.1864 10.1621 13.9956 10.0266C13.6457 9.77575 13.2738 9.48084 12.9335 9.14839C11.9067 8.1445 11.1339 6.7951 11.8781 5.2656C11.9353 5.14698 12.0052 5.02455 12.0817 4.90267C12.1582 4.78406 12.2469 4.65837 12.3454 4.53649C12.4311 4.43147 12.5204 4.32265 12.6188 4.21764C12.6443 4.19043 12.6698 4.16703 12.6918 4.13983C12.9239 3.90259 13.1973 3.65829 13.512 3.41398C15.0668 2.21367 17.0919 1.65378 19.241 1.49109C19.6608 1.46062 20.0837 1.44375 20.5096 1.43994C23.9243 2.4879 27.9556 3.83077 30.572 4.63769C30.9852 4.76665 31.3637 4.88526 31.6942 4.97994C31.8248 5.02075 31.9324 5.08822 32.012 5.18017C32.0722 5.23785 32.1298 5.30586 32.187 5.38693V5.3902C32.2951 5.55615 32.3905 5.76346 32.4701 6.00723L32.4706 6.00832Z" fill="#C9C9C9"/>
</g>
</svg>
